G04*
G04 #@! TF.GenerationSoftware,Altium Limited,Altium Designer,23.0.1 (38)*
G04*
G04 Layer_Physical_Order=4*
G04 Layer_Color=16040612*
%FSLAX25Y25*%
%MOIN*%
G70*
G04*
G04 #@! TF.SameCoordinates,E6578E61-D9FC-44F6-81D0-07C95BE9B69E*
G04*
G04*
G04 #@! TF.FilePolarity,Positive*
G04*
G01*
G75*
%ADD15C,0.00500*%
%ADD16C,0.00700*%
%ADD18C,0.00800*%
%ADD22C,0.01200*%
%ADD45R,0.00984X0.01378*%
%ADD46R,0.01968X0.02559*%
%ADD82C,0.03937*%
%ADD83C,0.01000*%
%ADD85C,0.00500*%
%ADD86C,0.03400*%
%ADD87C,0.05000*%
%ADD88C,0.17000*%
%ADD89C,0.01800*%
%ADD91R,0.01378X0.00984*%
G36*
X136784Y143968D02*
X138499Y143448D01*
X140080Y142603D01*
X141466Y141466D01*
X142603Y140080D01*
X143448Y138499D01*
X143968Y136784D01*
X144144Y135000D01*
X143968Y133216D01*
X143448Y131501D01*
X142603Y129920D01*
X141466Y128534D01*
X140080Y127397D01*
X138499Y126552D01*
X136784Y126032D01*
X135497Y125905D01*
X135000Y125898D01*
Y125898D01*
X134044Y125708D01*
X133234Y125166D01*
X132692Y124356D01*
X132502Y123400D01*
X132533D01*
Y120287D01*
X132071Y120096D01*
X132026Y120141D01*
X131274Y120575D01*
X130434Y120800D01*
X129566D01*
X128726Y120575D01*
X127974Y120141D01*
X127359Y119526D01*
X126925Y118774D01*
X126700Y117934D01*
Y117066D01*
X126925Y116226D01*
X127359Y115474D01*
X127974Y114859D01*
X128726Y114425D01*
X129097Y114325D01*
X129032Y113826D01*
X123049D01*
X117144Y119731D01*
X116714Y120018D01*
X116207Y120119D01*
X114493D01*
X114286Y120619D01*
X118257Y124590D01*
X118257Y124590D01*
X118489Y124937D01*
X118571Y125347D01*
Y126871D01*
X118774Y126925D01*
X119526Y127359D01*
X120141Y127974D01*
X120575Y128726D01*
X120800Y129566D01*
Y130434D01*
X120575Y131274D01*
X120141Y132026D01*
X120096Y132071D01*
X120287Y132533D01*
X123400D01*
Y132502D01*
X124356Y132692D01*
X125166Y133234D01*
X125708Y134044D01*
X125898Y135000D01*
X125898D01*
X125905Y135497D01*
X126032Y136784D01*
X126552Y138499D01*
X127397Y140080D01*
X128534Y141466D01*
X129920Y142603D01*
X131501Y143448D01*
X133216Y143968D01*
X135000Y144144D01*
X136784Y143968D01*
D02*
G37*
G36*
X96173Y121315D02*
X88404Y113546D01*
X75411D01*
X70890Y118068D01*
X71097Y118568D01*
X71487D01*
X72112Y118827D01*
X72590Y119305D01*
X72849Y119930D01*
Y120606D01*
X72590Y121231D01*
X72544Y121277D01*
X72751Y121777D01*
X85091D01*
X85190Y121277D01*
X84704Y121076D01*
X84226Y120598D01*
X83967Y119973D01*
Y119297D01*
X84182Y118778D01*
X83928Y118164D01*
Y117488D01*
X84187Y116863D01*
X84206Y116844D01*
X83998Y116341D01*
Y115665D01*
X84257Y115040D01*
X84735Y114561D01*
X85360Y114303D01*
X86036D01*
X86661Y114561D01*
X87139Y115040D01*
X87398Y115665D01*
Y116341D01*
X87139Y116966D01*
X87120Y116985D01*
X87328Y117488D01*
Y118164D01*
X87113Y118684D01*
X87367Y119297D01*
Y119973D01*
X87108Y120598D01*
X86630Y121076D01*
X86145Y121277D01*
X86244Y121777D01*
X95982D01*
X96173Y121315D01*
D02*
G37*
G36*
X11784Y143968D02*
X13499Y143448D01*
X15080Y142603D01*
X16466Y141466D01*
X17603Y140080D01*
X18448Y138499D01*
X18968Y136784D01*
X19095Y135497D01*
X19102Y135000D01*
X19102D01*
X19292Y134044D01*
X19834Y133234D01*
X20644Y132692D01*
X21600Y132502D01*
Y132533D01*
X24713D01*
X24904Y132071D01*
X24859Y132026D01*
X24425Y131274D01*
X24200Y130434D01*
Y129566D01*
X24425Y128726D01*
X24859Y127974D01*
X25474Y127359D01*
X26226Y126925D01*
X26631Y126816D01*
X26717Y126630D01*
X26752Y126266D01*
X22926Y122440D01*
X22694Y122093D01*
X22613Y121683D01*
Y88409D01*
X22694Y88000D01*
X22926Y87652D01*
X29447Y81132D01*
X29447Y81132D01*
X29794Y80900D01*
X30204Y80818D01*
X31762D01*
X32208Y80689D01*
Y79500D01*
X33700D01*
Y79000D01*
X34200D01*
Y77311D01*
X34419D01*
Y76900D01*
X36108D01*
Y75900D01*
X34419D01*
Y74908D01*
X34619D01*
Y73804D01*
X34300D01*
Y72115D01*
X33800D01*
Y71615D01*
X32307D01*
Y71134D01*
X23785D01*
X21709Y73209D01*
X21362Y73441D01*
X20952Y73523D01*
X8142D01*
X8075Y73774D01*
X7641Y74526D01*
X7596Y74571D01*
X7787Y75033D01*
X10000D01*
Y75002D01*
X10956Y75192D01*
X11669Y75669D01*
X12252Y75660D01*
X12359Y75474D01*
X12974Y74859D01*
X13726Y74425D01*
X14566Y74200D01*
X15435D01*
X16274Y74425D01*
X17026Y74859D01*
X17641Y75474D01*
X18075Y76226D01*
X18300Y77065D01*
Y77934D01*
X18075Y78774D01*
X17641Y79526D01*
X17026Y80141D01*
X16274Y80575D01*
X15435Y80800D01*
X14566D01*
X13726Y80575D01*
X12974Y80141D01*
X12359Y79526D01*
X12252Y79340D01*
X11669Y79331D01*
X10956Y79808D01*
X10000Y79998D01*
Y79967D01*
X7787D01*
X7596Y80429D01*
X7641Y80474D01*
X8075Y81226D01*
X8300Y82065D01*
Y82934D01*
X8075Y83774D01*
X7641Y84526D01*
X7596Y84571D01*
X7787Y85033D01*
X10000D01*
Y85002D01*
X10956Y85192D01*
X11669Y85669D01*
X12252Y85659D01*
X12359Y85474D01*
X12974Y84859D01*
X13726Y84425D01*
X14566Y84200D01*
X15435D01*
X16274Y84425D01*
X16456Y84530D01*
X27743Y73243D01*
X28090Y73011D01*
X28500Y72929D01*
X29343D01*
X29459Y72813D01*
X29974Y72600D01*
X30531D01*
X31045Y72813D01*
X31439Y73207D01*
X31652Y73721D01*
Y74278D01*
X31439Y74793D01*
X31045Y75187D01*
X30531Y75400D01*
X29974D01*
X29459Y75187D01*
X29343Y75071D01*
X28943D01*
X17970Y86044D01*
X18075Y86226D01*
X18300Y87066D01*
Y87934D01*
X18075Y88774D01*
X17641Y89526D01*
X17026Y90141D01*
X16274Y90575D01*
X15435Y90800D01*
X14566D01*
X13726Y90575D01*
X12974Y90141D01*
X12359Y89526D01*
X12252Y89341D01*
X11669Y89331D01*
X10956Y89808D01*
X10000Y89998D01*
Y89967D01*
X7787D01*
X7596Y90429D01*
X7641Y90474D01*
X8075Y91226D01*
X8300Y92066D01*
Y92935D01*
X8075Y93774D01*
X7641Y94526D01*
X7596Y94571D01*
X7787Y95033D01*
X10000D01*
Y95002D01*
X10956Y95192D01*
X11669Y95669D01*
X12252Y95660D01*
X12359Y95474D01*
X12974Y94859D01*
X13726Y94425D01*
X14566Y94200D01*
X15435D01*
X16274Y94425D01*
X17026Y94859D01*
X17641Y95474D01*
X18075Y96226D01*
X18300Y97066D01*
Y97935D01*
X18075Y98774D01*
X17641Y99526D01*
X17026Y100141D01*
X16274Y100575D01*
X15435Y100800D01*
X14566D01*
X13726Y100575D01*
X12974Y100141D01*
X12359Y99526D01*
X12252Y99340D01*
X11669Y99331D01*
X10956Y99808D01*
X10000Y99998D01*
Y99967D01*
X7787D01*
X7596Y100429D01*
X7641Y100474D01*
X8075Y101226D01*
X8300Y102066D01*
Y102934D01*
X8075Y103774D01*
X7641Y104526D01*
X7596Y104571D01*
X7787Y105033D01*
X10000D01*
Y105002D01*
X10956Y105192D01*
X11669Y105669D01*
X12252Y105659D01*
X12359Y105474D01*
X12974Y104859D01*
X13726Y104425D01*
X14566Y104200D01*
X15435D01*
X16274Y104425D01*
X17026Y104859D01*
X17641Y105474D01*
X18075Y106226D01*
X18300Y107066D01*
Y107934D01*
X18075Y108774D01*
X17641Y109526D01*
X17026Y110141D01*
X16274Y110575D01*
X15435Y110800D01*
X14566D01*
X13726Y110575D01*
X12974Y110141D01*
X12359Y109526D01*
X12252Y109341D01*
X11669Y109331D01*
X10956Y109808D01*
X10000Y109998D01*
Y109967D01*
X7787D01*
X7596Y110429D01*
X7641Y110474D01*
X8075Y111226D01*
X8300Y112066D01*
Y112934D01*
X8075Y113774D01*
X7641Y114526D01*
X7596Y114571D01*
X7787Y115033D01*
X10000D01*
Y115002D01*
X10956Y115192D01*
X11669Y115669D01*
X12252Y115659D01*
X12359Y115474D01*
X12974Y114859D01*
X13726Y114425D01*
X14566Y114200D01*
X15435D01*
X16274Y114425D01*
X17026Y114859D01*
X17641Y115474D01*
X18075Y116226D01*
X18300Y117066D01*
Y117934D01*
X18075Y118774D01*
X17641Y119526D01*
X17026Y120141D01*
X16274Y120575D01*
X15435Y120800D01*
X14566D01*
X13726Y120575D01*
X12974Y120141D01*
X12929Y120096D01*
X12467Y120287D01*
Y123400D01*
X12498D01*
X12308Y124356D01*
X11766Y125166D01*
X10956Y125708D01*
X10000Y125898D01*
Y125898D01*
X9503Y125905D01*
X8216Y126032D01*
X6501Y126552D01*
X4920Y127397D01*
X3534Y128534D01*
X2397Y129920D01*
X1552Y131501D01*
X1032Y133216D01*
X856Y135000D01*
X1032Y136784D01*
X1552Y138499D01*
X2397Y140080D01*
X3534Y141466D01*
X4920Y142603D01*
X6501Y143448D01*
X8216Y143968D01*
X10000Y144144D01*
X11784Y143968D01*
D02*
G37*
G36*
X103039Y119529D02*
X102786Y119276D01*
X102527Y118651D01*
Y117975D01*
X102786Y117350D01*
X103156Y116980D01*
Y113554D01*
X103238Y113144D01*
X103470Y112797D01*
X109929Y106337D01*
Y102240D01*
X109429Y101906D01*
X109169Y102014D01*
X108861D01*
X105550Y105325D01*
X105153Y105590D01*
X104685Y105684D01*
X102628D01*
X102411Y105901D01*
X101786Y106160D01*
X101110D01*
X100485Y105901D01*
X100267Y105684D01*
X87162D01*
X86693Y105590D01*
X86296Y105325D01*
X82735Y101763D01*
X82470Y101367D01*
X82376Y100898D01*
Y94810D01*
X82159Y94593D01*
X81900Y93968D01*
Y93292D01*
X82159Y92667D01*
X82637Y92189D01*
X83262Y91930D01*
X83938D01*
X84563Y92189D01*
X85041Y92667D01*
X85300Y93292D01*
Y93968D01*
X85041Y94593D01*
X84824Y94810D01*
Y100392D01*
X87668Y103236D01*
X100267D01*
X100485Y103019D01*
X101110Y102760D01*
X101786D01*
X102411Y103019D01*
X102628Y103236D01*
X104178D01*
X107131Y100283D01*
Y99975D01*
X107390Y99351D01*
X107731Y99009D01*
X107538Y98509D01*
X105049D01*
X105049Y98509D01*
X104639Y98428D01*
X104292Y98196D01*
X104292Y98195D01*
X102260Y96163D01*
X102027Y95816D01*
X101946Y95406D01*
Y89042D01*
X102027Y88632D01*
X102260Y88284D01*
X107804Y82740D01*
X107612Y82278D01*
X106533D01*
X101154Y87657D01*
X100807Y87889D01*
X100397Y87971D01*
X86003D01*
X85334Y88640D01*
Y89164D01*
X85075Y89789D01*
X84597Y90267D01*
X83972Y90526D01*
X83296D01*
X82671Y90267D01*
X82193Y89789D01*
X81934Y89164D01*
Y89160D01*
X81434Y88936D01*
X80930Y89145D01*
X80253D01*
X79628Y88886D01*
X79150Y88408D01*
X78891Y87783D01*
Y87107D01*
X78921Y87035D01*
X78644Y86619D01*
X77738D01*
X65137Y99221D01*
Y99745D01*
X64878Y100369D01*
X64400Y100848D01*
X63775Y101107D01*
X63099D01*
X62474Y100848D01*
X61996Y100369D01*
X61737Y99745D01*
Y99068D01*
X61996Y98444D01*
X62474Y97965D01*
X63099Y97707D01*
X63623D01*
X67489Y93840D01*
X67417Y93686D01*
X67194Y93427D01*
X66838Y93498D01*
X60012D01*
X59805Y93998D01*
X60717Y94910D01*
X61004Y95340D01*
X61105Y95847D01*
Y112231D01*
X61904Y113029D01*
X63335D01*
X63842Y113130D01*
X64272Y113417D01*
X66100Y115246D01*
X66671Y115110D01*
X66821Y114748D01*
X67299Y114270D01*
X67924Y114011D01*
X68600D01*
X69225Y114270D01*
X69703Y114748D01*
X69929Y115294D01*
X70424Y115506D01*
X74211Y111719D01*
X74558Y111486D01*
X74968Y111405D01*
X88848D01*
X89257Y111486D01*
X89605Y111719D01*
X97916Y120029D01*
X102832D01*
X103039Y119529D01*
D02*
G37*
G36*
X57984Y118765D02*
X42609Y103391D01*
X42377Y103044D01*
X42296Y102634D01*
Y98544D01*
X41834Y98353D01*
X34771Y105416D01*
Y107771D01*
X34977Y107873D01*
X35271Y107924D01*
X35687Y107508D01*
X36312Y107249D01*
X36988D01*
X37613Y107508D01*
X37983Y107879D01*
X42338D01*
X42747Y107960D01*
X43095Y108193D01*
X54130Y119228D01*
X57792D01*
X57984Y118765D01*
D02*
G37*
G36*
X121563Y111563D02*
X121993Y111275D01*
X122500Y111174D01*
X129032D01*
X129097Y110675D01*
X128726Y110575D01*
X127974Y110141D01*
X127359Y109526D01*
X126925Y108774D01*
X126700Y107934D01*
Y107066D01*
X126925Y106226D01*
X127359Y105474D01*
X127974Y104859D01*
X128726Y104425D01*
X129566Y104200D01*
X130434D01*
X131274Y104425D01*
X132026Y104859D01*
X132641Y105474D01*
X132748Y105659D01*
X133331Y105669D01*
X134044Y105192D01*
X135000Y105002D01*
Y105033D01*
X143400D01*
Y105014D01*
X143673Y104959D01*
X143905Y104805D01*
X144059Y104573D01*
X144114Y104300D01*
X144133D01*
Y100700D01*
X144114D01*
X144059Y100427D01*
X143905Y100195D01*
X143673Y100041D01*
X143400Y99986D01*
Y99967D01*
X135000D01*
Y99998D01*
X134044Y99808D01*
X133331Y99331D01*
X132748Y99340D01*
X132641Y99526D01*
X132026Y100141D01*
X131274Y100575D01*
X130434Y100800D01*
X129566D01*
X128726Y100575D01*
X127974Y100141D01*
X127359Y99526D01*
X126925Y98774D01*
X126700Y97935D01*
Y97066D01*
X126925Y96226D01*
X127359Y95474D01*
X127974Y94859D01*
X128726Y94425D01*
X129566Y94200D01*
X130434D01*
X131274Y94425D01*
X132026Y94859D01*
X132641Y95474D01*
X132748Y95660D01*
X133331Y95669D01*
X134044Y95192D01*
X135000Y95002D01*
Y95033D01*
X137213D01*
X137405Y94571D01*
X137359Y94526D01*
X136925Y93774D01*
X136700Y92935D01*
Y92066D01*
X136925Y91226D01*
X137359Y90474D01*
X137405Y90429D01*
X137213Y89967D01*
X135000D01*
Y89998D01*
X134044Y89808D01*
X133331Y89331D01*
X132748Y89341D01*
X132641Y89526D01*
X132026Y90141D01*
X131274Y90575D01*
X130434Y90800D01*
X129566D01*
X128726Y90575D01*
X127974Y90141D01*
X127359Y89526D01*
X126925Y88774D01*
X126911Y88723D01*
X114950D01*
X114482Y88630D01*
X114085Y88365D01*
X111722Y86002D01*
X111414D01*
X110789Y85743D01*
X110311Y85265D01*
X110052Y84640D01*
Y84227D01*
X109552Y84020D01*
X104087Y89485D01*
Y94963D01*
X105492Y96368D01*
X109539D01*
X109948Y96450D01*
X110296Y96681D01*
X111757Y98143D01*
X111989Y98490D01*
X112071Y98900D01*
Y104961D01*
X112571Y105264D01*
X112939Y105111D01*
X113616D01*
X113777Y105178D01*
X114277Y104844D01*
Y98407D01*
X110648Y94778D01*
X109913D01*
X109696Y94996D01*
X109071Y95254D01*
X108395D01*
X107770Y94996D01*
X107291Y94517D01*
X107033Y93893D01*
Y93216D01*
X107291Y92592D01*
X107770Y92113D01*
X108395Y91855D01*
X109071D01*
X109696Y92113D01*
X109913Y92331D01*
X111154D01*
X111623Y92424D01*
X112020Y92689D01*
X116365Y97035D01*
X116630Y97432D01*
X116724Y97900D01*
Y113878D01*
X116630Y114346D01*
X116365Y114743D01*
X115367Y115742D01*
Y116050D01*
X115108Y116674D01*
X114814Y116968D01*
X115021Y117468D01*
X115657D01*
X121563Y111563D01*
D02*
G37*
G36*
X64802Y117697D02*
X62785Y115680D01*
X61355D01*
X60848Y115579D01*
X60417Y115292D01*
X58842Y113717D01*
X58555Y113287D01*
X58454Y112779D01*
Y96396D01*
X55951Y93893D01*
X55489Y94085D01*
Y95098D01*
X54300D01*
Y93606D01*
X53300D01*
Y95098D01*
X52111D01*
Y93894D01*
X51646Y93810D01*
Y93810D01*
X50457D01*
Y92318D01*
X49457D01*
Y93810D01*
X48268D01*
X47984Y94193D01*
Y94685D01*
X46500D01*
Y92406D01*
X45500D01*
Y94685D01*
X44437D01*
Y102191D01*
X60443Y118197D01*
X64618D01*
X64802Y117697D01*
D02*
G37*
G36*
X31497Y88673D02*
X32989D01*
Y88173D01*
X33489D01*
Y86484D01*
X34361D01*
X34666Y86075D01*
X34532Y85689D01*
X34041D01*
Y84000D01*
X33541D01*
Y83500D01*
X32049D01*
Y82960D01*
X30647D01*
X24984Y88623D01*
X25019Y88804D01*
X25089Y88874D01*
X25579Y89071D01*
X25998Y88898D01*
X26674D01*
X27299Y89157D01*
X27415Y89272D01*
X31497D01*
Y88673D01*
D02*
G37*
G36*
X32451Y124286D02*
Y123610D01*
X32289Y123369D01*
X31838D01*
X31428Y123287D01*
X31081Y123055D01*
X28730Y120705D01*
X28498Y120358D01*
X28417Y119948D01*
Y102398D01*
X28498Y101989D01*
X28730Y101641D01*
X33367Y97005D01*
X33006Y96644D01*
X32747Y96019D01*
Y95343D01*
X33006Y94718D01*
X33484Y94240D01*
X34109Y93981D01*
X34785D01*
X35410Y94240D01*
X35888Y94718D01*
X36147Y95343D01*
Y96019D01*
X36114Y96099D01*
X36538Y96382D01*
X39024Y93896D01*
Y87264D01*
X38279D01*
X38071Y87305D01*
X37918Y87274D01*
X37419Y87392D01*
X37344Y87769D01*
X37056Y88199D01*
X36714Y88541D01*
Y90012D01*
X36614Y90519D01*
X36326Y90949D01*
X35740Y91535D01*
X35310Y91822D01*
X34803Y91923D01*
X27415D01*
X27299Y92039D01*
X26674Y92298D01*
X25998D01*
X25373Y92039D01*
X25254Y91920D01*
X24754Y92127D01*
Y121240D01*
X28043Y124529D01*
X32288D01*
X32451Y124286D01*
D02*
G37*
G36*
X56104Y86181D02*
X56411Y85983D01*
Y85532D01*
X56624Y85018D01*
X57018Y84624D01*
X57533Y84411D01*
X57697D01*
X58437Y83671D01*
X58153Y83248D01*
X58090Y83274D01*
X57533D01*
X57018Y83061D01*
X56624Y82667D01*
X56411Y82152D01*
Y81727D01*
X56239Y81477D01*
X55990Y81305D01*
X55564D01*
X55541Y81296D01*
X55125Y81574D01*
Y81900D01*
X55092Y82068D01*
Y83389D01*
X52892D01*
Y83589D01*
X51900D01*
Y81900D01*
Y80211D01*
X52012D01*
X52474Y80184D01*
Y79627D01*
X52656Y79189D01*
X52535Y78886D01*
X52403Y78689D01*
X50992D01*
Y78889D01*
X50000D01*
Y77200D01*
X49500D01*
Y76700D01*
X48008D01*
Y75789D01*
X47908D01*
Y74600D01*
X49400D01*
Y73600D01*
X47908D01*
Y72411D01*
X47908D01*
X47771Y71968D01*
X47559D01*
Y70018D01*
X46500D01*
Y68526D01*
X46000D01*
Y68026D01*
X44311D01*
Y67527D01*
X44310Y67526D01*
X43792D01*
Y67689D01*
X41592D01*
Y67889D01*
X40293D01*
X40279Y67911D01*
X40553Y68411D01*
X41992D01*
Y69600D01*
X40500D01*
Y70100D01*
X40000D01*
Y71789D01*
X39526D01*
Y72310D01*
X39727Y72611D01*
X41008D01*
Y72411D01*
X42000D01*
Y74100D01*
X42500D01*
Y74600D01*
X43992D01*
Y75411D01*
Y76600D01*
X42500D01*
Y77600D01*
X43992D01*
Y78789D01*
X43592D01*
Y79968D01*
X43658Y80035D01*
X43911Y80189D01*
X44411Y79953D01*
Y79708D01*
X45600D01*
Y81200D01*
X46100D01*
Y81700D01*
X47789D01*
Y82318D01*
X48036Y82368D01*
X48148Y82442D01*
X48247D01*
X48761Y82656D01*
X49155Y83049D01*
X49369Y83564D01*
Y84121D01*
X49361Y84139D01*
X49695Y84639D01*
X53067D01*
X53081Y84624D01*
X53596Y84411D01*
X54153D01*
X54667Y84624D01*
X55061Y85018D01*
X55274Y85532D01*
Y85553D01*
X55949Y86228D01*
X56104Y86181D01*
D02*
G37*
G36*
X126925Y86226D02*
X127359Y85474D01*
X127974Y84859D01*
X128726Y84425D01*
X129566Y84200D01*
X130434D01*
X131274Y84425D01*
X132026Y84859D01*
X132641Y85474D01*
X132748Y85659D01*
X133331Y85669D01*
X134044Y85192D01*
X135000Y85002D01*
Y85033D01*
X137213D01*
X137405Y84571D01*
X137359Y84526D01*
X136925Y83774D01*
X136700Y82934D01*
Y82065D01*
X136925Y81226D01*
X137359Y80474D01*
X137405Y80429D01*
X137213Y79967D01*
X135000D01*
Y79998D01*
X134044Y79808D01*
X133331Y79331D01*
X132748Y79340D01*
X132641Y79526D01*
X132026Y80141D01*
X131274Y80575D01*
X130434Y80800D01*
X129566D01*
X128726Y80575D01*
X127974Y80141D01*
X127359Y79526D01*
X126925Y78774D01*
X126700Y77934D01*
Y77065D01*
X126925Y76226D01*
X127359Y75474D01*
X127974Y74859D01*
X128726Y74425D01*
X129566Y74200D01*
X130434D01*
X131274Y74425D01*
X132026Y74859D01*
X132641Y75474D01*
X132748Y75660D01*
X133331Y75669D01*
X134044Y75192D01*
X135000Y75002D01*
Y75033D01*
X137213D01*
X137405Y74571D01*
X137359Y74526D01*
X136925Y73774D01*
X136700Y72935D01*
Y72066D01*
X136925Y71226D01*
X137359Y70474D01*
X137405Y70429D01*
X137213Y69967D01*
X135000D01*
Y69998D01*
X134044Y69808D01*
X133331Y69331D01*
X132748Y69340D01*
X132641Y69526D01*
X132026Y70141D01*
X131274Y70575D01*
X130434Y70800D01*
X129566D01*
X128726Y70575D01*
X127974Y70141D01*
X127359Y69526D01*
X126925Y68774D01*
X126700Y67935D01*
Y67066D01*
X126859Y66471D01*
X126566Y66013D01*
X126495Y65971D01*
X103891D01*
X99502Y70359D01*
X99694Y70821D01*
X108466D01*
X108764Y70321D01*
X108607Y69943D01*
Y69267D01*
X108866Y68642D01*
X109344Y68164D01*
X109969Y67905D01*
X110646D01*
X111270Y68164D01*
X111749Y68642D01*
X112007Y69267D01*
Y69943D01*
X111851Y70321D01*
X111903Y70506D01*
X112117Y70837D01*
X112132Y70849D01*
X112403Y70903D01*
X112750Y71135D01*
X114858Y73243D01*
X114858Y73243D01*
X115090Y73590D01*
X115172Y74000D01*
X115172Y74000D01*
Y77957D01*
X115090Y78367D01*
X114858Y78714D01*
X111470Y82102D01*
X111677Y82602D01*
X112090D01*
X112715Y82861D01*
X113193Y83339D01*
X113452Y83964D01*
Y84272D01*
X115457Y86277D01*
X126911D01*
X126925Y86226D01*
D02*
G37*
G36*
X105332Y80451D02*
X105680Y80219D01*
X106089Y80137D01*
X106089Y80137D01*
X108073D01*
X109310Y78901D01*
Y78267D01*
X108939Y77896D01*
X108680Y77272D01*
Y76595D01*
X108939Y75971D01*
X109417Y75492D01*
X110042Y75234D01*
X110718D01*
X111343Y75492D01*
X111821Y75971D01*
X112080Y76595D01*
Y77272D01*
X111821Y77896D01*
X111711Y78007D01*
X111731Y78106D01*
X112274Y78271D01*
X113031Y77513D01*
Y74443D01*
X111550Y72962D01*
X104425D01*
X104200Y73299D01*
Y73975D01*
X103941Y74600D01*
X103463Y75078D01*
X103111Y75224D01*
X102979Y75799D01*
X103151Y75971D01*
X103410Y76595D01*
Y77272D01*
X103151Y77896D01*
X102673Y78375D01*
X102048Y78633D01*
X101372D01*
X100747Y78375D01*
X100599Y78227D01*
X100175Y78510D01*
X100331Y78887D01*
Y79563D01*
X100072Y80188D01*
X99702Y80559D01*
Y82606D01*
X99620Y83015D01*
X99388Y83363D01*
X99388Y83363D01*
X97383Y85368D01*
X97575Y85829D01*
X99954D01*
X105332Y80451D01*
D02*
G37*
G36*
X136925Y61226D02*
X137359Y60474D01*
X137405Y60429D01*
X137213Y59967D01*
X135000D01*
Y59998D01*
X134044Y59808D01*
X133331Y59331D01*
X132748Y59341D01*
X132641Y59526D01*
X132026Y60141D01*
X131274Y60575D01*
X130434Y60800D01*
X129566D01*
X128726Y60575D01*
X127974Y60141D01*
X127359Y59526D01*
X126925Y58774D01*
X126700Y57934D01*
Y57065D01*
X126925Y56226D01*
X127359Y55474D01*
X127974Y54859D01*
X128726Y54425D01*
X128613Y53938D01*
X107163D01*
X107064Y54438D01*
X107235Y54508D01*
X107713Y54987D01*
X107972Y55611D01*
Y56288D01*
X107713Y56913D01*
X107343Y57283D01*
Y57912D01*
X107261Y58322D01*
X107029Y58669D01*
X105781Y59917D01*
X105972Y60379D01*
X126074D01*
X126484Y60461D01*
X126831Y60693D01*
X127568Y61429D01*
X136871D01*
X136925Y61226D01*
D02*
G37*
G36*
X29048Y60880D02*
Y51133D01*
X28677Y50762D01*
X28418Y50137D01*
Y49461D01*
X28677Y48836D01*
X29155Y48358D01*
X29780Y48099D01*
X30456D01*
X31081Y48358D01*
X31464Y48079D01*
X31842Y47700D01*
X31635Y47200D01*
X31503D01*
X30878Y46941D01*
X30400Y46463D01*
X30141Y45838D01*
Y45162D01*
X30400Y44537D01*
X30817Y44120D01*
X30821Y43787D01*
X30774Y43561D01*
X30525Y43457D01*
X30046Y42979D01*
X29788Y42354D01*
Y41830D01*
X24937Y36980D01*
X24913Y37004D01*
X24288Y37263D01*
X23612D01*
X23572Y37246D01*
X23156Y37524D01*
Y41187D01*
X23572Y41465D01*
X23633Y41439D01*
X24310D01*
X24935Y41698D01*
X25413Y42176D01*
X25672Y42801D01*
Y43477D01*
X25413Y44102D01*
X24935Y44580D01*
X24310Y44839D01*
X23633D01*
X23518Y44791D01*
X23077Y45027D01*
X23074Y45043D01*
X22842Y45391D01*
X22071Y46162D01*
Y47411D01*
X22571Y47745D01*
X22796Y47651D01*
X23472D01*
X24097Y47910D01*
X24575Y48388D01*
X24834Y49013D01*
Y49689D01*
X24575Y50314D01*
X24205Y50685D01*
Y56691D01*
X28585Y61071D01*
X29048Y60880D01*
D02*
G37*
G36*
X57518Y45934D02*
X57429Y45469D01*
X56952Y44993D01*
X56693Y44368D01*
Y43691D01*
X56952Y43067D01*
X57430Y42588D01*
X58055Y42329D01*
X58731D01*
X59356Y42588D01*
X59834Y43067D01*
X60294Y43158D01*
X71429Y32023D01*
Y8130D01*
X71226Y8075D01*
X70474Y7641D01*
X70429Y7596D01*
X69967Y7787D01*
Y10000D01*
X69998D01*
X69808Y10956D01*
X69331Y11669D01*
X69340Y12252D01*
X69526Y12359D01*
X70141Y12974D01*
X70575Y13726D01*
X70800Y14566D01*
Y15435D01*
X70575Y16274D01*
X70141Y17026D01*
X69526Y17641D01*
X68774Y18075D01*
X68571Y18130D01*
Y23459D01*
X68571Y23459D01*
X68489Y23868D01*
X68257Y24216D01*
X65135Y27338D01*
X65326Y27800D01*
X65338D01*
X65963Y28059D01*
X66441Y28537D01*
X66700Y29162D01*
Y29838D01*
X66441Y30463D01*
X65963Y30941D01*
X65338Y31200D01*
X64662D01*
X64037Y30941D01*
X63559Y30463D01*
X63300Y29838D01*
X62800Y29571D01*
X62759Y29598D01*
X62350Y29680D01*
X46801D01*
X46542Y29939D01*
X45917Y30198D01*
X45241D01*
X44616Y29939D01*
X44138Y29461D01*
X44053Y29256D01*
X43563Y29158D01*
X37334Y35387D01*
Y39403D01*
X37796Y39595D01*
X38247Y39143D01*
X38595Y38911D01*
X39004Y38829D01*
X47224D01*
X47634Y38911D01*
X47981Y39143D01*
X50538Y41700D01*
X51063D01*
X51687Y41959D01*
X52166Y42437D01*
X52424Y43062D01*
Y43738D01*
X52166Y44363D01*
X51962Y44567D01*
X51983Y44785D01*
X53131Y45934D01*
X53139Y45945D01*
X53637Y45994D01*
X53698Y45933D01*
X54323Y45674D01*
X55000D01*
X55624Y45933D01*
X56103Y46411D01*
X56170Y46575D01*
X56760Y46692D01*
X57518Y45934D01*
D02*
G37*
G36*
X18791Y37044D02*
X18987Y36571D01*
X19465Y36093D01*
X20090Y35834D01*
X20766D01*
X21015Y35669D01*
Y32807D01*
X20614Y32407D01*
X20090D01*
X19465Y32148D01*
X18987Y31670D01*
X18728Y31045D01*
Y30369D01*
X18987Y29744D01*
X19465Y29266D01*
X20090Y29007D01*
X20766D01*
X21391Y29266D01*
X21869Y29744D01*
X22128Y30369D01*
Y30893D01*
X22842Y31607D01*
X23074Y31954D01*
X23156Y32364D01*
Y33602D01*
X23572Y33880D01*
X23612Y33863D01*
X24288D01*
X24529Y33702D01*
Y30736D01*
X24288Y30575D01*
X23612D01*
X22987Y30316D01*
X22509Y29838D01*
X22250Y29213D01*
Y28536D01*
X22509Y27912D01*
X22987Y27433D01*
X23612Y27175D01*
X24288D01*
X24529Y27013D01*
Y24634D01*
X24159Y24263D01*
X23900Y23638D01*
Y22962D01*
X24159Y22337D01*
X24637Y21859D01*
X25262Y21600D01*
X25938D01*
X26563Y21859D01*
X27041Y22337D01*
X27060Y22382D01*
X27675Y22560D01*
X28062Y22400D01*
X28738D01*
X29363Y22659D01*
X29841Y23137D01*
X30100Y23762D01*
Y24438D01*
X30088Y24468D01*
X30512Y24751D01*
X31429Y23833D01*
Y8130D01*
X31226Y8075D01*
X30474Y7641D01*
X30429Y7596D01*
X29967Y7787D01*
Y10000D01*
X29998D01*
X29808Y10956D01*
X29331Y11669D01*
X29340Y12252D01*
X29526Y12359D01*
X30141Y12974D01*
X30575Y13726D01*
X30800Y14566D01*
Y15435D01*
X30575Y16274D01*
X30141Y17026D01*
X29526Y17641D01*
X28774Y18075D01*
X27934Y18300D01*
X27066D01*
X26226Y18075D01*
X25474Y17641D01*
X24859Y17026D01*
X24425Y16274D01*
X24200Y15435D01*
Y14566D01*
X24425Y13726D01*
X24859Y12974D01*
X24904Y12929D01*
X24713Y12467D01*
X21600D01*
Y12498D01*
X20644Y12308D01*
X19834Y11766D01*
X19292Y10956D01*
X19102Y10000D01*
X19102D01*
X19095Y9503D01*
X18968Y8216D01*
X18448Y6501D01*
X17603Y4920D01*
X16466Y3534D01*
X15080Y2397D01*
X13499Y1552D01*
X11784Y1032D01*
X10000Y856D01*
X8216Y1032D01*
X6501Y1552D01*
X4920Y2397D01*
X3534Y3534D01*
X2397Y4920D01*
X1552Y6501D01*
X1032Y8216D01*
X856Y10000D01*
X1032Y11784D01*
X1552Y13499D01*
X2397Y15080D01*
X3534Y16466D01*
X4920Y17603D01*
X6501Y18448D01*
X8216Y18968D01*
X9503Y19095D01*
X10000Y19102D01*
Y19102D01*
X10956Y19292D01*
X11766Y19834D01*
X12308Y20644D01*
X12498Y21600D01*
X12467D01*
Y24713D01*
X12929Y24904D01*
X12974Y24859D01*
X13726Y24425D01*
X14566Y24200D01*
X15435D01*
X16274Y24425D01*
X17026Y24859D01*
X17641Y25474D01*
X18075Y26226D01*
X18300Y27066D01*
Y27934D01*
X18075Y28774D01*
X17641Y29526D01*
X17026Y30141D01*
X16274Y30575D01*
X15435Y30800D01*
X14566D01*
X13726Y30575D01*
X12974Y30141D01*
X12359Y29526D01*
X12252Y29340D01*
X11669Y29331D01*
X10956Y29808D01*
X10000Y29998D01*
Y29967D01*
X7787D01*
X7596Y30429D01*
X7641Y30474D01*
X8075Y31226D01*
X8300Y32066D01*
Y32934D01*
X8075Y33774D01*
X7641Y34526D01*
X7596Y34571D01*
X7787Y35033D01*
X10000D01*
Y35002D01*
X10956Y35192D01*
X11669Y35669D01*
X12252Y35660D01*
X12359Y35474D01*
X12974Y34859D01*
X13726Y34425D01*
X14566Y34200D01*
X15435D01*
X16274Y34425D01*
X17026Y34859D01*
X17641Y35474D01*
X18075Y36226D01*
X18277Y36979D01*
X18530Y37056D01*
X18791Y37044D01*
D02*
G37*
G36*
X54060Y60303D02*
X55052D01*
Y60503D01*
X56397D01*
X56399Y60499D01*
Y59942D01*
X56612Y59427D01*
X56729Y59311D01*
Y56901D01*
X56810Y56491D01*
X57042Y56144D01*
X75260Y37926D01*
Y34119D01*
X74760Y33912D01*
X51226Y57446D01*
X51418Y57908D01*
X51689D01*
Y58900D01*
X50000D01*
Y59900D01*
X51689D01*
Y60010D01*
X52068Y60303D01*
X53060D01*
Y61992D01*
X54060D01*
Y60303D01*
D02*
G37*
G36*
X33193Y38603D02*
Y31269D01*
X32296Y30372D01*
X31856D01*
X31231Y30113D01*
X30753Y29635D01*
X30494Y29010D01*
Y28504D01*
X30021Y28270D01*
X29558Y28733D01*
Y35622D01*
X32731Y38794D01*
X33193Y38603D01*
D02*
G37*
G36*
X99128Y31743D02*
X99475Y31511D01*
X99885Y31429D01*
X99885Y31429D01*
X118779D01*
X123465Y26743D01*
X123813Y26511D01*
X124222Y26429D01*
X124223Y26429D01*
X126871D01*
X126925Y26226D01*
X127359Y25474D01*
X127974Y24859D01*
X128726Y24425D01*
X129566Y24200D01*
X130434D01*
X131274Y24425D01*
X132026Y24859D01*
X132071Y24904D01*
X132533Y24713D01*
Y21600D01*
X132502D01*
X132692Y20644D01*
X133234Y19834D01*
X134044Y19292D01*
X135000Y19102D01*
Y19102D01*
X135497Y19095D01*
X136784Y18968D01*
X138499Y18448D01*
X140080Y17603D01*
X141466Y16466D01*
X142603Y15080D01*
X143448Y13499D01*
X143968Y11784D01*
X144144Y10000D01*
X143968Y8216D01*
X143448Y6501D01*
X142603Y4920D01*
X141466Y3534D01*
X140080Y2397D01*
X138499Y1552D01*
X136784Y1032D01*
X135000Y856D01*
X133216Y1032D01*
X131501Y1552D01*
X129920Y2397D01*
X128534Y3534D01*
X127397Y4920D01*
X126552Y6501D01*
X126032Y8216D01*
X125905Y9503D01*
X125898Y10000D01*
X125898D01*
X125708Y10956D01*
X125166Y11766D01*
X124356Y12308D01*
X123400Y12498D01*
Y12467D01*
X120287D01*
X120096Y12929D01*
X120141Y12974D01*
X120575Y13726D01*
X120800Y14566D01*
Y15435D01*
X120575Y16274D01*
X120141Y17026D01*
X119526Y17641D01*
X118774Y18075D01*
X117934Y18300D01*
X117066D01*
X116226Y18075D01*
X115474Y17641D01*
X114859Y17026D01*
X114425Y16274D01*
X114200Y15435D01*
Y14566D01*
X114425Y13726D01*
X114859Y12974D01*
X115474Y12359D01*
X115659Y12252D01*
X115669Y11669D01*
X115192Y10956D01*
X115002Y10000D01*
X115033D01*
Y7787D01*
X114571Y7596D01*
X114526Y7641D01*
X113774Y8075D01*
X113571Y8130D01*
Y18441D01*
X113571Y18441D01*
X113489Y18851D01*
X113257Y19198D01*
X113257Y19198D01*
X110007Y22448D01*
X109659Y22681D01*
X109250Y22762D01*
X103187D01*
X99492Y26456D01*
X99610Y27046D01*
X99904Y27168D01*
X100382Y27646D01*
X100641Y28271D01*
Y28947D01*
X100382Y29572D01*
X99904Y30050D01*
X99279Y30309D01*
X98603D01*
X97978Y30050D01*
X97500Y29572D01*
X97378Y29278D01*
X96788Y29160D01*
X94484Y31464D01*
X94137Y31696D01*
X93727Y31778D01*
X89500D01*
X89300Y32077D01*
Y32753D01*
X89041Y33378D01*
X88814Y33605D01*
X89021Y34105D01*
X96766D01*
X99128Y31743D01*
D02*
G37*
%LPC*%
G36*
X125364Y127769D02*
X124636D01*
X123931Y127580D01*
X123300Y127215D01*
X122785Y126700D01*
X122420Y126069D01*
X122231Y125364D01*
Y124636D01*
X122420Y123931D01*
X122785Y123300D01*
X123300Y122785D01*
X123931Y122420D01*
X124636Y122231D01*
X125364D01*
X126069Y122420D01*
X126700Y122785D01*
X127215Y123300D01*
X127580Y123931D01*
X127769Y124636D01*
Y125364D01*
X127580Y126069D01*
X127215Y126700D01*
X126700Y127215D01*
X126069Y127580D01*
X125364Y127769D01*
D02*
G37*
G36*
X20365D02*
X19636D01*
X18931Y127580D01*
X18300Y127215D01*
X17785Y126700D01*
X17420Y126069D01*
X17232Y125364D01*
Y124636D01*
X17420Y123931D01*
X17785Y123300D01*
X18300Y122785D01*
X18931Y122420D01*
X19636Y122231D01*
X20365D01*
X21069Y122420D01*
X21700Y122785D01*
X22215Y123300D01*
X22580Y123931D01*
X22769Y124636D01*
Y125364D01*
X22580Y126069D01*
X22215Y126700D01*
X21700Y127215D01*
X21069Y127580D01*
X20365Y127769D01*
D02*
G37*
G36*
X33200Y78500D02*
X32208D01*
Y77311D01*
X33200D01*
Y78500D01*
D02*
G37*
G36*
X33300Y73804D02*
X32307D01*
Y72615D01*
X33300D01*
Y73804D01*
D02*
G37*
G36*
X32489Y87673D02*
X31497D01*
Y86484D01*
X32489D01*
Y87673D01*
D02*
G37*
G36*
X33041Y85689D02*
X32049D01*
Y84500D01*
X33041D01*
Y85689D01*
D02*
G37*
G36*
X50900Y83589D02*
X49908D01*
Y82400D01*
X50900D01*
Y83589D01*
D02*
G37*
G36*
Y81400D02*
X49908D01*
Y80211D01*
X50900D01*
Y81400D01*
D02*
G37*
G36*
X47789Y80700D02*
X46600D01*
Y79708D01*
X47789D01*
Y80700D01*
D02*
G37*
G36*
X49000Y78889D02*
X48008D01*
Y77700D01*
X49000D01*
Y78889D01*
D02*
G37*
G36*
X43992Y73600D02*
X43000D01*
Y72411D01*
X43992D01*
Y73600D01*
D02*
G37*
G36*
X41992Y71789D02*
X41000D01*
Y70600D01*
X41992D01*
Y71789D01*
D02*
G37*
G36*
X45500Y70018D02*
X44311D01*
Y69026D01*
X45500D01*
Y70018D01*
D02*
G37*
G36*
X115823Y85032D02*
X115267D01*
X114752Y84819D01*
X114358Y84425D01*
X114145Y83911D01*
Y83354D01*
X114358Y82840D01*
X114752Y82446D01*
X115267Y82232D01*
X115823D01*
X116338Y82446D01*
X116439Y82547D01*
X116893Y82702D01*
X117084Y82538D01*
X117307Y82315D01*
X117822Y82102D01*
X118378D01*
X118893Y82315D01*
X119287Y82709D01*
X119500Y83223D01*
Y83780D01*
X119287Y84295D01*
X118893Y84689D01*
X118378Y84902D01*
X117822D01*
X117307Y84689D01*
X117206Y84588D01*
X116752Y84433D01*
X116561Y84596D01*
X116338Y84819D01*
X115823Y85032D01*
D02*
G37*
G36*
X118217Y71005D02*
X117660D01*
X117145Y70792D01*
X116751Y70398D01*
X116538Y69883D01*
Y69326D01*
X116751Y68812D01*
X117145Y68418D01*
X117660Y68205D01*
X118217D01*
X118731Y68418D01*
X119125Y68812D01*
X119338Y69326D01*
Y69883D01*
X119125Y70398D01*
X118731Y70792D01*
X118217Y71005D01*
D02*
G37*
G36*
X43189Y37263D02*
X42512D01*
X41887Y37004D01*
X41409Y36526D01*
X41150Y35901D01*
Y35225D01*
X41409Y34600D01*
X41887Y34122D01*
X42512Y33863D01*
X43189D01*
X43813Y34122D01*
X44292Y34600D01*
X44550Y35225D01*
Y35901D01*
X44292Y36526D01*
X43813Y37004D01*
X43189Y37263D01*
D02*
G37*
G36*
X20365Y22769D02*
X19636D01*
X18931Y22580D01*
X18300Y22215D01*
X17785Y21700D01*
X17420Y21069D01*
X17232Y20365D01*
Y19636D01*
X17420Y18931D01*
X17785Y18300D01*
X18300Y17785D01*
X18931Y17420D01*
X19636Y17232D01*
X20365D01*
X21069Y17420D01*
X21700Y17785D01*
X22215Y18300D01*
X22580Y18931D01*
X22769Y19636D01*
Y20365D01*
X22580Y21069D01*
X22215Y21700D01*
X21700Y22215D01*
X21069Y22580D01*
X20365Y22769D01*
D02*
G37*
G36*
X125364D02*
X124636D01*
X123931Y22580D01*
X123300Y22215D01*
X122785Y21700D01*
X122420Y21069D01*
X122231Y20365D01*
Y19636D01*
X122420Y18931D01*
X122785Y18300D01*
X123300Y17785D01*
X123931Y17420D01*
X124636Y17232D01*
X125364D01*
X126069Y17420D01*
X126700Y17785D01*
X127215Y18300D01*
X127580Y18931D01*
X127769Y19636D01*
Y20365D01*
X127580Y21069D01*
X127215Y21700D01*
X126700Y22215D01*
X126069Y22580D01*
X125364Y22769D01*
D02*
G37*
%LPD*%
D15*
X33100Y125600D02*
X37500Y130000D01*
X27600Y125600D02*
X33100D01*
X23683Y121683D02*
X27600Y125600D01*
X23683Y88409D02*
Y121683D01*
X76331Y25455D02*
Y38369D01*
X57799Y56901D02*
Y60220D01*
Y56901D02*
X76331Y38369D01*
X97472Y121100D02*
X113253D01*
X88848Y112476D02*
X97472Y121100D01*
X113253D02*
X117500Y125347D01*
X28500Y74000D02*
X30252D01*
X15000Y87500D02*
X28500Y74000D01*
X25600Y23300D02*
Y36128D01*
X31488Y42016D01*
X32221Y48836D02*
X34263Y46793D01*
X33754Y48717D02*
X35263Y47207D01*
X36650Y48649D02*
X37263Y48035D01*
X32194Y28756D02*
X34263Y30825D01*
X28487Y36065D02*
X33138Y40715D01*
X37263Y41641D02*
X39004Y39900D01*
X34263Y30825D02*
Y46793D01*
X33138Y40715D02*
Y44555D01*
X35263Y29368D02*
Y47207D01*
X36263Y34944D02*
Y47621D01*
X37263Y41641D02*
Y48035D01*
X49407Y21800D02*
X58196D01*
X36263Y34944D02*
X49407Y21800D01*
X31841Y45500D02*
X32193D01*
X33138Y44555D01*
X38913Y43437D02*
X41049Y41302D01*
X47035D01*
X35263Y29368D02*
X42500Y22132D01*
X40157Y57018D02*
X42063Y58924D01*
Y64157D01*
X89156Y80606D02*
X97870Y71892D01*
X111993D01*
X114101Y74000D01*
X39546Y122848D02*
X40646Y123948D01*
X38704Y122599D02*
X38952Y122848D01*
X39546D01*
X124222Y27500D02*
X130000D01*
X119222Y32500D02*
X124222Y27500D01*
X80999Y35176D02*
X97209D01*
X99885Y32500D01*
X119222D01*
X76600Y44095D02*
X77500Y43195D01*
X76600Y44095D02*
Y46730D01*
X77500Y25700D02*
Y43195D01*
X76331Y25455D02*
X78986Y22800D01*
X74200Y25659D02*
X78059Y21800D01*
X74200Y25659D02*
Y32958D01*
X47969Y59190D02*
X74200Y32958D01*
X45170Y55405D02*
X52374Y48201D01*
X44226Y55405D02*
X45170D01*
X44032Y55600D02*
X44226Y55405D01*
X74968Y112476D02*
X88848D01*
X60000Y119268D02*
X68176D01*
X74968Y112476D01*
X71119Y120298D02*
X71149Y120268D01*
X53686Y120298D02*
X71119D01*
X51404Y122848D02*
X110634D01*
X112384Y124598D01*
X49506Y120949D02*
X51404Y122848D01*
X34151Y123948D02*
X36250Y126047D01*
X40646Y123948D02*
X105220D01*
X38310Y125000D02*
X99710D01*
X93547Y126047D02*
X97500Y130000D01*
X99710Y125000D02*
X102500Y127790D01*
X36250Y126047D02*
X93547D01*
X35608Y122298D02*
X38310Y125000D01*
X102500Y127790D02*
Y140000D01*
X107500Y126228D02*
Y130000D01*
X105220Y123948D02*
X107500Y126228D01*
X80080Y30707D02*
X93727D01*
X102743Y21691D01*
X109250D01*
X79400Y23800D02*
X98700D01*
X107500Y15000D01*
X112500Y5000D02*
Y18441D01*
X109250Y21691D02*
X112500Y18441D01*
X90700Y21800D02*
X97500Y15000D01*
X78059Y21800D02*
X90700D01*
X87600Y37415D02*
X92500Y42315D01*
Y48649D01*
X79962Y36212D02*
Y50850D01*
Y36212D02*
X80999Y35176D01*
X78675Y32112D02*
X80080Y30707D01*
X78675Y32112D02*
Y48624D01*
X76727Y50572D02*
X78675Y48624D01*
X76513Y54300D02*
X79962Y50850D01*
X64862Y54300D02*
X76513D01*
X67504Y50572D02*
X76727D01*
X66212Y75858D02*
Y77536D01*
X68020Y79344D02*
X89003D01*
X66212Y77536D02*
X68020Y79344D01*
X104227Y113554D02*
Y118313D01*
Y113554D02*
X111000Y106781D01*
Y98900D02*
Y106781D01*
X105049Y97439D02*
X109539D01*
X111000Y98900D01*
X103017Y95406D02*
X105049Y97439D01*
X103017Y89042D02*
Y95406D01*
X100397Y86900D02*
X106089Y81208D01*
X85560Y86900D02*
X100397D01*
X83634Y88826D02*
X85560Y86900D01*
X57811Y87779D02*
X59161Y89130D01*
X89003Y79344D02*
X103448Y64900D01*
X66563Y72873D02*
X81164D01*
X64237Y75199D02*
Y80864D01*
Y75199D02*
X66563Y72873D01*
X63188Y81912D02*
X64237Y80864D01*
X66200Y75846D02*
X66212Y75858D01*
X81164Y72873D02*
X82531Y74241D01*
X95847Y49351D02*
X110941D01*
X80999Y64200D02*
X95847Y49351D01*
X110941D02*
X127792Y32500D01*
X92910Y50572D02*
X95621Y47862D01*
X110738D01*
X121400Y37200D01*
X96324Y50568D02*
X113057D01*
X81168Y65724D02*
X96324Y50568D01*
X113057D02*
X126125Y37500D01*
X83131Y19369D02*
X87500Y15000D01*
X76331Y19369D02*
X83131D01*
X74900Y20800D02*
X76331Y19369D01*
X77500Y25700D02*
X79400Y23800D01*
X40157Y51457D02*
Y57018D01*
X30118Y49799D02*
Y61547D01*
X32729Y64157D01*
X34189D01*
X23134Y57134D02*
X32126Y66126D01*
X23134Y49351D02*
Y57134D01*
X21000Y45719D02*
Y57569D01*
X30907Y67476D01*
X34748D01*
X32126Y66126D02*
X34189D01*
X19300Y38366D02*
Y57700D01*
X30076Y68476D01*
X19300Y38366D02*
X20132Y37534D01*
X21000Y45719D02*
X22085Y44634D01*
X20132Y37534D02*
X20428D01*
X48538Y44532D02*
X49548Y45542D01*
X51226D01*
X52374Y46691D01*
X48538Y42805D02*
Y44532D01*
X72500Y5000D02*
Y32467D01*
X46000Y58966D02*
X72500Y32467D01*
X46000Y58966D02*
Y62189D01*
X44045Y58176D02*
X54661Y47559D01*
Y47374D02*
Y47559D01*
X36484Y120949D02*
X49506D01*
X31797Y102637D02*
Y116261D01*
X36484Y120949D01*
X42338Y108949D02*
X53686Y120298D01*
X43366Y102634D02*
X60000Y119268D01*
X79356Y59410D02*
X81100Y61154D01*
Y61443D01*
X90403Y62905D02*
X97500Y55808D01*
X69351Y64200D02*
X80999D01*
X90090Y62905D02*
X90403D01*
X29487Y102398D02*
X34447Y97439D01*
Y95681D02*
Y97439D01*
X82015Y68563D02*
X89962D01*
X81900Y68449D02*
X82015Y68563D01*
X91997Y70099D02*
X101362Y60733D01*
X72749Y70099D02*
X91997D01*
X78675Y68449D02*
X80400Y66724D01*
X78675Y68449D02*
X78675D01*
X92684Y71500D02*
X106272Y57912D01*
X69791Y71500D02*
X92684D01*
X68354Y70063D02*
X69791Y71500D01*
X72500Y69850D02*
X72749Y70099D01*
X38260Y59617D02*
Y60087D01*
Y59617D02*
X38300Y59578D01*
X36650Y48649D02*
Y52937D01*
X38300Y50867D02*
X40887Y48280D01*
X46800Y43400D02*
X46800Y43400D01*
X38300Y50867D02*
Y59578D01*
X38126Y60220D02*
X38260Y60087D01*
X43480Y43400D02*
X46800D01*
X35000Y48885D02*
X36263Y47621D01*
X40887Y45993D02*
Y48280D01*
Y45993D02*
X43480Y43400D01*
X63593Y84772D02*
X67759Y80606D01*
X90688Y81606D02*
X92006Y80287D01*
X71610Y81606D02*
X90688D01*
X67759Y80606D02*
X89156D01*
X93611Y82606D02*
X94688Y81529D01*
X66691Y89130D02*
X73215Y82606D01*
X93611D01*
X65436Y87779D02*
X71610Y81606D01*
X95689Y85548D02*
X98631Y82606D01*
X63437Y99406D02*
X77295Y85548D01*
X95689D01*
X31838Y122298D02*
X35608D01*
X29487Y119948D02*
X31838Y122298D01*
X29487Y102398D02*
Y119948D01*
X36650Y108949D02*
X42338D01*
X94688Y37927D02*
X102303Y45542D01*
X108667D01*
X71676Y65724D02*
X81168D01*
X66200Y66068D02*
X71332D01*
X71676Y65724D01*
X101362Y52867D02*
X139633D01*
X99150Y55079D02*
Y59376D01*
X89962Y68563D02*
X99150Y59376D01*
Y55079D02*
X101362Y52867D01*
Y56222D02*
Y60733D01*
X104896Y61450D02*
X126074D01*
X71000Y77637D02*
X88709D01*
X104896Y61450D01*
X106272Y55950D02*
Y57912D01*
X103448Y64900D02*
X127400D01*
X114101Y74000D02*
Y77957D01*
X80400Y66724D02*
X81972D01*
X62576Y59410D02*
X79356D01*
X59797Y62189D02*
X62576Y59410D01*
X114066Y51867D02*
X123433Y42500D01*
X96830Y51867D02*
X114066D01*
X139633Y52867D02*
X140000Y52500D01*
X81972Y66724D02*
X96830Y51867D01*
X44045Y58176D02*
Y60207D01*
X97500Y55605D02*
Y55808D01*
X59780Y62189D02*
X59797D01*
X59780Y87779D02*
X65436D01*
X59161Y89130D02*
X66691D01*
X94688Y77637D02*
Y81529D01*
X103017Y89042D02*
X114101Y77957D01*
X59780Y70063D02*
X68354D01*
X57799Y85823D02*
X57811Y85811D01*
X32221Y48836D02*
Y60220D01*
X23341Y70063D02*
X34189D01*
X20952Y72452D02*
X23341Y70063D01*
X32194Y28672D02*
Y28756D01*
X33754Y59625D02*
X34189Y60060D01*
X33754Y48717D02*
Y59625D01*
X45690Y28609D02*
X62350D01*
X45579Y28498D02*
X45690Y28609D01*
X34748Y67476D02*
X36098Y66126D01*
X36158D01*
X28487Y28289D02*
Y36065D01*
X32500Y5000D02*
Y24277D01*
X28487Y28289D02*
X32500Y24277D01*
X23683Y88409D02*
X30204Y81889D01*
X34189D01*
X5048Y72452D02*
X20952D01*
X43366Y85146D02*
Y102634D01*
X33700Y104973D02*
Y114542D01*
X38426Y119268D01*
X31797Y102637D02*
X40095Y94340D01*
Y85811D02*
Y94340D01*
X110380Y76933D02*
Y79344D01*
X108517Y81208D02*
X110380Y79344D01*
X106089Y81208D02*
X108517D01*
X127124Y62500D02*
X140000D01*
X126074Y61450D02*
X127124Y62500D01*
X127400Y64900D02*
X130000Y67500D01*
X33700Y104973D02*
X42063Y96610D01*
Y85858D02*
Y96610D01*
X112384Y139884D02*
X112500Y140000D01*
X112384Y124598D02*
Y139884D01*
X117500Y125347D02*
Y130000D01*
X20428Y30707D02*
X22085Y32364D01*
Y44634D01*
X5000Y72500D02*
X5048Y72452D01*
X61710Y81912D02*
X63188D01*
X46705Y129205D02*
X47500Y130000D01*
X42016Y85811D02*
X42063Y85858D01*
Y83842D02*
X43366Y85146D01*
X98631Y79225D02*
Y82606D01*
X57811Y85811D02*
X61710Y81912D01*
X67500Y15000D02*
Y23459D01*
X62350Y28609D02*
X67500Y23459D01*
X58196Y21800D02*
X62500Y17496D01*
Y5000D02*
Y17496D01*
X82600Y37415D02*
X82845D01*
X89100Y43670D01*
Y49734D01*
X89939Y50572D01*
X92910D01*
X121400Y36100D02*
Y37200D01*
Y36100D02*
X123200Y34300D01*
X95205Y22800D02*
X102500Y15505D01*
X78986Y22800D02*
X95205D01*
X126125Y37500D02*
X130000D01*
X127792Y32500D02*
X140000D01*
X123433Y42500D02*
X140000D01*
X102500Y5000D02*
Y15505D01*
X47969Y59190D02*
Y64157D01*
X42500Y5000D02*
Y22132D01*
X35000Y48885D02*
Y58622D01*
X36158Y59780D01*
X39004Y39900D02*
X47224D01*
X50724Y43400D01*
X52374Y46691D02*
Y48201D01*
X47035Y41302D02*
X48538Y42805D01*
X40100Y51400D02*
X40157Y51457D01*
X46698Y51400D02*
X50724Y47374D01*
X42800Y51400D02*
X46698D01*
X36158Y59780D02*
Y62189D01*
X34189Y60060D02*
Y62189D01*
X27350Y15150D02*
X27500Y15000D01*
X30076Y68476D02*
X35162D01*
X36024Y68228D02*
X36158Y68094D01*
X35410Y68228D02*
X36024D01*
X35162Y68476D02*
X35410Y68228D01*
X53874Y70074D02*
Y72031D01*
X51875Y68076D02*
X53874Y70074D01*
X49248Y68076D02*
X51875D01*
X32989Y87976D02*
Y87992D01*
D16*
X100469Y73637D02*
X102500D01*
X96881Y77225D02*
X100469Y73637D01*
X55580Y87517D02*
Y88512D01*
X53874Y85811D02*
X55580Y87517D01*
Y88512D02*
X59394Y92326D01*
X47089Y85811D02*
X53874D01*
X46000Y86900D02*
X47089Y85811D01*
X59394Y92326D02*
X66838D01*
X75164Y84000D02*
X94641D01*
X66838Y92326D02*
X75164Y84000D01*
X94641D02*
X96881Y81760D01*
Y77225D02*
Y81760D01*
X46000Y86900D02*
Y88272D01*
D18*
X115500Y97900D02*
Y113878D01*
X111154Y93555D02*
X115500Y97900D01*
X108733Y93555D02*
X111154D01*
X111752Y84302D02*
X114950Y87500D01*
X130000D01*
X87162Y104460D02*
X104685D01*
X83600Y100898D02*
X87162Y104460D01*
X104685D02*
X108831Y100314D01*
X113667Y115711D02*
X115500Y113878D01*
X108831Y100314D02*
X108831D01*
X83600Y93630D02*
Y100898D01*
X45191Y81912D02*
X45903Y81200D01*
X42461Y81912D02*
X45191D01*
X45903Y81200D02*
X46100D01*
X42369Y80366D02*
Y81820D01*
X42100Y80097D02*
X42369Y80366D01*
X42100Y79900D02*
Y80097D01*
X42369Y81820D02*
X42461Y81912D01*
D22*
X36158Y81874D02*
D03*
X38126Y81912D02*
D03*
X42063Y64157D02*
D03*
X38126Y72031D02*
D03*
Y74000D02*
D03*
X119222Y79512D02*
D03*
X115545Y83632D02*
D03*
X118100Y83502D02*
D03*
Y89653D02*
D03*
X57811Y87779D02*
D03*
X117938Y69605D02*
D03*
X57799Y60220D02*
D03*
X38126D02*
D03*
X32221D02*
D03*
X34189Y70063D02*
D03*
X36158Y66126D02*
D03*
X34189D02*
D03*
X36140Y75963D02*
D03*
X30252Y74000D02*
D03*
X42016Y85811D02*
D03*
X42063Y83842D02*
D03*
X36158Y68094D02*
D03*
X44045Y60207D02*
D03*
X55843Y79905D02*
D03*
Y81874D02*
D03*
X61748Y85811D02*
D03*
X50000Y81900D02*
D03*
X57811Y81874D02*
D03*
X59780Y85811D02*
D03*
X53874Y79905D02*
D03*
X49937D02*
D03*
X47969Y83842D02*
D03*
X57811Y85811D02*
D03*
X53874D02*
D03*
X38126Y79905D02*
D03*
Y83842D02*
D03*
Y85811D02*
D03*
X40095D02*
D03*
X36158D02*
D03*
X42100Y79900D02*
D03*
X47969Y64157D02*
D03*
X49937D02*
D03*
X55900Y64100D02*
D03*
X52004Y62189D02*
D03*
X53874Y64157D02*
D03*
X51906D02*
D03*
X57811D02*
D03*
X59780Y66126D02*
D03*
Y62189D02*
D03*
X44032Y75968D02*
D03*
X46000Y62189D02*
D03*
Y64157D02*
D03*
X44032Y72031D02*
D03*
X46000D02*
D03*
X46098Y79512D02*
D03*
X46000Y75968D02*
D03*
X44032Y66126D02*
D03*
Y74000D02*
D03*
X42063Y68094D02*
D03*
X59780Y87779D02*
D03*
X49937D02*
D03*
X53874Y89748D02*
D03*
Y74000D02*
D03*
X59780Y70063D02*
D03*
X57811Y72031D02*
D03*
X47969Y75968D02*
D03*
X51906Y70063D02*
D03*
X53874Y68094D02*
D03*
Y72031D02*
D03*
Y75968D02*
D03*
X47969Y72031D02*
D03*
Y74000D02*
D03*
X36158Y70063D02*
D03*
X38126Y75968D02*
D03*
X36158Y62189D02*
D03*
X38100Y68100D02*
D03*
X38126Y62189D02*
D03*
X34189Y64157D02*
D03*
X32221Y85811D02*
D03*
X34200Y75900D02*
D03*
X34189Y81889D02*
D03*
Y85811D02*
D03*
Y62189D02*
D03*
D45*
X61800Y77200D02*
D03*
X59400D02*
D03*
X40049Y82012D02*
D03*
X42449D02*
D03*
X36200Y72116D02*
D03*
X33800D02*
D03*
X40100Y66200D02*
D03*
X42500D02*
D03*
X55824Y68193D02*
D03*
X58224D02*
D03*
X40500Y70100D02*
D03*
X38100D02*
D03*
X53560Y61992D02*
D03*
X55960D02*
D03*
X42100Y79900D02*
D03*
X39700D02*
D03*
X32989Y88173D02*
D03*
X35389D02*
D03*
X36100Y79000D02*
D03*
X33700D02*
D03*
X42500Y77100D02*
D03*
X40100D02*
D03*
X35941Y84000D02*
D03*
X33541D02*
D03*
X57988Y71500D02*
D03*
X55588D02*
D03*
X42500Y74100D02*
D03*
X40100D02*
D03*
X59188D02*
D03*
X56788D02*
D03*
X61800Y80000D02*
D03*
X59400D02*
D03*
X53800Y81900D02*
D03*
X51400D02*
D03*
X49500Y77200D02*
D03*
X51900D02*
D03*
X49400Y74100D02*
D03*
X51800D02*
D03*
D46*
X46000Y88665D02*
D03*
Y92405D02*
D03*
D82*
X20000Y20000D02*
D03*
X125000D02*
D03*
Y125000D02*
D03*
X20000D02*
D03*
D83*
X40041Y81950D02*
X40049Y81958D01*
X38126Y81912D02*
X38164Y81950D01*
X40049Y81958D02*
Y82012D01*
X38164Y81950D02*
X40041D01*
X38100Y68100D02*
Y70100D01*
X38108Y70108D01*
Y72013D01*
X38126Y72031D01*
X36944Y74038D02*
X38088D01*
X38126Y74000D01*
X50447Y93606D02*
X53800D01*
X52134Y93606D02*
Y96270D01*
X52134Y93606D02*
X52134Y93606D01*
Y96270D02*
X52287Y96423D01*
X50146Y92326D02*
Y93304D01*
X50447Y93606D01*
X110380Y114325D02*
Y118208D01*
Y114325D02*
X113278Y111428D01*
Y106811D02*
Y111428D01*
X54972Y95107D02*
X55125Y95260D01*
X54972Y94596D02*
Y95107D01*
X53981Y93606D02*
X54972Y94596D01*
X68262Y115711D02*
Y115867D01*
X66632Y117497D02*
Y117653D01*
Y117497D02*
X68262Y115867D01*
X63335Y114355D02*
X66632Y117653D01*
X61355Y114355D02*
X63335D01*
X110380Y118208D02*
X110966Y118793D01*
X116207D02*
X122500Y112500D01*
X110966Y118793D02*
X116207D01*
X26336Y90598D02*
X34803D01*
X35389Y90012D01*
Y87992D02*
Y90012D01*
X23678Y85756D02*
X30434Y79000D01*
X23678Y85756D02*
X24003D01*
X30434Y79000D02*
X33700D01*
X40500Y70281D02*
X42212Y71993D01*
X43993D01*
X44032Y72031D01*
X40500Y70100D02*
Y70281D01*
X46000Y76023D02*
X46098Y76121D01*
X46000Y75968D02*
Y76023D01*
X46098Y76121D02*
Y79512D01*
X36116Y74008D02*
X36913D01*
X36108Y74000D02*
X36116Y74008D01*
X36913D02*
X36944Y74038D01*
X38028Y85964D02*
X38126Y85865D01*
X38091Y64092D02*
X38113D01*
X34200Y75846D02*
Y75900D01*
X33800Y72116D02*
Y75445D01*
X34200Y75846D01*
X36158Y70063D02*
X36192Y70097D01*
Y72108D02*
X36200Y72116D01*
X36192Y70097D02*
Y72108D01*
X59780Y95847D02*
Y112779D01*
X61355Y114355D01*
X55138Y91206D02*
X59780Y95847D01*
X53800Y91206D02*
X55138D01*
X53838Y89835D02*
X53900Y89774D01*
X53838Y89835D02*
Y91198D01*
X53830Y91206D02*
X53838Y91198D01*
X38099Y83571D02*
X38280D01*
X48232Y92326D02*
X49895D01*
X53800Y93606D02*
X53981D01*
X49903Y92318D02*
X49957D01*
X49895Y92326D02*
X49903Y92318D01*
X61800Y80000D02*
X61839D01*
X61800Y77200D02*
Y80000D01*
X122500Y112500D02*
X140000D01*
X46000Y92405D02*
Y92799D01*
X46442Y92357D02*
X48200D01*
X46000Y92799D02*
X46442Y92357D01*
X48200D02*
X48232Y92326D01*
X49937Y87779D02*
X49947Y87789D01*
X49937Y87779D02*
Y89910D01*
X49945Y89918D02*
X49957D01*
X49937Y89910D02*
X49945Y89918D01*
X36103Y70063D02*
X36158D01*
X36108Y76300D02*
X36305D01*
X33800Y72094D02*
Y72116D01*
X33792Y72086D02*
X33800Y72094D01*
X56731Y70048D02*
X57080Y70397D01*
X49248Y66068D02*
X49899Y65417D01*
X46000Y64157D02*
Y66126D01*
X49899Y64196D02*
Y65417D01*
Y64196D02*
X49937Y64157D01*
X51906D01*
X51944Y64196D01*
X50000Y59400D02*
X52993D01*
X38100Y66500D02*
X38108Y66492D01*
X38113Y62202D02*
X38126Y62189D01*
X38108Y66492D02*
X39989D01*
X40887Y67168D02*
Y67182D01*
X38100Y66500D02*
X38281D01*
X39989Y66492D02*
X40100Y66381D01*
Y66200D02*
Y66381D01*
X40887Y67168D01*
X38113Y62202D02*
Y64092D01*
X38126Y62189D02*
Y62243D01*
X53874Y68094D02*
X53923Y68144D01*
X55774D02*
X55824Y68193D01*
X42025Y68056D02*
X42063Y68094D01*
X42025Y68133D02*
X42063Y68094D01*
X42025Y68133D02*
Y68394D01*
X40500Y69919D02*
Y70100D01*
X53579Y59986D02*
Y61792D01*
X53560Y61811D02*
Y61992D01*
Y62173D01*
X52993Y59400D02*
X53579Y59986D01*
X53560Y61811D02*
X53579Y61792D01*
X53552Y62181D02*
X53560Y62173D01*
X51944Y65578D02*
X52491Y66126D01*
X52982Y62181D02*
X53552D01*
X52974Y62189D02*
X52982Y62181D01*
X51944Y64196D02*
Y65578D01*
X59741Y66164D02*
Y66494D01*
Y66164D02*
X59780Y66126D01*
X58224Y68012D02*
X59741Y66494D01*
X52491Y66126D02*
X59780D01*
X53923Y68144D02*
X55774D01*
X55824Y68193D02*
Y68374D01*
X58224Y68012D02*
Y68193D01*
X56731Y69282D02*
Y70048D01*
X55824Y68374D02*
X56731Y69282D01*
X49248Y66068D02*
Y68076D01*
X49937Y61863D02*
Y64157D01*
Y61863D02*
X50000Y61800D01*
X53560Y62173D02*
X53874Y62487D01*
X52004Y62189D02*
X52974D01*
X53874Y62487D02*
Y64157D01*
X55900Y64046D02*
Y64100D01*
X55960Y61992D02*
Y63986D01*
X55900Y64046D02*
X55960Y63986D01*
X38091Y64092D02*
X38099Y64100D01*
X40887Y67182D02*
X41761Y68056D01*
X42025D01*
X38099Y64100D02*
X38100D01*
X43995Y66163D02*
X44032Y66126D01*
X42508Y66163D02*
X43995D01*
X42500Y66171D02*
Y66200D01*
Y66171D02*
X42508Y66163D01*
X38234Y74000D02*
X38334Y74100D01*
X38126Y74000D02*
X38234D01*
X38334Y74100D02*
X40100D01*
X40500Y69919D02*
X42025Y68394D01*
X46000Y68526D02*
Y72031D01*
X37355Y79189D02*
X38072Y79905D01*
X38126D02*
X38129Y79903D01*
X39697D01*
X36100Y79181D02*
X36108Y79189D01*
X37355D01*
X39697Y79903D02*
X39700Y79900D01*
X32814Y87984D02*
X32981D01*
X32989Y87992D02*
Y88173D01*
X32221Y85811D02*
Y87391D01*
X32981Y87984D02*
X32989Y87992D01*
X32221Y87391D02*
X32814Y87984D01*
X46100Y79513D02*
Y81200D01*
X46098Y79512D02*
Y79512D01*
X46100Y83600D02*
X46108Y83592D01*
X46098Y79512D02*
X46100Y79513D01*
X46108Y83592D02*
X47529D01*
X36100Y79000D02*
Y79181D01*
X33700Y76454D02*
Y79000D01*
X35389Y87992D02*
X36119Y87262D01*
Y85849D02*
Y87262D01*
X38072Y79905D02*
X38126D01*
X38079Y85971D02*
X38099D01*
X38126Y85811D02*
Y85865D01*
X38071Y85979D02*
X38079Y85971D01*
X43993Y76007D02*
X44032Y75968D01*
X40092Y77289D02*
X40100Y77281D01*
X42500Y76919D02*
Y77100D01*
Y76919D02*
X42508Y76911D01*
X43993Y76007D02*
Y76256D01*
X43338Y76911D02*
X43993Y76256D01*
X42508Y76911D02*
X43338D01*
X40100Y76919D02*
Y77100D01*
X38164Y76007D02*
X39188D01*
X40100Y77100D02*
Y77281D01*
X39188Y76007D02*
X40100Y76919D01*
X38126Y75968D02*
X38164Y76007D01*
X35941Y84000D02*
X35949Y84008D01*
Y85548D02*
X36158Y85757D01*
X36119Y85849D02*
X36158Y85811D01*
X34151Y84791D02*
Y85773D01*
X35949Y84008D02*
Y85548D01*
X34151Y85773D02*
X34189Y85811D01*
X36158Y85757D02*
Y85811D01*
X33541Y84181D02*
X34151Y84791D01*
X33541Y84000D02*
Y84181D01*
X57988Y71500D02*
Y71681D01*
X54271Y71689D02*
X55580D01*
X57811Y71858D02*
X57988Y71681D01*
X59180Y72873D01*
X57080Y70411D02*
X57988Y71319D01*
Y71500D01*
X57080Y70397D02*
Y70411D01*
X57811Y71858D02*
Y72031D01*
X55843Y79905D02*
X59306D01*
X47969Y71061D02*
Y72031D01*
Y71061D02*
X48554Y70476D01*
X42500Y74100D02*
X42550Y74050D01*
X43982D02*
X44032Y74000D01*
X48554Y70476D02*
X49248D01*
X42550Y74050D02*
X43982D01*
X55588Y71500D02*
Y71681D01*
X53874Y75968D02*
X53912Y75930D01*
X55580Y71689D02*
X55588Y71681D01*
X55139Y75930D02*
X56788Y74281D01*
X53874Y72031D02*
X53928D01*
X54271Y71689D01*
X56788Y74100D02*
Y74281D01*
X61800Y74800D02*
Y77200D01*
X49895Y80001D02*
X49937Y79960D01*
X49968Y79937D02*
Y81868D01*
X49937Y79905D02*
X49968Y79937D01*
X49937Y79905D02*
Y79960D01*
X49968Y81868D02*
X50000Y81900D01*
X47741Y83804D02*
X47930D01*
X47529Y83592D02*
X47741Y83804D01*
X47930D02*
X47969Y83842D01*
X59180Y74016D02*
Y74092D01*
X61000Y74000D02*
X61800Y74800D01*
X59180Y72873D02*
Y74016D01*
X59196Y74000D01*
X61000D01*
X59400Y77200D02*
Y80000D01*
X59306Y79905D02*
X59400Y80000D01*
X50000Y81900D02*
X51400D01*
X53874Y79905D02*
Y79960D01*
X53800Y80034D02*
X53874Y79960D01*
X53800Y80034D02*
Y81900D01*
X51900Y77019D02*
Y77200D01*
X48914Y75993D02*
X49500Y76578D01*
X51900Y77019D02*
X52912Y76007D01*
X49500Y76578D02*
Y77200D01*
X52912Y76007D02*
X53836D01*
X53912Y75930D02*
X55139D01*
X53836Y76007D02*
X53874Y75968D01*
X47993Y75993D02*
X48914D01*
X49350Y74050D02*
X49400Y74100D01*
X51900Y74000D02*
X53874D01*
X47969D02*
X48019Y74050D01*
X51800Y74100D02*
X51900Y74000D01*
X48019Y74050D02*
X49350D01*
X47969Y75968D02*
X47993Y75993D01*
D85*
X116167Y37042D02*
D03*
X101167D02*
D03*
D86*
X85100Y47415D02*
D03*
X89100Y27415D02*
D03*
X81100D02*
D03*
D87*
X117500Y130000D02*
D03*
X15000Y117500D02*
D03*
X5000Y112500D02*
D03*
X15000Y107500D02*
D03*
X5000Y102500D02*
D03*
X15000Y97500D02*
D03*
X5000Y92500D02*
D03*
X15000Y87500D02*
D03*
X5000Y82500D02*
D03*
X15000Y77500D02*
D03*
X5000Y72500D02*
D03*
X15000Y67500D02*
D03*
X5000Y62500D02*
D03*
X15000Y57500D02*
D03*
X5000Y52500D02*
D03*
X15000Y47500D02*
D03*
X5000Y42500D02*
D03*
X15000Y37500D02*
D03*
X5000Y32500D02*
D03*
X15000Y27500D02*
D03*
X27500Y15000D02*
D03*
X32500Y5000D02*
D03*
X37500Y15000D02*
D03*
X42500Y5000D02*
D03*
X47500Y15000D02*
D03*
X52500Y5000D02*
D03*
X57500Y15000D02*
D03*
X62500Y5000D02*
D03*
X67500Y15000D02*
D03*
X72500Y5000D02*
D03*
X77500Y15000D02*
D03*
X82500Y5000D02*
D03*
X87500Y15000D02*
D03*
X92500Y5000D02*
D03*
X97500Y15000D02*
D03*
X102500Y5000D02*
D03*
X107500Y15000D02*
D03*
X112500Y5000D02*
D03*
X117500Y15000D02*
D03*
X130000Y27500D02*
D03*
X140000Y32500D02*
D03*
X130000Y37500D02*
D03*
X140000Y42500D02*
D03*
X130000Y47500D02*
D03*
X140000Y52500D02*
D03*
X130000Y57500D02*
D03*
X140000Y62500D02*
D03*
X130000Y67500D02*
D03*
X140000Y72500D02*
D03*
X130000Y77500D02*
D03*
X140000Y82500D02*
D03*
X130000Y87500D02*
D03*
X140000Y92500D02*
D03*
X130000Y97500D02*
D03*
X140000Y102500D02*
D03*
X130000Y107500D02*
D03*
X140000Y112500D02*
D03*
X130000Y117500D02*
D03*
X112500Y140000D02*
D03*
X107500Y130000D02*
D03*
X102500Y140000D02*
D03*
X97500Y130000D02*
D03*
X92500Y140000D02*
D03*
X87500Y130000D02*
D03*
X82500Y140000D02*
D03*
X77500Y130000D02*
D03*
X72500Y140000D02*
D03*
X67500Y130000D02*
D03*
X62500Y140000D02*
D03*
X57500Y130000D02*
D03*
X52500Y140000D02*
D03*
X47500Y130000D02*
D03*
X42500Y140000D02*
D03*
X37500Y130000D02*
D03*
X32500Y140000D02*
D03*
X27500Y130000D02*
D03*
D88*
X10000Y135000D02*
D03*
X135000D02*
D03*
Y10000D02*
D03*
X10000D02*
D03*
D89*
X85667Y119635D02*
D03*
X23950Y35563D02*
D03*
Y28875D02*
D03*
X25600Y23300D02*
D03*
X23950Y32415D02*
D03*
X38913Y43437D02*
D03*
X46787Y35563D02*
D03*
X31488Y42016D02*
D03*
X102500Y73637D02*
D03*
X38704Y122599D02*
D03*
X85700Y73700D02*
D03*
X111752Y84302D02*
D03*
X118100Y94400D02*
D03*
X85628Y117826D02*
D03*
X72851Y99092D02*
D03*
X71149Y120268D02*
D03*
X85698Y116003D02*
D03*
X76600Y46730D02*
D03*
X66200Y75846D02*
D03*
X58393Y44030D02*
D03*
X54661Y47374D02*
D03*
X66632Y117618D02*
D03*
X52287Y96423D02*
D03*
X101448Y104460D02*
D03*
X113667Y115711D02*
D03*
X81100Y61443D02*
D03*
X78598D02*
D03*
X90090Y62905D02*
D03*
X82600Y32415D02*
D03*
X87600Y37415D02*
D03*
X82600D02*
D03*
Y42415D02*
D03*
X34447Y95681D02*
D03*
X81900Y68449D02*
D03*
X78675D02*
D03*
X55125Y95260D02*
D03*
X36650Y52937D02*
D03*
X44032Y55600D02*
D03*
X46800Y43400D02*
D03*
X38913Y47374D02*
D03*
X42850D02*
D03*
Y35563D02*
D03*
X65000Y29500D02*
D03*
X72500Y69850D02*
D03*
X80591Y87445D02*
D03*
X104227Y118313D02*
D03*
X61567Y117554D02*
D03*
X101362Y56222D02*
D03*
X97500Y55605D02*
D03*
X92006Y80287D02*
D03*
X94688Y77637D02*
D03*
X98068Y94051D02*
D03*
X34151Y123948D02*
D03*
X32194Y28672D02*
D03*
X31841Y45500D02*
D03*
X54764Y39397D02*
D03*
X45579Y28498D02*
D03*
X64679Y21500D02*
D03*
X31841Y37042D02*
D03*
X23972Y46650D02*
D03*
X23972Y43139D02*
D03*
Y39500D02*
D03*
X23134Y49351D02*
D03*
X24003Y85756D02*
D03*
X31895Y119268D02*
D03*
X25800D02*
D03*
X68262Y115711D02*
D03*
X54157Y117127D02*
D03*
X81100Y119890D02*
D03*
X109196Y73683D02*
D03*
X110380Y76933D02*
D03*
X98166Y88834D02*
D03*
X113278Y106811D02*
D03*
X115100Y63100D02*
D03*
X111400Y55500D02*
D03*
X124600Y45500D02*
D03*
X36650Y108949D02*
D03*
X38426Y119268D02*
D03*
X101062Y118106D02*
D03*
X20428Y30707D02*
D03*
Y37534D02*
D03*
X26336Y90598D02*
D03*
X101710Y76933D02*
D03*
X98631Y79225D02*
D03*
X83634Y88826D02*
D03*
X92851Y89031D02*
D03*
X82531Y74241D02*
D03*
X63593Y84772D02*
D03*
X63437Y99406D02*
D03*
X79840Y99276D02*
D03*
X76803Y89748D02*
D03*
X93048Y93952D02*
D03*
X83600Y93630D02*
D03*
X71000Y77637D02*
D03*
X108667Y28609D02*
D03*
X98954Y108517D02*
D03*
X123200Y34300D02*
D03*
X108667Y45542D02*
D03*
X94688Y37927D02*
D03*
X87600Y32415D02*
D03*
X92500Y48649D02*
D03*
X98941Y28609D02*
D03*
X118667D02*
D03*
X103700Y28600D02*
D03*
X66200Y66068D02*
D03*
X69351Y64200D02*
D03*
X106272Y55950D02*
D03*
X67504Y50572D02*
D03*
X64862Y54300D02*
D03*
X74900Y20800D02*
D03*
X61000Y35500D02*
D03*
X28400Y24100D02*
D03*
X50724Y43400D02*
D03*
X40100Y51400D02*
D03*
X50724Y47374D02*
D03*
X42800Y51400D02*
D03*
X30118Y49799D02*
D03*
X108733Y93555D02*
D03*
X108831Y100314D02*
D03*
X118477Y103168D02*
D03*
X120052Y106711D02*
D03*
X95445Y91259D02*
D03*
X87374Y99526D02*
D03*
X110308Y69605D02*
D03*
D91*
X49957Y92318D02*
D03*
Y89918D02*
D03*
X53800Y91206D02*
D03*
Y93606D02*
D03*
X36108Y76400D02*
D03*
Y74000D02*
D03*
X49248Y70476D02*
D03*
Y68076D02*
D03*
X46000Y68526D02*
D03*
Y66126D02*
D03*
X50000Y59400D02*
D03*
Y61800D02*
D03*
X38100Y66500D02*
D03*
Y64100D02*
D03*
X46100Y81200D02*
D03*
Y83600D02*
D03*
X38099Y83571D02*
D03*
Y85971D02*
D03*
M02*
