G04*
G04 #@! TF.GenerationSoftware,Altium Limited,Altium Designer,23.0.1 (38)*
G04*
G04 Layer_Physical_Order=2*
G04 Layer_Color=56745*
%FSLAX25Y25*%
%MOIN*%
G70*
G04*
G04 #@! TF.SameCoordinates,E6578E61-D9FC-44F6-81D0-07C95BE9B69E*
G04*
G04*
G04 #@! TF.FilePolarity,Positive*
G04*
G01*
G75*
%ADD22C,0.01200*%
%ADD87C,0.05000*%
%ADD88C,0.17000*%
%ADD89C,0.01800*%
G36*
X136784Y143968D02*
X138499Y143448D01*
X140080Y142603D01*
X141466Y141466D01*
X142603Y140080D01*
X143448Y138499D01*
X143968Y136784D01*
X144144Y135000D01*
X143968Y133216D01*
X143448Y131501D01*
X142603Y129920D01*
X141466Y128534D01*
X140080Y127397D01*
X138499Y126552D01*
X136784Y126032D01*
X135497Y125905D01*
X135000Y125898D01*
Y125898D01*
X134044Y125708D01*
X133234Y125166D01*
X132692Y124356D01*
X132502Y123400D01*
X132533D01*
Y120287D01*
X132071Y120096D01*
X132026Y120141D01*
X131274Y120575D01*
X130434Y120800D01*
X129566D01*
X128726Y120575D01*
X127974Y120141D01*
X127359Y119526D01*
X126925Y118774D01*
X126700Y117934D01*
Y117066D01*
X126925Y116226D01*
X127359Y115474D01*
X127974Y114859D01*
X128726Y114425D01*
X129566Y114200D01*
X130434D01*
X131274Y114425D01*
X132026Y114859D01*
X132641Y115474D01*
X132748Y115659D01*
X133331Y115669D01*
X134044Y115192D01*
X135000Y115002D01*
Y115033D01*
X137213D01*
X137405Y114571D01*
X137359Y114526D01*
X136925Y113774D01*
X136700Y112934D01*
Y112066D01*
X136925Y111226D01*
X137359Y110474D01*
X137405Y110429D01*
X137213Y109967D01*
X135000D01*
Y109998D01*
X134044Y109808D01*
X133331Y109331D01*
X132748Y109341D01*
X132641Y109526D01*
X132026Y110141D01*
X131274Y110575D01*
X130434Y110800D01*
X129566D01*
X128726Y110575D01*
X127974Y110141D01*
X127359Y109526D01*
X126925Y108774D01*
X126700Y107934D01*
Y107066D01*
X126925Y106226D01*
X127359Y105474D01*
X127974Y104859D01*
X128726Y104425D01*
X129566Y104200D01*
X130434D01*
X131274Y104425D01*
X132026Y104859D01*
X132641Y105474D01*
X132748Y105659D01*
X133331Y105669D01*
X134044Y105192D01*
X135000Y105002D01*
Y105033D01*
X143400D01*
Y105014D01*
X143673Y104959D01*
X143905Y104805D01*
X144059Y104573D01*
X144114Y104300D01*
X144133D01*
Y100700D01*
X144114D01*
X144059Y100427D01*
X143905Y100195D01*
X143673Y100041D01*
X143400Y99986D01*
Y99967D01*
X135000D01*
Y99998D01*
X134044Y99808D01*
X133331Y99331D01*
X132748Y99340D01*
X132641Y99526D01*
X132026Y100141D01*
X131274Y100575D01*
X130434Y100800D01*
X129566D01*
X128726Y100575D01*
X127974Y100141D01*
X127359Y99526D01*
X126925Y98774D01*
X126700Y97935D01*
Y97066D01*
X126925Y96226D01*
X127359Y95474D01*
X127974Y94859D01*
X128726Y94425D01*
X129566Y94200D01*
X130434D01*
X131274Y94425D01*
X132026Y94859D01*
X132641Y95474D01*
X132748Y95660D01*
X133331Y95669D01*
X134044Y95192D01*
X135000Y95002D01*
Y95033D01*
X137213D01*
X137405Y94571D01*
X137359Y94526D01*
X136925Y93774D01*
X136700Y92935D01*
Y92066D01*
X136925Y91226D01*
X137359Y90474D01*
X137405Y90429D01*
X137213Y89967D01*
X135000D01*
Y89998D01*
X134044Y89808D01*
X133331Y89331D01*
X132748Y89341D01*
X132641Y89526D01*
X132026Y90141D01*
X131274Y90575D01*
X130434Y90800D01*
X129566D01*
X128726Y90575D01*
X127974Y90141D01*
X127359Y89526D01*
X126925Y88774D01*
X126700Y87934D01*
Y87066D01*
X126925Y86226D01*
X127359Y85474D01*
X127974Y84859D01*
X128726Y84425D01*
X129566Y84200D01*
X130434D01*
X131274Y84425D01*
X132026Y84859D01*
X132641Y85474D01*
X132748Y85659D01*
X133331Y85669D01*
X134044Y85192D01*
X135000Y85002D01*
Y85033D01*
X137213D01*
X137405Y84571D01*
X137359Y84526D01*
X136925Y83774D01*
X136700Y82934D01*
Y82065D01*
X136925Y81226D01*
X137359Y80474D01*
X137405Y80429D01*
X137213Y79967D01*
X135000D01*
Y79998D01*
X134044Y79808D01*
X133331Y79331D01*
X132748Y79340D01*
X132641Y79526D01*
X132026Y80141D01*
X131274Y80575D01*
X130434Y80800D01*
X129566D01*
X128726Y80575D01*
X127974Y80141D01*
X127359Y79526D01*
X126925Y78774D01*
X126700Y77934D01*
Y77065D01*
X126925Y76226D01*
X127359Y75474D01*
X127974Y74859D01*
X128726Y74425D01*
X129566Y74200D01*
X130434D01*
X131274Y74425D01*
X132026Y74859D01*
X132641Y75474D01*
X132748Y75660D01*
X133331Y75669D01*
X134044Y75192D01*
X135000Y75002D01*
Y75033D01*
X137213D01*
X137405Y74571D01*
X137359Y74526D01*
X136925Y73774D01*
X136700Y72935D01*
Y72066D01*
X136925Y71226D01*
X137359Y70474D01*
X137405Y70429D01*
X137213Y69967D01*
X135000D01*
Y69998D01*
X134044Y69808D01*
X133331Y69331D01*
X132748Y69340D01*
X132641Y69526D01*
X132026Y70141D01*
X131274Y70575D01*
X130434Y70800D01*
X129566D01*
X128726Y70575D01*
X127974Y70141D01*
X127359Y69526D01*
X126925Y68774D01*
X126700Y67935D01*
Y67066D01*
X126925Y66226D01*
X127359Y65474D01*
X127974Y64859D01*
X128726Y64425D01*
X129566Y64200D01*
X130434D01*
X131274Y64425D01*
X132026Y64859D01*
X132641Y65474D01*
X132748Y65659D01*
X133331Y65669D01*
X134044Y65192D01*
X135000Y65002D01*
Y65033D01*
X137213D01*
X137405Y64571D01*
X137359Y64526D01*
X136925Y63774D01*
X136700Y62934D01*
Y62066D01*
X136925Y61226D01*
X137359Y60474D01*
X137405Y60429D01*
X137213Y59967D01*
X135000D01*
Y59998D01*
X134044Y59808D01*
X133331Y59331D01*
X132748Y59341D01*
X132641Y59526D01*
X132026Y60141D01*
X131274Y60575D01*
X130434Y60800D01*
X129566D01*
X128726Y60575D01*
X127974Y60141D01*
X127359Y59526D01*
X126925Y58774D01*
X126700Y57934D01*
Y57065D01*
X126925Y56226D01*
X127359Y55474D01*
X127974Y54859D01*
X128726Y54425D01*
X129566Y54200D01*
X130434D01*
X131274Y54425D01*
X132026Y54859D01*
X132641Y55474D01*
X132748Y55660D01*
X133331Y55669D01*
X134044Y55192D01*
X135000Y55002D01*
Y55033D01*
X137213D01*
X137405Y54571D01*
X137359Y54526D01*
X136925Y53774D01*
X136700Y52934D01*
Y52065D01*
X136925Y51226D01*
X137359Y50474D01*
X137405Y50429D01*
X137213Y49967D01*
X135000D01*
Y49998D01*
X134044Y49808D01*
X133331Y49331D01*
X132748Y49341D01*
X132641Y49526D01*
X132026Y50141D01*
X131274Y50575D01*
X130434Y50800D01*
X129566D01*
X128726Y50575D01*
X127974Y50141D01*
X127359Y49526D01*
X126925Y48774D01*
X126700Y47934D01*
Y47066D01*
X126925Y46226D01*
X127359Y45474D01*
X127974Y44859D01*
X128726Y44425D01*
X129566Y44200D01*
X130434D01*
X131274Y44425D01*
X132026Y44859D01*
X132641Y45474D01*
X132748Y45660D01*
X133331Y45669D01*
X134044Y45192D01*
X135000Y45002D01*
Y45033D01*
X137213D01*
X137405Y44571D01*
X137359Y44526D01*
X136925Y43774D01*
X136700Y42934D01*
Y42066D01*
X136925Y41226D01*
X137359Y40474D01*
X137405Y40429D01*
X137213Y39967D01*
X135000D01*
Y39998D01*
X134044Y39808D01*
X133331Y39331D01*
X132748Y39340D01*
X132641Y39526D01*
X132026Y40141D01*
X131274Y40575D01*
X130434Y40800D01*
X129566D01*
X128726Y40575D01*
X127974Y40141D01*
X127359Y39526D01*
X126925Y38774D01*
X126700Y37934D01*
Y37066D01*
X126925Y36226D01*
X127359Y35474D01*
X127974Y34859D01*
X128726Y34425D01*
X129566Y34200D01*
X130434D01*
X131274Y34425D01*
X132026Y34859D01*
X132641Y35474D01*
X132748Y35660D01*
X133331Y35669D01*
X134044Y35192D01*
X135000Y35002D01*
Y35033D01*
X137213D01*
X137405Y34571D01*
X137359Y34526D01*
X136925Y33774D01*
X136700Y32934D01*
Y32066D01*
X136925Y31226D01*
X137359Y30474D01*
X137405Y30429D01*
X137213Y29967D01*
X135000D01*
Y29998D01*
X134044Y29808D01*
X133331Y29331D01*
X132748Y29340D01*
X132641Y29526D01*
X132026Y30141D01*
X131274Y30575D01*
X130434Y30800D01*
X129566D01*
X128726Y30575D01*
X127974Y30141D01*
X127359Y29526D01*
X126925Y28774D01*
X126700Y27934D01*
Y27066D01*
X126925Y26226D01*
X127359Y25474D01*
X127974Y24859D01*
X128726Y24425D01*
X129566Y24200D01*
X130434D01*
X131274Y24425D01*
X132026Y24859D01*
X132071Y24904D01*
X132533Y24713D01*
Y21600D01*
X132502D01*
X132692Y20644D01*
X133234Y19834D01*
X134044Y19292D01*
X135000Y19102D01*
Y19102D01*
X135497Y19095D01*
X136784Y18968D01*
X138499Y18448D01*
X140080Y17603D01*
X141466Y16466D01*
X142603Y15080D01*
X143448Y13499D01*
X143968Y11784D01*
X144144Y10000D01*
X143968Y8216D01*
X143448Y6501D01*
X142603Y4920D01*
X141466Y3534D01*
X140080Y2397D01*
X138499Y1552D01*
X136784Y1032D01*
X135000Y856D01*
X133216Y1032D01*
X131501Y1552D01*
X129920Y2397D01*
X128534Y3534D01*
X127397Y4920D01*
X126552Y6501D01*
X126032Y8216D01*
X125905Y9503D01*
X125898Y10000D01*
X125898D01*
X125708Y10956D01*
X125166Y11766D01*
X124356Y12308D01*
X123400Y12498D01*
Y12467D01*
X120287D01*
X120096Y12929D01*
X120141Y12974D01*
X120575Y13726D01*
X120800Y14566D01*
Y15435D01*
X120575Y16274D01*
X120141Y17026D01*
X119526Y17641D01*
X118774Y18075D01*
X117934Y18300D01*
X117066D01*
X116226Y18075D01*
X115474Y17641D01*
X114859Y17026D01*
X114425Y16274D01*
X114200Y15435D01*
Y14566D01*
X114425Y13726D01*
X114859Y12974D01*
X115474Y12359D01*
X115659Y12252D01*
X115669Y11669D01*
X115192Y10956D01*
X115002Y10000D01*
X115033D01*
Y7787D01*
X114571Y7596D01*
X114526Y7641D01*
X113774Y8075D01*
X112934Y8300D01*
X112066D01*
X111226Y8075D01*
X110474Y7641D01*
X110429Y7596D01*
X109967Y7787D01*
Y10000D01*
X109998D01*
X109808Y10956D01*
X109331Y11669D01*
X109341Y12252D01*
X109526Y12359D01*
X110141Y12974D01*
X110575Y13726D01*
X110800Y14566D01*
Y15435D01*
X110575Y16274D01*
X110141Y17026D01*
X109526Y17641D01*
X108774Y18075D01*
X107934Y18300D01*
X107066D01*
X106226Y18075D01*
X105474Y17641D01*
X104859Y17026D01*
X104425Y16274D01*
X104200Y15435D01*
Y14566D01*
X104425Y13726D01*
X104859Y12974D01*
X105474Y12359D01*
X105659Y12252D01*
X105669Y11669D01*
X105192Y10956D01*
X105002Y10000D01*
X105033D01*
Y7787D01*
X104571Y7596D01*
X104526Y7641D01*
X103774Y8075D01*
X102934Y8300D01*
X102066D01*
X101226Y8075D01*
X100474Y7641D01*
X100429Y7596D01*
X99967Y7787D01*
Y10000D01*
X99998D01*
X99808Y10956D01*
X99331Y11669D01*
X99340Y12252D01*
X99526Y12359D01*
X100141Y12974D01*
X100575Y13726D01*
X100800Y14566D01*
Y15435D01*
X100575Y16274D01*
X100141Y17026D01*
X99526Y17641D01*
X98774Y18075D01*
X97935Y18300D01*
X97066D01*
X96226Y18075D01*
X95474Y17641D01*
X94859Y17026D01*
X94425Y16274D01*
X94200Y15435D01*
Y14566D01*
X94425Y13726D01*
X94859Y12974D01*
X95474Y12359D01*
X95660Y12252D01*
X95669Y11669D01*
X95192Y10956D01*
X95002Y10000D01*
X95033D01*
Y7787D01*
X94571Y7596D01*
X94526Y7641D01*
X93774Y8075D01*
X92935Y8300D01*
X92066D01*
X91226Y8075D01*
X90474Y7641D01*
X90429Y7596D01*
X89967Y7787D01*
Y10000D01*
X89998D01*
X89808Y10956D01*
X89331Y11669D01*
X89341Y12252D01*
X89526Y12359D01*
X90141Y12974D01*
X90575Y13726D01*
X90800Y14566D01*
Y15435D01*
X90575Y16274D01*
X90141Y17026D01*
X89526Y17641D01*
X88774Y18075D01*
X87934Y18300D01*
X87066D01*
X86226Y18075D01*
X85474Y17641D01*
X84859Y17026D01*
X84425Y16274D01*
X84200Y15435D01*
Y14566D01*
X84425Y13726D01*
X84859Y12974D01*
X85474Y12359D01*
X85659Y12252D01*
X85669Y11669D01*
X85192Y10956D01*
X85002Y10000D01*
X85033D01*
Y7787D01*
X84571Y7596D01*
X84526Y7641D01*
X83774Y8075D01*
X82934Y8300D01*
X82065D01*
X81226Y8075D01*
X80474Y7641D01*
X80429Y7596D01*
X79967Y7787D01*
Y10000D01*
X79998D01*
X79808Y10956D01*
X79331Y11669D01*
X79340Y12252D01*
X79526Y12359D01*
X80141Y12974D01*
X80575Y13726D01*
X80800Y14566D01*
Y15435D01*
X80575Y16274D01*
X80141Y17026D01*
X79526Y17641D01*
X78774Y18075D01*
X77934Y18300D01*
X77065D01*
X76226Y18075D01*
X75474Y17641D01*
X74859Y17026D01*
X74425Y16274D01*
X74200Y15435D01*
Y14566D01*
X74425Y13726D01*
X74859Y12974D01*
X75474Y12359D01*
X75660Y12252D01*
X75669Y11669D01*
X75192Y10956D01*
X75002Y10000D01*
X75033D01*
Y7787D01*
X74571Y7596D01*
X74526Y7641D01*
X73774Y8075D01*
X72935Y8300D01*
X72066D01*
X71226Y8075D01*
X70474Y7641D01*
X70429Y7596D01*
X69967Y7787D01*
Y10000D01*
X69998D01*
X69808Y10956D01*
X69331Y11669D01*
X69340Y12252D01*
X69526Y12359D01*
X70141Y12974D01*
X70575Y13726D01*
X70800Y14566D01*
Y15435D01*
X70575Y16274D01*
X70141Y17026D01*
X69526Y17641D01*
X68774Y18075D01*
X67935Y18300D01*
X67066D01*
X66226Y18075D01*
X65474Y17641D01*
X64859Y17026D01*
X64425Y16274D01*
X64200Y15435D01*
Y14566D01*
X64425Y13726D01*
X64859Y12974D01*
X65474Y12359D01*
X65659Y12252D01*
X65669Y11669D01*
X65192Y10956D01*
X65002Y10000D01*
X65033D01*
Y7787D01*
X64571Y7596D01*
X64526Y7641D01*
X63774Y8075D01*
X62934Y8300D01*
X62066D01*
X61226Y8075D01*
X60474Y7641D01*
X60429Y7596D01*
X59967Y7787D01*
Y10000D01*
X59998D01*
X59808Y10956D01*
X59331Y11669D01*
X59341Y12252D01*
X59526Y12359D01*
X60141Y12974D01*
X60575Y13726D01*
X60800Y14566D01*
Y15435D01*
X60575Y16274D01*
X60141Y17026D01*
X59526Y17641D01*
X58774Y18075D01*
X57934Y18300D01*
X57065D01*
X56226Y18075D01*
X55474Y17641D01*
X54859Y17026D01*
X54425Y16274D01*
X54200Y15435D01*
Y14566D01*
X54425Y13726D01*
X54859Y12974D01*
X55474Y12359D01*
X55660Y12252D01*
X55669Y11669D01*
X55192Y10956D01*
X55002Y10000D01*
X55033D01*
Y7787D01*
X54571Y7596D01*
X54526Y7641D01*
X53774Y8075D01*
X52934Y8300D01*
X52065D01*
X51226Y8075D01*
X50474Y7641D01*
X50429Y7596D01*
X49967Y7787D01*
Y10000D01*
X49998D01*
X49808Y10956D01*
X49331Y11669D01*
X49341Y12252D01*
X49526Y12359D01*
X50141Y12974D01*
X50575Y13726D01*
X50800Y14566D01*
Y15435D01*
X50575Y16274D01*
X50141Y17026D01*
X49526Y17641D01*
X48774Y18075D01*
X47934Y18300D01*
X47066D01*
X46226Y18075D01*
X45474Y17641D01*
X44859Y17026D01*
X44425Y16274D01*
X44200Y15435D01*
Y14566D01*
X44425Y13726D01*
X44859Y12974D01*
X45474Y12359D01*
X45660Y12252D01*
X45669Y11669D01*
X45192Y10956D01*
X45002Y10000D01*
X45033D01*
Y7787D01*
X44571Y7596D01*
X44526Y7641D01*
X43774Y8075D01*
X42934Y8300D01*
X42066D01*
X41226Y8075D01*
X40474Y7641D01*
X40429Y7596D01*
X39967Y7787D01*
Y10000D01*
X39998D01*
X39808Y10956D01*
X39331Y11669D01*
X39340Y12252D01*
X39526Y12359D01*
X40141Y12974D01*
X40575Y13726D01*
X40800Y14566D01*
Y15435D01*
X40575Y16274D01*
X40141Y17026D01*
X39526Y17641D01*
X38774Y18075D01*
X37934Y18300D01*
X37066D01*
X36226Y18075D01*
X35474Y17641D01*
X34859Y17026D01*
X34425Y16274D01*
X34200Y15435D01*
Y14566D01*
X34425Y13726D01*
X34859Y12974D01*
X35474Y12359D01*
X35660Y12252D01*
X35669Y11669D01*
X35192Y10956D01*
X35002Y10000D01*
X35033D01*
Y7787D01*
X34571Y7596D01*
X34526Y7641D01*
X33774Y8075D01*
X32934Y8300D01*
X32066D01*
X31226Y8075D01*
X30474Y7641D01*
X30429Y7596D01*
X29967Y7787D01*
Y10000D01*
X29998D01*
X29808Y10956D01*
X29331Y11669D01*
X29340Y12252D01*
X29526Y12359D01*
X30141Y12974D01*
X30575Y13726D01*
X30800Y14566D01*
Y15435D01*
X30575Y16274D01*
X30141Y17026D01*
X29526Y17641D01*
X28774Y18075D01*
X27934Y18300D01*
X27066D01*
X26226Y18075D01*
X25474Y17641D01*
X24859Y17026D01*
X24425Y16274D01*
X24200Y15435D01*
Y14566D01*
X24425Y13726D01*
X24859Y12974D01*
X24904Y12929D01*
X24713Y12467D01*
X21600D01*
Y12498D01*
X20644Y12308D01*
X19834Y11766D01*
X19292Y10956D01*
X19102Y10000D01*
X19102D01*
X19095Y9503D01*
X18968Y8216D01*
X18448Y6501D01*
X17603Y4920D01*
X16466Y3534D01*
X15080Y2397D01*
X13499Y1552D01*
X11784Y1032D01*
X10000Y856D01*
X8216Y1032D01*
X6501Y1552D01*
X4920Y2397D01*
X3534Y3534D01*
X2397Y4920D01*
X1552Y6501D01*
X1032Y8216D01*
X856Y10000D01*
X1032Y11784D01*
X1552Y13499D01*
X2397Y15080D01*
X3534Y16466D01*
X4920Y17603D01*
X6501Y18448D01*
X8216Y18968D01*
X9503Y19095D01*
X10000Y19102D01*
Y19102D01*
X10956Y19292D01*
X11766Y19834D01*
X12308Y20644D01*
X12498Y21600D01*
X12467D01*
Y24713D01*
X12929Y24904D01*
X12974Y24859D01*
X13726Y24425D01*
X14566Y24200D01*
X15435D01*
X16274Y24425D01*
X17026Y24859D01*
X17641Y25474D01*
X18075Y26226D01*
X18300Y27066D01*
Y27934D01*
X18075Y28774D01*
X17641Y29526D01*
X17026Y30141D01*
X16274Y30575D01*
X15435Y30800D01*
X14566D01*
X13726Y30575D01*
X12974Y30141D01*
X12359Y29526D01*
X12252Y29340D01*
X11669Y29331D01*
X10956Y29808D01*
X10000Y29998D01*
Y29967D01*
X7787D01*
X7596Y30429D01*
X7641Y30474D01*
X8075Y31226D01*
X8300Y32066D01*
Y32934D01*
X8075Y33774D01*
X7641Y34526D01*
X7596Y34571D01*
X7787Y35033D01*
X10000D01*
Y35002D01*
X10956Y35192D01*
X11669Y35669D01*
X12252Y35660D01*
X12359Y35474D01*
X12974Y34859D01*
X13726Y34425D01*
X14566Y34200D01*
X15435D01*
X16274Y34425D01*
X17026Y34859D01*
X17641Y35474D01*
X18075Y36226D01*
X18277Y36979D01*
X18530Y37056D01*
X18791Y37044D01*
X18987Y36571D01*
X19465Y36093D01*
X20090Y35834D01*
X20766D01*
X21391Y36093D01*
X21869Y36571D01*
X22128Y37196D01*
Y37872D01*
X21869Y38497D01*
X21391Y38976D01*
X20766Y39234D01*
X20090D01*
X19465Y38976D01*
X18987Y38497D01*
X18777Y37990D01*
X18726Y37984D01*
X18266Y38060D01*
X18075Y38774D01*
X17641Y39526D01*
X17026Y40141D01*
X16274Y40575D01*
X15435Y40800D01*
X14566D01*
X13726Y40575D01*
X12974Y40141D01*
X12359Y39526D01*
X12252Y39340D01*
X11669Y39331D01*
X10956Y39808D01*
X10000Y39998D01*
Y39967D01*
X7787D01*
X7596Y40429D01*
X7641Y40474D01*
X8075Y41226D01*
X8300Y42066D01*
Y42934D01*
X8075Y43774D01*
X7641Y44526D01*
X7596Y44571D01*
X7787Y45033D01*
X10000D01*
Y45002D01*
X10956Y45192D01*
X11669Y45669D01*
X12252Y45660D01*
X12359Y45474D01*
X12974Y44859D01*
X13726Y44425D01*
X14566Y44200D01*
X15435D01*
X16274Y44425D01*
X17026Y44859D01*
X17641Y45474D01*
X18075Y46226D01*
X18300Y47066D01*
Y47934D01*
X18075Y48774D01*
X17641Y49526D01*
X17026Y50141D01*
X16274Y50575D01*
X15435Y50800D01*
X14566D01*
X13726Y50575D01*
X12974Y50141D01*
X12359Y49526D01*
X12252Y49341D01*
X11669Y49331D01*
X10956Y49808D01*
X10000Y49998D01*
Y49967D01*
X7787D01*
X7596Y50429D01*
X7641Y50474D01*
X8075Y51226D01*
X8300Y52065D01*
Y52934D01*
X8075Y53774D01*
X7641Y54526D01*
X7596Y54571D01*
X7787Y55033D01*
X10000D01*
Y55002D01*
X10956Y55192D01*
X11669Y55669D01*
X12252Y55660D01*
X12359Y55474D01*
X12974Y54859D01*
X13726Y54425D01*
X14566Y54200D01*
X15435D01*
X16274Y54425D01*
X17026Y54859D01*
X17641Y55474D01*
X18075Y56226D01*
X18300Y57065D01*
Y57934D01*
X18075Y58774D01*
X17641Y59526D01*
X17026Y60141D01*
X16274Y60575D01*
X15435Y60800D01*
X14566D01*
X13726Y60575D01*
X12974Y60141D01*
X12359Y59526D01*
X12252Y59341D01*
X11669Y59331D01*
X10956Y59808D01*
X10000Y59998D01*
Y59967D01*
X7787D01*
X7596Y60429D01*
X7641Y60474D01*
X8075Y61226D01*
X8300Y62066D01*
Y62934D01*
X8075Y63774D01*
X7641Y64526D01*
X7596Y64571D01*
X7787Y65033D01*
X10000D01*
Y65002D01*
X10956Y65192D01*
X11669Y65669D01*
X12252Y65659D01*
X12359Y65474D01*
X12974Y64859D01*
X13726Y64425D01*
X14566Y64200D01*
X15435D01*
X16274Y64425D01*
X17026Y64859D01*
X17641Y65474D01*
X18075Y66226D01*
X18300Y67066D01*
Y67935D01*
X18075Y68774D01*
X17641Y69526D01*
X17026Y70141D01*
X16274Y70575D01*
X15435Y70800D01*
X14566D01*
X13726Y70575D01*
X12974Y70141D01*
X12359Y69526D01*
X12252Y69340D01*
X11669Y69331D01*
X10956Y69808D01*
X10000Y69998D01*
Y69967D01*
X7787D01*
X7596Y70429D01*
X7641Y70474D01*
X8075Y71226D01*
X8300Y72066D01*
Y72935D01*
X8075Y73774D01*
X7641Y74526D01*
X7596Y74571D01*
X7787Y75033D01*
X10000D01*
Y75002D01*
X10956Y75192D01*
X11669Y75669D01*
X12252Y75660D01*
X12359Y75474D01*
X12974Y74859D01*
X13726Y74425D01*
X14566Y74200D01*
X15435D01*
X16274Y74425D01*
X17026Y74859D01*
X17641Y75474D01*
X18075Y76226D01*
X18300Y77065D01*
Y77934D01*
X18075Y78774D01*
X17641Y79526D01*
X17026Y80141D01*
X16274Y80575D01*
X15435Y80800D01*
X14566D01*
X13726Y80575D01*
X12974Y80141D01*
X12359Y79526D01*
X12252Y79340D01*
X11669Y79331D01*
X10956Y79808D01*
X10000Y79998D01*
Y79967D01*
X7787D01*
X7596Y80429D01*
X7641Y80474D01*
X8075Y81226D01*
X8300Y82065D01*
Y82934D01*
X8075Y83774D01*
X7641Y84526D01*
X7596Y84571D01*
X7787Y85033D01*
X10000D01*
Y85002D01*
X10956Y85192D01*
X11669Y85669D01*
X12252Y85659D01*
X12359Y85474D01*
X12974Y84859D01*
X13726Y84425D01*
X14566Y84200D01*
X15435D01*
X16274Y84425D01*
X17026Y84859D01*
X17641Y85474D01*
X18075Y86226D01*
X18300Y87066D01*
Y87934D01*
X18075Y88774D01*
X17641Y89526D01*
X17026Y90141D01*
X16274Y90575D01*
X15435Y90800D01*
X14566D01*
X13726Y90575D01*
X12974Y90141D01*
X12359Y89526D01*
X12252Y89341D01*
X11669Y89331D01*
X10956Y89808D01*
X10000Y89998D01*
Y89967D01*
X7787D01*
X7596Y90429D01*
X7641Y90474D01*
X8075Y91226D01*
X8300Y92066D01*
Y92935D01*
X8075Y93774D01*
X7641Y94526D01*
X7596Y94571D01*
X7787Y95033D01*
X10000D01*
Y95002D01*
X10956Y95192D01*
X11669Y95669D01*
X12252Y95660D01*
X12359Y95474D01*
X12974Y94859D01*
X13726Y94425D01*
X14566Y94200D01*
X15435D01*
X16274Y94425D01*
X17026Y94859D01*
X17641Y95474D01*
X18075Y96226D01*
X18300Y97066D01*
Y97935D01*
X18075Y98774D01*
X17641Y99526D01*
X17026Y100141D01*
X16274Y100575D01*
X15435Y100800D01*
X14566D01*
X13726Y100575D01*
X12974Y100141D01*
X12359Y99526D01*
X12252Y99340D01*
X11669Y99331D01*
X10956Y99808D01*
X10000Y99998D01*
Y99967D01*
X7787D01*
X7596Y100429D01*
X7641Y100474D01*
X8075Y101226D01*
X8300Y102066D01*
Y102934D01*
X8075Y103774D01*
X7641Y104526D01*
X7596Y104571D01*
X7787Y105033D01*
X10000D01*
Y105002D01*
X10956Y105192D01*
X11669Y105669D01*
X12252Y105659D01*
X12359Y105474D01*
X12974Y104859D01*
X13726Y104425D01*
X14566Y104200D01*
X15435D01*
X16274Y104425D01*
X17026Y104859D01*
X17641Y105474D01*
X18075Y106226D01*
X18300Y107066D01*
Y107934D01*
X18075Y108774D01*
X17641Y109526D01*
X17026Y110141D01*
X16274Y110575D01*
X15435Y110800D01*
X14566D01*
X13726Y110575D01*
X12974Y110141D01*
X12359Y109526D01*
X12252Y109341D01*
X11669Y109331D01*
X10956Y109808D01*
X10000Y109998D01*
Y109967D01*
X7787D01*
X7596Y110429D01*
X7641Y110474D01*
X8075Y111226D01*
X8300Y112066D01*
Y112934D01*
X8075Y113774D01*
X7641Y114526D01*
X7596Y114571D01*
X7787Y115033D01*
X10000D01*
Y115002D01*
X10956Y115192D01*
X11669Y115669D01*
X12252Y115659D01*
X12359Y115474D01*
X12974Y114859D01*
X13726Y114425D01*
X14566Y114200D01*
X15435D01*
X16274Y114425D01*
X17026Y114859D01*
X17641Y115474D01*
X18075Y116226D01*
X18300Y117066D01*
Y117934D01*
X18075Y118774D01*
X17641Y119526D01*
X17026Y120141D01*
X16274Y120575D01*
X15435Y120800D01*
X14566D01*
X13726Y120575D01*
X12974Y120141D01*
X12929Y120096D01*
X12467Y120287D01*
Y123400D01*
X12498D01*
X12308Y124356D01*
X11766Y125166D01*
X10956Y125708D01*
X10000Y125898D01*
Y125898D01*
X9503Y125905D01*
X8216Y126032D01*
X6501Y126552D01*
X4920Y127397D01*
X3534Y128534D01*
X2397Y129920D01*
X1552Y131501D01*
X1032Y133216D01*
X856Y135000D01*
X1032Y136784D01*
X1552Y138499D01*
X2397Y140080D01*
X3534Y141466D01*
X4920Y142603D01*
X6501Y143448D01*
X8216Y143968D01*
X10000Y144144D01*
X11784Y143968D01*
X13499Y143448D01*
X15080Y142603D01*
X16466Y141466D01*
X17603Y140080D01*
X18448Y138499D01*
X18968Y136784D01*
X19095Y135497D01*
X19102Y135000D01*
X19102D01*
X19292Y134044D01*
X19834Y133234D01*
X20644Y132692D01*
X21600Y132502D01*
Y132533D01*
X24713D01*
X24904Y132071D01*
X24859Y132026D01*
X24425Y131274D01*
X24200Y130434D01*
Y129566D01*
X24425Y128726D01*
X24859Y127974D01*
X25474Y127359D01*
X26226Y126925D01*
X27066Y126700D01*
X27934D01*
X28774Y126925D01*
X29526Y127359D01*
X30141Y127974D01*
X30575Y128726D01*
X30800Y129566D01*
Y130434D01*
X30575Y131274D01*
X30141Y132026D01*
X29526Y132641D01*
X29340Y132748D01*
X29331Y133331D01*
X29808Y134044D01*
X29998Y135000D01*
X29967D01*
Y137213D01*
X30429Y137405D01*
X30474Y137359D01*
X31226Y136925D01*
X32066Y136700D01*
X32934D01*
X33774Y136925D01*
X34526Y137359D01*
X34571Y137405D01*
X35033Y137213D01*
Y135000D01*
X35002D01*
X35192Y134044D01*
X35669Y133331D01*
X35660Y132748D01*
X35474Y132641D01*
X34859Y132026D01*
X34425Y131274D01*
X34200Y130434D01*
Y129566D01*
X34425Y128726D01*
X34859Y127974D01*
X35474Y127359D01*
X36226Y126925D01*
X37066Y126700D01*
X37934D01*
X38774Y126925D01*
X39526Y127359D01*
X40141Y127974D01*
X40575Y128726D01*
X40800Y129566D01*
Y130434D01*
X40575Y131274D01*
X40141Y132026D01*
X39526Y132641D01*
X39340Y132748D01*
X39331Y133331D01*
X39808Y134044D01*
X39998Y135000D01*
X39967D01*
Y137213D01*
X40429Y137405D01*
X40474Y137359D01*
X41226Y136925D01*
X42066Y136700D01*
X42934D01*
X43774Y136925D01*
X44526Y137359D01*
X44571Y137405D01*
X45033Y137213D01*
Y135000D01*
X45002D01*
X45192Y134044D01*
X45669Y133331D01*
X45660Y132748D01*
X45474Y132641D01*
X44859Y132026D01*
X44425Y131274D01*
X44200Y130434D01*
Y129566D01*
X44425Y128726D01*
X44859Y127974D01*
X45474Y127359D01*
X46226Y126925D01*
X47066Y126700D01*
X47934D01*
X48774Y126925D01*
X49526Y127359D01*
X50141Y127974D01*
X50575Y128726D01*
X50800Y129566D01*
Y130434D01*
X50575Y131274D01*
X50141Y132026D01*
X49526Y132641D01*
X49341Y132748D01*
X49331Y133331D01*
X49808Y134044D01*
X49998Y135000D01*
X49967D01*
Y137213D01*
X50429Y137405D01*
X50474Y137359D01*
X51226Y136925D01*
X52065Y136700D01*
X52934D01*
X53774Y136925D01*
X54526Y137359D01*
X54571Y137405D01*
X55033Y137213D01*
Y135000D01*
X55002D01*
X55192Y134044D01*
X55669Y133331D01*
X55660Y132748D01*
X55474Y132641D01*
X54859Y132026D01*
X54425Y131274D01*
X54200Y130434D01*
Y129566D01*
X54425Y128726D01*
X54859Y127974D01*
X55474Y127359D01*
X56226Y126925D01*
X57065Y126700D01*
X57934D01*
X58774Y126925D01*
X59526Y127359D01*
X60141Y127974D01*
X60575Y128726D01*
X60800Y129566D01*
Y130434D01*
X60575Y131274D01*
X60141Y132026D01*
X59526Y132641D01*
X59341Y132748D01*
X59331Y133331D01*
X59808Y134044D01*
X59998Y135000D01*
X59967D01*
Y137213D01*
X60429Y137405D01*
X60474Y137359D01*
X61226Y136925D01*
X62066Y136700D01*
X62934D01*
X63774Y136925D01*
X64526Y137359D01*
X64571Y137405D01*
X65033Y137213D01*
Y135000D01*
X65002D01*
X65192Y134044D01*
X65669Y133331D01*
X65659Y132748D01*
X65474Y132641D01*
X64859Y132026D01*
X64425Y131274D01*
X64200Y130434D01*
Y129566D01*
X64425Y128726D01*
X64859Y127974D01*
X65474Y127359D01*
X66226Y126925D01*
X67066Y126700D01*
X67935D01*
X68774Y126925D01*
X69526Y127359D01*
X70141Y127974D01*
X70575Y128726D01*
X70800Y129566D01*
Y130434D01*
X70575Y131274D01*
X70141Y132026D01*
X69526Y132641D01*
X69340Y132748D01*
X69331Y133331D01*
X69808Y134044D01*
X69998Y135000D01*
X69967D01*
Y137213D01*
X70429Y137405D01*
X70474Y137359D01*
X71226Y136925D01*
X72066Y136700D01*
X72935D01*
X73774Y136925D01*
X74526Y137359D01*
X74571Y137405D01*
X75033Y137213D01*
Y135000D01*
X75002D01*
X75192Y134044D01*
X75669Y133331D01*
X75660Y132748D01*
X75474Y132641D01*
X74859Y132026D01*
X74425Y131274D01*
X74200Y130434D01*
Y129566D01*
X74425Y128726D01*
X74859Y127974D01*
X75474Y127359D01*
X76226Y126925D01*
X77065Y126700D01*
X77934D01*
X78774Y126925D01*
X79526Y127359D01*
X80141Y127974D01*
X80575Y128726D01*
X80800Y129566D01*
Y130434D01*
X80575Y131274D01*
X80141Y132026D01*
X79526Y132641D01*
X79340Y132748D01*
X79331Y133331D01*
X79808Y134044D01*
X79998Y135000D01*
X79967D01*
Y137213D01*
X80429Y137405D01*
X80474Y137359D01*
X81226Y136925D01*
X82065Y136700D01*
X82934D01*
X83774Y136925D01*
X84526Y137359D01*
X84571Y137405D01*
X85033Y137213D01*
Y135000D01*
X85002D01*
X85192Y134044D01*
X85669Y133331D01*
X85659Y132748D01*
X85474Y132641D01*
X84859Y132026D01*
X84425Y131274D01*
X84200Y130434D01*
Y129566D01*
X84425Y128726D01*
X84859Y127974D01*
X85474Y127359D01*
X86226Y126925D01*
X87066Y126700D01*
X87934D01*
X88774Y126925D01*
X89526Y127359D01*
X90141Y127974D01*
X90575Y128726D01*
X90800Y129566D01*
Y130434D01*
X90575Y131274D01*
X90141Y132026D01*
X89526Y132641D01*
X89341Y132748D01*
X89331Y133331D01*
X89808Y134044D01*
X89998Y135000D01*
X89967D01*
Y137213D01*
X90429Y137405D01*
X90474Y137359D01*
X91226Y136925D01*
X92066Y136700D01*
X92935D01*
X93774Y136925D01*
X94526Y137359D01*
X94571Y137405D01*
X95033Y137213D01*
Y135000D01*
X95002D01*
X95192Y134044D01*
X95669Y133331D01*
X95660Y132748D01*
X95474Y132641D01*
X94859Y132026D01*
X94425Y131274D01*
X94200Y130434D01*
Y129566D01*
X94425Y128726D01*
X94859Y127974D01*
X95474Y127359D01*
X96226Y126925D01*
X97066Y126700D01*
X97935D01*
X98774Y126925D01*
X99526Y127359D01*
X100141Y127974D01*
X100575Y128726D01*
X100800Y129566D01*
Y130434D01*
X100575Y131274D01*
X100141Y132026D01*
X99526Y132641D01*
X99340Y132748D01*
X99331Y133331D01*
X99808Y134044D01*
X99998Y135000D01*
X99967D01*
Y137213D01*
X100429Y137405D01*
X100474Y137359D01*
X101226Y136925D01*
X102066Y136700D01*
X102934D01*
X103774Y136925D01*
X104526Y137359D01*
X104571Y137405D01*
X105033Y137213D01*
Y135000D01*
X105002D01*
X105192Y134044D01*
X105669Y133331D01*
X105659Y132748D01*
X105474Y132641D01*
X104859Y132026D01*
X104425Y131274D01*
X104200Y130434D01*
Y129566D01*
X104425Y128726D01*
X104859Y127974D01*
X105474Y127359D01*
X106226Y126925D01*
X107066Y126700D01*
X107934D01*
X108774Y126925D01*
X109526Y127359D01*
X110141Y127974D01*
X110575Y128726D01*
X110800Y129566D01*
Y130434D01*
X110575Y131274D01*
X110141Y132026D01*
X109526Y132641D01*
X109341Y132748D01*
X109331Y133331D01*
X109808Y134044D01*
X109998Y135000D01*
X109967D01*
Y137213D01*
X110429Y137405D01*
X110474Y137359D01*
X111226Y136925D01*
X112066Y136700D01*
X112934D01*
X113774Y136925D01*
X114526Y137359D01*
X114571Y137405D01*
X115033Y137213D01*
Y135000D01*
X115002D01*
X115192Y134044D01*
X115669Y133331D01*
X115659Y132748D01*
X115474Y132641D01*
X114859Y132026D01*
X114425Y131274D01*
X114200Y130434D01*
Y129566D01*
X114425Y128726D01*
X114859Y127974D01*
X115474Y127359D01*
X116226Y126925D01*
X117066Y126700D01*
X117934D01*
X118774Y126925D01*
X119526Y127359D01*
X120141Y127974D01*
X120575Y128726D01*
X120800Y129566D01*
Y130434D01*
X120575Y131274D01*
X120141Y132026D01*
X120096Y132071D01*
X120287Y132533D01*
X123400D01*
Y132502D01*
X124356Y132692D01*
X125166Y133234D01*
X125708Y134044D01*
X125898Y135000D01*
X125898D01*
X125905Y135497D01*
X126032Y136784D01*
X126552Y138499D01*
X127397Y140080D01*
X128534Y141466D01*
X129920Y142603D01*
X131501Y143448D01*
X133216Y143968D01*
X135000Y144144D01*
X136784Y143968D01*
D02*
G37*
%LPC*%
G36*
X34489Y125648D02*
X33813D01*
X33188Y125389D01*
X32710Y124911D01*
X32451Y124286D01*
Y123610D01*
X32710Y122985D01*
X33188Y122507D01*
X33813Y122248D01*
X34489D01*
X35114Y122507D01*
X35592Y122985D01*
X35851Y123610D01*
Y124286D01*
X35592Y124911D01*
X35114Y125389D01*
X34489Y125648D01*
D02*
G37*
G36*
X71487Y121968D02*
X70811D01*
X70186Y121709D01*
X69708Y121231D01*
X69449Y120606D01*
Y119930D01*
X69708Y119305D01*
X70186Y118827D01*
X70811Y118568D01*
X71487D01*
X72112Y118827D01*
X72590Y119305D01*
X72849Y119930D01*
Y120606D01*
X72590Y121231D01*
X72112Y121709D01*
X71487Y121968D01*
D02*
G37*
G36*
X39042Y124299D02*
X38365D01*
X37741Y124040D01*
X37262Y123562D01*
X37004Y122937D01*
Y122261D01*
X37262Y121636D01*
X37594Y121304D01*
X37545Y120787D01*
X37515Y120730D01*
X37463Y120709D01*
X36985Y120231D01*
X36726Y119606D01*
Y118930D01*
X36985Y118305D01*
X37463Y117827D01*
X38088Y117568D01*
X38764D01*
X39389Y117827D01*
X39867Y118305D01*
X40126Y118930D01*
Y119606D01*
X39867Y120231D01*
X39535Y120562D01*
X39585Y121080D01*
X39615Y121136D01*
X39667Y121158D01*
X40145Y121636D01*
X40404Y122261D01*
Y122937D01*
X40145Y123562D01*
X39667Y124040D01*
X39042Y124299D01*
D02*
G37*
G36*
X104565Y120013D02*
X103889D01*
X103264Y119755D01*
X102786Y119276D01*
X102527Y118651D01*
Y117975D01*
X102786Y117350D01*
X103264Y116872D01*
X103889Y116613D01*
X104565D01*
X105190Y116872D01*
X105668Y117350D01*
X105927Y117975D01*
Y118651D01*
X105668Y119276D01*
X105190Y119755D01*
X104565Y120013D01*
D02*
G37*
G36*
X86006Y121335D02*
X85329D01*
X84704Y121076D01*
X84226Y120598D01*
X83967Y119973D01*
Y119297D01*
X84182Y118778D01*
X83928Y118164D01*
Y117488D01*
X84187Y116863D01*
X84206Y116844D01*
X83998Y116341D01*
Y115665D01*
X84257Y115040D01*
X84735Y114561D01*
X85360Y114303D01*
X86036D01*
X86661Y114561D01*
X87139Y115040D01*
X87398Y115665D01*
Y116341D01*
X87139Y116966D01*
X87120Y116985D01*
X87328Y117488D01*
Y118164D01*
X87113Y118684D01*
X87367Y119297D01*
Y119973D01*
X87108Y120598D01*
X86630Y121076D01*
X86006Y121335D01*
D02*
G37*
G36*
X114005Y117411D02*
X113328D01*
X112704Y117153D01*
X112225Y116674D01*
X111967Y116050D01*
Y115373D01*
X112225Y114748D01*
X112704Y114270D01*
X113328Y114011D01*
X114005D01*
X114629Y114270D01*
X115108Y114748D01*
X115367Y115373D01*
Y116050D01*
X115108Y116674D01*
X114629Y117153D01*
X114005Y117411D01*
D02*
G37*
G36*
X66971Y119318D02*
X66294D01*
X65670Y119059D01*
X65191Y118581D01*
X64933Y117956D01*
Y117280D01*
X65191Y116655D01*
X65670Y116177D01*
X66294Y115918D01*
X66562D01*
Y115373D01*
X66821Y114748D01*
X67299Y114270D01*
X67924Y114011D01*
X68600D01*
X69225Y114270D01*
X69703Y114748D01*
X69962Y115373D01*
Y116050D01*
X69703Y116674D01*
X69225Y117153D01*
X68600Y117411D01*
X68332D01*
Y117956D01*
X68074Y118581D01*
X67595Y119059D01*
X66971Y119318D01*
D02*
G37*
G36*
X36988Y110650D02*
X36312D01*
X35687Y110391D01*
X35208Y109912D01*
X34950Y109288D01*
Y108611D01*
X35208Y107986D01*
X35687Y107508D01*
X36312Y107249D01*
X36988D01*
X37613Y107508D01*
X38091Y107986D01*
X38350Y108611D01*
Y109288D01*
X38091Y109912D01*
X37613Y110391D01*
X36988Y110650D01*
D02*
G37*
G36*
X113616Y108511D02*
X112939D01*
X112315Y108252D01*
X111836Y107774D01*
X111578Y107149D01*
Y106473D01*
X111836Y105848D01*
X112315Y105370D01*
X112939Y105111D01*
X113616D01*
X114241Y105370D01*
X114719Y105848D01*
X114978Y106473D01*
Y107149D01*
X114719Y107774D01*
X114241Y108252D01*
X113616Y108511D01*
D02*
G37*
G36*
X101786Y106160D02*
X101110D01*
X100485Y105901D01*
X100006Y105423D01*
X99748Y104798D01*
Y104122D01*
X100006Y103497D01*
X100485Y103019D01*
X101110Y102760D01*
X101786D01*
X102411Y103019D01*
X102889Y103497D01*
X103148Y104122D01*
Y104798D01*
X102889Y105423D01*
X102411Y105901D01*
X101786Y106160D01*
D02*
G37*
G36*
X109169Y102014D02*
X108493D01*
X107868Y101755D01*
X107390Y101277D01*
X107131Y100652D01*
Y99975D01*
X107390Y99351D01*
X107868Y98872D01*
X108493Y98614D01*
X109169D01*
X109794Y98872D01*
X110272Y99351D01*
X110531Y99975D01*
Y100652D01*
X110272Y101277D01*
X109794Y101755D01*
X109169Y102014D01*
D02*
G37*
G36*
X63775Y101107D02*
X63099D01*
X62474Y100848D01*
X61996Y100369D01*
X61737Y99745D01*
Y99068D01*
X61996Y98444D01*
X62474Y97965D01*
X63099Y97707D01*
X63775D01*
X64400Y97965D01*
X64878Y98444D01*
X65137Y99068D01*
Y99745D01*
X64878Y100369D01*
X64400Y100848D01*
X63775Y101107D01*
D02*
G37*
G36*
X34785Y97381D02*
X34109D01*
X33484Y97122D01*
X33006Y96644D01*
X32747Y96019D01*
Y95343D01*
X33006Y94718D01*
X33484Y94240D01*
X34109Y93981D01*
X34785D01*
X35410Y94240D01*
X35888Y94718D01*
X36147Y95343D01*
Y96019D01*
X35888Y96644D01*
X35410Y97122D01*
X34785Y97381D01*
D02*
G37*
G36*
X83938Y95330D02*
X83262D01*
X82637Y95071D01*
X82159Y94593D01*
X81900Y93968D01*
Y93292D01*
X82159Y92667D01*
X82637Y92189D01*
X83262Y91930D01*
X83938D01*
X84563Y92189D01*
X85041Y92667D01*
X85300Y93292D01*
Y93968D01*
X85041Y94593D01*
X84563Y95071D01*
X83938Y95330D01*
D02*
G37*
G36*
X109071Y95254D02*
X108395D01*
X107770Y94996D01*
X107291Y94517D01*
X107033Y93893D01*
Y93216D01*
X107291Y92592D01*
X107770Y92113D01*
X108395Y91855D01*
X109071D01*
X109696Y92113D01*
X110174Y92592D01*
X110433Y93216D01*
Y93893D01*
X110174Y94517D01*
X109696Y94996D01*
X109071Y95254D01*
D02*
G37*
G36*
X83972Y90526D02*
X83296D01*
X82671Y90267D01*
X82193Y89789D01*
X81934Y89164D01*
Y89160D01*
X81434Y88936D01*
X80930Y89145D01*
X80253D01*
X79628Y88886D01*
X79150Y88408D01*
X78891Y87783D01*
Y87107D01*
X79150Y86482D01*
X79628Y86004D01*
X80253Y85745D01*
X80930D01*
X81554Y86004D01*
X82033Y86482D01*
X82291Y87107D01*
Y87111D01*
X82791Y87335D01*
X83296Y87126D01*
X83972D01*
X84597Y87385D01*
X85075Y87863D01*
X85334Y88488D01*
Y89164D01*
X85075Y89789D01*
X84597Y90267D01*
X83972Y90526D01*
D02*
G37*
G36*
X26674Y92298D02*
X25998D01*
X25373Y92039D01*
X24895Y91561D01*
X24636Y90936D01*
Y90260D01*
X24895Y89635D01*
X25373Y89157D01*
X25998Y88898D01*
X26674D01*
X27299Y89157D01*
X27777Y89635D01*
X28036Y90260D01*
Y90936D01*
X27777Y91561D01*
X27299Y92039D01*
X26674Y92298D01*
D02*
G37*
G36*
X60058Y89179D02*
X59501D01*
X58987Y88966D01*
X58795Y88775D01*
X58604Y88966D01*
X58090Y89179D01*
X57533D01*
X57018Y88966D01*
X56624Y88573D01*
X56411Y88058D01*
Y87501D01*
X56624Y86987D01*
X56815Y86795D01*
X56624Y86604D01*
X56411Y86089D01*
Y85532D01*
X56624Y85018D01*
X57018Y84624D01*
X57533Y84411D01*
X58090D01*
X58604Y84624D01*
X58795Y84815D01*
X58987Y84624D01*
X59501Y84411D01*
X60058D01*
X60573Y84624D01*
X60764Y84815D01*
X60955Y84624D01*
X61470Y84411D01*
X61902D01*
X62152Y83808D01*
X62630Y83330D01*
X63255Y83072D01*
X63931D01*
X64556Y83330D01*
X65034Y83808D01*
X65293Y84433D01*
Y85110D01*
X65034Y85734D01*
X64556Y86213D01*
X63931Y86471D01*
X63255D01*
X63029Y86378D01*
X62935Y86604D01*
X62541Y86998D01*
X62027Y87211D01*
X61601D01*
X61351Y87383D01*
X61180Y87632D01*
Y88058D01*
X60966Y88573D01*
X60573Y88966D01*
X60058Y89179D01*
D02*
G37*
G36*
X54153Y91148D02*
X53596D01*
X53081Y90935D01*
X52687Y90541D01*
X52474Y90026D01*
Y89470D01*
X52687Y88955D01*
X53081Y88561D01*
X53596Y88348D01*
X54153D01*
X54667Y88561D01*
X55061Y88955D01*
X55274Y89470D01*
Y90026D01*
X55061Y90541D01*
X54667Y90935D01*
X54153Y91148D01*
D02*
G37*
G36*
X42295Y87211D02*
X41738D01*
X41223Y86998D01*
X41055Y86830D01*
X40887Y86998D01*
X40373Y87211D01*
X39816D01*
X39301Y86998D01*
X39110Y86807D01*
X38919Y86998D01*
X38405Y87211D01*
X37848D01*
X37333Y86998D01*
X37142Y86807D01*
X36950Y86998D01*
X36436Y87211D01*
X35879D01*
X35364Y86998D01*
X34971Y86604D01*
X34758Y86089D01*
Y85532D01*
X34971Y85018D01*
X35364Y84624D01*
X35879Y84411D01*
X36436D01*
X36950Y84624D01*
X37142Y84815D01*
X37333Y84624D01*
X37848Y84411D01*
X38405D01*
X38919Y84624D01*
X39110Y84815D01*
X39301Y84624D01*
X39816Y84411D01*
X40242D01*
X40491Y84239D01*
X40663Y83990D01*
Y83564D01*
X40876Y83049D01*
X41270Y82656D01*
X41785Y82442D01*
X42342D01*
X42856Y82656D01*
X43250Y83049D01*
X43463Y83564D01*
Y84121D01*
X43250Y84636D01*
X43035Y84850D01*
X43203Y85018D01*
X43416Y85532D01*
Y86089D01*
X43203Y86604D01*
X42809Y86998D01*
X42295Y87211D01*
D02*
G37*
G36*
X50216Y89179D02*
X49659D01*
X49144Y88966D01*
X48750Y88573D01*
X48537Y88058D01*
Y87501D01*
X48750Y86987D01*
X49144Y86593D01*
X49659Y86379D01*
X50216D01*
X50730Y86593D01*
X51124Y86987D01*
X51337Y87501D01*
Y88058D01*
X51124Y88573D01*
X50730Y88966D01*
X50216Y89179D01*
D02*
G37*
G36*
X54153Y87211D02*
X53596D01*
X53081Y86998D01*
X52687Y86604D01*
X52474Y86089D01*
Y85532D01*
X52687Y85018D01*
X53081Y84624D01*
X53596Y84411D01*
X54153D01*
X54667Y84624D01*
X55061Y85018D01*
X55274Y85532D01*
Y86089D01*
X55061Y86604D01*
X54667Y86998D01*
X54153Y87211D01*
D02*
G37*
G36*
X38405Y83312D02*
X37848D01*
X37333Y83099D01*
X37123Y82889D01*
X36950Y83061D01*
X36436Y83274D01*
X35879D01*
X35364Y83061D01*
X35181Y82877D01*
X34982Y83076D01*
X34468Y83289D01*
X33911D01*
X33396Y83076D01*
X33002Y82682D01*
X32789Y82168D01*
Y81611D01*
X33002Y81096D01*
X33396Y80702D01*
X33911Y80489D01*
X34468D01*
X34982Y80702D01*
X35166Y80886D01*
X35364Y80687D01*
X35879Y80474D01*
X36305D01*
X36554Y80302D01*
X36726Y80053D01*
Y79627D01*
X36939Y79112D01*
X37333Y78719D01*
X37848Y78505D01*
X38405D01*
X38919Y78719D01*
X39313Y79112D01*
X39526Y79627D01*
Y80184D01*
X39313Y80699D01*
X39103Y80909D01*
X39313Y81119D01*
X39526Y81634D01*
Y82191D01*
X39313Y82705D01*
X38919Y83099D01*
X38405Y83312D01*
D02*
G37*
G36*
X112090Y86002D02*
X111414D01*
X110789Y85743D01*
X110311Y85265D01*
X110052Y84640D01*
Y83964D01*
X110311Y83339D01*
X110789Y82861D01*
X111414Y82602D01*
X112090D01*
X112715Y82861D01*
X113193Y83339D01*
X113452Y83964D01*
Y84640D01*
X113193Y85265D01*
X112715Y85743D01*
X112090Y86002D01*
D02*
G37*
G36*
X48247Y85242D02*
X47690D01*
X47175Y85029D01*
X46782Y84636D01*
X46569Y84121D01*
Y83564D01*
X46782Y83049D01*
X47175Y82656D01*
X47690Y82442D01*
X48247D01*
X48761Y82656D01*
X49155Y83049D01*
X49369Y83564D01*
Y84121D01*
X49155Y84636D01*
X48761Y85029D01*
X48247Y85242D01*
D02*
G37*
G36*
X115823Y85032D02*
X115267D01*
X114752Y84819D01*
X114358Y84425D01*
X114145Y83911D01*
Y83354D01*
X114358Y82840D01*
X114752Y82446D01*
X115267Y82232D01*
X115823D01*
X116338Y82446D01*
X116439Y82547D01*
X116893Y82702D01*
X117084Y82538D01*
X117307Y82315D01*
X117822Y82102D01*
X118378D01*
X118893Y82315D01*
X119287Y82709D01*
X119500Y83223D01*
Y83780D01*
X119287Y84295D01*
X118893Y84689D01*
X118378Y84902D01*
X117822D01*
X117307Y84689D01*
X117206Y84588D01*
X116752Y84433D01*
X116561Y84596D01*
X116338Y84819D01*
X115823Y85032D01*
D02*
G37*
G36*
X58090Y83274D02*
X57533D01*
X57018Y83061D01*
X56624Y82667D01*
X56411Y82152D01*
Y81727D01*
X56239Y81477D01*
X55990Y81305D01*
X55564D01*
X55050Y81092D01*
X54858Y80901D01*
X54667Y81092D01*
X54153Y81305D01*
X53596D01*
X53081Y81092D01*
X52687Y80699D01*
X52474Y80184D01*
Y79627D01*
X52687Y79112D01*
X53081Y78719D01*
X53596Y78505D01*
X54153D01*
X54667Y78719D01*
X54858Y78910D01*
X55050Y78719D01*
X55564Y78505D01*
X56121D01*
X56636Y78719D01*
X57029Y79112D01*
X57243Y79627D01*
Y80053D01*
X57414Y80302D01*
X57664Y80474D01*
X58090D01*
X58604Y80687D01*
X58998Y81081D01*
X59211Y81595D01*
Y82152D01*
X58998Y82667D01*
X58604Y83061D01*
X58090Y83274D01*
D02*
G37*
G36*
X92345Y81987D02*
X91668D01*
X91044Y81728D01*
X90565Y81250D01*
X90307Y80625D01*
Y79949D01*
X90565Y79324D01*
X91044Y78846D01*
X91668Y78587D01*
X92345D01*
X92774Y78765D01*
X93156Y78382D01*
X92988Y77975D01*
Y77299D01*
X93247Y76674D01*
X93725Y76196D01*
X94350Y75937D01*
X95026D01*
X95651Y76196D01*
X96129Y76674D01*
X96388Y77299D01*
Y77975D01*
X96129Y78600D01*
X95651Y79078D01*
X95026Y79337D01*
X94350D01*
X93921Y79159D01*
X93538Y79542D01*
X93707Y79949D01*
Y80625D01*
X93448Y81250D01*
X92970Y81728D01*
X92345Y81987D01*
D02*
G37*
G36*
X71338Y79337D02*
X70662D01*
X70037Y79078D01*
X69559Y78600D01*
X69300Y77975D01*
Y77299D01*
X69559Y76674D01*
X70037Y76196D01*
X70662Y75937D01*
X71338D01*
X71963Y76196D01*
X72441Y76674D01*
X72700Y77299D01*
Y77975D01*
X72441Y78600D01*
X71963Y79078D01*
X71338Y79337D01*
D02*
G37*
G36*
X110718Y78633D02*
X110042D01*
X109417Y78375D01*
X108939Y77896D01*
X108680Y77272D01*
Y76595D01*
X108939Y75971D01*
X109417Y75492D01*
X110042Y75234D01*
X110718D01*
X111343Y75492D01*
X111821Y75971D01*
X112080Y76595D01*
Y77272D01*
X111821Y77896D01*
X111343Y78375D01*
X110718Y78633D01*
D02*
G37*
G36*
X66538Y77546D02*
X65862D01*
X65237Y77287D01*
X64759Y76809D01*
X64500Y76184D01*
Y75508D01*
X64759Y74883D01*
X65237Y74405D01*
X65862Y74146D01*
X66538D01*
X67163Y74405D01*
X67641Y74883D01*
X67900Y75508D01*
Y76184D01*
X67641Y76809D01*
X67163Y77287D01*
X66538Y77546D01*
D02*
G37*
G36*
X30531Y75400D02*
X29974D01*
X29459Y75187D01*
X29065Y74793D01*
X28852Y74278D01*
Y73721D01*
X29065Y73207D01*
X29459Y72813D01*
X29974Y72600D01*
X30531D01*
X31045Y72813D01*
X31439Y73207D01*
X31652Y73721D01*
Y74278D01*
X31439Y74793D01*
X31045Y75187D01*
X30531Y75400D01*
D02*
G37*
G36*
X82870Y75941D02*
X82193D01*
X81568Y75682D01*
X81090Y75204D01*
X80831Y74579D01*
Y73903D01*
X81090Y73278D01*
X81568Y72800D01*
X82193Y72541D01*
X82870D01*
X83495Y72800D01*
X83634Y72939D01*
X84224Y72822D01*
X84259Y72737D01*
X84737Y72259D01*
X85362Y72000D01*
X86038D01*
X86663Y72259D01*
X87141Y72737D01*
X87400Y73362D01*
Y74038D01*
X87141Y74663D01*
X86663Y75141D01*
X86038Y75400D01*
X85362D01*
X84737Y75141D01*
X84598Y75002D01*
X84008Y75119D01*
X83973Y75204D01*
X83495Y75682D01*
X82870Y75941D01*
D02*
G37*
G36*
X98969Y80925D02*
X98293D01*
X97668Y80666D01*
X97190Y80188D01*
X96931Y79563D01*
Y78887D01*
X97190Y78262D01*
X97668Y77784D01*
X98293Y77525D01*
X98969D01*
X99594Y77784D01*
X99742Y77932D01*
X100166Y77649D01*
X100010Y77272D01*
Y76595D01*
X100268Y75971D01*
X100747Y75492D01*
X101098Y75347D01*
X101230Y74772D01*
X101059Y74600D01*
X100800Y73975D01*
Y73299D01*
X101059Y72674D01*
X101537Y72196D01*
X102162Y71937D01*
X102838D01*
X103463Y72196D01*
X103941Y72674D01*
X104200Y73299D01*
Y73975D01*
X103941Y74600D01*
X103463Y75078D01*
X103111Y75224D01*
X102979Y75799D01*
X103151Y75971D01*
X103410Y76595D01*
Y77272D01*
X103151Y77896D01*
X102673Y78375D01*
X102048Y78633D01*
X101372D01*
X100747Y78375D01*
X100599Y78227D01*
X100175Y78510D01*
X100331Y78887D01*
Y79563D01*
X100072Y80188D01*
X99594Y80666D01*
X98969Y80925D01*
D02*
G37*
G36*
X38405Y77368D02*
X37848D01*
X37333Y77155D01*
X36939Y76762D01*
X36726Y76247D01*
Y75690D01*
X36939Y75175D01*
X37130Y74984D01*
X36939Y74793D01*
X36726Y74278D01*
Y73721D01*
X36939Y73207D01*
X37130Y73016D01*
X36939Y72825D01*
X36726Y72310D01*
Y71884D01*
X36554Y71635D01*
X36305Y71463D01*
X35879D01*
X35364Y71250D01*
X35173Y71059D01*
X34982Y71250D01*
X34468Y71463D01*
X33911D01*
X33396Y71250D01*
X33002Y70856D01*
X32789Y70341D01*
Y69784D01*
X33002Y69270D01*
X33396Y68876D01*
X33911Y68663D01*
X34336D01*
X34586Y68491D01*
X34758Y68242D01*
Y67947D01*
X34586Y67698D01*
X34336Y67526D01*
X33911D01*
X33396Y67313D01*
X33002Y66919D01*
X32789Y66404D01*
Y65847D01*
X33002Y65333D01*
X33193Y65142D01*
X33002Y64951D01*
X32789Y64436D01*
Y63879D01*
X33002Y63364D01*
X33193Y63173D01*
X33002Y62982D01*
X32789Y62467D01*
Y62041D01*
X32617Y61792D01*
X32368Y61620D01*
X31942D01*
X31427Y61407D01*
X31034Y61014D01*
X30821Y60499D01*
Y59942D01*
X31034Y59427D01*
X31427Y59034D01*
X31942Y58820D01*
X32499D01*
X33013Y59034D01*
X33407Y59427D01*
X33621Y59942D01*
Y60368D01*
X33792Y60617D01*
X34042Y60789D01*
X34468D01*
X34982Y61002D01*
X35173Y61193D01*
X35364Y61002D01*
X35879Y60789D01*
X36305D01*
X36554Y60617D01*
X36726Y60368D01*
Y59942D01*
X36939Y59427D01*
X37333Y59034D01*
X37848Y58820D01*
X38405D01*
X38919Y59034D01*
X39313Y59427D01*
X39526Y59942D01*
Y60499D01*
X39313Y61014D01*
X39122Y61205D01*
X39313Y61396D01*
X39526Y61910D01*
Y62467D01*
X39313Y62982D01*
X38919Y63376D01*
X38405Y63589D01*
X37848D01*
X37333Y63376D01*
X37142Y63185D01*
X36950Y63376D01*
X36436Y63589D01*
X36010D01*
X35761Y63761D01*
X35589Y64010D01*
Y64305D01*
X35761Y64554D01*
X36010Y64726D01*
X36436D01*
X36950Y64939D01*
X37344Y65333D01*
X37558Y65847D01*
Y66268D01*
X37704Y66508D01*
X37976Y66700D01*
X38379D01*
X38893Y66913D01*
X39287Y67307D01*
X39500Y67822D01*
Y68379D01*
X39287Y68893D01*
X38893Y69287D01*
X38379Y69500D01*
X37981D01*
X37710Y69682D01*
X37558Y69932D01*
Y70210D01*
X37729Y70460D01*
X37979Y70631D01*
X38405D01*
X38919Y70845D01*
X39313Y71238D01*
X39526Y71753D01*
Y72310D01*
X39313Y72825D01*
X39122Y73016D01*
X39313Y73207D01*
X39526Y73721D01*
Y74278D01*
X39313Y74793D01*
X39122Y74984D01*
X39313Y75175D01*
X39526Y75690D01*
Y76247D01*
X39313Y76762D01*
X38919Y77155D01*
X38405Y77368D01*
D02*
G37*
G36*
X54153D02*
X53596D01*
X53081Y77155D01*
X52687Y76762D01*
X52474Y76247D01*
Y75690D01*
X52687Y75175D01*
X52878Y74984D01*
X52687Y74793D01*
X52474Y74278D01*
Y73721D01*
X52687Y73207D01*
X52878Y73016D01*
X52687Y72825D01*
X52474Y72310D01*
Y71753D01*
X52687Y71238D01*
X53081Y70845D01*
X53596Y70631D01*
X54153D01*
X54667Y70845D01*
X55061Y71238D01*
X55274Y71753D01*
Y72310D01*
X55061Y72825D01*
X54870Y73016D01*
X55061Y73207D01*
X55274Y73721D01*
Y74278D01*
X55061Y74793D01*
X54870Y74984D01*
X55061Y75175D01*
X55274Y75690D01*
Y76247D01*
X55061Y76762D01*
X54667Y77155D01*
X54153Y77368D01*
D02*
G37*
G36*
X82238Y70149D02*
X81562D01*
X80937Y69890D01*
X80599Y69552D01*
X80287Y69462D01*
X79976Y69552D01*
X79638Y69890D01*
X79013Y70149D01*
X78337D01*
X77712Y69890D01*
X77234Y69412D01*
X76975Y68787D01*
Y68111D01*
X77234Y67486D01*
X77712Y67008D01*
X78337Y66749D01*
X79013D01*
X79638Y67008D01*
X79976Y67345D01*
X80287Y67436D01*
X80599Y67345D01*
X80937Y67008D01*
X81562Y66749D01*
X82238D01*
X82863Y67008D01*
X83341Y67486D01*
X83600Y68111D01*
Y68787D01*
X83341Y69412D01*
X82863Y69890D01*
X82238Y70149D01*
D02*
G37*
G36*
X60058Y71463D02*
X59501D01*
X58987Y71250D01*
X58593Y70856D01*
X58380Y70341D01*
Y69784D01*
X58593Y69270D01*
X58987Y68876D01*
X59501Y68663D01*
X60058D01*
X60573Y68876D01*
X60966Y69270D01*
X61180Y69784D01*
Y70341D01*
X60966Y70856D01*
X60573Y71250D01*
X60058Y71463D01*
D02*
G37*
G36*
X118217Y71005D02*
X117660D01*
X117145Y70792D01*
X116751Y70398D01*
X116538Y69883D01*
Y69326D01*
X116751Y68812D01*
X117145Y68418D01*
X117660Y68205D01*
X118217D01*
X118731Y68418D01*
X119125Y68812D01*
X119338Y69326D01*
Y69883D01*
X119125Y70398D01*
X118731Y70792D01*
X118217Y71005D01*
D02*
G37*
G36*
X72838Y71550D02*
X72162D01*
X71537Y71291D01*
X71059Y70813D01*
X70800Y70188D01*
Y69512D01*
X71059Y68887D01*
X71537Y68409D01*
X72162Y68150D01*
X72838D01*
X73463Y68409D01*
X73941Y68887D01*
X74200Y69512D01*
Y70188D01*
X73941Y70813D01*
X73463Y71291D01*
X72838Y71550D01*
D02*
G37*
G36*
X110646Y71305D02*
X109969D01*
X109344Y71046D01*
X108866Y70568D01*
X108607Y69943D01*
Y69267D01*
X108866Y68642D01*
X109344Y68164D01*
X109969Y67905D01*
X110646D01*
X111270Y68164D01*
X111749Y68642D01*
X112007Y69267D01*
Y69943D01*
X111749Y70568D01*
X111270Y71046D01*
X110646Y71305D01*
D02*
G37*
G36*
X60058Y67526D02*
X59501D01*
X58987Y67313D01*
X58593Y66919D01*
X58380Y66404D01*
Y65978D01*
X58208Y65729D01*
X57959Y65557D01*
X57533D01*
X57018Y65344D01*
X56827Y65153D01*
X56693Y65287D01*
X56178Y65500D01*
X55621D01*
X55107Y65287D01*
X54713Y64893D01*
X54500Y64378D01*
Y63822D01*
X54713Y63307D01*
X55107Y62913D01*
X55621Y62700D01*
X56178D01*
X56693Y62913D01*
X56884Y63104D01*
X57018Y62971D01*
X57533Y62757D01*
X57959D01*
X58208Y62586D01*
X58380Y62336D01*
Y62037D01*
X58197Y61785D01*
X57959Y61620D01*
X57521D01*
X57006Y61407D01*
X56612Y61014D01*
X56399Y60499D01*
Y59942D01*
X56612Y59427D01*
X57006Y59034D01*
X57521Y58820D01*
X58078D01*
X58592Y59034D01*
X58986Y59427D01*
X59199Y59942D01*
Y60373D01*
X59382Y60625D01*
X59620Y60789D01*
X60058D01*
X60573Y61002D01*
X60966Y61396D01*
X61180Y61910D01*
Y62467D01*
X60966Y62982D01*
X60573Y63376D01*
X60058Y63589D01*
X59632D01*
X59383Y63761D01*
X59211Y64010D01*
Y64305D01*
X59383Y64554D01*
X59632Y64726D01*
X60058D01*
X60573Y64939D01*
X60966Y65333D01*
X61180Y65847D01*
Y66404D01*
X60966Y66919D01*
X60573Y67313D01*
X60058Y67526D01*
D02*
G37*
G36*
X44310D02*
X43753D01*
X43238Y67313D01*
X42845Y66919D01*
X42632Y66404D01*
Y65978D01*
X42460Y65729D01*
X42210Y65557D01*
X41785D01*
X41270Y65344D01*
X40876Y64951D01*
X40663Y64436D01*
Y63879D01*
X40876Y63364D01*
X41270Y62971D01*
X41785Y62757D01*
X42342D01*
X42856Y62971D01*
X43250Y63364D01*
X43463Y63879D01*
Y64305D01*
X43635Y64554D01*
X43884Y64726D01*
X44179D01*
X44428Y64554D01*
X44600Y64305D01*
Y63879D01*
X44813Y63364D01*
X45004Y63173D01*
X44813Y62982D01*
X44600Y62467D01*
Y62034D01*
X44448Y61800D01*
X44184Y61607D01*
X43766D01*
X43251Y61394D01*
X42858Y61001D01*
X42645Y60486D01*
Y59929D01*
X42858Y59414D01*
X43251Y59021D01*
X43766Y58807D01*
X44323D01*
X44837Y59021D01*
X45231Y59414D01*
X45445Y59929D01*
Y60362D01*
X45597Y60597D01*
X45860Y60789D01*
X46279D01*
X46793Y61002D01*
X47187Y61396D01*
X47400Y61910D01*
Y62336D01*
X47572Y62586D01*
X47821Y62757D01*
X48247D01*
X48761Y62971D01*
X48953Y63162D01*
X49144Y62971D01*
X49659Y62757D01*
X50216D01*
X50730Y62971D01*
X50921Y63162D01*
X51113Y62971D01*
X51627Y62757D01*
X52184D01*
X52699Y62971D01*
X53092Y63364D01*
X53306Y63879D01*
Y64436D01*
X53092Y64951D01*
X52699Y65344D01*
X52184Y65557D01*
X51627D01*
X51113Y65344D01*
X50921Y65153D01*
X50730Y65344D01*
X50216Y65557D01*
X49659D01*
X49144Y65344D01*
X48953Y65153D01*
X48761Y65344D01*
X48247Y65557D01*
X47690D01*
X47175Y65344D01*
X46984Y65153D01*
X46793Y65344D01*
X46279Y65557D01*
X45853D01*
X45603Y65729D01*
X45432Y65978D01*
Y66404D01*
X45218Y66919D01*
X44824Y67313D01*
X44310Y67526D01*
D02*
G37*
G36*
X81438Y63143D02*
X80762D01*
X80137Y62884D01*
X79849Y62596D01*
X79561Y62884D01*
X78936Y63143D01*
X78259D01*
X77635Y62884D01*
X77157Y62406D01*
X76898Y61781D01*
Y61105D01*
X77157Y60480D01*
X77635Y60002D01*
X78259Y59743D01*
X78936D01*
X79561Y60002D01*
X79849Y60290D01*
X80137Y60002D01*
X80762Y59743D01*
X81438D01*
X82063Y60002D01*
X82541Y60480D01*
X82800Y61105D01*
Y61781D01*
X82541Y62406D01*
X82063Y62884D01*
X81438Y63143D01*
D02*
G37*
G36*
X66538Y67768D02*
X65862D01*
X65237Y67509D01*
X64759Y67031D01*
X64500Y66406D01*
Y65730D01*
X64759Y65105D01*
X65237Y64626D01*
X65862Y64368D01*
X66538D01*
X67163Y64626D01*
X67189Y64653D01*
X67265Y64634D01*
X67651Y64408D01*
Y63862D01*
X67910Y63237D01*
X68388Y62759D01*
X69013Y62500D01*
X69689D01*
X70314Y62759D01*
X70792Y63237D01*
X71051Y63862D01*
Y64538D01*
X70792Y65163D01*
X70314Y65641D01*
X69689Y65900D01*
X69013D01*
X68388Y65641D01*
X68362Y65615D01*
X68286Y65634D01*
X67900Y65860D01*
Y66406D01*
X67641Y67031D01*
X67163Y67509D01*
X66538Y67768D01*
D02*
G37*
G36*
X115438Y64800D02*
X114762D01*
X114137Y64541D01*
X113659Y64063D01*
X113400Y63438D01*
Y62762D01*
X113659Y62137D01*
X114137Y61659D01*
X114762Y61400D01*
X115438D01*
X116063Y61659D01*
X116541Y62137D01*
X116800Y62762D01*
Y63438D01*
X116541Y64063D01*
X116063Y64541D01*
X115438Y64800D01*
D02*
G37*
G36*
X90428Y64605D02*
X89752D01*
X89127Y64346D01*
X88649Y63868D01*
X88390Y63243D01*
Y62567D01*
X88649Y61942D01*
X89127Y61464D01*
X89752Y61205D01*
X90428D01*
X91053Y61464D01*
X91531Y61942D01*
X91790Y62567D01*
Y63243D01*
X91531Y63868D01*
X91053Y64346D01*
X90428Y64605D01*
D02*
G37*
G36*
X101700Y57922D02*
X101024D01*
X100399Y57663D01*
X99921Y57185D01*
X99662Y56560D01*
Y56270D01*
X99662Y56134D01*
X99162Y56035D01*
X99101Y56182D01*
X98941Y56568D01*
X98463Y57046D01*
X97838Y57305D01*
X97162D01*
X96537Y57046D01*
X96059Y56568D01*
X95800Y55943D01*
Y55267D01*
X96059Y54642D01*
X96537Y54164D01*
X97162Y53905D01*
X97838D01*
X98463Y54164D01*
X98941Y54642D01*
X99200Y55267D01*
Y55556D01*
X99200Y55692D01*
X99700Y55792D01*
X99761Y55645D01*
X99921Y55259D01*
X100399Y54781D01*
X101024Y54522D01*
X101700D01*
X102325Y54781D01*
X102803Y55259D01*
X103062Y55884D01*
Y56560D01*
X102803Y57185D01*
X102325Y57663D01*
X101700Y57922D01*
D02*
G37*
G36*
X106610Y57650D02*
X105934D01*
X105309Y57391D01*
X104831Y56913D01*
X104572Y56288D01*
Y55611D01*
X104831Y54987D01*
X105309Y54508D01*
X105934Y54250D01*
X106610D01*
X107235Y54508D01*
X107713Y54987D01*
X107972Y55611D01*
Y56288D01*
X107713Y56913D01*
X107235Y57391D01*
X106610Y57650D01*
D02*
G37*
G36*
X44370Y57300D02*
X43693D01*
X43069Y57041D01*
X42590Y56563D01*
X42331Y55938D01*
Y55262D01*
X42590Y54637D01*
X43069Y54159D01*
X43693Y53900D01*
X44370D01*
X44995Y54159D01*
X45473Y54637D01*
X45731Y55262D01*
Y55938D01*
X45473Y56563D01*
X44995Y57041D01*
X44370Y57300D01*
D02*
G37*
G36*
X65200Y56000D02*
X64524D01*
X63899Y55741D01*
X63421Y55263D01*
X63162Y54638D01*
Y53961D01*
X63421Y53337D01*
X63899Y52858D01*
X64524Y52600D01*
X65200D01*
X65825Y52858D01*
X66303Y53337D01*
X66562Y53961D01*
Y54638D01*
X66303Y55263D01*
X65825Y55741D01*
X65200Y56000D01*
D02*
G37*
G36*
X36988Y54637D02*
X36312D01*
X35687Y54378D01*
X35208Y53900D01*
X34950Y53275D01*
Y52599D01*
X35208Y51974D01*
X35687Y51496D01*
X36312Y51237D01*
X36988D01*
X37613Y51496D01*
X37932Y51815D01*
X38400Y51576D01*
Y51062D01*
X38659Y50437D01*
X39137Y49959D01*
X39762Y49700D01*
X40438D01*
X41063Y49959D01*
X41450Y50346D01*
X41837Y49959D01*
X42462Y49700D01*
X43138D01*
X43763Y49959D01*
X44241Y50437D01*
X44500Y51062D01*
Y51738D01*
X44241Y52363D01*
X43763Y52841D01*
X43138Y53100D01*
X42462D01*
X41837Y52841D01*
X41450Y52454D01*
X41063Y52841D01*
X40438Y53100D01*
X39762D01*
X39137Y52841D01*
X38818Y52522D01*
X38350Y52761D01*
Y53275D01*
X38091Y53900D01*
X37613Y54378D01*
X36988Y54637D01*
D02*
G37*
G36*
X67842Y52272D02*
X67166D01*
X66541Y52013D01*
X66063Y51535D01*
X65804Y50911D01*
Y50234D01*
X66063Y49609D01*
X66541Y49131D01*
X67166Y48872D01*
X67842D01*
X68467Y49131D01*
X68945Y49609D01*
X69204Y50234D01*
Y50911D01*
X68945Y51535D01*
X68467Y52013D01*
X67842Y52272D01*
D02*
G37*
G36*
X30456Y51499D02*
X29780D01*
X29155Y51240D01*
X28677Y50762D01*
X28418Y50137D01*
Y49461D01*
X28677Y48836D01*
X29155Y48358D01*
X29780Y48099D01*
X30456D01*
X31081Y48358D01*
X31559Y48836D01*
X31818Y49461D01*
Y50137D01*
X31559Y50762D01*
X31081Y51240D01*
X30456Y51499D01*
D02*
G37*
G36*
X23472Y51051D02*
X22796D01*
X22171Y50792D01*
X21693Y50314D01*
X21434Y49689D01*
Y49013D01*
X21693Y48388D01*
X22171Y47910D01*
X22796Y47651D01*
X23472D01*
X24097Y47910D01*
X24575Y48388D01*
X24834Y49013D01*
Y49689D01*
X24575Y50314D01*
X24097Y50792D01*
X23472Y51051D01*
D02*
G37*
G36*
X92838Y50349D02*
X92162D01*
X91537Y50090D01*
X91059Y49612D01*
X90800Y48987D01*
Y48311D01*
X91059Y47686D01*
X91537Y47208D01*
X92162Y46949D01*
X92838D01*
X93463Y47208D01*
X93941Y47686D01*
X94200Y48311D01*
Y48987D01*
X93941Y49612D01*
X93463Y50090D01*
X92838Y50349D01*
D02*
G37*
G36*
X55000Y49074D02*
X54323D01*
X53698Y48815D01*
X53220Y48337D01*
X52961Y47712D01*
Y47036D01*
X53220Y46411D01*
X53698Y45933D01*
X54323Y45674D01*
X55000D01*
X55624Y45933D01*
X56103Y46411D01*
X56361Y47036D01*
Y47712D01*
X56103Y48337D01*
X55624Y48815D01*
X55000Y49074D01*
D02*
G37*
G36*
X51063D02*
X50386D01*
X49761Y48815D01*
X49283Y48337D01*
X49024Y47712D01*
Y47036D01*
X49283Y46411D01*
X49761Y45933D01*
X50386Y45674D01*
X51063D01*
X51687Y45933D01*
X52166Y46411D01*
X52424Y47036D01*
Y47712D01*
X52166Y48337D01*
X51687Y48815D01*
X51063Y49074D01*
D02*
G37*
G36*
X43189D02*
X42512D01*
X41887Y48815D01*
X41409Y48337D01*
X41150Y47712D01*
Y47036D01*
X41409Y46411D01*
X41887Y45933D01*
X42512Y45674D01*
X43189D01*
X43813Y45933D01*
X44292Y46411D01*
X44550Y47036D01*
Y47712D01*
X44292Y48337D01*
X43813Y48815D01*
X43189Y49074D01*
D02*
G37*
G36*
X76938Y48430D02*
X76262D01*
X75637Y48171D01*
X75159Y47693D01*
X74900Y47068D01*
Y46392D01*
X75159Y45767D01*
X75637Y45289D01*
X76262Y45030D01*
X76938D01*
X77563Y45289D01*
X78041Y45767D01*
X78300Y46392D01*
Y47068D01*
X78041Y47693D01*
X77563Y48171D01*
X76938Y48430D01*
D02*
G37*
G36*
X85607Y49965D02*
X84593D01*
X83656Y49577D01*
X82938Y48859D01*
X82550Y47922D01*
Y46908D01*
X82938Y45970D01*
X83656Y45253D01*
X84593Y44865D01*
X85607D01*
X86545Y45253D01*
X87262Y45970D01*
X87650Y46908D01*
Y47922D01*
X87262Y48859D01*
X86545Y49577D01*
X85607Y49965D01*
D02*
G37*
G36*
X109005Y47242D02*
X108328D01*
X107704Y46983D01*
X107225Y46505D01*
X106967Y45880D01*
Y45204D01*
X107225Y44579D01*
X107704Y44101D01*
X108328Y43842D01*
X109005D01*
X109629Y44101D01*
X110108Y44579D01*
X110367Y45204D01*
Y45880D01*
X110108Y46505D01*
X109629Y46983D01*
X109005Y47242D01*
D02*
G37*
G36*
X124938Y47200D02*
X124262D01*
X123637Y46941D01*
X123159Y46463D01*
X122900Y45838D01*
Y45162D01*
X123159Y44537D01*
X123637Y44059D01*
X124262Y43800D01*
X124938D01*
X125563Y44059D01*
X126041Y44537D01*
X126300Y45162D01*
Y45838D01*
X126041Y46463D01*
X125563Y46941D01*
X124938Y47200D01*
D02*
G37*
G36*
X58731Y45730D02*
X58055D01*
X57430Y45471D01*
X56952Y44993D01*
X56693Y44368D01*
Y43691D01*
X56952Y43067D01*
X57430Y42588D01*
X58055Y42329D01*
X58731D01*
X59356Y42588D01*
X59834Y43067D01*
X60093Y43691D01*
Y44368D01*
X59834Y44993D01*
X59356Y45471D01*
X58731Y45730D01*
D02*
G37*
G36*
X39252Y45137D02*
X38575D01*
X37950Y44878D01*
X37472Y44400D01*
X37213Y43775D01*
Y43099D01*
X37472Y42474D01*
X37950Y41996D01*
X38575Y41737D01*
X39252D01*
X39876Y41996D01*
X40355Y42474D01*
X40613Y43099D01*
Y43775D01*
X40355Y44400D01*
X39876Y44878D01*
X39252Y45137D01*
D02*
G37*
G36*
X51063Y45100D02*
X50386D01*
X49761Y44841D01*
X49283Y44363D01*
X49024Y43738D01*
Y43062D01*
X49283Y42437D01*
X49761Y41959D01*
X50386Y41700D01*
X51063D01*
X51687Y41959D01*
X52166Y42437D01*
X52424Y43062D01*
Y43738D01*
X52166Y44363D01*
X51687Y44841D01*
X51063Y45100D01*
D02*
G37*
G36*
X47138D02*
X46462D01*
X45837Y44841D01*
X45359Y44363D01*
X45100Y43738D01*
Y43062D01*
X45359Y42437D01*
X45837Y41959D01*
X46462Y41700D01*
X47138D01*
X47763Y41959D01*
X48241Y42437D01*
X48500Y43062D01*
Y43738D01*
X48241Y44363D01*
X47763Y44841D01*
X47138Y45100D01*
D02*
G37*
G36*
X24310Y44839D02*
X23633D01*
X23009Y44580D01*
X22531Y44102D01*
X22272Y43477D01*
Y42801D01*
X22531Y42176D01*
X23009Y41698D01*
X23633Y41439D01*
X24310D01*
X24935Y41698D01*
X25413Y42176D01*
X25672Y42801D01*
Y43477D01*
X25413Y44102D01*
X24935Y44580D01*
X24310Y44839D01*
D02*
G37*
G36*
X82938Y44115D02*
X82262D01*
X81637Y43856D01*
X81159Y43378D01*
X80900Y42753D01*
Y42077D01*
X81159Y41452D01*
X81637Y40974D01*
X82262Y40715D01*
X82938D01*
X83563Y40974D01*
X84041Y41452D01*
X84300Y42077D01*
Y42753D01*
X84041Y43378D01*
X83563Y43856D01*
X82938Y44115D01*
D02*
G37*
G36*
X32179Y47200D02*
X31503D01*
X30878Y46941D01*
X30400Y46463D01*
X30141Y45838D01*
Y45162D01*
X30400Y44537D01*
X30817Y44120D01*
X30821Y43787D01*
X30774Y43561D01*
X30525Y43457D01*
X30046Y42979D01*
X29788Y42354D01*
Y41678D01*
X30046Y41053D01*
X30525Y40575D01*
X31149Y40316D01*
X31826D01*
X32451Y40575D01*
X32929Y41053D01*
X33188Y41678D01*
Y42354D01*
X32929Y42979D01*
X32511Y43396D01*
X32507Y43729D01*
X32554Y43955D01*
X32804Y44059D01*
X33282Y44537D01*
X33541Y45162D01*
Y45838D01*
X33282Y46463D01*
X32804Y46941D01*
X32179Y47200D01*
D02*
G37*
G36*
X95026Y39627D02*
X94350D01*
X93725Y39368D01*
X93247Y38890D01*
X92988Y38265D01*
Y37589D01*
X93247Y36964D01*
X93725Y36486D01*
X94350Y36227D01*
X95026D01*
X95651Y36486D01*
X96129Y36964D01*
X96388Y37589D01*
Y38265D01*
X96129Y38890D01*
X95651Y39368D01*
X95026Y39627D01*
D02*
G37*
G36*
X87938Y39115D02*
X87262D01*
X86637Y38856D01*
X86159Y38378D01*
X85900Y37753D01*
Y37077D01*
X86159Y36452D01*
X86637Y35974D01*
X87262Y35715D01*
X87938D01*
X88563Y35974D01*
X89041Y36452D01*
X89300Y37077D01*
Y37753D01*
X89041Y38378D01*
X88563Y38856D01*
X87938Y39115D01*
D02*
G37*
G36*
X82938D02*
X82262D01*
X81637Y38856D01*
X81159Y38378D01*
X80900Y37753D01*
Y37077D01*
X81159Y36452D01*
X81637Y35974D01*
X82262Y35715D01*
X82938D01*
X83563Y35974D01*
X84041Y36452D01*
X84300Y37077D01*
Y37753D01*
X84041Y38378D01*
X83563Y38856D01*
X82938Y39115D01*
D02*
G37*
G36*
X116535Y39842D02*
X115798D01*
X115086Y39651D01*
X114447Y39283D01*
X113926Y38761D01*
X113557Y38123D01*
X113367Y37411D01*
Y36674D01*
X113557Y35961D01*
X113926Y35323D01*
X114447Y34802D01*
X115086Y34433D01*
X115798Y34242D01*
X116535D01*
X117247Y34433D01*
X117886Y34802D01*
X118407Y35323D01*
X118776Y35961D01*
X118967Y36674D01*
Y37411D01*
X118776Y38123D01*
X118407Y38761D01*
X117886Y39283D01*
X117247Y39651D01*
X116535Y39842D01*
D02*
G37*
G36*
X101535D02*
X100798D01*
X100086Y39651D01*
X99447Y39283D01*
X98926Y38761D01*
X98557Y38123D01*
X98367Y37411D01*
Y36674D01*
X98557Y35961D01*
X98926Y35323D01*
X99447Y34802D01*
X100086Y34433D01*
X100798Y34242D01*
X101535D01*
X102247Y34433D01*
X102886Y34802D01*
X103407Y35323D01*
X103776Y35961D01*
X103967Y36674D01*
Y37411D01*
X103776Y38123D01*
X103407Y38761D01*
X102886Y39283D01*
X102247Y39651D01*
X101535Y39842D01*
D02*
G37*
G36*
X43189Y37263D02*
X42512D01*
X41887Y37004D01*
X41409Y36526D01*
X41150Y35901D01*
Y35225D01*
X41409Y34600D01*
X41887Y34122D01*
X42512Y33863D01*
X43189D01*
X43813Y34122D01*
X44292Y34600D01*
X44550Y35225D01*
Y35901D01*
X44292Y36526D01*
X43813Y37004D01*
X43189Y37263D01*
D02*
G37*
G36*
X24288D02*
X23612D01*
X22987Y37004D01*
X22509Y36526D01*
X22250Y35901D01*
Y35225D01*
X22509Y34600D01*
X22987Y34122D01*
X23612Y33863D01*
X24288D01*
X24913Y34122D01*
X25391Y34600D01*
X25650Y35225D01*
Y35901D01*
X25391Y36526D01*
X24913Y37004D01*
X24288Y37263D01*
D02*
G37*
G36*
X123538Y36000D02*
X122862D01*
X122237Y35741D01*
X121759Y35263D01*
X121500Y34638D01*
Y33962D01*
X121759Y33337D01*
X122237Y32859D01*
X122862Y32600D01*
X123538D01*
X124163Y32859D01*
X124641Y33337D01*
X124900Y33962D01*
Y34638D01*
X124641Y35263D01*
X124163Y35741D01*
X123538Y36000D01*
D02*
G37*
G36*
X87938Y34115D02*
X87262D01*
X86637Y33856D01*
X86159Y33378D01*
X85900Y32753D01*
Y32077D01*
X86159Y31452D01*
X86637Y30974D01*
X87262Y30715D01*
X87938D01*
X88563Y30974D01*
X89041Y31452D01*
X89300Y32077D01*
Y32753D01*
X89041Y33378D01*
X88563Y33856D01*
X87938Y34115D01*
D02*
G37*
G36*
X20766Y32407D02*
X20090D01*
X19465Y32148D01*
X18987Y31670D01*
X18728Y31045D01*
Y30369D01*
X18987Y29744D01*
X19465Y29266D01*
X20090Y29007D01*
X20766D01*
X21391Y29266D01*
X21869Y29744D01*
X22128Y30369D01*
Y31045D01*
X21869Y31670D01*
X21391Y32148D01*
X20766Y32407D01*
D02*
G37*
G36*
X65338Y31200D02*
X64662D01*
X64037Y30941D01*
X63559Y30463D01*
X63300Y29838D01*
Y29162D01*
X63559Y28537D01*
X64037Y28059D01*
X64662Y27800D01*
X65338D01*
X65963Y28059D01*
X66441Y28537D01*
X66700Y29162D01*
Y29838D01*
X66441Y30463D01*
X65963Y30941D01*
X65338Y31200D01*
D02*
G37*
G36*
X24288Y30575D02*
X23612D01*
X22987Y30316D01*
X22509Y29838D01*
X22250Y29213D01*
Y28536D01*
X22509Y27912D01*
X22987Y27433D01*
X23612Y27175D01*
X24288D01*
X24913Y27433D01*
X25391Y27912D01*
X25650Y28536D01*
Y29213D01*
X25391Y29838D01*
X24913Y30316D01*
X24288Y30575D01*
D02*
G37*
G36*
X32532Y30372D02*
X31856D01*
X31231Y30113D01*
X30753Y29635D01*
X30494Y29010D01*
Y28334D01*
X30753Y27709D01*
X31231Y27231D01*
X31856Y26972D01*
X32532D01*
X33157Y27231D01*
X33635Y27709D01*
X33894Y28334D01*
Y29010D01*
X33635Y29635D01*
X33157Y30113D01*
X32532Y30372D01*
D02*
G37*
G36*
X99279Y30309D02*
X98603D01*
X97978Y30050D01*
X97500Y29572D01*
X97241Y28947D01*
Y28271D01*
X97500Y27646D01*
X97978Y27168D01*
X98603Y26909D01*
X99279D01*
X99904Y27168D01*
X100382Y27646D01*
X100641Y28271D01*
Y28947D01*
X100382Y29572D01*
X99904Y30050D01*
X99279Y30309D01*
D02*
G37*
G36*
X45917Y30198D02*
X45241D01*
X44616Y29939D01*
X44138Y29461D01*
X43879Y28836D01*
Y28159D01*
X44138Y27535D01*
X44616Y27056D01*
X45241Y26798D01*
X45917D01*
X46542Y27056D01*
X47020Y27535D01*
X47279Y28159D01*
Y28836D01*
X47020Y29461D01*
X46542Y29939D01*
X45917Y30198D01*
D02*
G37*
G36*
X89607Y29965D02*
X88593D01*
X87656Y29577D01*
X86938Y28859D01*
X86550Y27922D01*
Y26908D01*
X86938Y25971D01*
X87656Y25253D01*
X88593Y24865D01*
X89607D01*
X90544Y25253D01*
X91262Y25971D01*
X91650Y26908D01*
Y27922D01*
X91262Y28859D01*
X90544Y29577D01*
X89607Y29965D01*
D02*
G37*
G36*
X81607D02*
X80593D01*
X79655Y29577D01*
X78938Y28859D01*
X78550Y27922D01*
Y26908D01*
X78938Y25971D01*
X79655Y25253D01*
X80593Y24865D01*
X81607D01*
X82544Y25253D01*
X83262Y25971D01*
X83650Y26908D01*
Y27922D01*
X83262Y28859D01*
X82544Y29577D01*
X81607Y29965D01*
D02*
G37*
G36*
X28738Y25800D02*
X28062D01*
X27437Y25541D01*
X26959Y25063D01*
X26940Y25017D01*
X26325Y24840D01*
X25938Y25000D01*
X25262D01*
X24637Y24741D01*
X24159Y24263D01*
X23900Y23638D01*
Y22962D01*
X24159Y22337D01*
X24637Y21859D01*
X25262Y21600D01*
X25938D01*
X26563Y21859D01*
X27041Y22337D01*
X27060Y22382D01*
X27675Y22560D01*
X28062Y22400D01*
X28738D01*
X29363Y22659D01*
X29841Y23137D01*
X30100Y23762D01*
Y24438D01*
X29841Y25063D01*
X29363Y25541D01*
X28738Y25800D01*
D02*
G37*
G36*
X65017Y23200D02*
X64341D01*
X63716Y22941D01*
X63238Y22463D01*
X62979Y21838D01*
Y21162D01*
X63238Y20537D01*
X63716Y20059D01*
X64341Y19800D01*
X65017D01*
X65642Y20059D01*
X66120Y20537D01*
X66379Y21162D01*
Y21838D01*
X66120Y22463D01*
X65642Y22941D01*
X65017Y23200D01*
D02*
G37*
G36*
X75238Y22500D02*
X74562D01*
X73937Y22241D01*
X73459Y21763D01*
X73200Y21138D01*
Y20462D01*
X73459Y19837D01*
X73937Y19359D01*
X74562Y19100D01*
X75238D01*
X75863Y19359D01*
X76341Y19837D01*
X76600Y20462D01*
Y21138D01*
X76341Y21763D01*
X75863Y22241D01*
X75238Y22500D01*
D02*
G37*
%LPD*%
D22*
X119222Y79512D02*
D03*
X118100Y89653D02*
D03*
X36140Y75963D02*
D03*
X55843Y81874D02*
D03*
X50000Y81900D02*
D03*
X49937Y79905D02*
D03*
X38126Y83842D02*
D03*
X42100Y79900D02*
D03*
X52004Y62189D02*
D03*
X53874Y64157D02*
D03*
X44032Y75968D02*
D03*
Y72031D02*
D03*
X46000D02*
D03*
X46098Y79512D02*
D03*
X46000Y75968D02*
D03*
X44032Y74000D02*
D03*
X42063Y68094D02*
D03*
X57811Y72031D02*
D03*
X47969Y75968D02*
D03*
X51906Y70063D02*
D03*
X53874Y68094D02*
D03*
X47969Y72031D02*
D03*
Y74000D02*
D03*
X32221Y85811D02*
D03*
X34200Y75900D02*
D03*
X34189Y85811D02*
D03*
D87*
X140000Y102500D02*
D03*
D88*
X10000Y135000D02*
D03*
X135000D02*
D03*
Y10000D02*
D03*
X10000D02*
D03*
D89*
X23950Y32415D02*
D03*
X46787Y35563D02*
D03*
X118100Y94400D02*
D03*
X72851Y99092D02*
D03*
X52287Y96423D02*
D03*
X82600Y32415D02*
D03*
X55125Y95260D02*
D03*
X38913Y47374D02*
D03*
X61567Y117554D02*
D03*
X98068Y94051D02*
D03*
X54764Y39397D02*
D03*
X31841Y37042D02*
D03*
X23972Y46650D02*
D03*
X23972Y39500D02*
D03*
X24003Y85756D02*
D03*
X31895Y119268D02*
D03*
X25800D02*
D03*
X54157Y117127D02*
D03*
X81100Y119890D02*
D03*
X109196Y73683D02*
D03*
X98166Y88834D02*
D03*
X111400Y55500D02*
D03*
X101062Y118106D02*
D03*
X92851Y89031D02*
D03*
X79840Y99276D02*
D03*
X76803Y89748D02*
D03*
X93048Y93952D02*
D03*
X108667Y28609D02*
D03*
X98954Y108517D02*
D03*
X118667Y28609D02*
D03*
X103700Y28600D02*
D03*
X61000Y35500D02*
D03*
X118477Y103168D02*
D03*
X120052Y106711D02*
D03*
X95445Y91259D02*
D03*
X87374Y99526D02*
D03*
M02*
