G04*
G04 #@! TF.GenerationSoftware,Altium Limited,Altium Designer,23.0.1 (38)*
G04*
G04 Layer_Color=10066329*
%FSLAX25Y25*%
%MOIN*%
G70*
G04*
G04 #@! TF.SameCoordinates,E6578E61-D9FC-44F6-81D0-07C95BE9B69E*
G04*
G04*
G04 #@! TF.FilePolarity,Positive*
G04*
G01*
G75*
%ADD45R,0.00984X0.01378*%
%ADD46R,0.01968X0.02559*%
%ADD91R,0.01378X0.00984*%
D45*
X61800Y77200D02*
D03*
X59400D02*
D03*
X40049Y82012D02*
D03*
X42449D02*
D03*
X36200Y72116D02*
D03*
X33800D02*
D03*
X40100Y66200D02*
D03*
X42500D02*
D03*
X55824Y68193D02*
D03*
X58224D02*
D03*
X40500Y70100D02*
D03*
X38100D02*
D03*
X53560Y61992D02*
D03*
X55960D02*
D03*
X42100Y79900D02*
D03*
X39700D02*
D03*
X32989Y88173D02*
D03*
X35389D02*
D03*
X36100Y79000D02*
D03*
X33700D02*
D03*
X42500Y77100D02*
D03*
X40100D02*
D03*
X35941Y84000D02*
D03*
X33541D02*
D03*
X57988Y71500D02*
D03*
X55588D02*
D03*
X42500Y74100D02*
D03*
X40100D02*
D03*
X59188D02*
D03*
X56788D02*
D03*
X61800Y80000D02*
D03*
X59400D02*
D03*
X53800Y81900D02*
D03*
X51400D02*
D03*
X49500Y77200D02*
D03*
X51900D02*
D03*
X49400Y74100D02*
D03*
X51800D02*
D03*
D46*
X46000Y88665D02*
D03*
Y92405D02*
D03*
D91*
X49957Y92318D02*
D03*
Y89918D02*
D03*
X53800Y91206D02*
D03*
Y93606D02*
D03*
X36108Y76400D02*
D03*
Y74000D02*
D03*
X49248Y70476D02*
D03*
Y68076D02*
D03*
X46000Y68526D02*
D03*
Y66126D02*
D03*
X50000Y59400D02*
D03*
Y61800D02*
D03*
X38100Y66500D02*
D03*
Y64100D02*
D03*
X46100Y81200D02*
D03*
Y83600D02*
D03*
X38099Y83571D02*
D03*
Y85971D02*
D03*
M02*
