M48
;Layer_Color=6321
;FILE_FORMAT=2:5
INCH,LZ
;TYPE=PLATED
T1F00S00C0.01200
T2F00S00C0.02000
T4F00S00C0.02559
T5F00S00C0.02800
T6F00S00C0.03800
T7F00S00C0.03937
T8F00S00C0.11811
T9F00S00C0.12441
T10F00S00C0.14800
;TYPE=NON_PLATED
T11F00S00C0.03500
T12F00S00C0.09300
%
T01
X-00276Y-02933
X-00311Y-02688
X-00322Y-02446
X-00386Y-02211
X-00235Y-0223
X-00241Y-02158
X-00068Y-02168
X-00026Y-02145
X0002Y-02192
X0011Y-02191
X00112Y-02062
X00057Y-01904
X-00059Y-01902
X-00052Y-01722
X00046Y-01718
X00116Y-0153
X00246Y-01857
X00208Y-02229
X-00113Y-02232
X-00276Y-01717
X-00372Y-01718
X-01083Y-01546
X00276Y-01717
X00374Y-01719
X00387Y-0216
X00254Y-02932
X03576Y-00095
X03566Y-0004163
X03571Y00101
X01849Y-01298
X01421Y-00786
X00998Y-00249
X0077573Y-00232
X00768Y-00186
X0077Y-00153
X00757Y-00027
X00777Y00035
X00774Y-00311
X00448Y-00219
X0025218Y-0085182
X01673Y-0005
X01674Y-00016
Y00018
X01675Y00054
X0020376Y-0033976
X00224Y-00767
X00097Y-00769
X0005261Y-00864
X0024Y-00932
X-00202Y-01015
X-0023624Y-0037024
X-00816Y-004
X-0082Y-0027
Y-002
X-01Y-00253
X-00969Y-00332
X-0097Y-00012
X-01159Y00024
X-01241Y0008
X-01305Y-00145
X-01297Y-00342
X-00773Y-00535
X-01342Y-00594
X-01396Y-00485
X-01523Y-004
X-01537Y-00257
X-01663Y-003
X-01912Y-00208
X-01475Y-00108
X-01411Y-00109
X-01322Y-00207
X-01533Y-0084
X-01361Y00249
X-01405Y00656
X-01475Y00655
X-01603Y01296
X-01687Y01496
X-01863Y01536
X-00002Y01636
X-0024Y00986
X-0023Y0081
X00067Y00809
X00243Y00991
X00127Y00378
X-00934Y00429
X-00971Y00339
X-00986Y00273
X-01224Y0018
X0038Y01455
X01001Y01425
X01757Y00184
X00185Y01823
T02
X0124934Y-0140066
X0122615Y-0136595
X01218Y-01325
X0122615Y-0128405
X0124934Y-0124934
X0128405Y-0122615
X01325Y-01218
X0136595Y-0122615
X0140066Y-0124934
X0142385Y-0128405
X01432Y-01325
X0142385Y-0136595
X0140066Y-0140066
X0136595Y-0142385
X01325Y-01432
X0128405Y-0142385
X-0124934Y-0140066
X-0128405Y-0142385
X-0122615Y-0136595
X-01218Y-01325
X-0122615Y-0128405
X-0124934Y-0124934
X-0128405Y-0122615
X-01325Y-01218
X-0136595Y-0122615
X-0140066Y-0124934
X-0142385Y-0128405
X-01432Y-01325
X-0142385Y-0136595
X-0140066Y-0140066
X-0136595Y-0142385
X-01325Y-01432
Y01218
X-0136595Y0122615
X-0140066Y0124934
X-0142385Y0128405
X-01432Y01325
X-0142385Y0136595
X-0140066Y0140066
X-0136595Y0142385
X-01325Y01432
X-0128405Y0142385
X-0124934Y0140066
X-0122615Y0136595
X-01218Y01325
X-0122615Y0128405
X-0124934Y0124934
X-0128405Y0122615
X0124934Y0124934
X0122615Y0128405
X01218Y01325
X0122615Y0136595
X0124934Y0140066
X0128405Y0142385
X01325Y01432
X0136595Y0142385
X0140066Y0140066
X0142385Y0136595
X01432Y01325
X0142385Y0128405
X0140066Y0124934
X0136595Y0122615
X01325Y01218
X0128405Y0122615
T04
X0377776Y-0011378
Y0011378
T05
X003Y-00675
X004
X0045Y-00575
X0035
X0025
X00575Y-0045
Y-0035
Y-0025
Y-0015
Y-0005
Y0005
X00675Y001
Y0
Y-001
Y-002
Y-003
Y-004
X0015Y-00575
X0005
X-0005
X-0015
X-0025
X-0035
X-0045
X-004Y-00675
X-003
X-002
X-001
X0
X001
X002
X-00575Y-0045
Y-0035
Y-0025
Y-0015
Y-0005
Y0005
X-00675Y0
Y-001
Y-002
Y-003
Y-004
Y001
Y002
Y003
Y004
X-00575Y0035
Y0025
Y0015
Y0045
X-0045Y00575
X-0035
X-0025
X-0015
X-0005
X0005
X0015
X001Y00675
X0
X-001
X-002
X-003
X-004
X002
X003
X004
X0045Y00575
X0035
X0025
X00575Y0045
Y0035
Y0025
Y0015
X00675Y002
Y003
Y004
T06
X-0205Y-017
Y-016
Y-015
X-0195
Y-016
Y-017
X-0095Y-022
X-0085
X-0075
X-0065
X-0055
Y-023
X-0065
X-0075
X-0085
X-0095
X0055
Y-022
X0065
Y-023
X0075
Y-022
X0085
Y-023
X0095
Y-022
X0195Y-017
Y-016
Y-015
X0205
Y-016
Y-017
Y-014
Y-013
X0195
Y-014
X002Y-0127
Y-0117
X001
Y-0127
X0
Y-0117
X-001
Y-0127
X-002
Y-0117
X-0195Y-013
X-0205
Y-014
X-0195
Y013
X-0205
Y014
X-0195
Y015
X-0205
Y016
X-0195
X0195
X0205
Y015
X0195
Y014
X0205
Y013
X0195
Y017
X0205
X0145Y022
Y023
X0135
Y022
X0125
Y023
X0115
Y022
X0105
Y023
X007Y0255
Y0265
X006
Y0255
X005
Y0265
X004
Y0255
X003
Y0265
X00254Y02025
X00154
X00054
X-00046
X-00146
X-00246
X-003Y0255
X-004
X-005
X-006
X-007
Y0265
X-006
X-005
X-004
X-003
X-0105Y023
Y022
X-0115
Y023
X-0125
Y022
X-0135
Y023
X-0145
Y022
X-0195Y017
X-0205
T07
X-0227559Y-0084842
Y-0065158
X-0170473
Y-0075
Y-0084842
X-0222972Y-0009843
Y0
Y0009843
X-0280059
Y-0009843
X-0225059Y0065158
Y0084842
X-0167973
Y0075
Y0065158
T08
X00625Y-00625
X-00625
Y00625
X00625
T09
X-02Y-0093307
Y-0056693
X-02525Y-0018307
Y0018307
X-01975Y0056693
Y0093307
T10
X01325Y-01325
X-01325
Y01325
X01325
T11
X-0004Y01685
X0004
X0Y01885
T12
X-001Y0176
Y01885
X001
Y0176
M30
