G04*
G04 #@! TF.GenerationSoftware,Altium Limited,Altium Designer,23.0.1 (38)*
G04*
G04 Layer_Physical_Order=4*
G04 Layer_Color=16040612*
%FSLAX25Y25*%
%MOIN*%
G70*
G04*
G04 #@! TF.SameCoordinates,A82DE2A9-68C3-4950-AE13-74F95629AD28*
G04*
G04*
G04 #@! TF.FilePolarity,Positive*
G04*
G01*
G75*
%ADD14C,0.01000*%
%ADD17C,0.00800*%
%ADD82C,0.01126*%
%ADD83C,0.20866*%
%ADD84C,0.05000*%
%ADD85O,0.08268X0.03937*%
%ADD86O,0.07087X0.03543*%
%ADD87C,0.28000*%
%ADD88C,0.03000*%
%ADD89C,0.06200*%
%ADD90R,0.06200X0.06200*%
%ADD91R,0.06200X0.06200*%
%ADD92C,0.09200*%
%ADD93C,0.03400*%
%ADD94C,0.06400*%
%ADD95R,0.06400X0.06400*%
%ADD96C,0.05906*%
%ADD97C,0.18661*%
%ADD98C,0.02800*%
D14*
X22400Y-91600D02*
Y-76700D01*
Y-91600D02*
X24000Y-93200D01*
D17*
X5600Y-200600D02*
Y-190500D01*
X5700Y-190400D01*
X-15000Y-181100D02*
X-5900Y-190200D01*
X-15000Y-181100D02*
Y-122000D01*
X-22100Y61900D02*
X-19900Y59700D01*
X-30000Y67500D02*
X-24400Y61900D01*
X-22100D01*
X-35400Y100100D02*
X-26000Y109500D01*
X-35400Y66100D02*
Y100100D01*
Y66100D02*
X-30300Y61000D01*
Y52400D02*
Y61000D01*
X-47700Y35000D02*
X-30300Y52400D01*
X47700Y-43800D02*
Y-24600D01*
Y-43800D02*
X54100Y-50200D01*
X45000Y-21900D02*
X47700Y-24600D01*
X44800Y-21900D02*
X45000D01*
X-23500Y-223000D02*
X-10600Y-235900D01*
X57800D02*
X59900Y-233800D01*
X-10600Y-235900D02*
X57800D01*
X35000Y-79100D02*
X59900Y-104000D01*
Y-233800D02*
Y-104000D01*
X-89000Y-125400D02*
Y-30300D01*
X-195000Y-170000D02*
X-133600D01*
X-89000Y-125400D01*
X10000Y78700D02*
X30000Y98700D01*
X10000Y67500D02*
Y78700D01*
X30000Y98700D02*
Y181200D01*
X119600Y233400D02*
X123800Y237600D01*
X115000Y220000D02*
X119600Y224600D01*
Y233400D01*
X70000Y221200D02*
Y255000D01*
X30000Y181200D02*
X70000Y221200D01*
X-108500Y213500D02*
X-5600D01*
X5400Y202500D01*
X-115000Y220000D02*
X-108500Y213500D01*
X38000Y101700D02*
Y145500D01*
X14900Y78600D02*
X38000Y101700D01*
X14900Y63900D02*
Y78600D01*
X-65000Y-220000D02*
Y-169200D01*
X-46700Y-150900D01*
X20000Y-104200D02*
X26300Y-110500D01*
X11600Y-153000D02*
X26300Y-138300D01*
Y-110500D01*
X5100Y-157200D02*
X28000Y-180100D01*
X5100Y-157200D02*
Y-100400D01*
X28000Y-203500D02*
Y-180100D01*
X-25700Y-72800D02*
Y-64300D01*
X-20200Y-101500D02*
Y-78300D01*
X-25700Y-72800D02*
X-20200Y-78300D01*
X-14500Y-72800D02*
X-9200Y-78100D01*
X-14500Y-72800D02*
Y-65400D01*
X-9200Y-116200D02*
Y-78100D01*
X-19800Y-60100D02*
Y-53100D01*
Y-60100D02*
X-14500Y-65400D01*
X-30400Y-35000D02*
X-10300Y-55100D01*
Y-60100D02*
X-5100Y-65300D01*
X-10300Y-60100D02*
Y-55100D01*
X-57500Y-35000D02*
X-30400D01*
X-33400Y-39500D02*
X-19800Y-53100D01*
X-67000Y-39500D02*
X-33400D01*
X-37800Y-45000D02*
X-30300Y-52500D01*
Y-59700D02*
Y-52500D01*
X-57500Y-45000D02*
X-37800D01*
X-40000Y-62500D02*
X-35000Y-57500D01*
X-46700Y-65500D02*
X-43700Y-62500D01*
X-40000D01*
X-46700Y-150900D02*
Y-65500D01*
X-77300Y-53500D02*
Y-39800D01*
X-67500Y-30000D01*
X-121900Y-178300D02*
X-81600Y-138000D01*
Y-40000D01*
X-82000Y-23300D02*
X-73600D01*
X-89000Y-30300D02*
X-82000Y-23300D01*
X-92000Y-29953D02*
X-82024Y-19976D01*
X-92000Y-119500D02*
Y-29953D01*
X-96000Y-15200D02*
X-65300D01*
X-132000Y-20900D02*
X-101700D01*
X-96000Y-15200D01*
X-65300D02*
X-60200Y-10100D01*
X11900D02*
X40000Y-38200D01*
X-60200Y-10100D02*
X11900D01*
X-61300Y-18800D02*
X-57500Y-15000D01*
X-65200Y-25200D02*
X-61300Y-21300D01*
Y-18800D01*
X-71700Y-25200D02*
X-65200D01*
X-73600Y-23300D02*
X-71700Y-25200D01*
X-130200Y18000D02*
X-122400D01*
X-166300Y-30000D02*
Y-18100D01*
X-130200Y18000D01*
X-173258Y9843D02*
X-155700Y27400D01*
X-207258Y9843D02*
X-173258D01*
X-155700Y27400D02*
X-119800D01*
X-155700D02*
X-155600Y27500D01*
Y75600D01*
X-164120Y84120D02*
X-155600Y75600D01*
X-167250Y84120D02*
X-164120D01*
X-167973Y84842D02*
X-167250Y84120D01*
X-119800Y27400D02*
X-115200Y22800D01*
X-207258Y-13442D02*
X-170473Y-50228D01*
X-207258Y-13442D02*
Y9843D01*
X-222972D02*
X-207258D01*
X-191200Y-20800D02*
X-178600Y-33400D01*
X-154800D01*
X-126700Y-5300D01*
X-64700D01*
X-150700Y-25700D02*
X-128600Y-3600D01*
X-153700Y-25700D02*
X-150700D01*
X-128600Y-3600D02*
X-88900D01*
X-80300Y5000D01*
X-115900Y2400D02*
X-93950D01*
X-81250Y15100D01*
X-64100D02*
X-58600Y20600D01*
X-40700D02*
X-19900Y41400D01*
X-58600Y20600D02*
X-40700D01*
X-81250Y15100D02*
X-64100D01*
X-64300Y5000D02*
X-59500Y9800D01*
X-80300Y5000D02*
X-64300D01*
X-64700Y-5300D02*
X-59900Y-500D01*
X9700D01*
X0Y-95300D02*
X5100Y-100400D01*
X-15000Y-122000D02*
X-9200Y-116200D01*
X-5000Y-153400D02*
Y-120900D01*
Y-153400D02*
X24600Y-183000D01*
X-5000Y-120900D02*
X-1100Y-117000D01*
X-5100Y-96200D02*
Y-65300D01*
X0Y-117000D02*
Y-101300D01*
X-5100Y-96200D02*
X0Y-101300D01*
X10000Y-117000D02*
Y-99400D01*
X14400Y-95000D02*
Y-65300D01*
X10000Y-99400D02*
X14400Y-95000D01*
X20376Y-59324D02*
Y-33976D01*
X14400Y-65300D02*
X20376Y-59324D01*
X-5000Y-57500D02*
Y-52500D01*
X-23547Y-37100D02*
X-20400D01*
X-5000Y-52500D01*
X-23624Y-37024D02*
X-23547Y-37100D01*
X99800Y-24900D02*
X155200D01*
X175700Y-4400D02*
Y18400D01*
X155200Y-24900D02*
X175700Y-4400D01*
X188700Y-156200D02*
X191522Y-159022D01*
X188700Y-156200D02*
Y-110800D01*
X115600Y-37700D02*
X188700Y-110800D01*
X194022Y-159022D02*
X195000Y-160000D01*
X191522Y-159022D02*
X194022D01*
X54100Y-50200D02*
X105300D01*
X184900Y-129800D01*
X75200Y-37700D02*
X115600D01*
X67500Y-30000D02*
X75200Y-37700D01*
X205500Y170000D02*
X213100Y162400D01*
Y122300D02*
Y162400D01*
X105800Y15000D02*
X213100Y122300D01*
X185900Y150000D02*
X195000D01*
X179500Y124800D02*
Y143600D01*
X185900Y150000D01*
X171900Y123800D02*
Y150200D01*
X57500Y25000D02*
X73100D01*
X171900Y123800D01*
X45000Y57500D02*
Y78400D01*
X100100Y133500D01*
X12800Y61800D02*
X14900Y63900D01*
X5000Y57500D02*
X9300Y61800D01*
X12800D01*
X-23000Y81000D02*
X-22900Y80900D01*
X6700D01*
X135000Y190000D02*
Y220000D01*
X25000Y57500D02*
Y80000D01*
X135000Y190000D01*
X123800Y237600D02*
X147000D01*
X154400Y230200D01*
Y201891D02*
Y230200D01*
X35000Y82491D02*
X154400Y201891D01*
X68400Y-10000D02*
X75700Y-2700D01*
X67500Y-10000D02*
X68400D01*
X42900Y-216700D02*
Y-97900D01*
X25000Y-80000D02*
X42900Y-97900D01*
X25000Y-80000D02*
Y-57500D01*
X-206400Y-178300D02*
X-121900D01*
X-214600Y-170100D02*
Y-139600D01*
Y-170100D02*
X-206400Y-178300D01*
X-214600Y-139600D02*
X-205000Y-130000D01*
X-55000Y-170000D02*
X-40000Y-155000D01*
X-55000Y-220000D02*
Y-170000D01*
X-40000Y-155000D02*
Y-67500D01*
X1900Y-225500D02*
X34100D01*
X42900Y-216700D01*
X-6800Y-216800D02*
X1900Y-225500D01*
X19200Y-212300D02*
X28000Y-203500D01*
X2000Y-219200D02*
X8900Y-212300D01*
X19200D01*
X24600Y-185700D02*
Y-183000D01*
X0Y-95300D02*
Y-67500D01*
X35000Y-79100D02*
Y-57500D01*
X-85149Y-29823D02*
X-82326Y-27000D01*
X-82000D01*
X-194600Y129600D02*
X-160300D01*
X-195000Y130000D02*
X-194600Y129600D01*
X20000Y-104200D02*
Y-67500D01*
X5130Y-86269D02*
Y-57630D01*
Y-86269D02*
X5261Y-86400D01*
X5000Y-57500D02*
X5130Y-57630D01*
X-85149Y-131449D02*
Y-29823D01*
X-108300Y-154600D02*
X-85149Y-131449D01*
X-19900Y41400D02*
Y59700D01*
X-59500Y9800D02*
X20900D01*
X50700Y-20000D01*
X-26000Y109500D02*
X-4000D01*
X18500Y132000D01*
Y182300D01*
X-2100Y220000D02*
X15400Y202500D01*
X-105000Y220000D02*
X-2100D01*
X5400Y202500D02*
X18500Y189400D01*
Y182300D02*
Y189400D01*
X-1100Y-117000D02*
X0D01*
X5600Y-200600D02*
X11200Y-206200D01*
X55000Y-220000D02*
Y-104300D01*
X30000Y-79300D02*
X55000Y-104300D01*
X-67500Y-40000D02*
X-67000Y-39500D01*
X-30300Y-59700D02*
X-25700Y-64300D01*
X40000Y-67500D02*
Y-38200D01*
X45000Y-57500D02*
Y-35800D01*
X9700Y-500D02*
X45000Y-35800D01*
X-35500Y58000D02*
X-35000Y57500D01*
X-195000Y170000D02*
X-193929Y168929D01*
X-191028D01*
X-186300Y164200D01*
Y153600D02*
Y164200D01*
X-168900Y149800D02*
X-168700Y149600D01*
X-195000Y150000D02*
X-194800Y149800D01*
X-168900D01*
X-132200Y-20700D02*
X-132000Y-20900D01*
X50700Y-38200D02*
X57500Y-45000D01*
X50700Y-38200D02*
Y-20000D01*
X-170473Y-65158D02*
Y-50228D01*
X-115200Y22800D02*
X-93300D01*
X-71100Y45000D01*
X-57500D01*
X56800Y5700D02*
X57500Y5000D01*
X30900Y5700D02*
X56800D01*
X12700Y23900D02*
X30900Y5700D01*
X12700Y23900D02*
Y37800D01*
X-57500Y35000D02*
X-47700D01*
X-124100Y8000D02*
X-99500D01*
X-67500Y40000D01*
X-42400Y50100D02*
X-35000Y57500D01*
X-75800Y50100D02*
X-42400D01*
X-98600Y27300D02*
X-75800Y50100D01*
X-129700Y-34200D02*
X-128700Y-33200D01*
X-96900D01*
X-132500Y-160000D02*
X-92000Y-119500D01*
X-195000Y-160000D02*
X-132500D01*
X30000Y-79300D02*
Y-67500D01*
X205000Y170000D02*
X205500D01*
X57500Y15000D02*
X105800D01*
X74700Y20000D02*
X179500Y124800D01*
X67500Y20000D02*
X74700D01*
X171900Y150200D02*
X181700Y160000D01*
X195000D01*
X35000Y57500D02*
Y82491D01*
X100100Y133500D02*
Y142500D01*
X5000Y57500D02*
X5091D01*
D82*
X70500Y-14000D02*
X85563Y1063D01*
X63276Y-14000D02*
X70500D01*
X71298Y-15926D02*
X86361Y-863D01*
X61827Y-18173D02*
X64074Y-15926D01*
X61029Y-16247D02*
X63276Y-14000D01*
X64074Y-15926D02*
X71298D01*
X57500Y-25000D02*
Y-20180D01*
X59507Y-18173D01*
X61827D01*
X58548Y-15000D02*
X59795Y-16247D01*
X61029D01*
X57500Y-15000D02*
X58548D01*
X86361Y-863D02*
X166210D01*
X85563Y1063D02*
X166210D01*
X166947Y1800D01*
Y-1600D02*
X167400D01*
X166947Y1800D02*
X167400D01*
X166210Y-863D02*
X166947Y-1600D01*
D83*
X-62500Y62500D02*
D03*
X62500D02*
D03*
Y-62500D02*
D03*
X-62500D02*
D03*
D84*
X45000Y57500D02*
D03*
X-45000D02*
D03*
X-40000Y67500D02*
D03*
X-35000Y57500D02*
D03*
X-30000Y67500D02*
D03*
X-25000Y57500D02*
D03*
X-20000Y67500D02*
D03*
X-15000Y57500D02*
D03*
X-10000Y67500D02*
D03*
X-5000Y57500D02*
D03*
X0Y67500D02*
D03*
X5000Y57500D02*
D03*
X10000Y67500D02*
D03*
X15000Y57500D02*
D03*
X20000Y67500D02*
D03*
X25000Y57500D02*
D03*
X30000Y67500D02*
D03*
X35000Y57500D02*
D03*
X40000Y67500D02*
D03*
X57500Y45000D02*
D03*
X67500Y40000D02*
D03*
X57500Y35000D02*
D03*
X67500Y30000D02*
D03*
X57500Y25000D02*
D03*
X67500Y20000D02*
D03*
X57500Y15000D02*
D03*
X67500Y10000D02*
D03*
X57500Y5000D02*
D03*
X67500Y0D02*
D03*
X57500Y-5000D02*
D03*
X67500Y-10000D02*
D03*
X57500Y-15000D02*
D03*
X67500Y-20000D02*
D03*
X57500Y-25000D02*
D03*
X67500Y-30000D02*
D03*
X57500Y-35000D02*
D03*
X67500Y-40000D02*
D03*
X57500Y-45000D02*
D03*
X45000Y-57500D02*
D03*
X40000Y-67500D02*
D03*
X35000Y-57500D02*
D03*
X30000Y-67500D02*
D03*
X25000Y-57500D02*
D03*
X20000Y-67500D02*
D03*
X15000Y-57500D02*
D03*
X10000Y-67500D02*
D03*
X5000Y-57500D02*
D03*
X0Y-67500D02*
D03*
X-5000Y-57500D02*
D03*
X-10000Y-67500D02*
D03*
X-15000Y-57500D02*
D03*
X-20000Y-67500D02*
D03*
X-25000Y-57500D02*
D03*
X-30000Y-67500D02*
D03*
X-35000Y-57500D02*
D03*
X-40000Y-67500D02*
D03*
X-45000Y-57500D02*
D03*
X-57500Y-45000D02*
D03*
X-67500Y-40000D02*
D03*
X-57500Y-35000D02*
D03*
X-67500Y-30000D02*
D03*
X-57500Y-25000D02*
D03*
X-67500Y-20000D02*
D03*
X-57500Y-15000D02*
D03*
X-67500Y-10000D02*
D03*
X-57500Y-5000D02*
D03*
X-67500Y0D02*
D03*
X-57500Y5000D02*
D03*
X-67500Y10000D02*
D03*
X-57500Y15000D02*
D03*
X-67500Y20000D02*
D03*
X-57500Y25000D02*
D03*
X-67500Y30000D02*
D03*
X-57500Y35000D02*
D03*
X-67500Y40000D02*
D03*
X-57500Y45000D02*
D03*
D85*
X375807Y17008D02*
D03*
Y-17008D02*
D03*
D86*
X392264Y17008D02*
D03*
Y-17008D02*
D03*
D87*
X-132500Y132500D02*
D03*
Y-132500D02*
D03*
X132500D02*
D03*
Y132500D02*
D03*
D88*
X-121800D02*
D03*
X-143200D02*
D03*
X-142385Y128405D02*
D03*
X-122615Y136595D02*
D03*
X-140066Y124934D02*
D03*
X-124934Y140066D02*
D03*
X-136595Y122615D02*
D03*
X-128405Y142385D02*
D03*
X-132500Y121800D02*
D03*
Y143200D02*
D03*
X-128405Y122615D02*
D03*
X-136595Y142385D02*
D03*
X-124934Y124934D02*
D03*
X-140066Y140066D02*
D03*
X-122615Y128405D02*
D03*
X-142385Y136595D02*
D03*
X-121800Y-132500D02*
D03*
X-143200D02*
D03*
X-142385Y-136595D02*
D03*
X-122615Y-128405D02*
D03*
X-140066Y-140066D02*
D03*
X-124934Y-124934D02*
D03*
X-136595Y-142385D02*
D03*
X-128405Y-122615D02*
D03*
X-132500Y-143200D02*
D03*
Y-121800D02*
D03*
X-128405Y-142385D02*
D03*
X-136595Y-122615D02*
D03*
X-124934Y-140066D02*
D03*
X-140066Y-124934D02*
D03*
X-122615Y-136595D02*
D03*
X-142385Y-128405D02*
D03*
X143200Y-132500D02*
D03*
X121800D02*
D03*
X122615Y-136595D02*
D03*
X142385Y-128405D02*
D03*
X124934Y-140066D02*
D03*
X140066Y-124934D02*
D03*
X128405Y-142385D02*
D03*
X136595Y-122615D02*
D03*
X132500Y-143200D02*
D03*
Y-121800D02*
D03*
X136595Y-142385D02*
D03*
X128405Y-122615D02*
D03*
X140066Y-140066D02*
D03*
X124934Y-124934D02*
D03*
X142385Y-136595D02*
D03*
X122615Y-128405D02*
D03*
X143200Y132500D02*
D03*
X121800D02*
D03*
X122615Y128405D02*
D03*
X142385Y136595D02*
D03*
X124934Y124934D02*
D03*
X140066Y140066D02*
D03*
X128405Y122615D02*
D03*
X136595Y142385D02*
D03*
X132500Y121800D02*
D03*
Y143200D02*
D03*
X136595Y122615D02*
D03*
X128405Y142385D02*
D03*
X140066Y124934D02*
D03*
X124934Y140066D02*
D03*
X142385Y128405D02*
D03*
X122615Y136595D02*
D03*
D89*
X145000Y230000D02*
D03*
Y220000D02*
D03*
X135000Y230000D02*
D03*
Y220000D02*
D03*
X125000Y230000D02*
D03*
Y220000D02*
D03*
X115000Y230000D02*
D03*
Y220000D02*
D03*
X105000Y230000D02*
D03*
X205000Y170000D02*
D03*
X195000Y160000D02*
D03*
X205000D02*
D03*
X195000Y150000D02*
D03*
X205000D02*
D03*
X195000Y140000D02*
D03*
X205000D02*
D03*
X195000Y130000D02*
D03*
X205000D02*
D03*
X70000Y265000D02*
D03*
Y255000D02*
D03*
X60000Y265000D02*
D03*
Y255000D02*
D03*
X50000Y265000D02*
D03*
Y255000D02*
D03*
X40000Y265000D02*
D03*
Y255000D02*
D03*
X30000Y265000D02*
D03*
X-70000D02*
D03*
X-60000Y255000D02*
D03*
Y265000D02*
D03*
X-50000Y255000D02*
D03*
Y265000D02*
D03*
X-40000Y255000D02*
D03*
Y265000D02*
D03*
X-30000Y255000D02*
D03*
Y265000D02*
D03*
X-205000Y130000D02*
D03*
X-195000Y140000D02*
D03*
X-205000D02*
D03*
X-195000Y150000D02*
D03*
X-205000D02*
D03*
X-195000Y160000D02*
D03*
X-205000D02*
D03*
X-195000Y170000D02*
D03*
X-205000D02*
D03*
Y-130000D02*
D03*
X-195000D02*
D03*
X-205000Y-140000D02*
D03*
X-195000D02*
D03*
X-205000Y-150000D02*
D03*
X-195000D02*
D03*
X-205000Y-160000D02*
D03*
X-195000D02*
D03*
X-205000Y-170000D02*
D03*
X55000Y-230000D02*
D03*
Y-220000D02*
D03*
X65000Y-230000D02*
D03*
Y-220000D02*
D03*
X75000Y-230000D02*
D03*
Y-220000D02*
D03*
X85000Y-230000D02*
D03*
Y-220000D02*
D03*
X95000Y-230000D02*
D03*
X-55000D02*
D03*
X-65000Y-220000D02*
D03*
Y-230000D02*
D03*
X-75000Y-220000D02*
D03*
Y-230000D02*
D03*
X-85000Y-220000D02*
D03*
Y-230000D02*
D03*
X-95000Y-220000D02*
D03*
Y-230000D02*
D03*
X20000Y-127000D02*
D03*
X10000Y-117000D02*
D03*
Y-127000D02*
D03*
X0Y-117000D02*
D03*
Y-127000D02*
D03*
X-10000Y-117000D02*
D03*
Y-127000D02*
D03*
X-20000Y-117000D02*
D03*
Y-127000D02*
D03*
X-105000Y230000D02*
D03*
Y220000D02*
D03*
X-115000Y230000D02*
D03*
Y220000D02*
D03*
X-125000Y230000D02*
D03*
Y220000D02*
D03*
X-135000Y230000D02*
D03*
Y220000D02*
D03*
X-145000Y230000D02*
D03*
X205000Y-130000D02*
D03*
X195000Y-140000D02*
D03*
X205000D02*
D03*
X195000Y-150000D02*
D03*
X205000D02*
D03*
X195000Y-160000D02*
D03*
X205000D02*
D03*
X195000Y-170000D02*
D03*
X205000D02*
D03*
D90*
X105000Y220000D02*
D03*
X30000Y255000D02*
D03*
X-70000D02*
D03*
X95000Y-220000D02*
D03*
X-55000D02*
D03*
X20000Y-117000D02*
D03*
X-145000Y220000D02*
D03*
D91*
X195000Y170000D02*
D03*
X-195000Y130000D02*
D03*
Y-170000D02*
D03*
X195000Y-130000D02*
D03*
D92*
X-10000Y176000D02*
D03*
X10000D02*
D03*
Y188500D02*
D03*
X-10000D02*
D03*
D93*
X-4000Y168500D02*
D03*
X4000D02*
D03*
X0Y188500D02*
D03*
D94*
X25400Y202500D02*
D03*
X-4600D02*
D03*
X-14600D02*
D03*
X5400D02*
D03*
X15400D02*
D03*
D95*
X-24600D02*
D03*
D96*
X-170473Y-84842D02*
D03*
Y-75000D02*
D03*
Y-65158D02*
D03*
X-227559Y-84842D02*
D03*
Y-65158D02*
D03*
X-222972Y-9843D02*
D03*
Y0D02*
D03*
Y9843D02*
D03*
X-280059Y-9843D02*
D03*
Y9843D02*
D03*
X-167973Y65158D02*
D03*
Y75000D02*
D03*
Y84842D02*
D03*
X-225059Y65158D02*
D03*
Y84842D02*
D03*
D97*
X-200000Y-93307D02*
D03*
Y-56693D02*
D03*
X-252500Y-18307D02*
D03*
Y18307D02*
D03*
X-197500Y56693D02*
D03*
Y93307D02*
D03*
D98*
X356600Y-4163D02*
D03*
X20800Y-222900D02*
D03*
X5700Y-190400D02*
D03*
X-5900Y-190200D02*
D03*
X167300Y-5000D02*
D03*
X167400Y-1600D02*
D03*
Y1800D02*
D03*
X44800Y-21900D02*
D03*
X184900Y-129800D02*
D03*
X77400Y-31100D02*
D03*
X-23000Y81000D02*
D03*
X75700Y-2700D02*
D03*
X77000Y-15300D02*
D03*
X2000Y-219200D02*
D03*
X11000Y-219100D02*
D03*
X-11300Y-223200D02*
D03*
X-152300Y-40000D02*
D03*
X-134200Y-59400D02*
D03*
X-82000Y-20000D02*
D03*
Y-27000D02*
D03*
X-147500Y-10800D02*
D03*
X-122400Y18000D02*
D03*
X-160300Y129600D02*
D03*
X-130500Y-14500D02*
D03*
X9700Y-76900D02*
D03*
X25218Y-85182D02*
D03*
X24000Y-93200D02*
D03*
X22400Y-76700D02*
D03*
X5261Y-86400D02*
D03*
X142100Y-78600D02*
D03*
X-77300Y-53500D02*
D03*
X-81600Y-40000D02*
D03*
X-2600Y-214500D02*
D03*
X-6800Y-216800D02*
D03*
X-23624Y-37024D02*
D03*
X175700Y18400D02*
D03*
X99800Y-24900D02*
D03*
X167500Y5400D02*
D03*
X77700Y3500D02*
D03*
X76800Y-18600D02*
D03*
X77573Y-23200D02*
D03*
X-97100Y33900D02*
D03*
X-24000Y98600D02*
D03*
X24300Y99100D02*
D03*
X-136100Y24900D02*
D03*
X-153300Y-84000D02*
D03*
X25400Y-293200D02*
D03*
X-27600Y-293300D02*
D03*
X-31100Y-268800D02*
D03*
X-37200Y-171800D02*
D03*
X-27600Y-171700D02*
D03*
X37400Y-171900D02*
D03*
X27600Y-171700D02*
D03*
X4600Y-171800D02*
D03*
X-5200Y-172200D02*
D03*
X38700Y-216000D02*
D03*
X-93400Y42900D02*
D03*
X357100Y10100D02*
D03*
X357600Y-9500D02*
D03*
X-32200Y-244600D02*
D03*
X11200Y-206200D02*
D03*
X-139600Y-48500D02*
D03*
X-38600Y-221100D02*
D03*
X-24100Y-215800D02*
D03*
X-147500Y65500D02*
D03*
X-140500Y65600D02*
D03*
X-141100Y-10900D02*
D03*
X-100000Y-25300D02*
D03*
X-97000Y-1200D02*
D03*
X-186300Y153600D02*
D03*
X-168700Y149600D02*
D03*
X-132200Y-20700D02*
D03*
X-153700Y-25700D02*
D03*
X-191200Y-20800D02*
D03*
X18500Y182300D02*
D03*
X6700Y80900D02*
D03*
X-200Y163600D02*
D03*
X12700Y37800D02*
D03*
X-115900Y2400D02*
D03*
X-98600Y27300D02*
D03*
X-124100Y8000D02*
D03*
X-166300Y-30000D02*
D03*
X-129700Y-34200D02*
D03*
X-96900Y-33200D02*
D03*
X-108300Y-154600D02*
D03*
X24600Y-185700D02*
D03*
X-20200Y-101500D02*
D03*
X20376Y-33976D02*
D03*
X-23500Y-223000D02*
D03*
X11600Y-153000D02*
D03*
X100100Y142500D02*
D03*
X38000Y145500D02*
D03*
M02*
