G04*
G04 #@! TF.GenerationSoftware,Altium Limited,Altium Designer,23.0.1 (38)*
G04*
G04 Layer_Color=13813960*
%FSLAX25Y25*%
%MOIN*%
G70*
G04*
G04 #@! TF.SameCoordinates,A82DE2A9-68C3-4950-AE13-74F95629AD28*
G04*
G04*
G04 #@! TF.FilePolarity,Positive*
G04*
G01*
G75*
%ADD13C,0.10000*%
G36*
X40097Y41539D02*
Y-20000D01*
X-43150D01*
Y41539D01*
X40097D01*
D02*
G37*
G36*
X-22636Y-40147D02*
X-24538D01*
X-25849Y-32878D01*
X-27008Y-40147D01*
X-29030D01*
X-27565Y-32266D01*
X-31959Y-24320D01*
X-29893D01*
X-26177Y-31108D01*
X-27412Y-24320D01*
X-25510D01*
X-22636Y-40147D01*
D02*
G37*
G36*
X-38309Y-34037D02*
X-37195Y-40147D01*
X-39096D01*
X-40211Y-34004D01*
X-44583Y-24320D01*
X-42572D01*
X-39730Y-31359D01*
X-39752Y-24320D01*
X-37850D01*
X-38309Y-34037D01*
D02*
G37*
G36*
X2142Y-40147D02*
X230D01*
X-1486Y-30156D01*
X-1366Y-40147D01*
X-2984D01*
X-6317Y-30277D01*
X-4558Y-40147D01*
X-6470D01*
X-9334Y-24320D01*
X-6711D01*
X-2896Y-35731D01*
X-3016Y-24320D01*
X-743D01*
X2142Y-40147D01*
D02*
G37*
G36*
X-14897D02*
X-16821D01*
X-16963Y-39316D01*
X-17105Y-38518D01*
X-17236Y-37764D01*
X-17357Y-37042D01*
X-17466Y-36354D01*
X-17575Y-35698D01*
X-17674Y-35075D01*
X-17772Y-34485D01*
X-17859Y-33927D01*
X-17936Y-33392D01*
X-18001Y-32900D01*
X-18078Y-32430D01*
X-18133Y-31993D01*
X-18187Y-31588D01*
X-18242Y-31206D01*
X-18286Y-30856D01*
X-18329Y-30528D01*
X-18362Y-30222D01*
X-18395Y-29949D01*
X-18428Y-29697D01*
X-18450Y-29468D01*
X-18472Y-29260D01*
X-18493Y-29085D01*
X-18504Y-28921D01*
X-18515Y-28779D01*
X-18526Y-28670D01*
X-18537Y-28572D01*
Y-28484D01*
X-18548Y-28430D01*
Y-28670D01*
X-18559Y-29020D01*
X-18570Y-29402D01*
X-18581Y-29796D01*
X-18603Y-30222D01*
X-18624Y-30659D01*
X-18646Y-31108D01*
X-18679Y-31577D01*
X-18745Y-32539D01*
X-18810Y-33523D01*
X-18887Y-34507D01*
X-18974Y-35480D01*
X-19007Y-35949D01*
X-19051Y-36408D01*
X-19083Y-36846D01*
X-19127Y-37272D01*
X-19160Y-37687D01*
X-19193Y-38070D01*
X-19226Y-38431D01*
X-19258Y-38758D01*
X-19291Y-39064D01*
X-19313Y-39338D01*
X-19335Y-39578D01*
X-19357Y-39775D01*
X-19368Y-39928D01*
X-19379Y-39994D01*
Y-40048D01*
X-19390Y-40092D01*
Y-40125D01*
Y-40136D01*
Y-40147D01*
X-21302D01*
X-24177Y-24320D01*
X-22264D01*
X-22122Y-25140D01*
X-21980Y-25938D01*
X-21849Y-26692D01*
X-21729Y-27413D01*
X-21619Y-28113D01*
X-21510Y-28768D01*
X-21412Y-29391D01*
X-21313Y-29993D01*
X-21237Y-30561D01*
X-21149Y-31097D01*
X-21084Y-31610D01*
X-21018Y-32091D01*
X-20953Y-32539D01*
X-20898Y-32966D01*
X-20854Y-33359D01*
X-20800Y-33731D01*
X-20767Y-34069D01*
X-20723Y-34387D01*
X-20690Y-34682D01*
X-20668Y-34944D01*
X-20647Y-35195D01*
X-20625Y-35414D01*
X-20603Y-35611D01*
X-20592Y-35785D01*
X-20581Y-35928D01*
X-20570Y-36059D01*
X-20559Y-36168D01*
Y-36255D01*
X-20548Y-36321D01*
Y-36059D01*
X-20537Y-35687D01*
X-20526Y-35294D01*
X-20515Y-34878D01*
X-20493Y-34441D01*
X-20472Y-33982D01*
X-20439Y-33512D01*
X-20417Y-33031D01*
X-20351Y-32047D01*
X-20275Y-31042D01*
X-20198Y-30025D01*
X-20122Y-29042D01*
X-20078Y-28561D01*
X-20034Y-28102D01*
X-20002Y-27654D01*
X-19958Y-27216D01*
X-19925Y-26801D01*
X-19881Y-26419D01*
X-19849Y-26047D01*
X-19816Y-25708D01*
X-19794Y-25402D01*
X-19761Y-25129D01*
X-19739Y-24899D01*
X-19717Y-24691D01*
X-19707Y-24539D01*
X-19696Y-24473D01*
Y-24418D01*
Y-24375D01*
X-19685Y-24342D01*
Y-24331D01*
Y-24320D01*
X-17772D01*
X-14897Y-40147D01*
D02*
G37*
G36*
X32298Y-38452D02*
Y-38726D01*
X32276Y-38933D01*
X32233Y-39130D01*
X32167Y-39305D01*
X32091Y-39447D01*
X32025Y-39567D01*
X31960Y-39655D01*
X31916Y-39709D01*
X31894Y-39731D01*
X31741Y-39873D01*
X31566Y-39972D01*
X31413Y-40048D01*
X31260Y-40092D01*
X31118Y-40125D01*
X31020Y-40136D01*
X30976Y-40147D01*
X28265D01*
X28036Y-40125D01*
X27817Y-40081D01*
X27631Y-40015D01*
X27456Y-39939D01*
X27325Y-39873D01*
X27216Y-39808D01*
X27150Y-39764D01*
X27128Y-39742D01*
X26965Y-39578D01*
X26822Y-39414D01*
X26724Y-39239D01*
X26648Y-39086D01*
X26593Y-38944D01*
X26549Y-38824D01*
X26538Y-38780D01*
X26527Y-38748D01*
Y-38737D01*
Y-38726D01*
X23882Y-24320D01*
X25762D01*
X28211Y-37829D01*
X28232Y-37928D01*
X28265Y-38004D01*
X28309Y-38081D01*
X28353Y-38146D01*
X28462Y-38245D01*
X28582Y-38310D01*
X28692Y-38343D01*
X28790Y-38365D01*
X28855Y-38376D01*
X29894D01*
X29959Y-38365D01*
X30025Y-38354D01*
X30123Y-38299D01*
X30167Y-38278D01*
X30200Y-38256D01*
X30211Y-38245D01*
X30222Y-38234D01*
X30265Y-38179D01*
X30287Y-38124D01*
X30331Y-38015D01*
Y-37971D01*
X30342Y-37939D01*
Y-37917D01*
Y-37906D01*
Y-37851D01*
X27915Y-24320D01*
X29752D01*
X32298Y-38452D01*
D02*
G37*
G36*
X35588Y-24342D02*
X35796Y-24385D01*
X35993Y-24451D01*
X36157Y-24528D01*
X36288Y-24604D01*
X36386Y-24670D01*
X36452Y-24713D01*
X36463Y-24735D01*
X36474D01*
X36648Y-24899D01*
X36791Y-25063D01*
X36900Y-25238D01*
X36976Y-25402D01*
X37031Y-25544D01*
X37075Y-25653D01*
X37086Y-25697D01*
Y-25730D01*
X37097Y-25752D01*
Y-25763D01*
X37567Y-28495D01*
X37589Y-28637D01*
X37599Y-28758D01*
Y-28812D01*
Y-28845D01*
Y-28867D01*
Y-28878D01*
Y-28943D01*
Y-28965D01*
Y-28976D01*
X37578Y-29271D01*
X37534Y-29566D01*
X37468Y-29840D01*
X37392Y-30091D01*
X37348Y-30200D01*
X37315Y-30299D01*
X37282Y-30386D01*
X37250Y-30463D01*
X37217Y-30517D01*
X37206Y-30572D01*
X37184Y-30594D01*
Y-30605D01*
X37151Y-30670D01*
X37108Y-30758D01*
X37042Y-30867D01*
X36976Y-30998D01*
X36900Y-31151D01*
X36812Y-31304D01*
X36638Y-31632D01*
X36550Y-31796D01*
X36474Y-31949D01*
X36397Y-32091D01*
X36321Y-32211D01*
X36266Y-32321D01*
X36222Y-32408D01*
X36200Y-32452D01*
X36189Y-32474D01*
X36047Y-32736D01*
X35927Y-32965D01*
X35818Y-33173D01*
X35719Y-33359D01*
X35632Y-33523D01*
X35555Y-33665D01*
X35490Y-33785D01*
X35424Y-33895D01*
X35381Y-33982D01*
X35337Y-34048D01*
X35315Y-34113D01*
X35282Y-34157D01*
X35271Y-34190D01*
X35260Y-34212D01*
X35250Y-34222D01*
X35118Y-34474D01*
X35020Y-34703D01*
X34943Y-34900D01*
X34900Y-35064D01*
X34867Y-35195D01*
X34856Y-35294D01*
X34845Y-35348D01*
Y-35370D01*
Y-35447D01*
X34856Y-35512D01*
X34867Y-35556D01*
X34878Y-35578D01*
X35271Y-37808D01*
X35293Y-37895D01*
X35326Y-37961D01*
X35413Y-38092D01*
X35457Y-38135D01*
X35490Y-38168D01*
X35512Y-38190D01*
X35523Y-38201D01*
X35599Y-38256D01*
X35676Y-38289D01*
X35829Y-38332D01*
X35883Y-38343D01*
X35927Y-38354D01*
X36987D01*
X37053Y-38343D01*
X37119Y-38332D01*
X37217Y-38278D01*
X37282Y-38234D01*
X37293Y-38223D01*
X37304Y-38212D01*
X37348Y-38157D01*
X37381Y-38103D01*
X37414Y-37993D01*
X37424Y-37950D01*
X37435Y-37917D01*
Y-37895D01*
Y-37884D01*
Y-37829D01*
X36845Y-34441D01*
X38682D01*
X39370Y-38452D01*
Y-38704D01*
X39348Y-38922D01*
X39305Y-39119D01*
X39250Y-39294D01*
X39173Y-39447D01*
X39108Y-39567D01*
X39042Y-39655D01*
X38998Y-39709D01*
X38987Y-39731D01*
X38835Y-39873D01*
X38671Y-39972D01*
X38507Y-40048D01*
X38343Y-40092D01*
X38212Y-40125D01*
X38102Y-40136D01*
X38059Y-40147D01*
X35359D01*
X35129Y-40125D01*
X34911Y-40081D01*
X34714Y-40015D01*
X34550Y-39939D01*
X34408Y-39873D01*
X34310Y-39808D01*
X34244Y-39764D01*
X34222Y-39742D01*
X34047Y-39578D01*
X33916Y-39403D01*
X33807Y-39228D01*
X33730Y-39064D01*
X33676Y-38922D01*
X33632Y-38802D01*
X33621Y-38758D01*
X33610Y-38726D01*
Y-38715D01*
Y-38704D01*
X33053Y-35654D01*
X33020Y-35425D01*
X33009Y-35315D01*
X32998Y-35228D01*
X32987Y-35151D01*
X32976Y-35086D01*
Y-35053D01*
Y-35042D01*
X32987Y-34813D01*
X33020Y-34594D01*
X33074Y-34397D01*
X33118Y-34233D01*
X33173Y-34080D01*
X33227Y-33982D01*
X33238Y-33938D01*
X33260Y-33906D01*
X33271Y-33895D01*
Y-33884D01*
X33282Y-33840D01*
X33304Y-33774D01*
X33337Y-33709D01*
X33380Y-33621D01*
X33435Y-33523D01*
X33490Y-33414D01*
X33621Y-33173D01*
X33763Y-32900D01*
X33938Y-32605D01*
X34113Y-32299D01*
X34288Y-31993D01*
X34473Y-31687D01*
X34648Y-31392D01*
X34812Y-31129D01*
X34954Y-30889D01*
X35020Y-30779D01*
X35075Y-30681D01*
X35129Y-30605D01*
X35173Y-30528D01*
X35206Y-30474D01*
X35228Y-30430D01*
X35239Y-30408D01*
X35250Y-30397D01*
X35337Y-30244D01*
X35413Y-30091D01*
X35545Y-29796D01*
X35632Y-29523D01*
X35687Y-29282D01*
X35708Y-29184D01*
X35730Y-29085D01*
X35741Y-29009D01*
Y-28932D01*
X35752Y-28878D01*
Y-28834D01*
Y-28812D01*
Y-28801D01*
X35741Y-28648D01*
X35730Y-28517D01*
Y-28462D01*
X35719Y-28419D01*
Y-28397D01*
Y-28386D01*
X35403Y-26637D01*
X35381Y-26561D01*
X35348Y-26484D01*
X35271Y-26375D01*
X35239Y-26331D01*
X35206Y-26298D01*
X35184Y-26287D01*
X35173Y-26276D01*
X35096Y-26222D01*
X35031Y-26178D01*
X34954Y-26156D01*
X34889Y-26134D01*
X34823Y-26123D01*
X34780Y-26112D01*
X33654D01*
X33588Y-26134D01*
X33490Y-26178D01*
X33446Y-26200D01*
X33413Y-26222D01*
X33402Y-26233D01*
X33391Y-26244D01*
X33337Y-26298D01*
X33304Y-26353D01*
X33260Y-26451D01*
X33249Y-26495D01*
X33238Y-26517D01*
Y-26539D01*
Y-26550D01*
X33249Y-26615D01*
X33260Y-26626D01*
Y-26637D01*
X33850Y-29905D01*
X31992D01*
X31304Y-26014D01*
X31282Y-25938D01*
X31271Y-25861D01*
Y-25806D01*
Y-25796D01*
Y-25785D01*
X31293Y-25566D01*
X31337Y-25358D01*
X31413Y-25183D01*
X31490Y-25030D01*
X31566Y-24910D01*
X31643Y-24823D01*
X31686Y-24768D01*
X31708Y-24746D01*
X31872Y-24604D01*
X32036Y-24495D01*
X32200Y-24418D01*
X32364Y-24375D01*
X32495Y-24342D01*
X32604Y-24331D01*
X32648Y-24320D01*
X35359D01*
X35588Y-24342D01*
D02*
G37*
G36*
X18319Y-40147D02*
X14034D01*
X13717Y-38376D01*
X16056D01*
X15073Y-32878D01*
X12712D01*
X12384Y-31107D01*
X14745D01*
X13859Y-26091D01*
X11477D01*
X11160Y-24320D01*
X15455D01*
X18319Y-40147D01*
D02*
G37*
G36*
X12701D02*
X10777D01*
X9531Y-33162D01*
X8001D01*
X7935Y-33173D01*
X7870Y-33184D01*
X7772Y-33228D01*
X7706Y-33283D01*
X7695Y-33294D01*
X7684Y-33304D01*
X7640Y-33359D01*
X7597Y-33414D01*
X7564Y-33512D01*
X7553Y-33556D01*
X7542Y-33589D01*
Y-33610D01*
Y-33621D01*
Y-33676D01*
X8711Y-40147D01*
X6766D01*
X5607Y-33895D01*
X5596Y-33818D01*
Y-33731D01*
Y-33665D01*
Y-33654D01*
Y-33643D01*
X5585Y-33578D01*
Y-33523D01*
Y-33490D01*
Y-33479D01*
X5596Y-33348D01*
X5607Y-33228D01*
X5640Y-33119D01*
X5662Y-33020D01*
X5695Y-32944D01*
X5728Y-32889D01*
X5739Y-32845D01*
X5749Y-32834D01*
X5826Y-32714D01*
X5924Y-32605D01*
X6023Y-32517D01*
X6121Y-32452D01*
X6208Y-32397D01*
X6274Y-32364D01*
X6318Y-32342D01*
X6340Y-32332D01*
X6154Y-32266D01*
X5990Y-32190D01*
X5837Y-32102D01*
X5706Y-32004D01*
X5596Y-31894D01*
X5487Y-31785D01*
X5411Y-31665D01*
X5334Y-31556D01*
X5269Y-31446D01*
X5225Y-31337D01*
X5181Y-31249D01*
X5148Y-31162D01*
X5126Y-31097D01*
X5116Y-31042D01*
X5105Y-31009D01*
Y-30998D01*
X4219Y-26014D01*
X4208Y-25938D01*
X4197Y-25883D01*
X4186Y-25839D01*
Y-25806D01*
X4175Y-25763D01*
Y-25752D01*
X4208Y-25533D01*
X4263Y-25336D01*
X4329Y-25172D01*
X4416Y-25019D01*
X4493Y-24910D01*
X4558Y-24823D01*
X4602Y-24768D01*
X4624Y-24746D01*
X4788Y-24604D01*
X4952Y-24495D01*
X5116Y-24418D01*
X5279Y-24375D01*
X5411Y-24342D01*
X5520Y-24331D01*
X5564Y-24320D01*
X9870D01*
X12701Y-40147D01*
D02*
G37*
G36*
X-11859Y-24342D02*
X-11651Y-24385D01*
X-11465Y-24451D01*
X-11301Y-24528D01*
X-11159Y-24604D01*
X-11061Y-24670D01*
X-10995Y-24713D01*
X-10984Y-24735D01*
X-10973D01*
X-10809Y-24899D01*
X-10667Y-25063D01*
X-10569Y-25238D01*
X-10482Y-25402D01*
X-10427Y-25544D01*
X-10383Y-25653D01*
X-10372Y-25697D01*
Y-25730D01*
X-10361Y-25752D01*
Y-25763D01*
X-8099Y-38431D01*
Y-38704D01*
X-8121Y-38922D01*
X-8164Y-39119D01*
X-8230Y-39294D01*
X-8307Y-39447D01*
X-8372Y-39567D01*
X-8438Y-39655D01*
X-8481Y-39709D01*
X-8503Y-39731D01*
X-8667Y-39873D01*
X-8831Y-39972D01*
X-8995Y-40048D01*
X-9148Y-40092D01*
X-9290Y-40125D01*
X-9400Y-40136D01*
X-9443Y-40147D01*
X-12132D01*
X-12362Y-40125D01*
X-12580Y-40081D01*
X-12766Y-40015D01*
X-12930Y-39939D01*
X-13072Y-39873D01*
X-13170Y-39808D01*
X-13236Y-39764D01*
X-13258Y-39742D01*
X-13433Y-39578D01*
X-13564Y-39403D01*
X-13673Y-39228D01*
X-13761Y-39064D01*
X-13815Y-38922D01*
X-13859Y-38802D01*
X-13870Y-38758D01*
Y-38726D01*
X-13881Y-38715D01*
Y-38704D01*
X-16143Y-26014D01*
X-16165Y-25938D01*
X-16176Y-25861D01*
Y-25796D01*
Y-25785D01*
Y-25774D01*
X-16154Y-25555D01*
X-16111Y-25358D01*
X-16045Y-25183D01*
X-15969Y-25030D01*
X-15881Y-24910D01*
X-15815Y-24823D01*
X-15772Y-24768D01*
X-15750Y-24746D01*
X-15597Y-24604D01*
X-15422Y-24495D01*
X-15258Y-24418D01*
X-15105Y-24375D01*
X-14974Y-24342D01*
X-14865Y-24331D01*
X-14821Y-24320D01*
X-12088D01*
X-11859Y-24342D01*
D02*
G37*
G36*
X-29806Y-40147D02*
X-34090D01*
X-34407Y-38376D01*
X-32068D01*
X-33052Y-32878D01*
X-35413D01*
X-35741Y-31108D01*
X-33380D01*
X-34265Y-26091D01*
X-36648D01*
X-36965Y-24320D01*
X-32669D01*
X-29806Y-40147D01*
D02*
G37*
G36*
X25478Y-40157D02*
X23576D01*
X22287Y-33064D01*
X19805D01*
X19576Y-33042D01*
X19368Y-32998D01*
X19171Y-32933D01*
X19007Y-32856D01*
X18876Y-32791D01*
X18778Y-32725D01*
X18712Y-32681D01*
X18690Y-32660D01*
X18527Y-32495D01*
X18384Y-32332D01*
X18286Y-32157D01*
X18210Y-31993D01*
X18155Y-31840D01*
X18111Y-31730D01*
X18100Y-31687D01*
X18089Y-31654D01*
Y-31632D01*
Y-31621D01*
X17084Y-26014D01*
X17062Y-25894D01*
X17040Y-25785D01*
Y-25719D01*
Y-25708D01*
Y-25697D01*
X17062Y-25500D01*
X17106Y-25326D01*
X17171Y-25161D01*
X17248Y-25030D01*
X17324Y-24910D01*
X17390Y-24834D01*
X17434Y-24779D01*
X17455Y-24757D01*
X17619Y-24615D01*
X17783Y-24506D01*
X17958Y-24429D01*
X18111Y-24375D01*
X18253Y-24342D01*
X18363Y-24331D01*
X18406Y-24320D01*
X22614D01*
X25478Y-40157D01*
D02*
G37*
G36*
X47500Y47742D02*
X41933D01*
Y52009D01*
X47500D01*
Y47742D01*
D02*
G37*
G36*
X52100Y-47558D02*
X46510D01*
Y-43291D01*
X52100D01*
Y-47558D01*
D02*
G37*
G36*
X-42400Y47845D02*
X-48018D01*
Y52109D01*
X-42400D01*
Y47845D01*
D02*
G37*
G36*
X-42300Y-52355D02*
X-47936D01*
Y-48091D01*
X-42300D01*
Y-52355D01*
D02*
G37*
G36*
X-61100Y41909D02*
Y37700D01*
X-64248D01*
Y41909D01*
X-61100D01*
D02*
G37*
G36*
X-52000Y43200D02*
X-54404D01*
Y47409D01*
X-52000D01*
Y43200D01*
D02*
G37*
%LPC*%
G36*
X37598Y39039D02*
X2110D01*
X1673Y38274D01*
X1235Y37563D01*
X798Y36961D01*
X470Y36469D01*
X142Y36032D01*
X-186Y35649D01*
X-460Y35321D01*
X-679Y35102D01*
X-1061Y34719D01*
X-1335Y34555D01*
X-1499Y34446D01*
X-1553D01*
X-1608Y35376D01*
X-1717Y36141D01*
X-1827Y36743D01*
X-1991Y37289D01*
X-2210Y37617D01*
X-2319Y37891D01*
X-2428Y38055D01*
X-2483Y38110D01*
X-3084Y37836D01*
X-3467Y36360D01*
X-3959Y35102D01*
X-4451Y34063D01*
X-4944Y33188D01*
X-5436Y32532D01*
X-5818Y32040D01*
X-6037Y31767D01*
X-6146Y31657D01*
X-7623Y31548D01*
X-8990Y31384D01*
X-10138Y31220D01*
X-11177Y31056D01*
X-12107Y30892D01*
X-12927Y30728D01*
X-13583Y30564D01*
X-14185Y30400D01*
X-14677Y30236D01*
X-15059Y30072D01*
X-15333Y29908D01*
X-15606Y29798D01*
X-15770Y29743D01*
X-15880Y29634D01*
X-15934Y29579D01*
X-16590Y29087D01*
X-17247Y28486D01*
X-17848Y27775D01*
X-18395Y26955D01*
X-19379Y25260D01*
X-20199Y23510D01*
X-20527Y22635D01*
X-20855Y21870D01*
X-21129Y21104D01*
X-21348Y20503D01*
X-21512Y19956D01*
X-21621Y19518D01*
X-21730Y19300D01*
Y19190D01*
X-22332Y19737D01*
X-22933Y20175D01*
X-23535Y20612D01*
X-24136Y20940D01*
X-25284Y21487D01*
X-26378Y21815D01*
X-27362Y22034D01*
X-27745Y22088D01*
X-28128Y22143D01*
X-28401Y22198D01*
X-29386D01*
X-30042Y22088D01*
X-30698Y22034D01*
X-31299Y21924D01*
X-31846Y21815D01*
X-32338Y21706D01*
X-32612Y21651D01*
X-32666Y21596D01*
X-32721D01*
X-34088Y20831D01*
X-35346Y19901D01*
X-36385Y18917D01*
X-37314Y17823D01*
X-38080Y16675D01*
X-38736Y15472D01*
X-39228Y14324D01*
X-39665Y13175D01*
X-39994Y12027D01*
X-40212Y10988D01*
X-40431Y10059D01*
X-40540Y9184D01*
X-40595Y8528D01*
X-40650Y7981D01*
Y7981D01*
Y6942D01*
X-40595Y5958D01*
X-40486Y5028D01*
X-40321Y4153D01*
X-40103Y3333D01*
X-39829Y2568D01*
X-39447Y1802D01*
X-38626Y490D01*
X-37697Y-659D01*
X-36603Y-1643D01*
X-35455Y-2518D01*
X-34252Y-3229D01*
X-33049Y-3775D01*
X-31901Y-4267D01*
X-30807Y-4650D01*
X-29878Y-4924D01*
X-29057Y-5088D01*
X-28675Y-5142D01*
X-28401Y-5197D01*
X-28183Y-5252D01*
X-28019Y-5306D01*
X-27854D01*
X-26870Y-5197D01*
X-25941Y-5033D01*
X-25120Y-4924D01*
X-24410Y-4760D01*
X-23699Y-4595D01*
X-23097Y-4431D01*
X-22605Y-4322D01*
X-22113Y-4158D01*
X-21730Y-3994D01*
X-21348Y-3885D01*
X-21074Y-3775D01*
X-20855Y-3666D01*
X-20582Y-3502D01*
X-20473Y-3447D01*
X-20199D01*
Y-4103D01*
X-20582Y-4705D01*
X-20910Y-5252D01*
X-21129Y-5744D01*
X-21238Y-6127D01*
X-21348Y-6455D01*
X-21402Y-6673D01*
Y-6783D01*
Y-6837D01*
X-21348Y-7275D01*
X-21183Y-7712D01*
X-20855Y-8204D01*
X-20473Y-8642D01*
X-19981Y-9079D01*
X-19434Y-9571D01*
X-18778Y-10009D01*
X-18067Y-10501D01*
X-17301Y-10938D01*
X-16426Y-11376D01*
X-14622Y-12251D01*
X-12708Y-13126D01*
X-10685Y-13946D01*
X-8716Y-14657D01*
X-6803Y-15368D01*
X-4998Y-15969D01*
X-4123Y-16242D01*
X-3358Y-16516D01*
X-2647Y-16735D01*
X-1991Y-16898D01*
X-1444Y-17063D01*
X-952Y-17227D01*
X-569Y-17336D01*
X-241Y-17445D01*
X-77Y-17500D01*
X-40650Y-17500D01*
X37598Y-17500D01*
X37598Y9075D01*
X37543Y10113D01*
X37488Y11098D01*
X37160Y12902D01*
X36613Y14543D01*
X35957Y16019D01*
X35192Y17277D01*
X34317Y18370D01*
X33332Y19354D01*
X32403Y20175D01*
X31419Y20885D01*
X30434Y21432D01*
X29559Y21924D01*
X28794Y22252D01*
X28138Y22526D01*
X27591Y22690D01*
X27263Y22745D01*
X27208Y22799D01*
X25349D01*
X24092Y22690D01*
X22943Y22471D01*
X21904Y22143D01*
X21084Y21760D01*
X20428Y21323D01*
X19936Y20995D01*
X19662Y20776D01*
X19553Y20667D01*
X18952D01*
X18842Y21268D01*
X18623Y21979D01*
X18241Y22745D01*
X17858Y23455D01*
X17475Y24166D01*
X17093Y24713D01*
X16983Y24932D01*
X16874Y25096D01*
X16764Y25205D01*
Y25260D01*
X15507Y25971D01*
X14358Y26736D01*
X13320Y27556D01*
X12499Y28322D01*
X11843Y29033D01*
X11351Y29634D01*
X11187Y29853D01*
X11078Y30017D01*
X10968Y30126D01*
Y30181D01*
X9437Y30673D01*
X8070Y31165D01*
X6867Y31657D01*
X5828Y32095D01*
X5008Y32478D01*
X4297Y32860D01*
X3696Y33188D01*
X3204Y33516D01*
X2876Y33790D01*
X2602Y34063D01*
X2383Y34282D01*
X2274Y34446D01*
X2110Y34719D01*
Y34774D01*
X2712Y38438D01*
Y38602D01*
X2602Y38766D01*
X2438Y38930D01*
X2220Y39039D01*
X37598D01*
D02*
G37*
%LPD*%
G36*
X6430Y15144D02*
X6922Y14980D01*
X7414Y14706D01*
X7797Y14378D01*
X8180Y13996D01*
X8508Y13558D01*
X9000Y12629D01*
X9383Y11644D01*
X9492Y11207D01*
X9601Y10824D01*
X9656Y10496D01*
X9711Y10223D01*
X9765Y10059D01*
Y10004D01*
X8234D01*
X8125Y10059D01*
X7906Y10168D01*
X7688Y10387D01*
X7414Y10605D01*
X7141Y10824D01*
X6922Y11043D01*
X6758Y11152D01*
X6703Y11207D01*
X5227D01*
X4789Y10879D01*
X4352Y10660D01*
X3422Y10278D01*
X3040Y10168D01*
X2712Y10059D01*
X2493Y10004D01*
X2110D01*
X2383Y10934D01*
X2712Y11699D01*
X2985Y12410D01*
X3313Y13011D01*
X3641Y13504D01*
X3915Y13941D01*
X4243Y14269D01*
X4516Y14543D01*
X4789Y14761D01*
X5063Y14925D01*
X5446Y15144D01*
X5719Y15199D01*
X5828D01*
X6430Y15144D01*
D02*
G37*
G36*
X-7787Y14816D02*
X-7350Y14652D01*
X-6912Y14433D01*
X-6529Y14160D01*
X-5818Y13449D01*
X-5272Y12629D01*
X-4834Y11754D01*
X-4506Y11043D01*
X-4451Y10770D01*
X-4342Y10551D01*
X-4287Y10387D01*
Y10332D01*
Y10004D01*
X-4944Y10059D01*
X-5600Y10168D01*
X-6201Y10387D01*
X-6748Y10605D01*
X-7240Y10824D01*
X-7623Y11043D01*
X-7842Y11152D01*
X-7951Y11207D01*
X-8279Y11152D01*
X-8607Y11043D01*
X-8990Y10824D01*
X-9318Y10605D01*
X-9646Y10387D01*
X-9920Y10168D01*
X-10084Y10059D01*
X-10138Y10004D01*
X-11614D01*
X-11451Y10879D01*
X-11232Y11590D01*
X-11013Y12246D01*
X-10740Y12793D01*
X-10466Y13285D01*
X-10193Y13668D01*
X-9920Y13996D01*
X-9646Y14269D01*
X-9373Y14488D01*
X-9099Y14597D01*
X-8662Y14816D01*
X-8388Y14871D01*
X-8279D01*
X-7787Y14816D01*
D02*
G37*
G36*
X-7732Y23237D02*
X-6037Y22854D01*
X-4506Y22580D01*
X-3795Y22471D01*
X-3139Y22416D01*
X-2538Y22307D01*
X-1991D01*
X-1499Y22252D01*
X-1116Y22198D01*
X306D01*
X1345Y22362D01*
X2220Y22526D01*
X2985Y22635D01*
X3696Y22745D01*
X4297Y22854D01*
X4789Y22908D01*
X5172Y22963D01*
X5500Y23018D01*
X5774Y23073D01*
X5992D01*
X6266Y23127D01*
X7305D01*
X8453Y22635D01*
X9437Y22034D01*
X10312Y21323D01*
X11023Y20503D01*
X11679Y19628D01*
X12171Y18698D01*
X12609Y17769D01*
X12937Y16839D01*
X13210Y15910D01*
X13429Y15035D01*
X13538Y14269D01*
X13648Y13558D01*
X13702Y12957D01*
X13757Y12519D01*
Y12246D01*
Y12137D01*
X13101Y6942D01*
X12827D01*
Y7379D01*
X12773Y7762D01*
X12609Y8309D01*
X12335Y8746D01*
X12062Y9075D01*
X11789Y9239D01*
X11515Y9293D01*
X11351Y9348D01*
X11296D01*
X11078Y10770D01*
X10804Y11972D01*
X10476Y13066D01*
X10093Y13941D01*
X9765Y14761D01*
X9383Y15363D01*
X9000Y15910D01*
X8617Y16347D01*
X8234Y16675D01*
X7852Y16894D01*
X7524Y17112D01*
X7250Y17222D01*
X7031Y17277D01*
X6867Y17331D01*
X6703D01*
X5992Y17277D01*
X5391Y17058D01*
X4789Y16675D01*
X4243Y16238D01*
X3805Y15691D01*
X3368Y15144D01*
X2657Y13832D01*
X2110Y12574D01*
X1946Y11972D01*
X1782Y11426D01*
X1673Y10988D01*
X1563Y10660D01*
X1509Y10387D01*
Y10332D01*
X907Y9512D01*
X415Y8856D01*
X87Y8254D01*
X-132Y7762D01*
X-241Y7434D01*
X-296Y7161D01*
X-350Y6997D01*
Y6942D01*
X-2155D01*
X-2264Y7543D01*
X-2428Y7981D01*
X-2592Y8309D01*
X-2756Y8528D01*
X-2866Y8637D01*
X-2975Y8746D01*
X-3084D01*
X-3467Y10223D01*
X-3905Y11480D01*
X-4342Y12574D01*
X-4780Y13504D01*
X-5217Y14324D01*
X-5654Y14980D01*
X-6146Y15527D01*
X-6529Y15964D01*
X-6967Y16292D01*
X-7350Y16566D01*
X-7678Y16730D01*
X-7951Y16894D01*
X-8224Y16948D01*
X-8388Y17003D01*
X-9209D01*
X-9920Y16730D01*
X-10521Y16402D01*
X-11013Y15964D01*
X-11505Y15472D01*
X-11888Y14980D01*
X-12161Y14433D01*
X-12435Y13886D01*
X-12653Y13340D01*
X-12927Y12301D01*
X-13036Y11863D01*
X-13091Y11426D01*
Y11098D01*
X-13146Y10824D01*
Y10660D01*
Y10605D01*
X-13255Y10332D01*
X-13474Y9949D01*
X-13856Y9567D01*
X-14239Y9129D01*
X-14622Y8746D01*
X-15005Y8418D01*
X-15223Y8200D01*
X-15333Y8145D01*
Y6942D01*
X-15278Y5794D01*
X-15114Y4809D01*
X-14841Y3935D01*
X-14458Y3224D01*
X-14075Y2568D01*
X-13583Y2076D01*
X-13091Y1638D01*
X-12544Y1310D01*
X-12052Y1036D01*
X-11560Y818D01*
X-11068Y709D01*
X-10685Y599D01*
X-10302Y544D01*
X-10029Y490D01*
X-9810D01*
X-9154Y544D01*
X-8607Y599D01*
X-8115Y654D01*
X-7678Y763D01*
X-7350Y818D01*
X-7021Y927D01*
X-6584Y1036D01*
X-6365Y1201D01*
X-6201Y1310D01*
X-6146Y1419D01*
X-5764Y1474D01*
X-5381Y1638D01*
X-4998Y1857D01*
X-4670Y2130D01*
X-3905Y2786D01*
X-3249Y3607D01*
X-2702Y4372D01*
X-2264Y5083D01*
X-2100Y5356D01*
X-1991Y5575D01*
X-1881Y5684D01*
Y5739D01*
X-350D01*
X32Y4809D01*
X470Y3989D01*
X1017Y3333D01*
X1563Y2732D01*
X2165Y2185D01*
X2766Y1747D01*
X3422Y1419D01*
X4024Y1146D01*
X4625Y927D01*
X5172Y763D01*
X5664Y654D01*
X6157Y599D01*
X6485Y544D01*
X6813Y490D01*
X7031D01*
X7633Y544D01*
X8234Y654D01*
X8836Y763D01*
X9328Y982D01*
X9765Y1146D01*
X10093Y1255D01*
X10312Y1365D01*
X10367Y1419D01*
X10695D01*
X8836Y-1315D01*
X10093Y-1916D01*
X11351Y-2135D01*
X12499Y-2408D01*
X13484Y-2682D01*
X14304Y-3010D01*
X15015Y-3338D01*
X15616Y-3666D01*
X16054Y-3994D01*
X16436Y-4322D01*
X16764Y-4650D01*
X16983Y-4924D01*
X17147Y-5197D01*
X17256Y-5416D01*
X17366Y-5799D01*
Y-5853D01*
Y-5908D01*
Y-6837D01*
X17311Y-7165D01*
X17256Y-7439D01*
X16928Y-8095D01*
X16436Y-8642D01*
X15780Y-9189D01*
X14960Y-9735D01*
X14085Y-10227D01*
X13156Y-10720D01*
X12226Y-11157D01*
X11242Y-11540D01*
X10312Y-11868D01*
X9437Y-12196D01*
X8672Y-12415D01*
X7961Y-12633D01*
X7469Y-12798D01*
X7141Y-12852D01*
X7086Y-12907D01*
X7031D01*
X6102Y-13563D01*
X5227Y-14110D01*
X4516Y-14602D01*
X3860Y-15039D01*
X3258Y-15368D01*
X2766Y-15696D01*
X2329Y-15914D01*
X2001Y-16133D01*
X1673Y-16242D01*
X1454Y-16352D01*
X1126Y-16516D01*
X962Y-16570D01*
X907D01*
X32Y-16461D01*
X-952Y-16242D01*
X-1881Y-15914D01*
X-2811Y-15531D01*
X-3686Y-15149D01*
X-4014Y-14985D01*
X-4342Y-14821D01*
X-4615Y-14657D01*
X-4780Y-14602D01*
X-4889Y-14493D01*
X-4944D01*
X-6256Y-14164D01*
X-7514Y-13836D01*
X-8662Y-13508D01*
X-9755Y-13180D01*
X-10794Y-12852D01*
X-11724Y-12524D01*
X-12599Y-12196D01*
X-13419Y-11868D01*
X-14130Y-11540D01*
X-14841Y-11212D01*
X-15442Y-10938D01*
X-16044Y-10610D01*
X-16973Y-10009D01*
X-17739Y-9462D01*
X-18395Y-8970D01*
X-18832Y-8533D01*
X-19160Y-8095D01*
X-19379Y-7767D01*
X-19488Y-7494D01*
X-19543Y-7275D01*
X-19598Y-7165D01*
Y-7111D01*
X-19543Y-6455D01*
X-19434Y-5908D01*
X-19215Y-5416D01*
X-18996Y-4924D01*
X-18778Y-4595D01*
X-18559Y-4322D01*
X-18450Y-4158D01*
X-18395Y-4103D01*
X-17301Y-3721D01*
X-16372Y-3393D01*
X-15552Y-3064D01*
X-14841Y-2736D01*
X-14239Y-2408D01*
X-13747Y-2135D01*
X-13310Y-1861D01*
X-12981Y-1643D01*
X-12708Y-1424D01*
X-12544Y-1260D01*
X-12325Y-932D01*
X-12216Y-768D01*
Y-713D01*
X-12271Y-440D01*
X-12380Y-166D01*
X-12489Y52D01*
X-12544Y162D01*
X-13255Y872D01*
X-13856Y1638D01*
X-14403Y2458D01*
X-14841Y3333D01*
X-15223Y4208D01*
X-15552Y5028D01*
X-15825Y5903D01*
X-16044Y6723D01*
X-16208Y7543D01*
X-16317Y8254D01*
X-16426Y8910D01*
X-16481Y9457D01*
Y9949D01*
X-16536Y10332D01*
Y10551D01*
Y10605D01*
Y11644D01*
X-16481Y12629D01*
X-16208Y14433D01*
X-15880Y16019D01*
X-15442Y17440D01*
X-14895Y18698D01*
X-14294Y19737D01*
X-13692Y20667D01*
X-13036Y21432D01*
X-12380Y22088D01*
X-11724Y22580D01*
X-11177Y23018D01*
X-10630Y23291D01*
X-10193Y23565D01*
X-9810Y23674D01*
X-9591Y23783D01*
X-9537D01*
X-7732Y23237D01*
D02*
G37*
G36*
X5555Y8309D02*
X5774Y8145D01*
X5828Y7926D01*
Y7871D01*
Y7817D01*
Y6614D01*
X4899D01*
X4735Y6669D01*
X4571Y6723D01*
X4352Y6942D01*
X4297Y7106D01*
X4243Y7215D01*
Y7817D01*
X4297Y7981D01*
X4352Y8145D01*
X4571Y8309D01*
X4789Y8418D01*
X5446D01*
X5555Y8309D01*
D02*
G37*
G36*
X-6420Y6340D02*
X-7350D01*
X-7514Y6395D01*
X-7623Y6450D01*
X-7842Y6669D01*
X-7951Y6833D01*
Y6942D01*
Y7543D01*
X-7896Y7707D01*
X-7842Y7871D01*
X-7623Y8036D01*
X-7459Y8145D01*
X-6420D01*
Y6340D01*
D02*
G37*
G36*
X-3084Y6012D02*
X-3686Y3880D01*
X-3959D01*
Y4153D01*
X-3741Y4645D01*
X-3631Y5247D01*
X-3522Y5848D01*
X-3413Y6450D01*
Y6997D01*
X-3358Y7434D01*
Y7707D01*
Y7817D01*
X-3084D01*
Y6012D01*
D02*
G37*
G36*
X-5217Y9567D02*
X-4725Y9403D01*
X-4397Y9239D01*
X-4178Y9075D01*
X-4069Y8965D01*
X-3959Y8856D01*
Y8801D01*
Y8746D01*
X-3959Y7817D01*
X-4069Y6669D01*
X-4287Y5684D01*
X-4506Y4864D01*
X-4834Y4099D01*
X-5108Y3497D01*
X-5436Y3005D01*
X-5818Y2568D01*
X-6146Y2239D01*
X-6529Y1966D01*
X-6857Y1747D01*
X-7131Y1638D01*
X-7404Y1529D01*
X-7623Y1474D01*
X-7787Y1419D01*
X-8279D01*
X-8935Y1802D01*
X-9482Y2294D01*
X-9974Y2841D01*
X-10412Y3443D01*
X-10740Y4044D01*
X-11068Y4700D01*
X-11505Y5958D01*
X-11724Y7161D01*
X-11833Y7707D01*
X-11888Y8145D01*
X-11943Y8528D01*
X-11943Y8801D01*
Y9020D01*
Y9075D01*
Y9348D01*
X-10138D01*
X-10412Y7817D01*
Y6942D01*
X-10357Y6340D01*
X-10302Y5794D01*
X-10193Y5302D01*
X-10029Y4864D01*
X-9865Y4481D01*
X-9646Y4153D01*
X-9154Y3661D01*
X-8716Y3278D01*
X-8334Y3060D01*
X-8060Y3005D01*
X-7951Y2950D01*
X-7459Y3005D01*
X-7021Y3114D01*
X-6693Y3333D01*
X-6365Y3552D01*
X-5873Y4208D01*
X-5545Y4973D01*
X-5381Y5684D01*
X-5272Y6340D01*
X-5217Y6559D01*
Y6778D01*
Y6887D01*
Y6942D01*
X-5818Y9348D01*
Y9731D01*
X-5217Y9567D01*
D02*
G37*
G36*
X1290Y7379D02*
X1454Y6340D01*
X1727Y5411D01*
X2001Y4591D01*
X2220Y3935D01*
X2493Y3388D01*
X2657Y3060D01*
X2712Y3005D01*
Y2950D01*
Y2677D01*
X2274Y3005D01*
X1946Y3278D01*
X1345Y3989D01*
X907Y4645D01*
X634Y5247D01*
X415Y5794D01*
X360Y6231D01*
X306Y6504D01*
Y6614D01*
X470Y7215D01*
X634Y7653D01*
X743Y7981D01*
X907Y8200D01*
X1017Y8309D01*
X1126Y8418D01*
X1235D01*
X1290Y7379D01*
D02*
G37*
G36*
X3696Y9293D02*
X3587Y8856D01*
X3477Y8418D01*
X3368Y8036D01*
Y7707D01*
X3313Y7434D01*
Y7270D01*
Y7215D01*
Y6942D01*
X3422Y6012D01*
X3641Y5247D01*
X3915Y4645D01*
X4297Y4153D01*
X4625Y3771D01*
X4953Y3497D01*
X5172Y3333D01*
X5227Y3278D01*
X6430D01*
X7141Y3825D01*
X7633Y4481D01*
X8016Y5138D01*
X8234Y5739D01*
X8398Y6340D01*
X8453Y6778D01*
X8508Y7106D01*
Y7161D01*
Y7215D01*
X8234Y9348D01*
X9765D01*
X9765Y7543D01*
X9711Y6723D01*
X9601Y6012D01*
X9383Y5356D01*
X9164Y4755D01*
X8836Y4263D01*
X8508Y3771D01*
X8180Y3333D01*
X7797Y3005D01*
X7086Y2403D01*
X6430Y2021D01*
X6211Y1911D01*
X5992Y1802D01*
X5883Y1747D01*
X5828D01*
X5172Y1802D01*
X4625Y2021D01*
X4133Y2294D01*
X3696Y2677D01*
X3313Y3114D01*
X3040Y3607D01*
X2602Y4645D01*
X2329Y5684D01*
X2220Y6176D01*
X2165Y6614D01*
X2110Y6997D01*
Y7270D01*
Y7489D01*
Y7543D01*
X2110Y9348D01*
X3641Y9731D01*
X3915D01*
X3696Y9293D01*
D02*
G37*
G36*
X11460Y8692D02*
X11625Y8582D01*
X11789Y8364D01*
X11953Y8145D01*
X12062Y7926D01*
X12171Y7707D01*
X12226Y7598D01*
Y7543D01*
X12171Y6450D01*
X12007Y5520D01*
X11789Y4700D01*
X11515Y3989D01*
X11187Y3388D01*
X10750Y2896D01*
X10367Y2513D01*
X9929Y2185D01*
X9492Y1911D01*
X9109Y1747D01*
X8344Y1529D01*
X8070Y1474D01*
X7852Y1419D01*
X7305D01*
X9492Y3880D01*
X9765Y4755D01*
X9984Y5466D01*
X10203Y6122D01*
X10367Y6669D01*
X10531Y7161D01*
X10695Y7543D01*
X10804Y7871D01*
X10914Y8145D01*
X11023Y8364D01*
X11078Y8473D01*
X11242Y8692D01*
X11296Y8746D01*
X11460Y8692D01*
D02*
G37*
G36*
X-12927Y8090D02*
X-12653Y7215D01*
X-12380Y6340D01*
X-12107Y5575D01*
X-11833Y4919D01*
X-11560Y4263D01*
X-11286Y3716D01*
X-11013Y3224D01*
X-10794Y2786D01*
X-10521Y2403D01*
X-10357Y2130D01*
X-10138Y1857D01*
X-10029Y1638D01*
X-9919Y1529D01*
X-9810Y1474D01*
Y1419D01*
X-10138D01*
X-10958Y1474D01*
X-11669Y1693D01*
X-12271Y1966D01*
X-12818Y2403D01*
X-13255Y2841D01*
X-13583Y3333D01*
X-13911Y3935D01*
X-14130Y4481D01*
X-14513Y5630D01*
X-14567Y6122D01*
X-14677Y6614D01*
Y6997D01*
X-14731Y7270D01*
Y7489D01*
Y7543D01*
Y7817D01*
X-14622Y8036D01*
X-14403Y8309D01*
X-14130Y8528D01*
X-13856Y8692D01*
X-13583Y8856D01*
X-13364Y8965D01*
X-13200Y9075D01*
X-13146D01*
X-12927Y8090D01*
D02*
G37*
G36*
X25076Y15472D02*
X25896Y15253D01*
X26662Y14980D01*
X27372Y14543D01*
X28029Y14105D01*
X28575Y13558D01*
X29122Y13011D01*
X29559Y12465D01*
X29942Y11863D01*
X30270Y11316D01*
X30544Y10770D01*
X30762Y10332D01*
X30926Y9895D01*
X31036Y9621D01*
X31145Y9403D01*
Y9348D01*
X31036Y8090D01*
X30762Y6942D01*
X30325Y5958D01*
X29724Y5028D01*
X29013Y4263D01*
X28247Y3552D01*
X27427Y2950D01*
X26552Y2458D01*
X25677Y2021D01*
X24857Y1638D01*
X24092Y1365D01*
X23381Y1146D01*
X22834Y982D01*
X22342Y872D01*
X22068Y818D01*
X21959D01*
X21522Y872D01*
X21084Y927D01*
X20319Y1201D01*
X19717Y1583D01*
X19225Y2076D01*
X18842Y2513D01*
X18569Y2896D01*
X18405Y3169D01*
X18350Y3278D01*
X19553Y9075D01*
X19608Y10223D01*
X19717Y11207D01*
X19936Y12082D01*
X20155Y12793D01*
X20483Y13449D01*
X20811Y13941D01*
X21193Y14378D01*
X21576Y14706D01*
X21904Y14980D01*
X22287Y15199D01*
X22615Y15308D01*
X22943Y15417D01*
X23162Y15472D01*
X23381Y15527D01*
X24146D01*
X25076Y15472D01*
D02*
G37*
G36*
X-25667Y14433D02*
X-25175Y14214D01*
X-24738Y14050D01*
X-24355Y13886D01*
X-24027Y13722D01*
X-23808Y13558D01*
X-23371Y13285D01*
X-23152Y13066D01*
X-23043Y12902D01*
X-22988Y12793D01*
Y12738D01*
Y12137D01*
X-22879Y10168D01*
X-22824Y9239D01*
X-22660Y8364D01*
X-22550Y7543D01*
X-22387Y6778D01*
X-22222Y6067D01*
X-22004Y5466D01*
X-21840Y4864D01*
X-21676Y4372D01*
X-21512Y3935D01*
X-21348Y3607D01*
X-21238Y3333D01*
X-21129Y3114D01*
X-21074Y3005D01*
Y2950D01*
X-21348Y2458D01*
X-21621Y2021D01*
X-21894Y1638D01*
X-22168Y1365D01*
X-22715Y818D01*
X-23261Y490D01*
X-23753Y326D01*
X-24136Y216D01*
X-24355Y162D01*
X-25995D01*
X-27034Y271D01*
X-28019Y490D01*
X-28948Y818D01*
X-29768Y1310D01*
X-30479Y1857D01*
X-31190Y2513D01*
X-31791Y3169D01*
X-32338Y3880D01*
X-32776Y4536D01*
X-33158Y5192D01*
X-33487Y5848D01*
X-33760Y6395D01*
X-33979Y6887D01*
X-34143Y7215D01*
X-34197Y7489D01*
X-34252Y7543D01*
Y8418D01*
X-34197Y9184D01*
X-33979Y9895D01*
X-33705Y10551D01*
X-33323Y11152D01*
X-32830Y11699D01*
X-32338Y12246D01*
X-31190Y13066D01*
X-30096Y13777D01*
X-29604Y13996D01*
X-29112Y14214D01*
X-28729Y14378D01*
X-28456Y14488D01*
X-28237Y14597D01*
X-26269D01*
X-25667Y14433D01*
D02*
G37*
G36*
X37598Y-17500D02*
X634D01*
X962Y-17445D01*
X1345Y-17336D01*
X1782Y-17172D01*
X2274Y-16953D01*
X3258Y-16461D01*
X4243Y-15805D01*
X5227Y-15203D01*
X5610Y-14930D01*
X5992Y-14657D01*
X6266Y-14493D01*
X6485Y-14329D01*
X6649Y-14219D01*
X6703Y-14164D01*
X7852Y-13836D01*
X8945Y-13454D01*
X9929Y-13126D01*
X10859Y-12798D01*
X11734Y-12469D01*
X12554Y-12141D01*
X13265Y-11813D01*
X13976Y-11540D01*
X14632Y-11212D01*
X15179Y-10884D01*
X16218Y-10337D01*
X17038Y-9790D01*
X17694Y-9243D01*
X18241Y-8806D01*
X18623Y-8368D01*
X18897Y-7986D01*
X19061Y-7712D01*
X19225Y-7439D01*
X19280Y-7275D01*
Y-7165D01*
Y-7111D01*
Y-7001D01*
X19225Y-6783D01*
X19061Y-6291D01*
X18788Y-5634D01*
X18514Y-4924D01*
X18186Y-4267D01*
X17967Y-3666D01*
X17858Y-3447D01*
X17749Y-3283D01*
X17694Y-3174D01*
Y-3119D01*
Y-2846D01*
X18897Y-3338D01*
X20045Y-3721D01*
X21193Y-3994D01*
X22232Y-4158D01*
X23107Y-4267D01*
X23490Y-4322D01*
X23818Y-4377D01*
X25349D01*
X26333Y-4322D01*
X27318Y-4158D01*
X28192Y-3994D01*
X28958Y-3721D01*
X29614Y-3502D01*
X30106Y-3338D01*
X30434Y-3174D01*
X30544Y-3119D01*
X31801Y-2518D01*
X32895Y-1807D01*
X33825Y-1041D01*
X34645Y-221D01*
X35301Y654D01*
X35902Y1583D01*
X36340Y2513D01*
X36723Y3443D01*
X36996Y4263D01*
X37215Y5083D01*
X37379Y5848D01*
X37488Y6504D01*
X37543Y7051D01*
X37598Y7489D01*
Y-17500D01*
D02*
G37*
%LPC*%
G36*
X-2702Y490D02*
X-3084D01*
X-3358Y-1041D01*
X-3194Y-1315D01*
X-3030Y-1533D01*
X-2866Y-1698D01*
X-2756Y-1807D01*
X-2538Y-1916D01*
X-2483D01*
X-2264Y-1861D01*
X-2155Y-1807D01*
X-1936Y-1588D01*
X-1881Y-1424D01*
Y-1315D01*
Y-440D01*
X-2046Y-112D01*
X-2210Y107D01*
X-2374Y271D01*
X-2483Y380D01*
X-2702Y490D01*
D02*
G37*
G36*
X-241Y2349D02*
X-624D01*
X-1608Y2294D01*
X-2428Y2239D01*
X-3194Y2076D01*
X-3795Y1857D01*
X-4342Y1638D01*
X-4780Y1365D01*
X-5162Y1091D01*
X-5436Y818D01*
X-5709Y544D01*
X-5873Y271D01*
X-6037Y-221D01*
X-6146Y-604D01*
Y-659D01*
Y-713D01*
Y-1315D01*
X-5982Y-1643D01*
X-5818Y-1861D01*
X-5654Y-2026D01*
X-5490Y-2135D01*
X-5272Y-2244D01*
X-4615D01*
X-3959Y-1916D01*
X-4014Y-1698D01*
X-4123Y-1588D01*
X-4451Y-1369D01*
X-4780Y-1315D01*
X-4944D01*
Y-1041D01*
X-4397Y-331D01*
X-3741Y216D01*
X-3030Y599D01*
X-2319Y872D01*
X-1663Y1036D01*
X-1116Y1091D01*
X-897Y1146D01*
X-22D01*
X-186Y818D01*
X-350Y599D01*
X-514Y380D01*
X-679Y271D01*
X-897Y162D01*
X-952D01*
X-624Y-1315D01*
X306D01*
X524Y-1260D01*
X634Y-1205D01*
X852Y-987D01*
X907Y-823D01*
Y-713D01*
Y-112D01*
X306Y818D01*
X743Y763D01*
X1071Y599D01*
X1399Y435D01*
X1673Y216D01*
X1837Y-57D01*
X2001Y-221D01*
X2110Y-385D01*
Y-440D01*
Y-1041D01*
X1837D01*
X1618Y-1151D01*
X1454Y-1205D01*
X1345Y-1315D01*
X1235Y-1533D01*
Y-1588D01*
Y-1643D01*
X1509Y-2244D01*
X2056Y-2190D01*
X2438Y-1971D01*
X2766Y-1698D01*
X2985Y-1315D01*
X3149Y-987D01*
X3258Y-713D01*
X3313Y-495D01*
Y-440D01*
X3258Y52D01*
X3149Y490D01*
X2930Y872D01*
X2712Y1201D01*
X2056Y1693D01*
X1345Y2021D01*
X634Y2185D01*
X-22Y2294D01*
X-241Y2349D01*
D02*
G37*
G36*
X-843Y-3119D02*
X-1389D01*
X-1553Y-3229D01*
X-1772Y-3393D01*
X-1827Y-3611D01*
X-1881Y-3666D01*
Y-3721D01*
Y-5306D01*
X-1827Y-5525D01*
X-1772Y-5634D01*
X-1553Y-5853D01*
X-1335Y-5908D01*
X-1225D01*
X-1007Y-5853D01*
X-843Y-5634D01*
X-679Y-5361D01*
X-569Y-4978D01*
X-460Y-4650D01*
X-405Y-4377D01*
X-350Y-4158D01*
Y-4103D01*
Y-3775D01*
X-460Y-3557D01*
X-514Y-3338D01*
X-624Y-3229D01*
X-843Y-3119D01*
D02*
G37*
G36*
X11351Y-4377D02*
X11296D01*
X10422Y-5033D01*
X9437Y-5580D01*
X8453Y-6072D01*
X7469Y-6509D01*
X6430Y-6837D01*
X5391Y-7165D01*
X3477Y-7603D01*
X2548Y-7712D01*
X1727Y-7822D01*
X962Y-7931D01*
X306Y-7986D01*
X-186Y-8040D01*
X-952D01*
X-2155Y-7986D01*
X-3358Y-7931D01*
X-4506Y-7767D01*
X-5600Y-7603D01*
X-6584Y-7384D01*
X-7568Y-7165D01*
X-8443Y-6947D01*
X-9263Y-6673D01*
X-9974Y-6400D01*
X-10630Y-6181D01*
X-11177Y-5962D01*
X-11669Y-5744D01*
X-12052Y-5580D01*
X-12325Y-5416D01*
X-12489Y-5361D01*
X-12544Y-5306D01*
X-13036Y-5361D01*
X-13419Y-5525D01*
X-13747Y-5799D01*
X-13966Y-6072D01*
X-14185Y-6345D01*
X-14294Y-6619D01*
X-14403Y-6783D01*
Y-6837D01*
X-14185Y-6892D01*
X-14130Y-6947D01*
X-14075Y-7056D01*
Y-7111D01*
X-13802Y-7056D01*
X-13528Y-6947D01*
X-13255Y-6892D01*
X-13146Y-6837D01*
X-12653Y-7056D01*
X-12161Y-7329D01*
X-11724Y-7658D01*
X-11286Y-7931D01*
X-10904Y-8259D01*
X-10630Y-8478D01*
X-10466Y-8642D01*
X-10412Y-8697D01*
X-9263Y-9845D01*
X-8115Y-10884D01*
X-7131Y-11813D01*
X-6146Y-12524D01*
X-5217Y-13180D01*
X-4397Y-13727D01*
X-3686Y-14164D01*
X-2975Y-14547D01*
X-2374Y-14821D01*
X-1827Y-15039D01*
X-1389Y-15149D01*
X-1007Y-15258D01*
X-733Y-15313D01*
X-514Y-15368D01*
X-350D01*
X1235Y-15094D01*
X1454Y-14985D01*
X1891Y-14711D01*
X2438Y-14219D01*
X3149Y-13672D01*
X3915Y-12961D01*
X4735Y-12196D01*
X6539Y-10501D01*
X7469Y-9626D01*
X8344Y-8806D01*
X9109Y-8040D01*
X9820Y-7329D01*
X10422Y-6728D01*
X10914Y-6291D01*
X11187Y-6017D01*
X11296Y-5908D01*
X11898Y-6236D01*
X12117Y-6181D01*
X12226Y-6127D01*
X12445Y-5908D01*
X12499Y-5744D01*
Y-5634D01*
Y-5306D01*
X12445Y-5142D01*
X12335Y-4978D01*
X12117Y-4814D01*
X11898Y-4650D01*
X11679Y-4541D01*
X11460Y-4431D01*
X11351Y-4377D01*
D02*
G37*
%LPD*%
G36*
X-5490Y-11212D02*
X-5272Y-11376D01*
X-5217Y-11594D01*
Y-11649D01*
Y-11704D01*
X-5545D01*
X-5709Y-11649D01*
X-5818Y-11594D01*
X-6037Y-11376D01*
X-6146Y-11212D01*
Y-11102D01*
X-5600D01*
X-5490Y-11212D01*
D02*
G37*
G36*
X-8115Y-8204D02*
X-7404Y-8368D01*
X-6748Y-8478D01*
X-6146Y-8587D01*
X-5053Y-8751D01*
X-4233Y-8861D01*
X-3577Y-8915D01*
X-3084Y-8970D01*
X-1225D01*
X-624Y-9298D01*
X-569Y-9079D01*
X-460Y-9025D01*
X-405Y-8970D01*
X2438D01*
X3040Y-9298D01*
X3094Y-9189D01*
X3204Y-9079D01*
X3368Y-8970D01*
X3587Y-8915D01*
X4133Y-8697D01*
X4735Y-8587D01*
X5336Y-8478D01*
X5883Y-8368D01*
X6102D01*
X6266Y-8314D01*
X6430D01*
X6375Y-8697D01*
X6211Y-9025D01*
X5992Y-9353D01*
X5664Y-9626D01*
X5282Y-9845D01*
X4899Y-10063D01*
X3969Y-10337D01*
X3094Y-10556D01*
X2657Y-10665D01*
X2274Y-10720D01*
X1946D01*
X1727Y-10774D01*
X1509D01*
Y-11430D01*
X3040D01*
Y-12032D01*
X2493Y-12524D01*
X1946Y-12907D01*
X1454Y-13180D01*
X962Y-13344D01*
X579Y-13454D01*
X251Y-13563D01*
X-350D01*
X-952Y-13290D01*
X-1007Y-13454D01*
X-1061Y-13508D01*
X-1171Y-13563D01*
X-1553D01*
X-2155Y-13454D01*
X-2647Y-13344D01*
X-3139Y-13235D01*
X-3522Y-13126D01*
X-3850Y-13016D01*
X-4123Y-12907D01*
X-4506Y-12633D01*
X-4780Y-12415D01*
X-4889Y-12196D01*
X-4944Y-12087D01*
Y-12032D01*
Y-11430D01*
X-3358D01*
Y-10774D01*
X-3850D01*
X-4233Y-10720D01*
X-4561Y-10665D01*
X-4834Y-10610D01*
X-4998D01*
X-5108Y-10556D01*
X-5217Y-10501D01*
Y-10774D01*
X-5654Y-10720D01*
X-6037Y-10665D01*
X-6803Y-10337D01*
X-7404Y-9900D01*
X-7951Y-9407D01*
X-8334Y-8915D01*
X-8662Y-8478D01*
X-8826Y-8150D01*
X-8880Y-8095D01*
Y-8040D01*
X-8115Y-8204D01*
D02*
G37*
%LPC*%
G36*
X-952Y-10774D02*
X-1007Y-10938D01*
X-1061Y-11048D01*
X-1171Y-11102D01*
X-2756D01*
Y-11704D01*
X-1225D01*
X-624Y-12032D01*
X-569Y-11923D01*
X-405Y-11813D01*
X-132Y-11759D01*
X142D01*
X415Y-11704D01*
X907D01*
Y-11102D01*
X415D01*
X32Y-11048D01*
X-296Y-10993D01*
X-569Y-10938D01*
X-733Y-10884D01*
X-843Y-10829D01*
X-952Y-10774D01*
D02*
G37*
G36*
X8252Y-26112D02*
X6657D01*
X6591Y-26134D01*
X6482Y-26178D01*
X6438Y-26200D01*
X6405Y-26222D01*
X6394Y-26233D01*
X6383Y-26244D01*
X6340Y-26298D01*
X6307Y-26353D01*
X6263Y-26451D01*
Y-26506D01*
X6252Y-26539D01*
Y-26561D01*
Y-26572D01*
Y-26637D01*
X7006Y-30725D01*
X7028Y-30812D01*
X7061Y-30878D01*
X7127Y-30998D01*
X7170Y-31042D01*
X7192Y-31075D01*
X7214Y-31097D01*
X7225Y-31108D01*
X7301Y-31162D01*
X7367Y-31206D01*
X7444Y-31228D01*
X7509Y-31249D01*
X7564Y-31260D01*
X7608Y-31271D01*
X9192D01*
X8252Y-26112D01*
D02*
G37*
G36*
X-12668D02*
X-13804D01*
X-13870Y-26134D01*
X-13979Y-26178D01*
X-14045Y-26222D01*
X-14056Y-26233D01*
X-14067Y-26244D01*
X-14110Y-26298D01*
X-14154Y-26353D01*
X-14187Y-26451D01*
X-14198Y-26506D01*
X-14209Y-26539D01*
Y-26561D01*
Y-26572D01*
Y-26637D01*
X-12187Y-37808D01*
X-12165Y-37906D01*
X-12132Y-37982D01*
X-12088Y-38059D01*
X-12045Y-38124D01*
X-11935Y-38223D01*
X-11815Y-38289D01*
X-11706Y-38321D01*
X-11607Y-38343D01*
X-11542Y-38354D01*
X-10503D01*
X-10438Y-38343D01*
X-10372Y-38332D01*
X-10263Y-38278D01*
X-10198Y-38234D01*
X-10187Y-38223D01*
X-10176Y-38212D01*
X-10132Y-38157D01*
X-10099Y-38103D01*
X-10066Y-37993D01*
X-10055Y-37950D01*
X-10044Y-37917D01*
Y-37895D01*
Y-37884D01*
Y-37829D01*
X-12056Y-26637D01*
X-12077Y-26561D01*
X-12110Y-26484D01*
X-12187Y-26375D01*
X-12219Y-26331D01*
X-12252Y-26298D01*
X-12274Y-26287D01*
X-12285Y-26276D01*
X-12362Y-26222D01*
X-12438Y-26178D01*
X-12504Y-26156D01*
X-12569Y-26134D01*
X-12624Y-26123D01*
X-12668Y-26112D01*
D02*
G37*
G36*
X21041Y-26112D02*
X19401D01*
X19335Y-26134D01*
X19237Y-26178D01*
X19171Y-26222D01*
X19161Y-26233D01*
X19150Y-26244D01*
X19106Y-26298D01*
X19062Y-26353D01*
X19029Y-26451D01*
X19018Y-26506D01*
X19007Y-26539D01*
Y-26561D01*
Y-26572D01*
Y-26637D01*
X19794Y-30747D01*
X19816Y-30823D01*
X19849Y-30900D01*
X19915Y-31020D01*
X19958Y-31064D01*
X19980Y-31097D01*
X20002Y-31107D01*
X20013Y-31118D01*
X20090Y-31173D01*
X20166Y-31206D01*
X20308Y-31249D01*
X20363Y-31260D01*
X20406Y-31271D01*
X22002D01*
X21041Y-26112D01*
D02*
G37*
G36*
X47000Y51455D02*
X44852D01*
X44993D01*
Y50883D01*
X46148D01*
X46247Y50337D01*
X46245Y50340D01*
X46238Y50342D01*
X46226Y50347D01*
X46212Y50354D01*
X46191Y50361D01*
X46171Y50370D01*
X46145Y50379D01*
X46118Y50391D01*
X46088Y50400D01*
X46053Y50409D01*
X45984Y50425D01*
X45905Y50437D01*
X45866Y50441D01*
X45808D01*
X45787Y50439D01*
X45759Y50437D01*
X45723Y50432D01*
X45683Y50425D01*
X45637Y50416D01*
X45589Y50404D01*
X45535Y50388D01*
X45480Y50370D01*
X45422Y50344D01*
X45364Y50317D01*
X45305Y50282D01*
X45247Y50243D01*
X45191Y50196D01*
X45136Y50143D01*
X45134Y50141D01*
X45124Y50129D01*
X45110Y50113D01*
X45092Y50090D01*
X45069Y50060D01*
X45046Y50023D01*
X45020Y49982D01*
X44993Y49935D01*
X44967Y49882D01*
X44942Y49825D01*
X44916Y49760D01*
X44896Y49693D01*
X44877Y49619D01*
X44863Y49540D01*
X44854Y49460D01*
X44852Y49372D01*
Y49353D01*
X44854Y49333D01*
X44856Y49305D01*
X44859Y49270D01*
X44863Y49231D01*
X44870Y49185D01*
X44879Y49136D01*
X44893Y49083D01*
X44907Y49025D01*
X44926Y48968D01*
X44949Y48908D01*
X44976Y48847D01*
X45006Y48787D01*
X45041Y48727D01*
X45083Y48667D01*
X45087Y48663D01*
X45097Y48649D01*
X45115Y48628D01*
X45140Y48600D01*
X45171Y48570D01*
X45210Y48533D01*
X45256Y48496D01*
X45307Y48457D01*
X45364Y48415D01*
X45429Y48379D01*
X45501Y48342D01*
X45577Y48311D01*
X45660Y48284D01*
X45750Y48263D01*
X45845Y48249D01*
X45896Y48247D01*
X45947Y48245D01*
X45965D01*
X45988Y48247D01*
X46021Y48249D01*
X46058Y48252D01*
X46101Y48256D01*
X46150Y48265D01*
X46203Y48275D01*
X46259Y48286D01*
X46316Y48302D01*
X46376Y48321D01*
X46436Y48344D01*
X46496Y48372D01*
X46556Y48402D01*
X46614Y48439D01*
X46667Y48480D01*
X46670Y48482D01*
X46679Y48492D01*
X46693Y48506D01*
X46711Y48524D01*
X46734Y48547D01*
X46758Y48577D01*
X46785Y48610D01*
X46813Y48649D01*
X46843Y48693D01*
X46871Y48741D01*
X46898Y48792D01*
X46926Y48850D01*
X46949Y48910D01*
X46970Y48977D01*
X46988Y49044D01*
X47000Y49118D01*
X46390Y49182D01*
Y49180D01*
X46388Y49173D01*
Y49162D01*
X46383Y49148D01*
X46381Y49132D01*
X46376Y49111D01*
X46362Y49065D01*
X46342Y49011D01*
X46314Y48956D01*
X46282Y48903D01*
X46261Y48878D01*
X46238Y48854D01*
X46235Y48852D01*
X46231Y48850D01*
X46224Y48843D01*
X46215Y48836D01*
X46203Y48827D01*
X46187Y48817D01*
X46152Y48794D01*
X46108Y48771D01*
X46058Y48753D01*
X46000Y48739D01*
X45970Y48737D01*
X45940Y48734D01*
X45921D01*
X45907Y48737D01*
X45891Y48739D01*
X45873Y48744D01*
X45827Y48753D01*
X45776Y48771D01*
X45750Y48785D01*
X45723Y48799D01*
X45695Y48817D01*
X45667Y48838D01*
X45642Y48861D01*
X45616Y48889D01*
X45614Y48891D01*
X45609Y48896D01*
X45605Y48905D01*
X45595Y48919D01*
X45586Y48935D01*
X45575Y48956D01*
X45561Y48979D01*
X45549Y49007D01*
X45538Y49039D01*
X45524Y49074D01*
X45512Y49113D01*
X45503Y49155D01*
X45494Y49201D01*
X45487Y49252D01*
X45485Y49305D01*
X45482Y49363D01*
Y49365D01*
Y49376D01*
Y49390D01*
X45485Y49411D01*
X45487Y49437D01*
X45489Y49464D01*
X45494Y49494D01*
X45498Y49529D01*
X45515Y49600D01*
X45526Y49637D01*
X45538Y49674D01*
X45554Y49711D01*
X45572Y49744D01*
X45593Y49776D01*
X45616Y49806D01*
X45619Y49808D01*
X45623Y49813D01*
X45630Y49820D01*
X45639Y49829D01*
X45653Y49841D01*
X45669Y49852D01*
X45688Y49866D01*
X45709Y49880D01*
X45732Y49894D01*
X45757Y49908D01*
X45815Y49931D01*
X45850Y49940D01*
X45882Y49947D01*
X45919Y49952D01*
X45958Y49954D01*
X45970D01*
X45984Y49952D01*
X46002Y49949D01*
X46025Y49947D01*
X46053Y49942D01*
X46083Y49935D01*
X46115Y49924D01*
X46152Y49912D01*
X46189Y49896D01*
X46229Y49878D01*
X46270Y49855D01*
X46309Y49829D01*
X46351Y49797D01*
X46393Y49762D01*
X46432Y49721D01*
X46926Y49792D01*
X46612Y51455D01*
X47000D01*
D02*
G37*
G36*
X44535Y51509D02*
Y49236D01*
X44533Y49254D01*
X44531Y49277D01*
X44528Y49305D01*
X44524Y49335D01*
X44519Y49367D01*
X44512Y49404D01*
X44505Y49441D01*
X44482Y49522D01*
X44466Y49564D01*
X44450Y49605D01*
X44431Y49647D01*
X44408Y49688D01*
X44406Y49691D01*
X44401Y49698D01*
X44394Y49709D01*
X44383Y49725D01*
X44369Y49741D01*
X44353Y49762D01*
X44332Y49788D01*
X44309Y49811D01*
X44283Y49839D01*
X44253Y49866D01*
X44219Y49894D01*
X44184Y49922D01*
X44142Y49949D01*
X44101Y49975D01*
X44055Y50000D01*
X44004Y50023D01*
X44006Y50026D01*
X44013Y50028D01*
X44027Y50035D01*
X44043Y50042D01*
X44062Y50051D01*
X44085Y50065D01*
X44108Y50079D01*
X44136Y50095D01*
X44191Y50134D01*
X44249Y50180D01*
X44302Y50236D01*
X44327Y50266D01*
X44348Y50298D01*
Y50301D01*
X44353Y50305D01*
X44357Y50317D01*
X44364Y50328D01*
X44374Y50344D01*
X44383Y50365D01*
X44392Y50388D01*
X44401Y50411D01*
X44410Y50439D01*
X44420Y50469D01*
X44438Y50536D01*
X44450Y50608D01*
X44452Y50645D01*
X44454Y50684D01*
Y50688D01*
Y50700D01*
X44452Y50719D01*
X44450Y50744D01*
X44447Y50774D01*
X44440Y50809D01*
X44434Y50848D01*
X44422Y50892D01*
X44410Y50936D01*
X44394Y50984D01*
X44374Y51033D01*
X44348Y51084D01*
X44320Y51132D01*
X44288Y51181D01*
X44249Y51229D01*
X44205Y51273D01*
X44203Y51275D01*
X44193Y51282D01*
X44179Y51294D01*
X44159Y51310D01*
X44133Y51328D01*
X44101Y51347D01*
X44064Y51370D01*
X44022Y51391D01*
X43974Y51414D01*
X43923Y51435D01*
X43863Y51453D01*
X43801Y51472D01*
X43731Y51488D01*
X43657Y51499D01*
X43579Y51506D01*
X43496Y51509D01*
X43475D01*
D01*
D01*
D01*
X42433D01*
X43475D01*
X43452Y51506D01*
X43420Y51504D01*
X43382Y51502D01*
X43339Y51497D01*
X43290Y51488D01*
X43237Y51479D01*
X43182Y51467D01*
X43124Y51451D01*
X43064Y51432D01*
X43006Y51409D01*
X42948Y51381D01*
X42891Y51351D01*
X42837Y51315D01*
X42789Y51273D01*
X42787Y51271D01*
X42777Y51261D01*
X42766Y51250D01*
X42750Y51231D01*
X42729Y51208D01*
X42708Y51181D01*
X42685Y51148D01*
X42662Y51111D01*
X42639Y51072D01*
X42616Y51026D01*
X42592Y50977D01*
X42574Y50927D01*
X42558Y50871D01*
X42546Y50811D01*
X42537Y50749D01*
X42535Y50684D01*
Y50682D01*
Y50675D01*
Y50663D01*
X42537Y50647D01*
X42539Y50626D01*
X42542Y50603D01*
X42544Y50578D01*
X42549Y50550D01*
X42562Y50488D01*
X42583Y50423D01*
X42597Y50388D01*
X42613Y50354D01*
X42632Y50319D01*
X42653Y50287D01*
X42655Y50284D01*
X42657Y50280D01*
X42664Y50270D01*
X42673Y50259D01*
X42685Y50243D01*
X42701Y50226D01*
X42717Y50208D01*
X42736Y50190D01*
X42759Y50169D01*
X42782Y50146D01*
X42810Y50125D01*
X42837Y50102D01*
X42902Y50060D01*
X42976Y50023D01*
X42974Y50021D01*
X42964Y50019D01*
X42951Y50012D01*
X42932Y50002D01*
X42909Y49991D01*
X42884Y49977D01*
X42856Y49961D01*
X42826Y49942D01*
X42794Y49922D01*
X42761Y49898D01*
X42726Y49873D01*
X42694Y49845D01*
X42660Y49815D01*
X42630Y49781D01*
X42599Y49746D01*
X42572Y49709D01*
X42569Y49707D01*
X42565Y49700D01*
X42558Y49688D01*
X42551Y49672D01*
X42539Y49654D01*
X42528Y49631D01*
X42516Y49605D01*
X42502Y49575D01*
X42489Y49540D01*
X42477Y49506D01*
X42465Y49467D01*
X42454Y49425D01*
X42447Y49381D01*
X42440Y49335D01*
X42435Y49286D01*
X42433Y49238D01*
Y49245D01*
Y49238D01*
Y49219D01*
X42435Y49196D01*
X42438Y49164D01*
X42442Y49127D01*
X42447Y49083D01*
X42456Y49035D01*
X42468Y48981D01*
X42484Y48926D01*
X42502Y48866D01*
X42526Y48808D01*
X42553Y48746D01*
X42586Y48686D01*
X42623Y48628D01*
X42666Y48570D01*
X42717Y48517D01*
X42720Y48515D01*
X42731Y48506D01*
X42747Y48492D01*
X42768Y48473D01*
X42796Y48452D01*
X42831Y48429D01*
X42872Y48406D01*
X42916Y48381D01*
X42967Y48353D01*
X43025Y48330D01*
X43087Y48307D01*
X43154Y48286D01*
X43225Y48268D01*
X43302Y48254D01*
X43382Y48245D01*
X43468Y48242D01*
X42433D01*
X44535D01*
Y51509D01*
D02*
G37*
%LPD*%
G36*
X43519Y51021D02*
X43533D01*
X43551Y51019D01*
X43590Y51010D01*
X43637Y50998D01*
X43683Y50980D01*
X43729Y50952D01*
X43750Y50936D01*
X43771Y50917D01*
X43775Y50913D01*
X43780Y50906D01*
X43787Y50899D01*
X43803Y50876D01*
X43821Y50843D01*
X43842Y50804D01*
X43858Y50756D01*
X43870Y50702D01*
X43872Y50672D01*
X43875Y50640D01*
Y50638D01*
Y50633D01*
Y50622D01*
X43872Y50610D01*
Y50594D01*
X43870Y50575D01*
X43861Y50536D01*
X43849Y50490D01*
X43831Y50441D01*
X43805Y50395D01*
X43791Y50374D01*
X43773Y50354D01*
X43771D01*
X43768Y50349D01*
X43761Y50344D01*
X43755Y50337D01*
X43731Y50321D01*
X43699Y50303D01*
X43660Y50284D01*
X43611Y50268D01*
X43558Y50257D01*
X43528Y50254D01*
X43496Y50252D01*
X43480D01*
X43466Y50254D01*
X43452D01*
X43436Y50257D01*
X43394Y50266D01*
X43350Y50277D01*
X43304Y50296D01*
X43258Y50321D01*
X43237Y50335D01*
X43216Y50354D01*
X43214Y50356D01*
X43212Y50358D01*
X43207Y50365D01*
X43200Y50372D01*
X43182Y50395D01*
X43163Y50430D01*
X43145Y50469D01*
X43126Y50520D01*
X43115Y50578D01*
X43110Y50608D01*
Y50642D01*
Y50645D01*
Y50649D01*
Y50659D01*
X43112Y50670D01*
Y50686D01*
X43115Y50702D01*
X43124Y50742D01*
X43135Y50786D01*
X43154Y50832D01*
X43179Y50878D01*
X43195Y50899D01*
X43214Y50920D01*
Y50922D01*
X43218Y50924D01*
X43225Y50929D01*
X43232Y50936D01*
X43255Y50952D01*
X43288Y50973D01*
X43327Y50991D01*
X43373Y51007D01*
X43429Y51019D01*
X43457Y51024D01*
X43505D01*
X43519Y51021D01*
D02*
G37*
G36*
X43523Y49760D02*
X43542Y49758D01*
X43565Y49753D01*
X43613Y49744D01*
X43669Y49723D01*
X43697Y49711D01*
X43724Y49695D01*
X43752Y49679D01*
X43778Y49656D01*
X43801Y49633D01*
X43824Y49605D01*
Y49603D01*
X43828Y49598D01*
X43833Y49589D01*
X43840Y49577D01*
X43849Y49564D01*
X43858Y49547D01*
X43868Y49527D01*
X43877Y49506D01*
X43898Y49455D01*
X43916Y49400D01*
X43928Y49337D01*
X43930Y49305D01*
X43932Y49270D01*
Y49268D01*
Y49259D01*
Y49245D01*
X43930Y49229D01*
X43928Y49208D01*
X43925Y49182D01*
X43921Y49155D01*
X43916Y49125D01*
X43900Y49062D01*
X43877Y48995D01*
X43863Y48963D01*
X43845Y48933D01*
X43826Y48903D01*
X43803Y48875D01*
X43801Y48873D01*
X43796Y48868D01*
X43789Y48861D01*
X43780Y48854D01*
X43766Y48843D01*
X43752Y48831D01*
X43734Y48817D01*
X43713Y48806D01*
X43667Y48778D01*
X43611Y48757D01*
X43581Y48748D01*
X43549Y48741D01*
X43514Y48737D01*
X43480Y48734D01*
X43461D01*
X43447Y48737D01*
X43431Y48739D01*
X43413Y48741D01*
X43369Y48750D01*
X43318Y48767D01*
X43292Y48778D01*
X43265Y48792D01*
X43239Y48808D01*
X43212Y48827D01*
X43186Y48847D01*
X43163Y48871D01*
X43161Y48873D01*
X43159Y48878D01*
X43152Y48884D01*
X43145Y48896D01*
X43133Y48910D01*
X43124Y48928D01*
X43112Y48947D01*
X43101Y48970D01*
X43089Y48998D01*
X43078Y49025D01*
X43066Y49058D01*
X43057Y49095D01*
X43050Y49132D01*
X43043Y49173D01*
X43041Y49217D01*
X43038Y49263D01*
Y49266D01*
Y49273D01*
Y49284D01*
X43041Y49300D01*
X43043Y49319D01*
X43045Y49342D01*
X43050Y49365D01*
X43055Y49393D01*
X43068Y49450D01*
X43091Y49510D01*
X43105Y49540D01*
X43124Y49568D01*
X43142Y49598D01*
X43165Y49624D01*
X43168Y49626D01*
X43170Y49631D01*
X43179Y49637D01*
X43189Y49644D01*
X43200Y49656D01*
X43216Y49668D01*
X43232Y49679D01*
X43253Y49693D01*
X43299Y49718D01*
X43355Y49741D01*
X43385Y49748D01*
X43417Y49755D01*
X43452Y49760D01*
X43486Y49762D01*
X43507D01*
X43523Y49760D01*
D02*
G37*
G36*
X44535Y48242D02*
X43486D01*
X43510Y48245D01*
X43540Y48247D01*
X43579Y48249D01*
X43620Y48254D01*
X43669Y48261D01*
X43722Y48270D01*
X43778Y48284D01*
X43838Y48298D01*
X43898Y48316D01*
X43958Y48339D01*
X44020Y48365D01*
X44080Y48395D01*
X44138Y48432D01*
X44193Y48471D01*
X44198Y48473D01*
X44207Y48482D01*
X44226Y48499D01*
X44247Y48520D01*
X44272Y48547D01*
X44302Y48582D01*
X44332Y48621D01*
X44364Y48665D01*
X44397Y48716D01*
X44427Y48771D01*
X44457Y48831D01*
X44482Y48896D01*
X44503Y48968D01*
X44521Y49044D01*
X44531Y49125D01*
X44535Y49210D01*
Y48242D01*
D02*
G37*
%LPC*%
G36*
X50616Y-43791D02*
X49477D01*
X50547D01*
X50524Y-43794D01*
X50494Y-43796D01*
X50454Y-43801D01*
X50410Y-43808D01*
X50362Y-43815D01*
X50309Y-43828D01*
X50251Y-43842D01*
X50193Y-43861D01*
X50133Y-43886D01*
X50073Y-43914D01*
X50013Y-43946D01*
X49953Y-43985D01*
X49898Y-44029D01*
X49844Y-44080D01*
X49842Y-44082D01*
X49835Y-44092D01*
X49824Y-44103D01*
X49810Y-44122D01*
X49791Y-44145D01*
X49773Y-44170D01*
X49752Y-44200D01*
X49731Y-44235D01*
X49710Y-44272D01*
X49690Y-44313D01*
X49671Y-44357D01*
X49653Y-44404D01*
X49639Y-44452D01*
X49627Y-44503D01*
X49620Y-44556D01*
X49618Y-44611D01*
Y-44616D01*
Y-44630D01*
X49620Y-44651D01*
X49625Y-44681D01*
X49632Y-44718D01*
X49643Y-44757D01*
X49657Y-44803D01*
X49676Y-44854D01*
X49701Y-44905D01*
X49731Y-44960D01*
X49768Y-45016D01*
X49812Y-45074D01*
X49865Y-45129D01*
X49895Y-45157D01*
X49928Y-45182D01*
X49962Y-45210D01*
X49999Y-45235D01*
X50038Y-45261D01*
X50080Y-45284D01*
X50078D01*
X50068Y-45286D01*
X50055Y-45291D01*
X50034Y-45295D01*
X50011Y-45302D01*
X49985Y-45314D01*
X49955Y-45325D01*
X49923Y-45339D01*
X49888Y-45355D01*
X49851Y-45374D01*
X49814Y-45395D01*
X49780Y-45420D01*
X49743Y-45445D01*
X49708Y-45478D01*
X49674Y-45510D01*
X49641Y-45547D01*
X49639Y-45549D01*
X49634Y-45556D01*
X49625Y-45568D01*
X49616Y-45584D01*
X49604Y-45602D01*
X49590Y-45628D01*
X49574Y-45656D01*
X49558Y-45686D01*
X49544Y-45720D01*
X49528Y-45757D01*
X49514Y-45799D01*
X49503Y-45843D01*
X49493Y-45889D01*
X49484Y-45937D01*
X49479Y-45988D01*
X49477Y-46041D01*
Y-46060D01*
X49479Y-46083D01*
X49482Y-46113D01*
X49486Y-46148D01*
X49493Y-46191D01*
X49503Y-46238D01*
X49516Y-46288D01*
X49532Y-46344D01*
X49553Y-46402D01*
X49579Y-46462D01*
X49606Y-46522D01*
X49643Y-46584D01*
X49685Y-46644D01*
X49731Y-46702D01*
X49787Y-46760D01*
X49791Y-46762D01*
X49801Y-46771D01*
X49819Y-46788D01*
X49842Y-46806D01*
X49872Y-46829D01*
X49907Y-46852D01*
X49951Y-46880D01*
X49997Y-46908D01*
X50050Y-46935D01*
X50108Y-46961D01*
X50170Y-46986D01*
X50239Y-47009D01*
X50311Y-47028D01*
X50387Y-47042D01*
X50468Y-47053D01*
X50551Y-47055D01*
X50570D01*
X50593Y-47053D01*
X50623Y-47051D01*
X50660Y-47049D01*
X50704Y-47042D01*
X50750Y-47035D01*
X50803Y-47023D01*
X50858Y-47012D01*
X50916Y-46995D01*
X50976Y-46975D01*
X51036Y-46949D01*
X51096Y-46922D01*
X51157Y-46889D01*
X51214Y-46850D01*
X51270Y-46806D01*
X51272Y-46804D01*
X51281Y-46794D01*
X51297Y-46780D01*
X51316Y-46760D01*
X51337Y-46737D01*
X51362Y-46707D01*
X51390Y-46670D01*
X51417Y-46630D01*
X51447Y-46586D01*
X51475Y-46538D01*
X51503Y-46483D01*
X51531Y-46425D01*
X51554Y-46365D01*
X51572Y-46298D01*
X51588Y-46229D01*
X51600Y-46154D01*
X51006Y-46081D01*
Y-46083D01*
X51004Y-46090D01*
Y-46101D01*
X50999Y-46118D01*
X50997Y-46138D01*
X50990Y-46159D01*
X50985Y-46185D01*
X50976Y-46210D01*
X50958Y-46265D01*
X50930Y-46323D01*
X50898Y-46381D01*
X50877Y-46406D01*
X50856Y-46429D01*
X50854Y-46432D01*
X50849Y-46434D01*
X50842Y-46441D01*
X50833Y-46448D01*
X50822Y-46457D01*
X50808Y-46466D01*
X50771Y-46487D01*
X50727Y-46510D01*
X50676Y-46529D01*
X50618Y-46543D01*
X50588Y-46545D01*
X50556Y-46547D01*
X50537D01*
X50524Y-46545D01*
X50507Y-46543D01*
X50489Y-46540D01*
X50445Y-46529D01*
X50394Y-46513D01*
X50369Y-46501D01*
X50341Y-46487D01*
X50313Y-46471D01*
X50288Y-46450D01*
X50262Y-46429D01*
X50237Y-46404D01*
X50235Y-46402D01*
X50232Y-46397D01*
X50226Y-46390D01*
X50216Y-46379D01*
X50207Y-46362D01*
X50195Y-46346D01*
X50184Y-46325D01*
X50170Y-46302D01*
X50159Y-46275D01*
X50147Y-46247D01*
X50135Y-46215D01*
X50126Y-46180D01*
X50117Y-46143D01*
X50110Y-46104D01*
X50108Y-46060D01*
X50105Y-46016D01*
Y-46014D01*
Y-46007D01*
Y-45993D01*
X50108Y-45977D01*
X50110Y-45958D01*
X50112Y-45935D01*
X50115Y-45910D01*
X50122Y-45884D01*
X50135Y-45824D01*
X50159Y-45764D01*
X50172Y-45734D01*
X50189Y-45704D01*
X50207Y-45674D01*
X50230Y-45649D01*
X50232Y-45646D01*
X50235Y-45642D01*
X50242Y-45637D01*
X50253Y-45628D01*
X50265Y-45616D01*
X50279Y-45605D01*
X50316Y-45579D01*
X50359Y-45556D01*
X50410Y-45533D01*
X50438Y-45524D01*
X50468Y-45519D01*
X50500Y-45515D01*
X50533Y-45512D01*
X50554D01*
X50565Y-45515D01*
X50579D01*
X50611Y-45517D01*
X50653Y-45524D01*
X50701Y-45531D01*
X50754Y-45542D01*
X50812Y-45559D01*
X50745Y-45060D01*
X50704D01*
X50683Y-45057D01*
X50660Y-45055D01*
X50632Y-45053D01*
X50604Y-45048D01*
X50542Y-45037D01*
X50480Y-45018D01*
X50447Y-45004D01*
X50417Y-44990D01*
X50390Y-44974D01*
X50364Y-44953D01*
X50362Y-44951D01*
X50359Y-44949D01*
X50353Y-44942D01*
X50343Y-44932D01*
X50334Y-44921D01*
X50323Y-44907D01*
X50311Y-44891D01*
X50297Y-44872D01*
X50274Y-44829D01*
X50253Y-44776D01*
X50244Y-44748D01*
X50237Y-44715D01*
X50235Y-44683D01*
X50232Y-44648D01*
Y-44646D01*
Y-44642D01*
Y-44632D01*
X50235Y-44621D01*
Y-44607D01*
X50237Y-44593D01*
X50244Y-44556D01*
X50256Y-44514D01*
X50274Y-44473D01*
X50297Y-44431D01*
X50330Y-44392D01*
X50334Y-44387D01*
X50348Y-44376D01*
X50369Y-44362D01*
X50399Y-44344D01*
X50436Y-44325D01*
X50480Y-44311D01*
X50528Y-44300D01*
X50586Y-44295D01*
X50602D01*
X50611Y-44297D01*
X50625D01*
X50641Y-44300D01*
X50678Y-44309D01*
X50720Y-44323D01*
X50766Y-44341D01*
X50812Y-44369D01*
X50835Y-44387D01*
X50856Y-44406D01*
X50858Y-44408D01*
X50861Y-44410D01*
X50865Y-44417D01*
X50875Y-44427D01*
X50882Y-44438D01*
X50893Y-44452D01*
X50902Y-44468D01*
X50914Y-44487D01*
X50925Y-44508D01*
X50937Y-44531D01*
X50949Y-44556D01*
X50960Y-44586D01*
X50969Y-44616D01*
X50979Y-44648D01*
X50985Y-44685D01*
X50990Y-44722D01*
X51554Y-44628D01*
Y-44625D01*
X51552Y-44614D01*
X51547Y-44600D01*
X51542Y-44579D01*
X51538Y-44554D01*
X51528Y-44526D01*
X51521Y-44494D01*
X51510Y-44461D01*
X51485Y-44387D01*
X51455Y-44309D01*
X51420Y-44233D01*
X51399Y-44198D01*
X51378Y-44163D01*
X51376Y-44161D01*
X51374Y-44156D01*
X51367Y-44147D01*
X51355Y-44136D01*
X51344Y-44119D01*
X51330Y-44103D01*
X51311Y-44085D01*
X51291Y-44064D01*
X51270Y-44043D01*
X51244Y-44020D01*
X51217Y-43997D01*
X51187Y-43976D01*
X51154Y-43953D01*
X51122Y-43930D01*
X51046Y-43891D01*
X51043Y-43888D01*
X51036Y-43886D01*
X51025Y-43881D01*
X51009Y-43875D01*
X50988Y-43868D01*
X50965Y-43858D01*
X50937Y-43849D01*
X50907Y-43840D01*
X50872Y-43831D01*
X50835Y-43824D01*
X50796Y-43815D01*
X50754Y-43808D01*
X50664Y-43796D01*
X50616Y-43791D01*
D02*
G37*
G36*
X48121D02*
X48100D01*
X48089Y-43794D01*
X48075D01*
X48040Y-43798D01*
X47999Y-43803D01*
X47950Y-43812D01*
X47897Y-43824D01*
X47839Y-43838D01*
X47777Y-43858D01*
X47712Y-43884D01*
X47645Y-43914D01*
X47578Y-43951D01*
X47511Y-43992D01*
X47447Y-44043D01*
X47382Y-44101D01*
X47322Y-44168D01*
X47317Y-44173D01*
X47308Y-44186D01*
X47301Y-44196D01*
X47294Y-44207D01*
X47283Y-44223D01*
X47273Y-44240D01*
X47262Y-44260D01*
X47250Y-44281D01*
X47236Y-44306D01*
X47223Y-44332D01*
X47209Y-44362D01*
X47195Y-44394D01*
X47181Y-44427D01*
X47165Y-44464D01*
X47151Y-44503D01*
X47137Y-44545D01*
X47123Y-44588D01*
X47109Y-44635D01*
X47096Y-44685D01*
X47082Y-44736D01*
X47070Y-44792D01*
X47058Y-44849D01*
X47049Y-44909D01*
X47038Y-44972D01*
X47031Y-45037D01*
X47024Y-45106D01*
X47017Y-45177D01*
X47012Y-45249D01*
X47010Y-45328D01*
Y-45445D01*
X47012Y-45464D01*
Y-45489D01*
Y-45517D01*
X47015Y-45549D01*
X47017Y-45584D01*
X47019Y-45621D01*
X47024Y-45660D01*
X47026Y-45704D01*
X47038Y-45794D01*
X47052Y-45891D01*
X47068Y-45995D01*
X47089Y-46099D01*
X47116Y-46205D01*
X47146Y-46309D01*
X47186Y-46409D01*
X47227Y-46503D01*
X47253Y-46549D01*
X47278Y-46591D01*
X47306Y-46633D01*
X47336Y-46670D01*
X47340Y-46674D01*
X47350Y-46686D01*
X47368Y-46704D01*
X47396Y-46730D01*
X47428Y-46760D01*
X47465Y-46792D01*
X47511Y-46827D01*
X47564Y-46864D01*
X47622Y-46901D01*
X47687Y-46935D01*
X47756Y-46968D01*
X47830Y-46998D01*
X47911Y-47021D01*
X47996Y-47042D01*
X48089Y-47053D01*
X48184Y-47058D01*
X47010D01*
D01*
X49145D01*
Y-44852D01*
X49142Y-44840D01*
Y-44826D01*
X49140Y-44792D01*
X49135Y-44750D01*
X49128Y-44704D01*
X49121Y-44651D01*
X49108Y-44593D01*
X49094Y-44531D01*
X49073Y-44468D01*
X49050Y-44404D01*
X49022Y-44337D01*
X48990Y-44272D01*
X48950Y-44210D01*
X48906Y-44147D01*
X48856Y-44089D01*
X48853Y-44087D01*
X48842Y-44076D01*
X48826Y-44062D01*
X48803Y-44043D01*
X48775Y-44020D01*
X48740Y-43995D01*
X48701Y-43967D01*
X48655Y-43939D01*
X48604Y-43911D01*
X48548Y-43886D01*
X48488Y-43861D01*
X48424Y-43838D01*
X48355Y-43819D01*
X48281Y-43805D01*
X48202Y-43794D01*
X48121Y-43791D01*
D02*
G37*
%LPD*%
G36*
X48177Y-44302D02*
X48190Y-44304D01*
X48209Y-44306D01*
X48248Y-44316D01*
X48292Y-44332D01*
X48315Y-44344D01*
X48338Y-44355D01*
X48364Y-44371D01*
X48387Y-44390D01*
X48410Y-44410D01*
X48431Y-44434D01*
X48433Y-44436D01*
X48435Y-44440D01*
X48440Y-44447D01*
X48447Y-44459D01*
X48456Y-44473D01*
X48465Y-44491D01*
X48475Y-44514D01*
X48486Y-44537D01*
X48495Y-44568D01*
X48507Y-44600D01*
X48516Y-44635D01*
X48523Y-44676D01*
X48532Y-44718D01*
X48537Y-44766D01*
X48539Y-44817D01*
X48542Y-44872D01*
Y-44875D01*
Y-44886D01*
Y-44903D01*
X48539Y-44923D01*
X48537Y-44949D01*
X48535Y-44979D01*
X48532Y-45011D01*
X48525Y-45046D01*
X48511Y-45120D01*
X48491Y-45196D01*
X48477Y-45230D01*
X48461Y-45265D01*
X48442Y-45298D01*
X48421Y-45328D01*
X48419Y-45330D01*
X48417Y-45335D01*
X48410Y-45341D01*
X48398Y-45351D01*
X48387Y-45360D01*
X48373Y-45374D01*
X48357Y-45385D01*
X48338Y-45399D01*
X48292Y-45425D01*
X48241Y-45448D01*
X48211Y-45457D01*
X48181Y-45464D01*
X48149Y-45469D01*
X48116Y-45471D01*
X48100D01*
X48087Y-45469D01*
X48073Y-45466D01*
X48054Y-45464D01*
X48013Y-45452D01*
X47966Y-45436D01*
X47941Y-45425D01*
X47916Y-45413D01*
X47890Y-45397D01*
X47865Y-45378D01*
X47842Y-45358D01*
X47818Y-45332D01*
X47816Y-45330D01*
X47814Y-45325D01*
X47807Y-45318D01*
X47800Y-45307D01*
X47791Y-45291D01*
X47779Y-45274D01*
X47768Y-45254D01*
X47756Y-45228D01*
X47747Y-45203D01*
X47735Y-45171D01*
X47724Y-45138D01*
X47715Y-45101D01*
X47708Y-45062D01*
X47701Y-45018D01*
X47698Y-44972D01*
X47696Y-44923D01*
Y-44921D01*
Y-44909D01*
Y-44896D01*
X47698Y-44875D01*
X47701Y-44849D01*
X47703Y-44822D01*
X47708Y-44789D01*
X47712Y-44755D01*
X47728Y-44681D01*
X47740Y-44644D01*
X47754Y-44605D01*
X47770Y-44568D01*
X47786Y-44531D01*
X47809Y-44496D01*
X47832Y-44464D01*
X47835Y-44461D01*
X47839Y-44457D01*
X47846Y-44447D01*
X47855Y-44438D01*
X47869Y-44427D01*
X47886Y-44413D01*
X47902Y-44397D01*
X47923Y-44381D01*
X47969Y-44350D01*
X48024Y-44325D01*
X48052Y-44316D01*
X48084Y-44306D01*
X48116Y-44302D01*
X48149Y-44300D01*
X48165D01*
X48177Y-44302D01*
D02*
G37*
G36*
X49145Y-47058D02*
X48200D01*
X48221Y-47055D01*
X48246D01*
X48278Y-47051D01*
X48313Y-47046D01*
X48355Y-47042D01*
X48398Y-47032D01*
X48447Y-47023D01*
X48495Y-47009D01*
X48546Y-46993D01*
X48597Y-46975D01*
X48648Y-46951D01*
X48696Y-46924D01*
X48745Y-46894D01*
X48789Y-46859D01*
X48791Y-46857D01*
X48798Y-46850D01*
X48809Y-46838D01*
X48826Y-46822D01*
X48844Y-46801D01*
X48865Y-46774D01*
X48888Y-46744D01*
X48911Y-46709D01*
X48937Y-46670D01*
X48962Y-46626D01*
X48987Y-46575D01*
X49011Y-46522D01*
X49034Y-46464D01*
X49052Y-46399D01*
X49071Y-46332D01*
X49084Y-46261D01*
X48491Y-46194D01*
Y-46196D01*
Y-46201D01*
X48488Y-46212D01*
X48486Y-46224D01*
X48484Y-46238D01*
X48479Y-46256D01*
X48470Y-46295D01*
X48454Y-46339D01*
X48435Y-46385D01*
X48410Y-46427D01*
X48380Y-46464D01*
X48375Y-46469D01*
X48364Y-46478D01*
X48343Y-46492D01*
X48315Y-46506D01*
X48281Y-46522D01*
X48237Y-46536D01*
X48188Y-46545D01*
X48135Y-46549D01*
X48126D01*
X48116Y-46547D01*
X48103D01*
X48087Y-46545D01*
X48068Y-46540D01*
X48024Y-46529D01*
X47999Y-46520D01*
X47973Y-46508D01*
X47946Y-46494D01*
X47920Y-46476D01*
X47892Y-46457D01*
X47865Y-46434D01*
X47839Y-46406D01*
X47814Y-46376D01*
X47812Y-46374D01*
X47807Y-46367D01*
X47802Y-46356D01*
X47793Y-46339D01*
X47782Y-46319D01*
X47770Y-46291D01*
X47756Y-46259D01*
X47742Y-46219D01*
X47728Y-46175D01*
X47712Y-46122D01*
X47698Y-46062D01*
X47685Y-45995D01*
X47673Y-45921D01*
X47662Y-45840D01*
X47650Y-45750D01*
X47643Y-45651D01*
X47645Y-45653D01*
X47655Y-45663D01*
X47666Y-45676D01*
X47685Y-45693D01*
X47708Y-45713D01*
X47735Y-45736D01*
X47765Y-45759D01*
X47802Y-45785D01*
X47842Y-45810D01*
X47886Y-45833D01*
X47934Y-45856D01*
X47985Y-45877D01*
X48038Y-45893D01*
X48096Y-45907D01*
X48156Y-45917D01*
X48221Y-45919D01*
X48237D01*
X48257Y-45917D01*
X48283Y-45914D01*
X48315Y-45910D01*
X48355Y-45903D01*
X48396Y-45896D01*
X48442Y-45882D01*
X48493Y-45868D01*
X48544Y-45847D01*
X48599Y-45824D01*
X48655Y-45796D01*
X48710Y-45764D01*
X48766Y-45725D01*
X48819Y-45681D01*
X48872Y-45630D01*
X48874Y-45628D01*
X48883Y-45616D01*
X48897Y-45600D01*
X48913Y-45577D01*
X48934Y-45549D01*
X48957Y-45512D01*
X48983Y-45473D01*
X49008Y-45427D01*
X49034Y-45374D01*
X49059Y-45318D01*
X49082Y-45256D01*
X49103Y-45187D01*
X49119Y-45115D01*
X49133Y-45039D01*
X49142Y-44958D01*
X49145Y-44872D01*
Y-47058D01*
D02*
G37*
%LPC*%
G36*
X-46552Y51609D02*
X-46568D01*
X-46587Y51606D01*
X-46612D01*
X-46644Y51602D01*
X-46679Y51597D01*
X-46721Y51592D01*
X-46762Y51583D01*
X-46811Y51572D01*
X-46859Y51558D01*
X-46908Y51542D01*
X-46959Y51521D01*
X-47010Y51498D01*
X-47058Y51470D01*
X-47107Y51440D01*
X-47153Y51403D01*
X-47155Y51401D01*
X-47164Y51394D01*
X-47176Y51382D01*
X-47192Y51366D01*
X-47210Y51345D01*
X-47231Y51318D01*
X-47257Y51288D01*
X-47282Y51253D01*
X-47308Y51214D01*
X-47333Y51170D01*
X-47358Y51121D01*
X-47384Y51068D01*
X-47407Y51013D01*
X-47428Y50950D01*
X-47446Y50883D01*
X-47460Y50814D01*
X-46866Y50749D01*
Y50752D01*
Y50756D01*
X-46864Y50765D01*
X-46862Y50779D01*
X-46857Y50793D01*
X-46855Y50812D01*
X-46843Y50851D01*
X-46827Y50895D01*
X-46808Y50939D01*
X-46783Y50980D01*
X-46751Y51017D01*
X-46746Y51022D01*
X-46735Y51031D01*
X-46714Y51045D01*
X-46688Y51061D01*
X-46654Y51077D01*
X-46612Y51091D01*
X-46566Y51100D01*
X-46513Y51105D01*
X-46494D01*
X-46481Y51103D01*
X-46464Y51100D01*
X-46444Y51096D01*
X-46423Y51091D01*
X-46400Y51084D01*
X-46374Y51075D01*
X-46347Y51061D01*
X-46321Y51047D01*
X-46293Y51031D01*
X-46266Y51010D01*
X-46238Y50987D01*
X-46210Y50959D01*
X-46185Y50929D01*
X-46183Y50927D01*
X-46180Y50920D01*
X-46173Y50911D01*
X-46164Y50895D01*
X-46152Y50872D01*
X-46141Y50846D01*
X-46127Y50814D01*
X-46113Y50775D01*
X-46099Y50728D01*
X-46086Y50675D01*
X-46072Y50618D01*
X-46058Y50551D01*
X-46044Y50477D01*
X-46032Y50393D01*
X-46023Y50303D01*
X-46016Y50204D01*
X-46018Y50206D01*
X-46028Y50216D01*
X-46039Y50230D01*
X-46058Y50246D01*
X-46079Y50266D01*
X-46106Y50290D01*
X-46139Y50315D01*
X-46173Y50340D01*
X-46213Y50366D01*
X-46256Y50391D01*
X-46303Y50414D01*
X-46353Y50435D01*
X-46407Y50451D01*
X-46462Y50465D01*
X-46522Y50474D01*
X-46584Y50477D01*
X-46601D01*
X-46621Y50474D01*
X-46649Y50472D01*
X-46681Y50467D01*
X-46721Y50460D01*
X-46765Y50451D01*
X-46811Y50440D01*
X-46862Y50424D01*
X-46915Y50405D01*
X-46970Y50382D01*
X-47026Y50352D01*
X-47081Y50320D01*
X-47137Y50280D01*
X-47190Y50234D01*
X-47243Y50183D01*
X-47245Y50181D01*
X-47254Y50169D01*
X-47268Y50153D01*
X-47287Y50130D01*
X-47308Y50100D01*
X-47331Y50065D01*
X-47354Y50026D01*
X-47381Y49980D01*
X-47407Y49927D01*
X-47430Y49869D01*
X-47453Y49807D01*
X-47474Y49742D01*
X-47492Y49668D01*
X-47506Y49594D01*
X-47515Y49513D01*
X-47518Y49428D01*
Y49463D01*
Y49396D01*
X-47515Y49382D01*
X-47513Y49347D01*
X-47508Y49305D01*
X-47502Y49257D01*
X-47495Y49204D01*
X-47481Y49146D01*
X-47467Y49084D01*
X-47448Y49019D01*
X-47423Y48954D01*
X-47395Y48887D01*
X-47363Y48823D01*
X-47324Y48758D01*
X-47280Y48698D01*
X-47229Y48640D01*
X-47227Y48638D01*
X-47215Y48629D01*
X-47199Y48612D01*
X-47176Y48594D01*
X-47148Y48571D01*
X-47113Y48548D01*
X-47074Y48520D01*
X-47028Y48492D01*
X-46977Y48465D01*
X-46922Y48439D01*
X-46862Y48414D01*
X-46795Y48391D01*
X-46725Y48372D01*
X-46651Y48358D01*
X-46573Y48347D01*
X-46490Y48345D01*
X-47518D01*
D01*
X-45383D01*
Y49992D01*
X-45386Y50012D01*
Y50036D01*
Y50063D01*
X-45388Y50095D01*
X-45390Y50130D01*
X-45393Y50167D01*
X-45397Y50209D01*
X-45399Y50250D01*
X-45411Y50343D01*
X-45425Y50440D01*
X-45441Y50541D01*
X-45462Y50648D01*
X-45489Y50752D01*
X-45520Y50858D01*
X-45557Y50957D01*
X-45600Y51052D01*
X-45623Y51098D01*
X-45649Y51140D01*
X-45677Y51181D01*
X-45707Y51218D01*
X-45711Y51223D01*
X-45723Y51234D01*
X-45741Y51255D01*
X-45767Y51278D01*
X-45799Y51308D01*
X-45838Y51343D01*
X-45882Y51378D01*
X-45935Y51415D01*
X-45993Y51449D01*
X-46055Y51486D01*
X-46125Y51518D01*
X-46201Y51548D01*
X-46282Y51572D01*
X-46367Y51592D01*
X-46457Y51604D01*
X-46552Y51609D01*
D02*
G37*
G36*
X-42900Y51556D02*
X-44995D01*
Y48400D01*
X-42900D01*
Y51556D01*
D02*
G37*
%LPD*%
G36*
X-46460Y50024D02*
X-46446Y50022D01*
X-46427Y50019D01*
X-46386Y50008D01*
X-46337Y49992D01*
X-46314Y49980D01*
X-46289Y49966D01*
X-46263Y49950D01*
X-46238Y49931D01*
X-46213Y49911D01*
X-46189Y49885D01*
X-46187Y49883D01*
X-46185Y49878D01*
X-46178Y49872D01*
X-46171Y49860D01*
X-46162Y49846D01*
X-46152Y49828D01*
X-46141Y49807D01*
X-46129Y49781D01*
X-46118Y49756D01*
X-46106Y49724D01*
X-46097Y49691D01*
X-46088Y49654D01*
X-46081Y49615D01*
X-46074Y49571D01*
X-46072Y49525D01*
X-46069Y49477D01*
Y49474D01*
Y49463D01*
Y49449D01*
X-46072Y49428D01*
X-46074Y49402D01*
X-46076Y49373D01*
X-46081Y49340D01*
X-46086Y49305D01*
X-46102Y49232D01*
X-46113Y49192D01*
X-46127Y49155D01*
X-46143Y49116D01*
X-46162Y49082D01*
X-46183Y49047D01*
X-46206Y49014D01*
X-46208Y49012D01*
X-46213Y49007D01*
X-46220Y49001D01*
X-46229Y48989D01*
X-46243Y48978D01*
X-46259Y48964D01*
X-46275Y48950D01*
X-46296Y48934D01*
X-46342Y48904D01*
X-46395Y48878D01*
X-46425Y48867D01*
X-46455Y48860D01*
X-46487Y48855D01*
X-46520Y48853D01*
X-46536D01*
X-46547Y48855D01*
X-46561Y48857D01*
X-46580Y48860D01*
X-46619Y48869D01*
X-46663Y48885D01*
X-46686Y48897D01*
X-46709Y48908D01*
X-46735Y48924D01*
X-46758Y48941D01*
X-46781Y48961D01*
X-46802Y48984D01*
X-46804Y48987D01*
X-46806Y48991D01*
X-46813Y48998D01*
X-46820Y49010D01*
X-46829Y49024D01*
X-46839Y49042D01*
X-46848Y49065D01*
X-46859Y49088D01*
X-46871Y49118D01*
X-46880Y49151D01*
X-46889Y49185D01*
X-46899Y49225D01*
X-46905Y49269D01*
X-46913Y49315D01*
X-46915Y49366D01*
X-46917Y49421D01*
Y49426D01*
Y49435D01*
Y49451D01*
X-46915Y49472D01*
X-46913Y49497D01*
X-46910Y49527D01*
X-46908Y49562D01*
X-46901Y49597D01*
X-46887Y49670D01*
X-46866Y49747D01*
X-46852Y49784D01*
X-46836Y49818D01*
X-46815Y49851D01*
X-46795Y49881D01*
X-46792Y49883D01*
X-46790Y49888D01*
X-46783Y49895D01*
X-46774Y49904D01*
X-46760Y49915D01*
X-46746Y49927D01*
X-46730Y49941D01*
X-46712Y49955D01*
X-46668Y49980D01*
X-46615Y50003D01*
X-46587Y50012D01*
X-46554Y50019D01*
X-46524Y50024D01*
X-46490Y50026D01*
X-46474D01*
X-46460Y50024D01*
D02*
G37*
G36*
X-45383Y48345D02*
X-46469D01*
X-46457Y48347D01*
X-46444D01*
X-46409Y48351D01*
X-46367Y48356D01*
X-46319Y48365D01*
X-46266Y48377D01*
X-46208Y48391D01*
X-46145Y48412D01*
X-46083Y48437D01*
X-46016Y48467D01*
X-45949Y48502D01*
X-45882Y48546D01*
X-45818Y48596D01*
X-45753Y48654D01*
X-45693Y48719D01*
X-45691Y48723D01*
X-45679Y48737D01*
X-45672Y48746D01*
X-45665Y48760D01*
X-45656Y48774D01*
X-45644Y48790D01*
X-45633Y48811D01*
X-45621Y48832D01*
X-45607Y48857D01*
X-45596Y48883D01*
X-45582Y48913D01*
X-45568Y48943D01*
X-45552Y48978D01*
X-45538Y49014D01*
X-45524Y49054D01*
X-45510Y49095D01*
X-45494Y49139D01*
X-45480Y49185D01*
X-45469Y49234D01*
X-45455Y49287D01*
X-45443Y49340D01*
X-45432Y49398D01*
X-45420Y49458D01*
X-45411Y49520D01*
X-45404Y49585D01*
X-45397Y49654D01*
X-45390Y49724D01*
X-45388Y49798D01*
X-45383Y49874D01*
Y48345D01*
D02*
G37*
G36*
X-42900Y48400D02*
X-43330D01*
Y48402D01*
Y48407D01*
Y48416D01*
X-43332Y48430D01*
Y48446D01*
Y48465D01*
X-43334Y48488D01*
X-43337Y48515D01*
X-43339Y48543D01*
X-43341Y48576D01*
X-43343Y48610D01*
X-43348Y48647D01*
X-43353Y48686D01*
X-43357Y48728D01*
X-43369Y48818D01*
X-43385Y48915D01*
X-43401Y49021D01*
X-43424Y49132D01*
X-43450Y49250D01*
X-43482Y49370D01*
X-43517Y49495D01*
X-43556Y49622D01*
X-43602Y49751D01*
Y49754D01*
X-43605Y49758D01*
X-43609Y49770D01*
X-43614Y49781D01*
X-43621Y49800D01*
X-43630Y49818D01*
X-43639Y49841D01*
X-43648Y49867D01*
X-43662Y49897D01*
X-43676Y49929D01*
X-43690Y49962D01*
X-43706Y49999D01*
X-43743Y50077D01*
X-43785Y50165D01*
X-43833Y50257D01*
X-43884Y50357D01*
X-43942Y50458D01*
X-44002Y50564D01*
X-44069Y50671D01*
X-44138Y50777D01*
X-44214Y50883D01*
X-44293Y50987D01*
X-42900D01*
Y48400D01*
D02*
G37*
G36*
X-44993Y51107D02*
X-44984Y51098D01*
X-44970Y51082D01*
X-44951Y51061D01*
X-44926Y51036D01*
X-44898Y51003D01*
X-44866Y50966D01*
X-44831Y50923D01*
X-44792Y50872D01*
X-44750Y50819D01*
X-44709Y50758D01*
X-44662Y50691D01*
X-44614Y50620D01*
X-44565Y50544D01*
X-44517Y50463D01*
X-44466Y50375D01*
Y50373D01*
X-44464Y50370D01*
X-44459Y50363D01*
X-44455Y50354D01*
X-44448Y50343D01*
X-44441Y50327D01*
X-44431Y50310D01*
X-44422Y50292D01*
X-44399Y50248D01*
X-44374Y50195D01*
X-44346Y50135D01*
X-44314Y50068D01*
X-44281Y49996D01*
X-44249Y49918D01*
X-44214Y49832D01*
X-44180Y49744D01*
X-44147Y49652D01*
X-44115Y49557D01*
X-44085Y49458D01*
X-44057Y49359D01*
Y49356D01*
X-44055Y49352D01*
Y49345D01*
X-44050Y49336D01*
X-44048Y49322D01*
X-44046Y49305D01*
X-44041Y49289D01*
X-44036Y49269D01*
X-44025Y49222D01*
X-44013Y49167D01*
X-44002Y49105D01*
X-43988Y49038D01*
X-43977Y48966D01*
X-43963Y48890D01*
X-43951Y48809D01*
X-43942Y48728D01*
X-43933Y48645D01*
X-43926Y48562D01*
X-43923Y48481D01*
X-43921Y48400D01*
X-44995D01*
Y51110D01*
X-44993Y51107D01*
D02*
G37*
%LPC*%
G36*
X-43932Y-48591D02*
X-43953D01*
X-43978Y-48594D01*
X-44010Y-48596D01*
X-44050Y-48598D01*
X-44096Y-48605D01*
X-44147Y-48612D01*
X-44202Y-48624D01*
X-44260Y-48638D01*
X-44322Y-48654D01*
X-44385Y-48675D01*
X-44445Y-48700D01*
X-44507Y-48730D01*
X-44567Y-48762D01*
X-44623Y-48802D01*
X-44676Y-48848D01*
X-44678Y-48850D01*
X-44687Y-48859D01*
X-44701Y-48873D01*
X-44717Y-48894D01*
X-44738Y-48919D01*
X-44761Y-48947D01*
X-44787Y-48984D01*
X-44812Y-49023D01*
X-44837Y-49067D01*
X-44863Y-49114D01*
X-44886Y-49167D01*
X-44907Y-49222D01*
X-44923Y-49282D01*
X-44937Y-49347D01*
X-44946Y-49414D01*
X-44948Y-49483D01*
Y-49520D01*
X-44946Y-49538D01*
X-44944Y-49562D01*
X-44941Y-49587D01*
X-44939Y-49615D01*
X-44930Y-49677D01*
X-44916Y-49746D01*
X-44895Y-49820D01*
X-44870Y-49894D01*
Y-49897D01*
X-44865Y-49904D01*
X-44861Y-49913D01*
X-44856Y-49929D01*
X-44847Y-49945D01*
X-44835Y-49966D01*
X-44824Y-49991D01*
X-44810Y-50017D01*
X-44793Y-50047D01*
X-44775Y-50079D01*
X-44734Y-50148D01*
X-44683Y-50222D01*
X-44625Y-50301D01*
X-44623Y-50303D01*
X-44620Y-50308D01*
X-44613Y-50315D01*
X-44604Y-50326D01*
X-44590Y-50342D01*
X-44574Y-50361D01*
X-44556Y-50382D01*
X-44532Y-50405D01*
X-44507Y-50432D01*
X-44477Y-50463D01*
X-44445Y-50497D01*
X-44408Y-50534D01*
X-44368Y-50573D01*
X-44325Y-50615D01*
X-44276Y-50661D01*
X-44223Y-50710D01*
X-44221Y-50712D01*
X-44211Y-50721D01*
X-44195Y-50735D01*
X-44177Y-50754D01*
X-44154Y-50774D01*
X-44126Y-50797D01*
X-44098Y-50825D01*
X-44068Y-50853D01*
X-44006Y-50913D01*
X-43944Y-50971D01*
X-43916Y-50998D01*
X-43893Y-51021D01*
X-43870Y-51045D01*
X-43853Y-51063D01*
X-43851Y-51068D01*
X-43842Y-51077D01*
X-43826Y-51095D01*
X-43810Y-51116D01*
X-43789Y-51142D01*
X-43768Y-51172D01*
X-43747Y-51202D01*
X-43729Y-51232D01*
X-44948D01*
Y-51800D01*
X-42800D01*
Y-51795D01*
X-42802Y-51786D01*
X-42805Y-51768D01*
X-42809Y-51745D01*
X-42814Y-51717D01*
X-42821Y-51682D01*
X-42828Y-51645D01*
X-42839Y-51604D01*
X-42851Y-51557D01*
X-42867Y-51509D01*
X-42883Y-51460D01*
X-42902Y-51407D01*
X-42925Y-51354D01*
X-42950Y-51299D01*
X-42978Y-51246D01*
X-43008Y-51190D01*
X-43010Y-51188D01*
X-43017Y-51176D01*
X-43029Y-51160D01*
X-43042Y-51137D01*
X-43063Y-51109D01*
X-43091Y-51075D01*
X-43123Y-51033D01*
X-43160Y-50987D01*
X-43204Y-50934D01*
X-43253Y-50876D01*
X-43310Y-50814D01*
X-43373Y-50744D01*
X-43444Y-50670D01*
X-43521Y-50594D01*
X-43606Y-50511D01*
X-43699Y-50423D01*
X-43701Y-50421D01*
X-43703Y-50419D01*
X-43717Y-50407D01*
X-43738Y-50386D01*
X-43766Y-50361D01*
X-43798Y-50328D01*
X-43835Y-50294D01*
X-43874Y-50255D01*
X-43918Y-50213D01*
X-44003Y-50125D01*
X-44047Y-50084D01*
X-44087Y-50040D01*
X-44126Y-50001D01*
X-44158Y-49964D01*
X-44186Y-49929D01*
X-44207Y-49901D01*
X-44209Y-49899D01*
X-44211Y-49892D01*
X-44218Y-49883D01*
X-44228Y-49869D01*
X-44237Y-49850D01*
X-44246Y-49832D01*
X-44258Y-49809D01*
X-44271Y-49783D01*
X-44295Y-49726D01*
X-44313Y-49663D01*
X-44329Y-49594D01*
X-44331Y-49559D01*
X-44334Y-49525D01*
Y-49522D01*
Y-49515D01*
Y-49506D01*
X-44331Y-49490D01*
Y-49474D01*
X-44329Y-49455D01*
X-44320Y-49409D01*
X-44306Y-49358D01*
X-44288Y-49305D01*
X-44260Y-49257D01*
X-44241Y-49231D01*
X-44223Y-49211D01*
X-44221Y-49208D01*
X-44218Y-49206D01*
X-44211Y-49201D01*
X-44202Y-49192D01*
X-44191Y-49185D01*
X-44177Y-49176D01*
X-44161Y-49164D01*
X-44144Y-49155D01*
X-44100Y-49134D01*
X-44047Y-49116D01*
X-43987Y-49104D01*
X-43953Y-49102D01*
X-43918Y-49100D01*
X-43900D01*
X-43886Y-49102D01*
X-43870D01*
X-43851Y-49106D01*
X-43807Y-49114D01*
X-43759Y-49127D01*
X-43705Y-49148D01*
X-43682Y-49162D01*
X-43657Y-49176D01*
X-43634Y-49194D01*
X-43611Y-49215D01*
X-43608Y-49217D01*
X-43606Y-49220D01*
X-43599Y-49227D01*
X-43592Y-49238D01*
X-43583Y-49250D01*
X-43574Y-49266D01*
X-43565Y-49284D01*
X-43553Y-49305D01*
X-43541Y-49331D01*
X-43530Y-49358D01*
X-43518Y-49391D01*
X-43509Y-49425D01*
X-43500Y-49465D01*
X-43491Y-49506D01*
X-43486Y-49550D01*
X-43481Y-49599D01*
X-42872Y-49538D01*
Y-49536D01*
Y-49532D01*
X-42874Y-49525D01*
Y-49515D01*
X-42876Y-49504D01*
X-42878Y-49490D01*
X-42886Y-49455D01*
X-42892Y-49414D01*
X-42904Y-49368D01*
X-42918Y-49314D01*
X-42934Y-49259D01*
X-42955Y-49199D01*
X-42978Y-49139D01*
X-43006Y-49079D01*
X-43038Y-49019D01*
X-43073Y-48961D01*
X-43114Y-48908D01*
X-43160Y-48857D01*
X-43211Y-48813D01*
X-43213Y-48811D01*
X-43225Y-48804D01*
X-43241Y-48792D01*
X-43262Y-48779D01*
X-43292Y-48762D01*
X-43324Y-48744D01*
X-43366Y-48723D01*
X-43410Y-48702D01*
X-43458Y-48682D01*
X-43514Y-48661D01*
X-43574Y-48642D01*
X-43636Y-48626D01*
X-43705Y-48612D01*
X-43777Y-48601D01*
X-43853Y-48594D01*
X-43932Y-48591D01*
D02*
G37*
G36*
X-45360D02*
Y-50181D01*
X-45362Y-50160D01*
Y-50134D01*
Y-50104D01*
X-45364Y-50072D01*
X-45366Y-50037D01*
X-45369Y-49998D01*
X-45373Y-49957D01*
X-45376Y-49913D01*
X-45385Y-49820D01*
X-45399Y-49719D01*
X-45415Y-49612D01*
X-45436Y-49506D01*
X-45461Y-49398D01*
X-45491Y-49289D01*
X-45526Y-49187D01*
X-45567Y-49090D01*
X-45593Y-49044D01*
X-45616Y-49000D01*
X-45644Y-48959D01*
X-45671Y-48919D01*
X-45674Y-48915D01*
X-45683Y-48906D01*
X-45699Y-48889D01*
X-45720Y-48869D01*
X-45745Y-48843D01*
X-45778Y-48816D01*
X-45817Y-48785D01*
X-45861Y-48755D01*
X-45909Y-48725D01*
X-45962Y-48695D01*
X-46022Y-48668D01*
X-46087Y-48642D01*
X-46156Y-48621D01*
X-46233Y-48605D01*
X-46311Y-48596D01*
X-46397Y-48591D01*
X-46417D01*
X-46441Y-48594D01*
X-46473Y-48596D01*
X-46512Y-48601D01*
X-46558Y-48610D01*
X-46607Y-48619D01*
X-46662Y-48633D01*
X-46718Y-48651D01*
X-46778Y-48672D01*
X-46838Y-48700D01*
X-46898Y-48732D01*
X-46958Y-48769D01*
X-47016Y-48813D01*
X-47071Y-48866D01*
X-47122Y-48924D01*
X-47127Y-48929D01*
X-47129Y-48933D01*
X-47136Y-48943D01*
X-47143Y-48954D01*
X-47152Y-48966D01*
X-47161Y-48982D01*
X-47170Y-49000D01*
X-47182Y-49019D01*
X-47196Y-49042D01*
X-47207Y-49067D01*
X-47221Y-49095D01*
X-47235Y-49127D01*
X-47249Y-49160D01*
X-47265Y-49194D01*
X-47279Y-49234D01*
X-47293Y-49275D01*
X-47309Y-49319D01*
X-47323Y-49365D01*
X-47337Y-49414D01*
X-47351Y-49467D01*
X-47362Y-49520D01*
X-47376Y-49578D01*
X-47388Y-49638D01*
X-47397Y-49703D01*
X-47406Y-49767D01*
X-47415Y-49837D01*
X-47422Y-49908D01*
X-47429Y-49982D01*
X-47434Y-50061D01*
X-47436Y-50141D01*
Y-50285D01*
X-47434Y-50310D01*
Y-50340D01*
X-47431Y-50372D01*
X-47429Y-50409D01*
X-47427Y-50446D01*
X-47425Y-50488D01*
X-47420Y-50532D01*
X-47411Y-50626D01*
X-47397Y-50728D01*
X-47381Y-50834D01*
X-47360Y-50943D01*
X-47335Y-51052D01*
X-47304Y-51158D01*
X-47267Y-51262D01*
X-47226Y-51359D01*
X-47203Y-51405D01*
X-47177Y-51449D01*
X-47150Y-51490D01*
X-47122Y-51530D01*
X-47120Y-51534D01*
X-47111Y-51544D01*
X-47094Y-51560D01*
X-47074Y-51581D01*
X-47048Y-51606D01*
X-47016Y-51634D01*
X-46977Y-51661D01*
X-46933Y-51691D01*
X-46884Y-51724D01*
X-46831Y-51752D01*
X-46771Y-51779D01*
X-46706Y-51805D01*
X-46637Y-51825D01*
X-46561Y-51842D01*
X-46482Y-51851D01*
X-46397Y-51855D01*
X-47436D01*
D01*
X-45360D01*
Y-48591D01*
D02*
G37*
%LPD*%
G36*
X-46357Y-49104D02*
X-46330Y-49109D01*
X-46300Y-49118D01*
X-46267Y-49130D01*
X-46233Y-49148D01*
X-46198Y-49171D01*
X-46193Y-49174D01*
X-46184Y-49185D01*
X-46168Y-49204D01*
X-46147Y-49229D01*
X-46126Y-49264D01*
X-46115Y-49284D01*
X-46103Y-49308D01*
X-46092Y-49333D01*
X-46082Y-49363D01*
X-46071Y-49393D01*
X-46062Y-49425D01*
Y-49428D01*
X-46059Y-49437D01*
X-46057Y-49451D01*
X-46053Y-49472D01*
X-46048Y-49497D01*
X-46041Y-49529D01*
X-46036Y-49569D01*
X-46032Y-49615D01*
X-46025Y-49666D01*
X-46020Y-49726D01*
X-46013Y-49790D01*
X-46009Y-49862D01*
X-46006Y-49943D01*
X-46002Y-50028D01*
X-45999Y-50123D01*
Y-50225D01*
Y-50227D01*
Y-50231D01*
Y-50238D01*
Y-50250D01*
Y-50261D01*
Y-50278D01*
Y-50317D01*
X-46002Y-50361D01*
Y-50414D01*
X-46004Y-50472D01*
X-46006Y-50532D01*
X-46009Y-50596D01*
X-46013Y-50661D01*
X-46018Y-50726D01*
X-46022Y-50788D01*
X-46029Y-50848D01*
X-46036Y-50904D01*
X-46046Y-50955D01*
X-46055Y-50998D01*
Y-51001D01*
X-46057Y-51008D01*
X-46062Y-51019D01*
X-46066Y-51033D01*
X-46071Y-51049D01*
X-46078Y-51068D01*
X-46094Y-51112D01*
X-46115Y-51158D01*
X-46140Y-51204D01*
X-46168Y-51246D01*
X-46182Y-51264D01*
X-46198Y-51278D01*
X-46203Y-51280D01*
X-46214Y-51289D01*
X-46233Y-51299D01*
X-46256Y-51313D01*
X-46286Y-51324D01*
X-46318Y-51336D01*
X-46357Y-51345D01*
X-46397Y-51347D01*
X-46401D01*
X-46415Y-51345D01*
X-46436Y-51343D01*
X-46464Y-51338D01*
X-46494Y-51331D01*
X-46528Y-51317D01*
X-46561Y-51301D01*
X-46595Y-51278D01*
X-46600Y-51273D01*
X-46609Y-51264D01*
X-46625Y-51246D01*
X-46646Y-51220D01*
X-46667Y-51183D01*
X-46679Y-51162D01*
X-46690Y-51139D01*
X-46702Y-51114D01*
X-46711Y-51086D01*
X-46722Y-51056D01*
X-46732Y-51024D01*
Y-51021D01*
X-46734Y-51012D01*
X-46738Y-50998D01*
X-46741Y-50978D01*
X-46748Y-50952D01*
X-46752Y-50920D01*
X-46757Y-50881D01*
X-46764Y-50834D01*
X-46771Y-50784D01*
X-46775Y-50726D01*
X-46782Y-50659D01*
X-46787Y-50587D01*
X-46789Y-50509D01*
X-46794Y-50421D01*
X-46796Y-50326D01*
Y-50225D01*
Y-50222D01*
Y-50218D01*
Y-50211D01*
Y-50199D01*
Y-50188D01*
Y-50171D01*
Y-50134D01*
X-46794Y-50088D01*
Y-50035D01*
X-46792Y-49980D01*
X-46789Y-49917D01*
X-46787Y-49855D01*
X-46782Y-49790D01*
X-46778Y-49726D01*
X-46771Y-49663D01*
X-46766Y-49603D01*
X-46757Y-49545D01*
X-46748Y-49497D01*
X-46738Y-49453D01*
Y-49451D01*
X-46736Y-49444D01*
X-46732Y-49432D01*
X-46729Y-49418D01*
X-46722Y-49402D01*
X-46715Y-49384D01*
X-46699Y-49340D01*
X-46679Y-49291D01*
X-46653Y-49245D01*
X-46625Y-49204D01*
X-46609Y-49185D01*
X-46593Y-49171D01*
X-46588Y-49169D01*
X-46579Y-49160D01*
X-46561Y-49148D01*
X-46538Y-49134D01*
X-46507Y-49123D01*
X-46475Y-49111D01*
X-46436Y-49102D01*
X-46397Y-49100D01*
X-46378D01*
X-46357Y-49104D01*
D02*
G37*
G36*
X-45360Y-51855D02*
X-46376D01*
X-46353Y-51853D01*
X-46320Y-51851D01*
X-46279Y-51844D01*
X-46235Y-51837D01*
X-46182Y-51825D01*
X-46129Y-51811D01*
X-46069Y-51791D01*
X-46009Y-51768D01*
X-45946Y-51740D01*
X-45882Y-51705D01*
X-45819Y-51664D01*
X-45759Y-51615D01*
X-45699Y-51560D01*
X-45644Y-51497D01*
X-45641Y-51493D01*
X-45632Y-51481D01*
X-45625Y-51470D01*
X-45618Y-51458D01*
X-45609Y-51444D01*
X-45600Y-51428D01*
X-45588Y-51407D01*
X-45579Y-51386D01*
X-45565Y-51361D01*
X-45553Y-51336D01*
X-45542Y-51306D01*
X-45528Y-51276D01*
X-45514Y-51241D01*
X-45503Y-51204D01*
X-45489Y-51165D01*
X-45475Y-51121D01*
X-45461Y-51077D01*
X-45450Y-51029D01*
X-45438Y-50978D01*
X-45426Y-50924D01*
X-45415Y-50867D01*
X-45403Y-50807D01*
X-45394Y-50744D01*
X-45385Y-50680D01*
X-45378Y-50610D01*
X-45371Y-50539D01*
X-45366Y-50465D01*
X-45362Y-50386D01*
X-45360Y-50305D01*
Y-51855D01*
D02*
G37*
%LPC*%
G36*
X-62732Y41409D02*
X-62753D01*
X-62778Y41406D01*
X-62810Y41404D01*
X-62850Y41402D01*
X-62896Y41395D01*
X-62947Y41388D01*
X-63002Y41376D01*
X-63060Y41362D01*
X-63122Y41346D01*
X-63185Y41325D01*
X-63245Y41300D01*
X-63307Y41270D01*
X-63367Y41238D01*
X-63423Y41198D01*
X-63476Y41152D01*
X-63478Y41150D01*
X-63487Y41141D01*
X-63501Y41127D01*
X-63517Y41106D01*
X-63538Y41081D01*
X-63561Y41053D01*
X-63587Y41016D01*
X-63612Y40977D01*
X-63637Y40933D01*
X-63663Y40887D01*
X-63686Y40833D01*
X-63707Y40778D01*
X-63723Y40718D01*
X-63737Y40653D01*
X-63746Y40586D01*
X-63748Y40517D01*
Y40480D01*
X-63746Y40462D01*
X-63744Y40438D01*
X-63741Y40413D01*
X-63739Y40385D01*
X-63730Y40323D01*
X-63716Y40254D01*
X-63695Y40180D01*
X-63670Y40106D01*
Y40103D01*
X-63665Y40097D01*
X-63661Y40087D01*
X-63656Y40071D01*
X-63647Y40055D01*
X-63635Y40034D01*
X-63624Y40009D01*
X-63610Y39983D01*
X-63594Y39953D01*
X-63575Y39921D01*
X-63534Y39852D01*
X-63483Y39778D01*
X-63425Y39699D01*
X-63423Y39697D01*
X-63420Y39692D01*
X-63413Y39685D01*
X-63404Y39674D01*
X-63390Y39658D01*
X-63374Y39639D01*
X-63356Y39618D01*
X-63332Y39595D01*
X-63307Y39568D01*
X-63277Y39538D01*
X-63245Y39503D01*
X-63208Y39466D01*
X-63169Y39427D01*
X-63125Y39385D01*
X-63076Y39339D01*
X-63023Y39290D01*
X-63021Y39288D01*
X-63011Y39279D01*
X-62995Y39265D01*
X-62977Y39246D01*
X-62954Y39226D01*
X-62926Y39202D01*
X-62898Y39175D01*
X-62868Y39147D01*
X-62806Y39087D01*
X-62743Y39029D01*
X-62716Y39002D01*
X-62693Y38978D01*
X-62669Y38955D01*
X-62653Y38937D01*
X-62651Y38932D01*
X-62642Y38923D01*
X-62626Y38905D01*
X-62609Y38884D01*
X-62589Y38858D01*
X-62568Y38828D01*
X-62547Y38798D01*
X-62529Y38768D01*
X-63748D01*
Y38200D01*
X-61600D01*
Y38232D01*
Y38205D01*
X-61602Y38214D01*
X-61605Y38232D01*
X-61609Y38255D01*
X-61614Y38283D01*
X-61621Y38318D01*
X-61628Y38355D01*
X-61639Y38396D01*
X-61651Y38443D01*
X-61667Y38491D01*
X-61683Y38540D01*
X-61702Y38593D01*
X-61725Y38646D01*
X-61750Y38701D01*
X-61778Y38754D01*
X-61808Y38810D01*
X-61810Y38812D01*
X-61817Y38824D01*
X-61829Y38840D01*
X-61843Y38863D01*
X-61863Y38891D01*
X-61891Y38925D01*
X-61923Y38967D01*
X-61960Y39013D01*
X-62004Y39066D01*
X-62053Y39124D01*
X-62111Y39186D01*
X-62173Y39256D01*
X-62244Y39330D01*
X-62321Y39406D01*
X-62406Y39489D01*
X-62499Y39577D01*
X-62501Y39579D01*
X-62503Y39581D01*
X-62517Y39593D01*
X-62538Y39614D01*
X-62566Y39639D01*
X-62598Y39671D01*
X-62635Y39706D01*
X-62674Y39745D01*
X-62718Y39787D01*
X-62804Y39875D01*
X-62847Y39916D01*
X-62887Y39960D01*
X-62926Y39999D01*
X-62958Y40036D01*
X-62986Y40071D01*
X-63007Y40099D01*
X-63009Y40101D01*
X-63011Y40108D01*
X-63018Y40117D01*
X-63028Y40131D01*
X-63037Y40150D01*
X-63046Y40168D01*
X-63058Y40191D01*
X-63072Y40217D01*
X-63095Y40274D01*
X-63113Y40337D01*
X-63129Y40406D01*
X-63131Y40441D01*
X-63134Y40475D01*
Y40478D01*
Y40485D01*
Y40494D01*
X-63131Y40510D01*
Y40526D01*
X-63129Y40545D01*
X-63120Y40591D01*
X-63106Y40642D01*
X-63088Y40695D01*
X-63060Y40743D01*
X-63041Y40769D01*
X-63023Y40789D01*
X-63021Y40792D01*
X-63018Y40794D01*
X-63011Y40799D01*
X-63002Y40808D01*
X-62991Y40815D01*
X-62977Y40824D01*
X-62961Y40836D01*
X-62944Y40845D01*
X-62901Y40866D01*
X-62847Y40884D01*
X-62787Y40896D01*
X-62753Y40898D01*
X-62718Y40900D01*
X-62700D01*
X-62686Y40898D01*
X-62669D01*
X-62651Y40894D01*
X-62607Y40887D01*
X-62559Y40873D01*
X-62506Y40852D01*
X-62482Y40838D01*
X-62457Y40824D01*
X-62434Y40806D01*
X-62411Y40785D01*
X-62409Y40783D01*
X-62406Y40780D01*
X-62399Y40773D01*
X-62392Y40762D01*
X-62383Y40750D01*
X-62374Y40734D01*
X-62365Y40716D01*
X-62353Y40695D01*
X-62341Y40669D01*
X-62330Y40642D01*
X-62318Y40609D01*
X-62309Y40575D01*
X-62300Y40535D01*
X-62291Y40494D01*
X-62286Y40450D01*
X-62281Y40401D01*
X-61672Y40462D01*
Y40464D01*
Y40468D01*
X-61674Y40475D01*
Y40485D01*
X-61676Y40496D01*
X-61678Y40510D01*
X-61686Y40545D01*
X-61692Y40586D01*
X-61704Y40632D01*
X-61718Y40686D01*
X-61734Y40741D01*
X-61755Y40801D01*
X-61778Y40861D01*
X-61806Y40921D01*
X-61838Y40981D01*
X-61873Y41039D01*
X-61914Y41092D01*
X-61960Y41143D01*
X-62011Y41187D01*
X-62014Y41189D01*
X-62025Y41196D01*
X-62041Y41208D01*
X-62062Y41221D01*
X-62092Y41238D01*
X-62124Y41256D01*
X-62166Y41277D01*
X-62210Y41298D01*
X-62258Y41319D01*
X-62314Y41339D01*
X-62374Y41358D01*
X-62436Y41374D01*
X-62506Y41388D01*
X-62577Y41399D01*
X-62653Y41406D01*
X-62732Y41409D01*
D02*
G37*
G36*
X-52500Y46909D02*
Y46100D01*
X-52502D01*
X-52512Y46105D01*
X-52523Y46109D01*
X-52542Y46116D01*
X-52565Y46126D01*
X-52590Y46135D01*
X-52620Y46149D01*
X-52655Y46165D01*
X-52692Y46186D01*
X-52731Y46206D01*
X-52775Y46229D01*
X-52819Y46257D01*
X-52867Y46287D01*
X-52916Y46319D01*
X-52967Y46356D01*
X-53020Y46396D01*
X-53022Y46398D01*
X-53031Y46405D01*
X-53048Y46419D01*
X-53066Y46435D01*
X-53089Y46456D01*
X-53114Y46481D01*
X-53142Y46509D01*
X-53175Y46541D01*
X-53205Y46578D01*
X-53237Y46617D01*
X-53269Y46659D01*
X-53302Y46705D01*
X-53332Y46751D01*
X-53359Y46802D01*
X-53385Y46856D01*
X-53405Y46909D01*
X-53904D01*
Y43700D01*
X-52500D01*
Y46909D01*
D02*
G37*
%LPD*%
G36*
X-53288Y46003D02*
X-53276Y45994D01*
X-53258Y45978D01*
X-53232Y45957D01*
X-53200Y45932D01*
X-53161Y45901D01*
X-53117Y45867D01*
X-53066Y45832D01*
X-53010Y45795D01*
X-52951Y45756D01*
X-52886Y45717D01*
X-52816Y45680D01*
X-52743Y45643D01*
X-52664Y45606D01*
X-52583Y45573D01*
X-52500Y45543D01*
Y43700D01*
X-53292D01*
Y46008D01*
X-53288Y46003D01*
D02*
G37*
D13*
X295000Y-1000D02*
G03*
X295000Y-1000I-295000J0D01*
G01*
M02*
