G04*
G04 #@! TF.GenerationSoftware,Altium Limited,Altium Designer,23.10.1 (27)*
G04*
G04 Layer_Physical_Order=1*
G04 Layer_Color=39423*
%FSLAX25Y25*%
%MOIN*%
G70*
G04*
G04 #@! TF.SameCoordinates,1313D058-037A-41F4-8C4B-E5D45CBE15D2*
G04*
G04*
G04 #@! TF.FilePolarity,Positive*
G04*
G01*
G75*
%ADD12C,0.02000*%
%ADD14C,0.01000*%
%ADD17C,0.00800*%
%ADD22R,0.04528X0.02264*%
%ADD23R,0.04528X0.01083*%
%ADD24R,0.07087X0.02362*%
%ADD25R,0.02756X0.03347*%
%ADD26R,0.10000X0.01378*%
%ADD27R,0.04921X0.05512*%
%ADD28R,0.04331X0.03150*%
%ADD29R,0.02362X0.02756*%
%ADD30R,0.03937X0.11024*%
%ADD31R,0.05118X0.07480*%
%ADD32R,0.03937X0.04724*%
%ADD33R,0.03937X0.03150*%
%ADD34R,0.02756X0.04724*%
%ADD35R,0.03347X0.02756*%
%ADD36R,0.08071X0.02362*%
%ADD37R,0.03543X0.03740*%
%ADD38R,0.08500X0.05500*%
%ADD39R,0.05000X0.10000*%
%ADD40R,0.05512X0.04921*%
%ADD41R,0.03740X0.03543*%
%ADD80C,0.03937*%
%ADD81C,0.03100*%
%ADD82C,0.01126*%
%ADD83C,0.20866*%
%ADD84C,0.05000*%
%ADD85O,0.08268X0.03937*%
%ADD86O,0.07087X0.03543*%
%ADD87C,0.28000*%
%ADD88C,0.03000*%
%ADD89C,0.06200*%
%ADD90R,0.06200X0.06200*%
%ADD91R,0.06200X0.06200*%
%ADD92C,0.09200*%
%ADD93C,0.03400*%
%ADD94C,0.06400*%
%ADD95R,0.06400X0.06400*%
%ADD96C,0.05906*%
%ADD97C,0.18661*%
%ADD98C,0.02800*%
D12*
X214300Y113300D02*
Y172100D01*
X200900Y175900D02*
X210500D01*
X214300Y172100D01*
X195000Y170000D02*
X200900Y175900D01*
X141000Y40000D02*
X214300Y113300D01*
X175700Y18200D02*
X352500D01*
X359555D01*
X121900D02*
X175700D01*
X67500Y40000D02*
X141000D01*
X20473Y-79174D02*
Y-78627D01*
X19800Y-79552D02*
X20095D01*
X20473Y-79174D01*
Y-78627D02*
X22400Y-76700D01*
X11000Y-219100D02*
Y-216248D01*
X9750Y-79454D02*
X9800Y-79504D01*
X9700Y-76900D02*
X9750Y-76950D01*
Y-79454D02*
Y-76950D01*
X-134881Y-40000D02*
X-134000Y-40881D01*
X-2500Y-227500D02*
Y-214600D01*
X-2600Y-214500D02*
X-2500Y-214600D01*
X57500Y35000D02*
Y45000D01*
Y35000D02*
X105100D01*
X121900Y18200D01*
X77573Y-23200D02*
X77773D01*
X40047Y-215248D02*
X42500D01*
X-139600Y-48500D02*
X-134390D01*
X-134000Y-48110D01*
X-38448Y-221252D02*
X-35500D01*
X-38600Y-221100D02*
X-38448Y-221252D01*
X-24100Y-215800D02*
X-23800D01*
X-23748Y-215748D01*
X-21000D01*
X-142398Y-40000D02*
X-134881D01*
X-134000Y-48110D02*
Y-40881D01*
X185100Y140000D02*
X195000D01*
X90100Y45000D02*
X185100Y140000D01*
X57500Y45000D02*
X90100D01*
D14*
X352500Y7700D02*
Y18200D01*
Y7700D02*
X356400Y3800D01*
X359513D01*
X370186Y9449D02*
X373543D01*
X369600Y10035D02*
Y15045D01*
Y10035D02*
X370186Y9449D01*
X366445Y17905D02*
X368406Y15944D01*
X368701D02*
X369600Y15045D01*
X368406Y15944D02*
X368701D01*
X366445Y17905D02*
Y18200D01*
X374467Y9527D02*
X375099Y8895D01*
X378405D01*
X381000Y-6300D02*
Y6300D01*
X378405Y8895D02*
X381000Y6300D01*
X378380Y-8920D02*
X381000Y-6300D01*
X374467Y-9371D02*
X374918Y-8920D01*
X378380D01*
X77773Y-23200D02*
X79299Y-21674D01*
X86000D01*
X357600Y-9500D02*
X357800Y-9700D01*
X360152D01*
X357100Y10100D02*
X357200Y10000D01*
X359952D01*
X57500Y35000D02*
X57700Y35200D01*
D17*
X356600Y-4163D02*
X359817D01*
X360300Y-3680D01*
X-105000Y214200D02*
X-50700Y159900D01*
Y35900D02*
Y159900D01*
X-76700Y268700D02*
X-71800Y273600D01*
X-22600D02*
X-19100Y270100D01*
X-71800Y273600D02*
X-22600D01*
X-29300Y216900D02*
X-19100Y227100D01*
Y270100D01*
X-27100Y270900D02*
X-23000Y266800D01*
Y232800D02*
Y266800D01*
X-52100Y270900D02*
X-27100D01*
X-34900Y240000D02*
Y258200D01*
X-45200Y259800D02*
X-36500D01*
X-34900Y258200D01*
X-50000Y255000D02*
X-45200Y259800D01*
X-55100Y259900D02*
Y267900D01*
X-52100Y270900D01*
X-60000Y255000D02*
X-55100Y259900D01*
X-29300Y142300D02*
Y216900D01*
X-5000Y57500D02*
Y118000D01*
X-29300Y142300D02*
X-5000Y118000D01*
X-35000Y63900D02*
Y122400D01*
X-40000Y127400D02*
Y255000D01*
Y127400D02*
X-35000Y122400D01*
X-37000Y130600D02*
Y237900D01*
X-32000Y78203D02*
Y125600D01*
X-37000Y130600D02*
X-32000Y125600D01*
X46600Y-118300D02*
X54900Y-126600D01*
X46600Y-118300D02*
Y-67100D01*
X39800Y-60300D02*
X46600Y-67100D01*
X37400Y-41600D02*
X49900Y-54100D01*
Y-73400D02*
Y-54100D01*
X-9800Y-41600D02*
X37400D01*
X-20000Y-51800D02*
X-9800Y-41600D01*
X31200Y-45200D02*
X39800Y-53800D01*
Y-60300D02*
Y-53800D01*
X-8200Y-45200D02*
X31200D01*
X-15000Y-52000D02*
X-8200Y-45200D01*
X23497Y-48100D02*
X30293Y-54896D01*
X-5300Y-48100D02*
X23497D01*
X-10000Y-52800D02*
X-5300Y-48100D01*
X20353Y-60753D02*
Y-54853D01*
X25000Y-72300D02*
Y-65400D01*
X20353Y-60753D02*
X25000Y-65400D01*
Y-72300D02*
X30100Y-77400D01*
X-26500Y-118900D02*
X-25249Y-117648D01*
X-20649D01*
X-26500Y-136800D02*
Y-118900D01*
X38100Y-208000D02*
X38852Y-208752D01*
X38100Y-208000D02*
Y-200600D01*
X38852Y-208752D02*
X42500D01*
X37500Y-200000D02*
X38100Y-200600D01*
X20800Y-222901D02*
Y-222900D01*
X16594Y-227106D02*
X20800Y-222901D01*
X5600Y-190300D02*
X5700Y-190400D01*
X-5900Y-190200D02*
X-5800Y-190300D01*
X5600D01*
X-15492Y-227500D02*
X-14700Y-226708D01*
Y-162000D02*
X5261Y-142039D01*
X-14700Y-226708D02*
Y-162000D01*
X-11900Y-185500D02*
X-6750Y-180350D01*
X-11900Y-204900D02*
Y-185500D01*
X-6750Y-180350D02*
X4250D01*
X11400Y-173200D01*
Y-153200D01*
X-11900Y-204900D02*
X-5990Y-210810D01*
X23400Y-29900D02*
X60300D01*
X-49100Y42600D02*
Y64300D01*
Y42600D02*
X23400Y-29900D01*
X-45900Y67500D02*
X-40000D01*
X-49100Y64300D02*
X-45900Y67500D01*
X-56600Y30000D02*
X-50700Y35900D01*
X71200Y-25400D02*
X72900Y-23700D01*
Y-15300D02*
X75975Y-12225D01*
X72900Y-23700D02*
Y-15300D01*
X201500Y-176500D02*
X219700D01*
X228000Y-168200D01*
X195000Y-170000D02*
X201500Y-176500D01*
X211258Y-145142D02*
X217300Y-139100D01*
X199858Y-145142D02*
X211258D01*
X195000Y-150000D02*
X199858Y-145142D01*
X86000Y-2776D02*
X154476D01*
X228000Y-149800D02*
Y-76300D01*
X154476Y-2776D02*
X228000Y-76300D01*
X-76100Y29800D02*
Y133200D01*
X-125000Y182100D02*
Y220000D01*
Y182100D02*
X-76100Y133200D01*
Y29800D02*
X-71300Y25000D01*
X-145000Y193000D02*
X-78100Y126100D01*
Y24500D02*
Y126100D01*
Y24500D02*
X-73600Y20000D01*
X-81900Y18800D02*
Y57200D01*
X-154400Y129700D02*
X-81900Y57200D01*
Y18800D02*
X-73100Y10000D01*
X-83800Y16100D02*
X-72700Y5000D01*
X-160300Y129600D02*
X-83800Y53100D01*
Y16100D02*
Y53100D01*
X-79900Y20700D02*
Y118200D01*
X-152100Y190400D02*
X-79900Y118200D01*
Y20700D02*
X-74200Y15000D01*
X-71300Y25000D02*
X-57500D01*
X-73600Y20000D02*
X-67500D01*
X-154400Y129700D02*
Y135300D01*
X-152100Y190400D02*
Y222300D01*
X-148848Y225552D02*
X-140551D01*
X-152100Y222300D02*
X-148848Y225552D01*
X-140551D02*
X-135000Y220000D01*
X-145000Y193000D02*
Y220000D01*
X-186300Y146500D02*
X-87300Y47500D01*
X-85600Y11800D02*
Y49497D01*
X-177400Y141297D02*
X-85600Y49497D01*
X-87300Y6400D02*
Y47500D01*
X-74200Y15000D02*
X-57500D01*
X-72700Y5000D02*
X-57500D01*
X44800Y-21900D02*
Y-7461D01*
X52261Y0D01*
X194800Y-129800D02*
X195000Y-130000D01*
X184900Y-129800D02*
X194800D01*
X77600Y-30900D02*
X85777D01*
X77400Y-31100D02*
X77600Y-30900D01*
X-17600Y81000D02*
X-17000Y81600D01*
X-23000Y81000D02*
X-17600D01*
X145000Y176500D02*
Y220000D01*
X65400Y104000D02*
X72500D01*
X145000Y176500D01*
X40000Y67500D02*
Y78600D01*
X65400Y104000D01*
X30000Y73700D02*
X64000Y107700D01*
X70391D01*
X125000Y162309D01*
X53414Y260000D02*
X55000Y258414D01*
X20000Y72700D02*
X55000Y107700D01*
Y258414D01*
X44000Y260000D02*
X53414D01*
X40000Y255000D02*
Y256000D01*
X44000Y260000D01*
X30000Y230900D02*
Y255000D01*
X38000Y145500D02*
Y222900D01*
X30000Y230900D02*
X38000Y222900D01*
X2500Y178500D02*
X6300Y182300D01*
X18500D01*
X-13600Y196000D02*
X8900D01*
X-17000Y192600D02*
X-13600Y196000D01*
X8900D02*
X15400Y202500D01*
X-31600Y224200D02*
X-23000Y232800D01*
X-31600Y137600D02*
Y224200D01*
Y137600D02*
X-10000Y116000D01*
X-34400Y233000D02*
X-30000Y237400D01*
X-34400Y133400D02*
Y233000D01*
Y133400D02*
X-28000Y127000D01*
X-76700Y261700D02*
Y268700D01*
Y261700D02*
X-70000Y255000D01*
X-30000Y237400D02*
Y255000D01*
X-37000Y237900D02*
X-34900Y240000D01*
X-28000Y79100D02*
Y127000D01*
X-10000Y67500D02*
Y116000D01*
X-32000Y78203D02*
X-25897Y72100D01*
X-23400Y74500D02*
X-18100D01*
X-28000Y79100D02*
X-23400Y74500D01*
X-18100D02*
X-15000Y71400D01*
X-25897Y72100D02*
X-20900D01*
X-20000Y67500D02*
Y71200D01*
X-20900Y72100D02*
X-20000Y71200D01*
X-35000Y63900D02*
X-33500Y62400D01*
X-29900D02*
X-25000Y57500D01*
X-33500Y62400D02*
X-29900D01*
X30000Y67500D02*
Y73700D01*
X60000Y108200D02*
Y255000D01*
X24796Y64996D02*
Y72996D01*
X60000Y108200D01*
X19700Y62200D02*
X22000D01*
X24796Y64996D01*
X15000Y57500D02*
X19700Y62200D01*
X20000Y67500D02*
Y72700D01*
X15300Y80250D02*
X15950Y80900D01*
X15300Y63900D02*
Y80250D01*
X9600Y58200D02*
X15300Y63900D01*
X6700Y80900D02*
X15950D01*
X16650Y81600D01*
X9600Y40900D02*
X12700Y37800D01*
X16650Y81600D02*
X17000D01*
X9600Y40900D02*
Y58200D01*
X74527Y373D02*
X86000D01*
X70400Y4500D02*
X74527Y373D01*
X65400Y4500D02*
X70400D01*
X75975Y-12225D02*
X86000D01*
X-19100Y31600D02*
X2700D01*
X24400Y9900D01*
X60000D01*
X65400Y4500D01*
X75700Y-2776D02*
X86000D01*
X52261Y0D02*
X67500D01*
X64800Y-25400D02*
X71200D01*
X60300Y-29900D02*
X64800Y-25400D01*
X69100Y-14200D02*
X71154D01*
X76279Y-9076D02*
X86000D01*
X71154Y-14200D02*
X76279Y-9076D01*
X78122Y-15375D02*
X86000D01*
X78097Y-15400D02*
X78122Y-15375D01*
X77000Y-15300D02*
X77100Y-15400D01*
X78097D01*
X67500Y-15800D02*
X69100Y-14200D01*
X67500Y-20000D02*
Y-15800D01*
X40476Y-33976D02*
X46500Y-40000D01*
X20376Y-33976D02*
X40476D01*
X46500Y-40000D02*
X67500D01*
X54900Y-151700D02*
Y-126600D01*
Y-151700D02*
X85000Y-181800D01*
X19800Y-86048D02*
X20000Y-86248D01*
Y-117000D02*
Y-86248D01*
X48300Y-156992D02*
Y-129600D01*
X34700Y-116000D02*
X48300Y-129600D01*
X34700Y-116000D02*
Y-65800D01*
X30100Y-119200D02*
Y-77400D01*
Y-119200D02*
X42500Y-131600D01*
X85000Y-220000D02*
Y-181800D01*
X65900Y-219100D02*
Y-181600D01*
X42500Y-158200D02*
X65900Y-181600D01*
X65000Y-220000D02*
X65900Y-219100D01*
X48300Y-156992D02*
X75000Y-183692D01*
X49900Y-73400D02*
X95000Y-118500D01*
X30293Y-61393D02*
X34700Y-65800D01*
X30293Y-61393D02*
Y-54896D01*
X17300Y-51800D02*
X20353Y-54853D01*
X-4451Y-54452D02*
X-1800Y-51800D01*
X17300D01*
X-4451Y-56951D02*
Y-54452D01*
X-5000Y-57500D02*
X-4451Y-56951D01*
X-10000Y-67500D02*
Y-52800D01*
X-15000Y-57500D02*
Y-52000D01*
X-20000Y-67500D02*
Y-51800D01*
X2000Y-227331D02*
Y-219200D01*
X1831Y-227500D02*
X2000Y-227331D01*
X-5990Y-210810D02*
X2210D01*
X6161Y-227500D02*
Y-214761D01*
X2210Y-210810D02*
X6161Y-214761D01*
X-11300Y-227361D02*
X-11161Y-227500D01*
X-11300Y-227361D02*
Y-223200D01*
X-17100Y-218600D02*
Y-159600D01*
X-19823Y-221323D02*
X-17100Y-218600D01*
X-19823Y-227500D02*
Y-221323D01*
X-17100Y-159600D02*
X-5100Y-147600D01*
Y-82600D01*
X5261Y-142039D02*
Y-86400D01*
X10000Y-117000D02*
Y-86200D01*
X9800Y-86000D02*
X10000Y-86200D01*
X-5100Y-82600D02*
X10000Y-67500D01*
X-75000Y-220000D02*
Y-127100D01*
X-30000Y-82100D01*
Y-67500D01*
X-85000Y-123600D02*
X-34400Y-73000D01*
Y-63000D01*
X-85000Y-220000D02*
Y-123600D01*
X-34400Y-63000D02*
X-28900Y-57500D01*
X-71300Y-35400D02*
X-64000D01*
X-75900Y-40000D02*
X-71300Y-35400D01*
X-64000D02*
X-59700Y-39700D01*
X-114851Y-31749D02*
Y-23052D01*
X-111800Y-20000D02*
X-92748D01*
X-114851Y-23052D02*
X-111800Y-20000D01*
X-232202Y-12099D02*
Y77700D01*
X-225059Y84842D01*
X-178646Y-17000D02*
X-174946Y-20700D01*
X-227300Y-17000D02*
X-178646D01*
X-232202Y-12099D02*
X-227300Y-17000D01*
X-252190Y-4000D02*
X-245100D01*
X-228300Y-20800D02*
X-191200D01*
X-245100Y-4000D02*
X-228300Y-20800D01*
X-134200Y-55200D02*
X-134000Y-55000D01*
X-134200Y-59400D02*
Y-55200D01*
X-150600Y-81748D02*
X-148100D01*
X-147403Y-81051D01*
X-142000D01*
X-170473Y-75000D02*
X-159000D01*
X-153252Y-75500D02*
X-148348D01*
X-148100Y-75252D01*
X-153752Y-75000D02*
X-153252Y-75500D01*
X-148100Y-75252D02*
X-142303D01*
X-142000Y-74949D01*
X-142148Y-74752D02*
Y-74702D01*
X-143472Y-73379D02*
X-142148Y-74702D01*
X-161700Y-55200D02*
X-143521Y-73379D01*
X-161700Y-55200D02*
Y-34600D01*
X-143521Y-73379D02*
X-143472D01*
X-166300Y-30000D02*
X-161700Y-34600D01*
X-132800Y-101500D02*
X-86252Y-54952D01*
Y-46500D01*
X-140600Y-107300D02*
X-131100D01*
X-77300Y-53500D01*
X-28900Y-39700D02*
X-26300Y-37100D01*
X-59700Y-39700D02*
X-28900D01*
X-81600Y-40000D02*
X-75900D01*
X-86252D02*
X-81600D01*
X-86252Y-20000D02*
X-67500D01*
X-86252Y-27000D02*
X-82000D01*
X-79779Y-26579D02*
X-78200Y-25000D01*
X-81579Y-26579D02*
X-79779D01*
X-82000Y-27000D02*
X-81579Y-26579D01*
X-78200Y-25000D02*
X-57500D01*
X-105433Y-30000D02*
X-99235D01*
X-96236Y-27000D01*
X-92748D01*
X-114851Y-31749D02*
X-111600Y-35000D01*
X-147500Y-10800D02*
Y-6748D01*
X-146300Y23500D02*
Y45400D01*
Y23500D02*
X-137400Y14600D01*
X-124800D02*
X-120100Y9900D01*
X-137400Y14600D02*
X-124800D01*
X-120100Y1100D02*
Y9900D01*
X-123700Y-2500D02*
X-120100Y1100D01*
X-130531Y-2500D02*
X-123700D01*
X-153752Y75000D02*
X-141551D01*
X-140500Y75051D02*
X-136651D01*
X-132000Y70400D01*
Y59700D02*
Y70400D01*
X-146300Y45400D02*
X-132000Y59700D01*
X-122400Y21500D02*
X-118900Y25000D01*
X-122400Y18000D02*
Y21500D01*
X-118900Y25000D02*
X-109468D01*
X-100000Y40051D02*
X-93400D01*
Y14750D02*
Y40051D01*
X-109417D02*
X-100000D01*
Y8150D02*
X-93400Y14750D01*
Y40051D02*
Y42900D01*
X-89300Y2100D02*
X-77200Y-10000D01*
X-89300Y2100D02*
Y45300D01*
X-144300Y100300D02*
X-89300Y45300D01*
X-85600Y11800D02*
X-73800Y0D01*
X-67500D01*
X-73100Y10000D02*
X-67500D01*
X-177400Y141297D02*
Y156000D01*
X-186300Y146500D02*
Y153600D01*
X-150600Y100300D02*
X-144300D01*
X-190300Y140000D02*
X-150600Y100300D01*
X-195000Y140000D02*
X-190300D01*
X-87300Y6400D02*
X-75900Y-5000D01*
X-181200Y159800D02*
X-177400Y156000D01*
X-194800Y159800D02*
X-181200D01*
X-168700Y149600D02*
X-154400Y135300D01*
X-160548Y0D02*
X-160248Y-300D01*
X-222972Y0D02*
X-160548D01*
X-141000Y-1047D02*
Y-949D01*
X-153752Y-300D02*
X-141649D01*
X-141000Y-1047D02*
X-139528Y-2519D01*
X-112323Y-7500D02*
X-110400D01*
X-122823Y-18000D02*
X-112323Y-7500D01*
X-147100Y-18000D02*
X-122823D01*
X-153752Y-11348D02*
X-147100Y-18000D01*
X-153752Y-11348D02*
Y-300D01*
X-141649D02*
X-141000Y-949D01*
X-130531Y-7500D02*
X-130500Y-7531D01*
Y-14500D02*
Y-7531D01*
X136848Y-78600D02*
X142100D01*
X142600D01*
X116173Y-27973D02*
X130352Y-42152D01*
Y-78600D02*
Y-42152D01*
X137176Y-9076D02*
X181800Y-53700D01*
Y-131500D02*
X190300Y-140000D01*
X181800Y-131500D02*
Y-53700D01*
X-227559Y-65158D02*
Y-48859D01*
X-204400Y-25700D02*
X-153700D01*
X-227559Y-48859D02*
X-204400Y-25700D01*
X-172500Y-130000D02*
X-144000Y-101500D01*
X-132800D01*
X-195000Y-130000D02*
X-172500D01*
X-173300Y-140000D02*
X-140600Y-107300D01*
X-195000Y-140000D02*
X-173300D01*
X-69100Y-46500D02*
X-65900Y-49700D01*
X-52800D02*
X-45000Y-57500D01*
X-65900Y-49700D02*
X-52800D01*
X-86252Y-46500D02*
X-69100D01*
X-13349Y182600D02*
X-7200D01*
X-2500Y177900D01*
X-17000Y186251D02*
X-13349Y182600D01*
X-17000Y186251D02*
Y192600D01*
X-20649Y-117648D02*
X-20000Y-117000D01*
X-26500Y-136800D02*
X-21000Y-142300D01*
X-6800Y-227469D02*
Y-216800D01*
X-23700Y-37100D02*
X-23624Y-37024D01*
X-26300Y-37100D02*
X-23700D01*
X228000Y-168200D02*
Y-149800D01*
X217300Y-139100D02*
Y-75100D01*
X86000Y-27973D02*
X116173D01*
X99724Y-24824D02*
X99800Y-24900D01*
X86000Y-24824D02*
X99724D01*
X376009Y-16930D02*
X376731D01*
X374467Y-15389D02*
Y-12520D01*
Y-15389D02*
X376009Y-16930D01*
X374467Y12676D02*
Y15544D01*
X376009Y17086D01*
X376731D01*
X366648Y-9700D02*
Y-9405D01*
X369113Y-6940D01*
Y-6387D01*
X370657Y-4843D01*
X374467D01*
X369185Y6968D02*
X374467D01*
X366448Y9705D02*
X369185Y6968D01*
X366448Y9705D02*
Y10000D01*
X58037Y-5537D02*
X85611D01*
X57500Y-5000D02*
X58037Y-5537D01*
X85611D02*
X86000Y-5926D01*
X148126D01*
X77723Y3523D02*
X86000D01*
X77700Y3500D02*
X77723Y3523D01*
X76800Y-18600D02*
X76900D01*
X76976Y-18524D01*
X86000D01*
X85777Y-30900D02*
X86000Y-31123D01*
Y-9076D02*
X137176D01*
X148126Y-5926D02*
X217300Y-75100D01*
X16594Y-227500D02*
Y-227106D01*
X-96900Y33900D02*
Y33949D01*
X-100000D02*
X-96900D01*
X-97100Y33900D02*
X-96900D01*
X-24000Y98600D02*
X-23200Y99400D01*
X-17000D01*
X23948Y98200D02*
X24300Y98551D01*
X18200Y98200D02*
X23948D01*
X24300Y98551D02*
Y99100D01*
X17000Y99400D02*
X18200Y98200D01*
X-135700Y24900D02*
X-135600Y25000D01*
X-136100Y24900D02*
X-135700D01*
X-135600Y25000D02*
X-130531D01*
X-153147Y-84000D02*
X-150895Y-81748D01*
X-153300Y-84000D02*
X-153147D01*
X-150895Y-81748D02*
X-150600D01*
X25300Y-293100D02*
Y-287495D01*
Y-293100D02*
X25400Y-293200D01*
X25300Y-287495D02*
X25846Y-286949D01*
X-27303Y-293003D02*
Y-285177D01*
X-27600Y-293300D02*
X-27303Y-293003D01*
X-31061Y-268839D02*
X-27303D01*
X-31100Y-268800D02*
X-31061Y-268839D01*
X-37500Y-171500D02*
Y-165000D01*
Y-171500D02*
X-37200Y-171800D01*
X-27600Y-171500D02*
X-27500Y-171400D01*
X-27600Y-171700D02*
Y-171500D01*
X-27500Y-171400D02*
Y-165000D01*
X37400Y-171900D02*
X37500Y-171800D01*
Y-165000D01*
X27500Y-171500D02*
X27600Y-171600D01*
Y-171700D02*
Y-171600D01*
X27500Y-171500D02*
Y-165000D01*
X5000Y-171400D02*
Y-165000D01*
X4600Y-171800D02*
X5000Y-171400D01*
X-5200Y-172200D02*
X-5000Y-172000D01*
Y-165000D01*
X-100551Y7500D02*
X-100000Y8051D01*
X-109468Y7500D02*
X-100551D01*
X-100000Y8051D02*
Y8150D01*
X-109468Y40000D02*
X-109417Y40051D01*
X-45000Y57500D02*
X-19100Y31600D01*
X-32200Y-244600D02*
X-31900D01*
X-31729Y-244429D01*
X-27303D01*
X-35500Y-227748D02*
X-35252Y-227500D01*
X-23563D01*
X-25300Y-205247D02*
X-21295Y-209252D01*
X-25300Y-205247D02*
Y-202200D01*
X-21295Y-209252D02*
X-21000D01*
X-27500Y-200000D02*
X-25300Y-202200D01*
X7200Y-206247D02*
X10705Y-209752D01*
X7200Y-206247D02*
Y-202200D01*
X5000Y-200000D02*
X7200Y-202200D01*
X10705Y-209752D02*
X11000D01*
X11200Y-209552D02*
Y-206200D01*
X11000Y-209752D02*
X11200Y-209552D01*
X15000Y-222008D02*
Y-57500D01*
X10492Y-226516D02*
X15000Y-222008D01*
X-147600Y65600D02*
X-147500Y65500D01*
X-147600Y68652D02*
X-147500Y68752D01*
X-147600Y65600D02*
Y68652D01*
X-140500Y65600D02*
Y68949D01*
X-141000Y-10400D02*
Y-7051D01*
X-141200Y-10600D02*
X-141000Y-10400D01*
X-152300Y-40000D02*
X-148500D01*
X-134567Y-30000D02*
X-124600D01*
X-108100Y-46500D01*
X-92748D01*
X-100300Y-25000D02*
X-100000Y-25300D01*
X-105433Y-25000D02*
X-100300D01*
X-97100Y-1100D02*
X-97000Y-1200D01*
X-97100Y-1100D02*
Y-1050D01*
X-100000Y1850D02*
X-97100Y-1050D01*
X-100000Y1850D02*
Y1949D01*
X-109468Y-2500D02*
Y2500D01*
X-195000Y160000D02*
X-194800Y159800D01*
X-174946Y-20700D02*
X-132200D01*
X-266033Y9843D02*
X-252190Y-4000D01*
X-280059Y9843D02*
X-266033D01*
X0Y67500D02*
Y104000D01*
X9500Y113500D01*
X-100Y163700D02*
Y171100D01*
X-200Y163600D02*
X-100Y163700D01*
X-2500Y173500D02*
X-100Y171100D01*
X-2500Y177900D02*
Y178500D01*
X-105000Y214200D02*
Y220000D01*
X-15000Y57500D02*
Y71400D01*
X-67500Y30000D02*
X-56600D01*
X-109568Y2400D02*
X-109468Y2500D01*
X-115900Y2400D02*
X-109568D01*
X-75900Y-5000D02*
X-57500D01*
X-77200Y-10000D02*
X-67500D01*
X-84799Y-15000D02*
X-57500D01*
X-86004Y-13795D02*
X-84799Y-15000D01*
X-101300Y30000D02*
X-98600Y27300D01*
X-109468Y30000D02*
X-101300D01*
X-109468D02*
Y35000D01*
X-130531Y7500D02*
X-124600D01*
X-124100Y8000D01*
X-130531Y2500D02*
Y7500D01*
X-167973Y75000D02*
X-160248D01*
X-160248Y75000D01*
X-134567Y-25000D02*
X-122900D01*
X-111400Y-13500D02*
X-92500D01*
X-122900Y-25000D02*
X-111400Y-13500D01*
X-111600Y-35000D02*
X-105433D01*
X-134567D02*
X-133767Y-34200D01*
X-129700D01*
X-96600Y-33500D02*
X-92748D01*
X-96900Y-33200D02*
X-96600Y-33500D01*
X-105433Y-40000D02*
X-92748D01*
X-197352Y-152848D02*
X-195000Y-150497D01*
X-197352Y-152848D02*
X-195600Y-154600D01*
X-195000Y-150497D02*
Y-150000D01*
X-195600Y-154600D02*
X-108300D01*
X-86004Y-13795D02*
Y-13500D01*
X-73000Y-30400D02*
X-67900D01*
X-67500Y-30000D01*
X-76100Y-33500D02*
X-73000Y-30400D01*
X-86252Y-33500D02*
X-76100D01*
X-28900Y-57500D02*
X-25000D01*
X-21000Y-191000D02*
Y-142300D01*
X-27500Y-200000D02*
Y-197500D01*
X-21000Y-191000D01*
X-37500Y-200000D02*
X-27500D01*
X-5000D02*
X5000D01*
X11400Y-153200D02*
X11600Y-153000D01*
X24600Y-185700D02*
X27500Y-188600D01*
Y-200000D02*
Y-188600D01*
Y-200000D02*
X37500D01*
X-20200Y-101500D02*
X-20000Y-101700D01*
Y-117000D02*
Y-101700D01*
X42500Y-158200D02*
Y-131600D01*
X75000Y-220000D02*
Y-183692D01*
X95000Y-220000D02*
Y-118500D01*
X-23563Y-223363D02*
X-23500Y-223300D01*
Y-223000D01*
X-23563Y-227500D02*
Y-223363D01*
X10492Y-227500D02*
Y-226516D01*
X190300Y-140000D02*
X195000D01*
X105000Y147400D02*
Y220000D01*
X100100Y142500D02*
X105000Y147400D01*
X125000Y162309D02*
Y220000D01*
X20081Y113500D02*
X49500Y142919D01*
X9500Y113500D02*
X20081D01*
X49500Y142919D02*
Y254500D01*
X50000Y255000D01*
D22*
X373543Y-12598D02*
D03*
X373543Y-9449D02*
D03*
Y9449D02*
D03*
X373543Y12598D02*
D03*
D23*
X373543Y-6890D02*
D03*
Y-4921D02*
D03*
X373543Y-2953D02*
D03*
X373543Y-984D02*
D03*
X373543Y984D02*
D03*
X373543Y2953D02*
D03*
X373543Y4921D02*
D03*
X373543Y6890D02*
D03*
D24*
X-134567Y-25000D02*
D03*
Y-30000D02*
D03*
Y-35000D02*
D03*
Y-40000D02*
D03*
X-105433Y-25000D02*
D03*
Y-30000D02*
D03*
Y-35000D02*
D03*
Y-40000D02*
D03*
D25*
X136848Y-78600D02*
D03*
X130352D02*
D03*
X360152Y-9700D02*
D03*
X366648D02*
D03*
X359952Y10000D02*
D03*
X366448D02*
D03*
X-153752Y-75000D02*
D03*
X-160248D02*
D03*
X-153752Y75000D02*
D03*
X-160248D02*
D03*
X-92748Y-40000D02*
D03*
X-86252D02*
D03*
X-92748Y-33500D02*
D03*
X-86252D02*
D03*
X-92748Y-27000D02*
D03*
X-86252D02*
D03*
X-92748Y-20000D02*
D03*
X-86252D02*
D03*
X-92500Y-13500D02*
D03*
X-86004D02*
D03*
X-92748Y-46500D02*
D03*
X-86252D02*
D03*
X-153752Y-300D02*
D03*
X-160248D02*
D03*
D26*
X86000Y-21674D02*
D03*
Y-24824D02*
D03*
Y-27973D02*
D03*
Y3523D02*
D03*
Y373D02*
D03*
Y-2776D02*
D03*
Y-5926D02*
D03*
Y-9076D02*
D03*
Y-12225D02*
D03*
Y-15375D02*
D03*
Y-18524D02*
D03*
Y-31123D02*
D03*
D27*
X366445Y18200D02*
D03*
X359555D02*
D03*
D28*
X360300Y-3680D02*
D03*
D29*
X367000D02*
D03*
Y3800D02*
D03*
X359513D02*
D03*
D30*
X-27303Y-285177D02*
D03*
D31*
X25846Y-286949D02*
D03*
D32*
X-27303Y-244429D02*
D03*
X16594Y-227500D02*
D03*
D33*
X-27303Y-268839D02*
D03*
D34*
X-19823Y-227500D02*
D03*
X-15492Y-227500D02*
D03*
X-11161D02*
D03*
X-6831D02*
D03*
X-2500Y-227500D02*
D03*
X1831Y-227500D02*
D03*
X6161Y-227500D02*
D03*
X10492D02*
D03*
X-23563D02*
D03*
D35*
X9800Y-79504D02*
D03*
Y-86000D02*
D03*
X-148100Y-75252D02*
D03*
Y-81748D02*
D03*
X42500Y-215248D02*
D03*
Y-208752D02*
D03*
X11000Y-216248D02*
D03*
Y-209752D02*
D03*
X-21000Y-215748D02*
D03*
Y-209252D02*
D03*
X-35500Y-227748D02*
D03*
Y-221252D02*
D03*
X-147500Y75248D02*
D03*
Y68752D02*
D03*
Y-252D02*
D03*
Y-6748D02*
D03*
X19800Y-86048D02*
D03*
Y-79552D02*
D03*
D36*
X-109468Y30000D02*
D03*
Y35000D02*
D03*
X-130531D02*
D03*
X-109468Y40000D02*
D03*
X-130531Y25000D02*
D03*
Y30000D02*
D03*
Y40000D02*
D03*
X-109468Y25000D02*
D03*
Y-2500D02*
D03*
Y2500D02*
D03*
X-130531D02*
D03*
X-109468Y7500D02*
D03*
X-130531Y-7500D02*
D03*
Y-2500D02*
D03*
Y7500D02*
D03*
X-109468Y-7500D02*
D03*
D37*
X-100000Y8051D02*
D03*
Y1949D02*
D03*
X-142000Y-74949D02*
D03*
Y-81051D02*
D03*
X-100000Y40051D02*
D03*
Y33949D02*
D03*
X-140500Y75051D02*
D03*
Y68949D02*
D03*
X-141000Y-949D02*
D03*
Y-7051D02*
D03*
D38*
X17000Y99400D02*
D03*
X-17000D02*
D03*
X17000Y81600D02*
D03*
X-17000D02*
D03*
D39*
X37500Y-200000D02*
D03*
Y-165000D02*
D03*
X27500Y-200000D02*
D03*
Y-165000D02*
D03*
X-5000D02*
D03*
Y-200000D02*
D03*
X5000Y-165000D02*
D03*
Y-200000D02*
D03*
X-27500D02*
D03*
Y-165000D02*
D03*
X-37500Y-200000D02*
D03*
Y-165000D02*
D03*
D40*
X-134000Y-48110D02*
D03*
Y-55000D02*
D03*
D41*
X-142398Y-40000D02*
D03*
X-148500D02*
D03*
D80*
X-112500Y112500D02*
D03*
X112500D02*
D03*
Y-112500D02*
D03*
X-112500D02*
D03*
D81*
X-2500Y183500D02*
D03*
X2500D02*
D03*
X-2500Y178500D02*
D03*
X2500Y173500D02*
D03*
X-2500D02*
D03*
X2500Y178500D02*
D03*
D82*
X366092Y1063D02*
X366752Y1723D01*
X366382Y-3062D02*
X367000Y-3680D01*
X366752Y1723D02*
Y2932D01*
X168590Y1063D02*
X366092D01*
X366382Y-3062D02*
Y-1523D01*
X365722Y-863D02*
X366382Y-1523D01*
X168590Y-863D02*
X365722D01*
X167853Y1800D02*
X168590Y1063D01*
X167853Y-1600D02*
X168590Y-863D01*
X367000Y2948D02*
X369500D01*
X367000D02*
Y3800D01*
X369500Y2953D02*
X373543D01*
X369500Y-324D02*
X370160Y-984D01*
X369500Y-324D02*
Y2953D01*
X370160Y-984D02*
X373543D01*
X367000Y-2932D02*
X373521D01*
X378200Y-2293D02*
Y324D01*
X373543Y984D02*
X377540D01*
X378200Y324D01*
X373543Y-2953D02*
X377540D01*
X373521Y-2932D02*
X373543Y-2953D01*
X377540D02*
X378200Y-2293D01*
X167400Y-1600D02*
X167853D01*
X167400Y1800D02*
X167853D01*
D83*
X-62500Y62500D02*
D03*
X62500D02*
D03*
Y-62500D02*
D03*
X-62500D02*
D03*
D84*
X45000Y57500D02*
D03*
X-45000D02*
D03*
X-40000Y67500D02*
D03*
X-35000Y57500D02*
D03*
X-30000Y67500D02*
D03*
X-25000Y57500D02*
D03*
X-20000Y67500D02*
D03*
X-15000Y57500D02*
D03*
X-10000Y67500D02*
D03*
X-5000Y57500D02*
D03*
X0Y67500D02*
D03*
X5000Y57500D02*
D03*
X10000Y67500D02*
D03*
X15000Y57500D02*
D03*
X20000Y67500D02*
D03*
X25000Y57500D02*
D03*
X30000Y67500D02*
D03*
X35000Y57500D02*
D03*
X40000Y67500D02*
D03*
X57500Y45000D02*
D03*
X67500Y40000D02*
D03*
X57500Y35000D02*
D03*
X67500Y30000D02*
D03*
X57500Y25000D02*
D03*
X67500Y20000D02*
D03*
X57500Y15000D02*
D03*
X67500Y10000D02*
D03*
X57500Y5000D02*
D03*
X67500Y0D02*
D03*
X57500Y-5000D02*
D03*
X67500Y-10000D02*
D03*
X57500Y-15000D02*
D03*
X67500Y-20000D02*
D03*
X57500Y-25000D02*
D03*
X67500Y-30000D02*
D03*
X57500Y-35000D02*
D03*
X67500Y-40000D02*
D03*
X57500Y-45000D02*
D03*
X45000Y-57500D02*
D03*
X40000Y-67500D02*
D03*
X35000Y-57500D02*
D03*
X30000Y-67500D02*
D03*
X25000Y-57500D02*
D03*
X20000Y-67500D02*
D03*
X15000Y-57500D02*
D03*
X10000Y-67500D02*
D03*
X5000Y-57500D02*
D03*
X0Y-67500D02*
D03*
X-5000Y-57500D02*
D03*
X-10000Y-67500D02*
D03*
X-15000Y-57500D02*
D03*
X-20000Y-67500D02*
D03*
X-25000Y-57500D02*
D03*
X-30000Y-67500D02*
D03*
X-35000Y-57500D02*
D03*
X-40000Y-67500D02*
D03*
X-45000Y-57500D02*
D03*
X-57500Y-45000D02*
D03*
X-67500Y-40000D02*
D03*
X-57500Y-35000D02*
D03*
X-67500Y-30000D02*
D03*
X-57500Y-25000D02*
D03*
X-67500Y-20000D02*
D03*
X-57500Y-15000D02*
D03*
X-67500Y-10000D02*
D03*
X-57500Y-5000D02*
D03*
X-67500Y0D02*
D03*
X-57500Y5000D02*
D03*
X-67500Y10000D02*
D03*
X-57500Y15000D02*
D03*
X-67500Y20000D02*
D03*
X-57500Y25000D02*
D03*
X-67500Y30000D02*
D03*
X-57500Y35000D02*
D03*
X-67500Y40000D02*
D03*
X-57500Y45000D02*
D03*
D85*
X375807Y17008D02*
D03*
Y-17008D02*
D03*
D86*
X392264Y17008D02*
D03*
Y-17008D02*
D03*
D87*
X-132500Y132500D02*
D03*
Y-132500D02*
D03*
X132500D02*
D03*
Y132500D02*
D03*
D88*
X-121800D02*
D03*
X-143200D02*
D03*
X-142385Y128405D02*
D03*
X-122615Y136595D02*
D03*
X-140066Y124934D02*
D03*
X-124934Y140066D02*
D03*
X-136595Y122615D02*
D03*
X-128405Y142385D02*
D03*
X-132500Y121800D02*
D03*
Y143200D02*
D03*
X-128405Y122615D02*
D03*
X-136595Y142385D02*
D03*
X-124934Y124934D02*
D03*
X-140066Y140066D02*
D03*
X-122615Y128405D02*
D03*
X-142385Y136595D02*
D03*
X-121800Y-132500D02*
D03*
X-143200D02*
D03*
X-142385Y-136595D02*
D03*
X-122615Y-128405D02*
D03*
X-140066Y-140066D02*
D03*
X-124934Y-124934D02*
D03*
X-136595Y-142385D02*
D03*
X-128405Y-122615D02*
D03*
X-132500Y-143200D02*
D03*
Y-121800D02*
D03*
X-128405Y-142385D02*
D03*
X-136595Y-122615D02*
D03*
X-124934Y-140066D02*
D03*
X-140066Y-124934D02*
D03*
X-122615Y-136595D02*
D03*
X-142385Y-128405D02*
D03*
X143200Y-132500D02*
D03*
X121800D02*
D03*
X122615Y-136595D02*
D03*
X142385Y-128405D02*
D03*
X124934Y-140066D02*
D03*
X140066Y-124934D02*
D03*
X128405Y-142385D02*
D03*
X136595Y-122615D02*
D03*
X132500Y-143200D02*
D03*
Y-121800D02*
D03*
X136595Y-142385D02*
D03*
X128405Y-122615D02*
D03*
X140066Y-140066D02*
D03*
X124934Y-124934D02*
D03*
X142385Y-136595D02*
D03*
X122615Y-128405D02*
D03*
X143200Y132500D02*
D03*
X121800D02*
D03*
X122615Y128405D02*
D03*
X142385Y136595D02*
D03*
X124934Y124934D02*
D03*
X140066Y140066D02*
D03*
X128405Y122615D02*
D03*
X136595Y142385D02*
D03*
X132500Y121800D02*
D03*
Y143200D02*
D03*
X136595Y122615D02*
D03*
X128405Y142385D02*
D03*
X140066Y124934D02*
D03*
X124934Y140066D02*
D03*
X142385Y128405D02*
D03*
X122615Y136595D02*
D03*
D89*
X145000Y230000D02*
D03*
Y220000D02*
D03*
X135000Y230000D02*
D03*
Y220000D02*
D03*
X125000Y230000D02*
D03*
Y220000D02*
D03*
X115000Y230000D02*
D03*
Y220000D02*
D03*
X105000Y230000D02*
D03*
X205000Y170000D02*
D03*
X195000Y160000D02*
D03*
X205000D02*
D03*
X195000Y150000D02*
D03*
X205000D02*
D03*
X195000Y140000D02*
D03*
X205000D02*
D03*
X195000Y130000D02*
D03*
X205000D02*
D03*
X70000Y265000D02*
D03*
Y255000D02*
D03*
X60000Y265000D02*
D03*
Y255000D02*
D03*
X50000Y265000D02*
D03*
Y255000D02*
D03*
X40000Y265000D02*
D03*
Y255000D02*
D03*
X30000Y265000D02*
D03*
X-70000D02*
D03*
X-60000Y255000D02*
D03*
Y265000D02*
D03*
X-50000Y255000D02*
D03*
Y265000D02*
D03*
X-40000Y255000D02*
D03*
Y265000D02*
D03*
X-30000Y255000D02*
D03*
Y265000D02*
D03*
X-205000Y130000D02*
D03*
X-195000Y140000D02*
D03*
X-205000D02*
D03*
X-195000Y150000D02*
D03*
X-205000D02*
D03*
X-195000Y160000D02*
D03*
X-205000D02*
D03*
X-195000Y170000D02*
D03*
X-205000D02*
D03*
Y-130000D02*
D03*
X-195000D02*
D03*
X-205000Y-140000D02*
D03*
X-195000D02*
D03*
X-205000Y-150000D02*
D03*
X-195000D02*
D03*
X-205000Y-160000D02*
D03*
X-195000D02*
D03*
X-205000Y-170000D02*
D03*
X55000Y-230000D02*
D03*
Y-220000D02*
D03*
X65000Y-230000D02*
D03*
Y-220000D02*
D03*
X75000Y-230000D02*
D03*
Y-220000D02*
D03*
X85000Y-230000D02*
D03*
Y-220000D02*
D03*
X95000Y-230000D02*
D03*
X-55000D02*
D03*
X-65000Y-220000D02*
D03*
Y-230000D02*
D03*
X-75000Y-220000D02*
D03*
Y-230000D02*
D03*
X-85000Y-220000D02*
D03*
Y-230000D02*
D03*
X-95000Y-220000D02*
D03*
Y-230000D02*
D03*
X20000Y-127000D02*
D03*
X10000Y-117000D02*
D03*
Y-127000D02*
D03*
X0Y-117000D02*
D03*
Y-127000D02*
D03*
X-10000Y-117000D02*
D03*
Y-127000D02*
D03*
X-20000Y-117000D02*
D03*
Y-127000D02*
D03*
X-105000Y230000D02*
D03*
Y220000D02*
D03*
X-115000Y230000D02*
D03*
Y220000D02*
D03*
X-125000Y230000D02*
D03*
Y220000D02*
D03*
X-135000Y230000D02*
D03*
Y220000D02*
D03*
X-145000Y230000D02*
D03*
X205000Y-130000D02*
D03*
X195000Y-140000D02*
D03*
X205000D02*
D03*
X195000Y-150000D02*
D03*
X205000D02*
D03*
X195000Y-160000D02*
D03*
X205000D02*
D03*
X195000Y-170000D02*
D03*
X205000D02*
D03*
D90*
X105000Y220000D02*
D03*
X30000Y255000D02*
D03*
X-70000D02*
D03*
X95000Y-220000D02*
D03*
X-55000D02*
D03*
X20000Y-117000D02*
D03*
X-145000Y220000D02*
D03*
D91*
X195000Y170000D02*
D03*
X-195000Y130000D02*
D03*
Y-170000D02*
D03*
X195000Y-130000D02*
D03*
D92*
X-10000Y176000D02*
D03*
X10000D02*
D03*
Y188500D02*
D03*
X-10000D02*
D03*
D93*
X-4000Y168500D02*
D03*
X4000D02*
D03*
X0Y188500D02*
D03*
D94*
X25400Y202500D02*
D03*
X-4600D02*
D03*
X-14600D02*
D03*
X5400D02*
D03*
X15400D02*
D03*
D95*
X-24600D02*
D03*
D96*
X-170473Y-84842D02*
D03*
Y-75000D02*
D03*
Y-65158D02*
D03*
X-227559Y-84842D02*
D03*
Y-65158D02*
D03*
X-222972Y-9843D02*
D03*
Y0D02*
D03*
Y9843D02*
D03*
X-280059Y-9843D02*
D03*
Y9843D02*
D03*
X-167973Y65158D02*
D03*
Y75000D02*
D03*
Y84842D02*
D03*
X-225059Y65158D02*
D03*
Y84842D02*
D03*
D97*
X-200000Y-93307D02*
D03*
Y-56693D02*
D03*
X-252500Y-18307D02*
D03*
Y18307D02*
D03*
X-197500Y56693D02*
D03*
Y93307D02*
D03*
D98*
X356600Y-4163D02*
D03*
X20800Y-222900D02*
D03*
X5700Y-190400D02*
D03*
X-5900Y-190200D02*
D03*
X167300Y-5000D02*
D03*
X167400Y-1600D02*
D03*
Y1800D02*
D03*
X44800Y-21900D02*
D03*
X184900Y-129800D02*
D03*
X77400Y-31100D02*
D03*
X-23000Y81000D02*
D03*
X75700Y-2700D02*
D03*
X77000Y-15300D02*
D03*
X2000Y-219200D02*
D03*
X11000Y-219100D02*
D03*
X-11300Y-223200D02*
D03*
X-152300Y-40000D02*
D03*
X-134200Y-59400D02*
D03*
X-82000Y-20000D02*
D03*
Y-27000D02*
D03*
X-147500Y-10800D02*
D03*
X-122400Y18000D02*
D03*
X-160300Y129600D02*
D03*
X-130500Y-14500D02*
D03*
X9700Y-76900D02*
D03*
X25218Y-85182D02*
D03*
X24000Y-93200D02*
D03*
X22400Y-76700D02*
D03*
X5261Y-86400D02*
D03*
X142100Y-78600D02*
D03*
X-77300Y-53500D02*
D03*
X-81600Y-40000D02*
D03*
X-2600Y-214500D02*
D03*
X-6800Y-216800D02*
D03*
X-23624Y-37024D02*
D03*
X175700Y18400D02*
D03*
X99800Y-24900D02*
D03*
X167500Y5400D02*
D03*
X77700Y3500D02*
D03*
X76800Y-18600D02*
D03*
X77573Y-23200D02*
D03*
X-97100Y33900D02*
D03*
X-24000Y98600D02*
D03*
X24300Y99100D02*
D03*
X-136100Y24900D02*
D03*
X-153300Y-84000D02*
D03*
X25400Y-293200D02*
D03*
X-27600Y-293300D02*
D03*
X-31100Y-268800D02*
D03*
X-37200Y-171800D02*
D03*
X-27600Y-171700D02*
D03*
X37400Y-171900D02*
D03*
X27600Y-171700D02*
D03*
X4600Y-171800D02*
D03*
X-5200Y-172200D02*
D03*
X38700Y-216000D02*
D03*
X-93400Y42900D02*
D03*
X357100Y10100D02*
D03*
X357600Y-9500D02*
D03*
X-32200Y-244600D02*
D03*
X11200Y-206200D02*
D03*
X-139600Y-48500D02*
D03*
X-38600Y-221100D02*
D03*
X-24100Y-215800D02*
D03*
X-147500Y65500D02*
D03*
X-140500Y65600D02*
D03*
X-141100Y-10900D02*
D03*
X-100000Y-25300D02*
D03*
X-97000Y-1200D02*
D03*
X-186300Y153600D02*
D03*
X-168700Y149600D02*
D03*
X-132200Y-20700D02*
D03*
X-153700Y-25700D02*
D03*
X-191200Y-20800D02*
D03*
X18500Y182300D02*
D03*
X6700Y80900D02*
D03*
X-200Y163600D02*
D03*
X12700Y37800D02*
D03*
X-115900Y2400D02*
D03*
X-98600Y27300D02*
D03*
X-124100Y8000D02*
D03*
X-166300Y-30000D02*
D03*
X-129700Y-34200D02*
D03*
X-96900Y-33200D02*
D03*
X-108300Y-154600D02*
D03*
X24600Y-185700D02*
D03*
X-20200Y-101500D02*
D03*
X20376Y-33976D02*
D03*
X-23500Y-223000D02*
D03*
X11600Y-153000D02*
D03*
X100100Y142500D02*
D03*
X38000Y145500D02*
D03*
M02*
