G04*
G04 #@! TF.GenerationSoftware,Altium Limited,Altium Designer,23.10.1 (27)*
G04*
G04 Layer_Color=8150272*
%FSLAX25Y25*%
%MOIN*%
G70*
G04*
G04 #@! TF.SameCoordinates,1313D058-037A-41F4-8C4B-E5D45CBE15D2*
G04*
G04*
G04 #@! TF.FilePolarity,Negative*
G04*
G01*
G75*
%ADD64C,0.21666*%
%ADD65C,0.05800*%
%ADD66O,0.09068X0.04737*%
%ADD67O,0.07887X0.04343*%
%ADD68C,0.00800*%
%ADD69C,0.28800*%
%ADD70C,0.03800*%
%ADD71C,0.07000*%
%ADD72R,0.07000X0.07000*%
%ADD73R,0.07000X0.07000*%
%ADD74C,0.10000*%
%ADD75C,0.04200*%
%ADD76C,0.07200*%
%ADD77R,0.07200X0.07200*%
%ADD78C,0.06706*%
%ADD79C,0.19461*%
D64*
X-62500Y62500D02*
D03*
X62500D02*
D03*
Y-62500D02*
D03*
X-62500D02*
D03*
D65*
X45000Y57500D02*
D03*
X-45000D02*
D03*
X-40000Y67500D02*
D03*
X-35000Y57500D02*
D03*
X-30000Y67500D02*
D03*
X-25000Y57500D02*
D03*
X-20000Y67500D02*
D03*
X-15000Y57500D02*
D03*
X-10000Y67500D02*
D03*
X-5000Y57500D02*
D03*
X0Y67500D02*
D03*
X5000Y57500D02*
D03*
X10000Y67500D02*
D03*
X15000Y57500D02*
D03*
X20000Y67500D02*
D03*
X25000Y57500D02*
D03*
X30000Y67500D02*
D03*
X35000Y57500D02*
D03*
X40000Y67500D02*
D03*
X57500Y45000D02*
D03*
X67500Y40000D02*
D03*
X57500Y35000D02*
D03*
X67500Y30000D02*
D03*
X57500Y25000D02*
D03*
X67500Y20000D02*
D03*
X57500Y15000D02*
D03*
X67500Y10000D02*
D03*
X57500Y5000D02*
D03*
X67500Y0D02*
D03*
X57500Y-5000D02*
D03*
X67500Y-10000D02*
D03*
X57500Y-15000D02*
D03*
X67500Y-20000D02*
D03*
X57500Y-25000D02*
D03*
X67500Y-30000D02*
D03*
X57500Y-35000D02*
D03*
X67500Y-40000D02*
D03*
X57500Y-45000D02*
D03*
X45000Y-57500D02*
D03*
X40000Y-67500D02*
D03*
X35000Y-57500D02*
D03*
X30000Y-67500D02*
D03*
X25000Y-57500D02*
D03*
X20000Y-67500D02*
D03*
X15000Y-57500D02*
D03*
X10000Y-67500D02*
D03*
X5000Y-57500D02*
D03*
X0Y-67500D02*
D03*
X-5000Y-57500D02*
D03*
X-10000Y-67500D02*
D03*
X-15000Y-57500D02*
D03*
X-20000Y-67500D02*
D03*
X-25000Y-57500D02*
D03*
X-30000Y-67500D02*
D03*
X-35000Y-57500D02*
D03*
X-40000Y-67500D02*
D03*
X-45000Y-57500D02*
D03*
X-57500Y-45000D02*
D03*
X-67500Y-40000D02*
D03*
X-57500Y-35000D02*
D03*
X-67500Y-30000D02*
D03*
X-57500Y-25000D02*
D03*
X-67500Y-20000D02*
D03*
X-57500Y-15000D02*
D03*
X-67500Y-10000D02*
D03*
X-57500Y-5000D02*
D03*
X-67500Y0D02*
D03*
X-57500Y5000D02*
D03*
X-67500Y10000D02*
D03*
X-57500Y15000D02*
D03*
X-67500Y20000D02*
D03*
X-57500Y25000D02*
D03*
X-67500Y30000D02*
D03*
X-57500Y35000D02*
D03*
X-67500Y40000D02*
D03*
X-57500Y45000D02*
D03*
D66*
X375807Y17008D02*
D03*
Y-17008D02*
D03*
D67*
X392264Y17008D02*
D03*
Y-17008D02*
D03*
D68*
X377776Y-11378D02*
D03*
Y11378D02*
D03*
D69*
X-132500Y132500D02*
D03*
Y-132500D02*
D03*
X132500D02*
D03*
Y132500D02*
D03*
D70*
X-121800D02*
D03*
X-143200D02*
D03*
X-142385Y128405D02*
D03*
X-122615Y136595D02*
D03*
X-140066Y124934D02*
D03*
X-124934Y140066D02*
D03*
X-136595Y122615D02*
D03*
X-128405Y142385D02*
D03*
X-132500Y121800D02*
D03*
Y143200D02*
D03*
X-128405Y122615D02*
D03*
X-136595Y142385D02*
D03*
X-124934Y124934D02*
D03*
X-140066Y140066D02*
D03*
X-122615Y128405D02*
D03*
X-142385Y136595D02*
D03*
X-121800Y-132500D02*
D03*
X-143200D02*
D03*
X-142385Y-136595D02*
D03*
X-122615Y-128405D02*
D03*
X-140066Y-140066D02*
D03*
X-124934Y-124934D02*
D03*
X-136595Y-142385D02*
D03*
X-128405Y-122615D02*
D03*
X-132500Y-143200D02*
D03*
Y-121800D02*
D03*
X-128405Y-142385D02*
D03*
X-136595Y-122615D02*
D03*
X-124934Y-140066D02*
D03*
X-140066Y-124934D02*
D03*
X-122615Y-136595D02*
D03*
X-142385Y-128405D02*
D03*
X143200Y-132500D02*
D03*
X121800D02*
D03*
X122615Y-136595D02*
D03*
X142385Y-128405D02*
D03*
X124934Y-140066D02*
D03*
X140066Y-124934D02*
D03*
X128405Y-142385D02*
D03*
X136595Y-122615D02*
D03*
X132500Y-143200D02*
D03*
Y-121800D02*
D03*
X136595Y-142385D02*
D03*
X128405Y-122615D02*
D03*
X140066Y-140066D02*
D03*
X124934Y-124934D02*
D03*
X142385Y-136595D02*
D03*
X122615Y-128405D02*
D03*
X143200Y132500D02*
D03*
X121800D02*
D03*
X122615Y128405D02*
D03*
X142385Y136595D02*
D03*
X124934Y124934D02*
D03*
X140066Y140066D02*
D03*
X128405Y122615D02*
D03*
X136595Y142385D02*
D03*
X132500Y121800D02*
D03*
Y143200D02*
D03*
X136595Y122615D02*
D03*
X128405Y142385D02*
D03*
X140066Y124934D02*
D03*
X124934Y140066D02*
D03*
X142385Y128405D02*
D03*
X122615Y136595D02*
D03*
D71*
X145000Y230000D02*
D03*
Y220000D02*
D03*
X135000Y230000D02*
D03*
Y220000D02*
D03*
X125000Y230000D02*
D03*
Y220000D02*
D03*
X115000Y230000D02*
D03*
Y220000D02*
D03*
X105000Y230000D02*
D03*
X205000Y170000D02*
D03*
X195000Y160000D02*
D03*
X205000D02*
D03*
X195000Y150000D02*
D03*
X205000D02*
D03*
X195000Y140000D02*
D03*
X205000D02*
D03*
X195000Y130000D02*
D03*
X205000D02*
D03*
X70000Y265000D02*
D03*
Y255000D02*
D03*
X60000Y265000D02*
D03*
Y255000D02*
D03*
X50000Y265000D02*
D03*
Y255000D02*
D03*
X40000Y265000D02*
D03*
Y255000D02*
D03*
X30000Y265000D02*
D03*
X-70000D02*
D03*
X-60000Y255000D02*
D03*
Y265000D02*
D03*
X-50000Y255000D02*
D03*
Y265000D02*
D03*
X-40000Y255000D02*
D03*
Y265000D02*
D03*
X-30000Y255000D02*
D03*
Y265000D02*
D03*
X-205000Y130000D02*
D03*
X-195000Y140000D02*
D03*
X-205000D02*
D03*
X-195000Y150000D02*
D03*
X-205000D02*
D03*
X-195000Y160000D02*
D03*
X-205000D02*
D03*
X-195000Y170000D02*
D03*
X-205000D02*
D03*
Y-130000D02*
D03*
X-195000D02*
D03*
X-205000Y-140000D02*
D03*
X-195000D02*
D03*
X-205000Y-150000D02*
D03*
X-195000D02*
D03*
X-205000Y-160000D02*
D03*
X-195000D02*
D03*
X-205000Y-170000D02*
D03*
X55000Y-230000D02*
D03*
Y-220000D02*
D03*
X65000Y-230000D02*
D03*
Y-220000D02*
D03*
X75000Y-230000D02*
D03*
Y-220000D02*
D03*
X85000Y-230000D02*
D03*
Y-220000D02*
D03*
X95000Y-230000D02*
D03*
X-55000D02*
D03*
X-65000Y-220000D02*
D03*
Y-230000D02*
D03*
X-75000Y-220000D02*
D03*
Y-230000D02*
D03*
X-85000Y-220000D02*
D03*
Y-230000D02*
D03*
X-95000Y-220000D02*
D03*
Y-230000D02*
D03*
X20000Y-127000D02*
D03*
X10000Y-117000D02*
D03*
Y-127000D02*
D03*
X0Y-117000D02*
D03*
Y-127000D02*
D03*
X-10000Y-117000D02*
D03*
Y-127000D02*
D03*
X-20000Y-117000D02*
D03*
Y-127000D02*
D03*
X-105000Y230000D02*
D03*
Y220000D02*
D03*
X-115000Y230000D02*
D03*
Y220000D02*
D03*
X-125000Y230000D02*
D03*
Y220000D02*
D03*
X-135000Y230000D02*
D03*
Y220000D02*
D03*
X-145000Y230000D02*
D03*
X205000Y-130000D02*
D03*
X195000Y-140000D02*
D03*
X205000D02*
D03*
X195000Y-150000D02*
D03*
X205000D02*
D03*
X195000Y-160000D02*
D03*
X205000D02*
D03*
X195000Y-170000D02*
D03*
X205000D02*
D03*
D72*
X105000Y220000D02*
D03*
X30000Y255000D02*
D03*
X-70000D02*
D03*
X95000Y-220000D02*
D03*
X-55000D02*
D03*
X20000Y-117000D02*
D03*
X-145000Y220000D02*
D03*
D73*
X195000Y170000D02*
D03*
X-195000Y130000D02*
D03*
Y-170000D02*
D03*
X195000Y-130000D02*
D03*
D74*
X-10000Y176000D02*
D03*
X10000D02*
D03*
Y188500D02*
D03*
X-10000D02*
D03*
D75*
X-4000Y168500D02*
D03*
X4000D02*
D03*
X0Y188500D02*
D03*
D76*
X25400Y202500D02*
D03*
X-4600D02*
D03*
X-14600D02*
D03*
X5400D02*
D03*
X15400D02*
D03*
D77*
X-24600D02*
D03*
D78*
X-170473Y-84842D02*
D03*
Y-75000D02*
D03*
Y-65158D02*
D03*
X-227559Y-84842D02*
D03*
Y-65158D02*
D03*
X-222972Y-9843D02*
D03*
Y0D02*
D03*
Y9843D02*
D03*
X-280059Y-9843D02*
D03*
Y9843D02*
D03*
X-167973Y65158D02*
D03*
Y75000D02*
D03*
Y84842D02*
D03*
X-225059Y65158D02*
D03*
Y84842D02*
D03*
D79*
X-200000Y-93307D02*
D03*
Y-56693D02*
D03*
X-252500Y-18307D02*
D03*
Y18307D02*
D03*
X-197500Y56693D02*
D03*
Y93307D02*
D03*
M02*
