G04*
G04 #@! TF.GenerationSoftware,Altium Limited,Altium Designer,23.10.1 (27)*
G04*
G04 Layer_Color=20142*
%FSLAX25Y25*%
%MOIN*%
G70*
G04*
G04 #@! TF.SameCoordinates,1313D058-037A-41F4-8C4B-E5D45CBE15D2*
G04*
G04*
G04 #@! TF.FilePolarity,Negative*
G04*
G01*
G75*
%ADD42R,0.05328X0.03064*%
%ADD43R,0.05328X0.01883*%
%ADD44C,0.07874*%
%ADD45R,0.07887X0.03162*%
%ADD46R,0.03556X0.04147*%
%ADD47R,0.10800X0.02178*%
%ADD48R,0.05721X0.06312*%
%ADD49R,0.05131X0.03950*%
%ADD50R,0.03162X0.03556*%
%ADD51C,0.03900*%
%ADD52R,0.04737X0.11824*%
%ADD53R,0.05918X0.08280*%
%ADD54R,0.04737X0.05524*%
%ADD55R,0.04737X0.03950*%
%ADD56R,0.03556X0.05524*%
%ADD57R,0.04147X0.03556*%
%ADD58R,0.08871X0.03162*%
%ADD59R,0.04343X0.04540*%
%ADD60R,0.09300X0.06300*%
%ADD61R,0.05800X0.10800*%
%ADD62R,0.06312X0.05721*%
%ADD63R,0.04540X0.04343*%
%ADD64C,0.21666*%
%ADD65C,0.05800*%
%ADD66O,0.09068X0.04737*%
%ADD67O,0.07887X0.04343*%
%ADD68C,0.00800*%
%ADD69C,0.28800*%
%ADD70C,0.03800*%
%ADD71C,0.07000*%
%ADD72R,0.07000X0.07000*%
%ADD73R,0.07000X0.07000*%
%ADD74C,0.10000*%
%ADD75C,0.04200*%
%ADD76C,0.07200*%
%ADD77R,0.07200X0.07200*%
%ADD78C,0.06706*%
%ADD79C,0.19461*%
D42*
X373543Y-12598D02*
D03*
X373543Y-9449D02*
D03*
Y9449D02*
D03*
X373543Y12598D02*
D03*
D43*
X373543Y-6890D02*
D03*
Y-4921D02*
D03*
X373543Y-2953D02*
D03*
X373543Y-984D02*
D03*
X373543Y984D02*
D03*
X373543Y2953D02*
D03*
X373543Y4921D02*
D03*
X373543Y6890D02*
D03*
D44*
X-112500Y112500D02*
D03*
X112500D02*
D03*
Y-112500D02*
D03*
X-112500D02*
D03*
D45*
X-134567Y-25000D02*
D03*
Y-30000D02*
D03*
Y-35000D02*
D03*
Y-40000D02*
D03*
X-105433Y-25000D02*
D03*
Y-30000D02*
D03*
Y-35000D02*
D03*
Y-40000D02*
D03*
D46*
X136848Y-78600D02*
D03*
X130352D02*
D03*
X360152Y-9700D02*
D03*
X366648D02*
D03*
X359952Y10000D02*
D03*
X366448D02*
D03*
X-153752Y-75000D02*
D03*
X-160248D02*
D03*
X-153752Y75000D02*
D03*
X-160248D02*
D03*
X-92748Y-40000D02*
D03*
X-86252D02*
D03*
X-92748Y-33500D02*
D03*
X-86252D02*
D03*
X-92748Y-27000D02*
D03*
X-86252D02*
D03*
X-92748Y-20000D02*
D03*
X-86252D02*
D03*
X-92500Y-13500D02*
D03*
X-86004D02*
D03*
X-92748Y-46500D02*
D03*
X-86252D02*
D03*
X-153752Y-300D02*
D03*
X-160248D02*
D03*
D47*
X86000Y-21674D02*
D03*
Y-24824D02*
D03*
Y-27973D02*
D03*
Y3523D02*
D03*
Y373D02*
D03*
Y-2776D02*
D03*
Y-5926D02*
D03*
Y-9076D02*
D03*
Y-12225D02*
D03*
Y-15375D02*
D03*
Y-18524D02*
D03*
Y-31123D02*
D03*
D48*
X366445Y18200D02*
D03*
X359555D02*
D03*
D49*
X360300Y-3680D02*
D03*
D50*
X367000D02*
D03*
Y3800D02*
D03*
X359513D02*
D03*
D51*
X-2500Y183500D02*
D03*
X2500D02*
D03*
X-2500Y178500D02*
D03*
X2500Y173500D02*
D03*
X-2500D02*
D03*
X2500Y178500D02*
D03*
D52*
X-27303Y-285177D02*
D03*
D53*
X25846Y-286949D02*
D03*
D54*
X-27303Y-244429D02*
D03*
X16594Y-227500D02*
D03*
D55*
X-27303Y-268839D02*
D03*
D56*
X-19823Y-227500D02*
D03*
X-15492Y-227500D02*
D03*
X-11161D02*
D03*
X-6831D02*
D03*
X-2500Y-227500D02*
D03*
X1831Y-227500D02*
D03*
X6161Y-227500D02*
D03*
X10492D02*
D03*
X-23563D02*
D03*
D57*
X9800Y-79504D02*
D03*
Y-86000D02*
D03*
X-148100Y-75252D02*
D03*
Y-81748D02*
D03*
X42500Y-215248D02*
D03*
Y-208752D02*
D03*
X11000Y-216248D02*
D03*
Y-209752D02*
D03*
X-21000Y-215748D02*
D03*
Y-209252D02*
D03*
X-35500Y-227748D02*
D03*
Y-221252D02*
D03*
X-147500Y75248D02*
D03*
Y68752D02*
D03*
Y-252D02*
D03*
Y-6748D02*
D03*
X19800Y-86048D02*
D03*
Y-79552D02*
D03*
D58*
X-109468Y30000D02*
D03*
Y35000D02*
D03*
X-130531D02*
D03*
X-109468Y40000D02*
D03*
X-130531Y25000D02*
D03*
Y30000D02*
D03*
Y40000D02*
D03*
X-109468Y25000D02*
D03*
Y-2500D02*
D03*
Y2500D02*
D03*
X-130531D02*
D03*
X-109468Y7500D02*
D03*
X-130531Y-7500D02*
D03*
Y-2500D02*
D03*
Y7500D02*
D03*
X-109468Y-7500D02*
D03*
D59*
X-100000Y8051D02*
D03*
Y1949D02*
D03*
X-142000Y-74949D02*
D03*
Y-81051D02*
D03*
X-100000Y40051D02*
D03*
Y33949D02*
D03*
X-140500Y75051D02*
D03*
Y68949D02*
D03*
X-141000Y-949D02*
D03*
Y-7051D02*
D03*
D60*
X17000Y99400D02*
D03*
X-17000D02*
D03*
X17000Y81600D02*
D03*
X-17000D02*
D03*
D61*
X37500Y-200000D02*
D03*
Y-165000D02*
D03*
X27500Y-200000D02*
D03*
Y-165000D02*
D03*
X-5000D02*
D03*
Y-200000D02*
D03*
X5000Y-165000D02*
D03*
Y-200000D02*
D03*
X-27500D02*
D03*
Y-165000D02*
D03*
X-37500Y-200000D02*
D03*
Y-165000D02*
D03*
D62*
X-134000Y-48110D02*
D03*
Y-55000D02*
D03*
D63*
X-142398Y-40000D02*
D03*
X-148500D02*
D03*
D64*
X-62500Y62500D02*
D03*
X62500D02*
D03*
Y-62500D02*
D03*
X-62500D02*
D03*
D65*
X45000Y57500D02*
D03*
X-45000D02*
D03*
X-40000Y67500D02*
D03*
X-35000Y57500D02*
D03*
X-30000Y67500D02*
D03*
X-25000Y57500D02*
D03*
X-20000Y67500D02*
D03*
X-15000Y57500D02*
D03*
X-10000Y67500D02*
D03*
X-5000Y57500D02*
D03*
X0Y67500D02*
D03*
X5000Y57500D02*
D03*
X10000Y67500D02*
D03*
X15000Y57500D02*
D03*
X20000Y67500D02*
D03*
X25000Y57500D02*
D03*
X30000Y67500D02*
D03*
X35000Y57500D02*
D03*
X40000Y67500D02*
D03*
X57500Y45000D02*
D03*
X67500Y40000D02*
D03*
X57500Y35000D02*
D03*
X67500Y30000D02*
D03*
X57500Y25000D02*
D03*
X67500Y20000D02*
D03*
X57500Y15000D02*
D03*
X67500Y10000D02*
D03*
X57500Y5000D02*
D03*
X67500Y0D02*
D03*
X57500Y-5000D02*
D03*
X67500Y-10000D02*
D03*
X57500Y-15000D02*
D03*
X67500Y-20000D02*
D03*
X57500Y-25000D02*
D03*
X67500Y-30000D02*
D03*
X57500Y-35000D02*
D03*
X67500Y-40000D02*
D03*
X57500Y-45000D02*
D03*
X45000Y-57500D02*
D03*
X40000Y-67500D02*
D03*
X35000Y-57500D02*
D03*
X30000Y-67500D02*
D03*
X25000Y-57500D02*
D03*
X20000Y-67500D02*
D03*
X15000Y-57500D02*
D03*
X10000Y-67500D02*
D03*
X5000Y-57500D02*
D03*
X0Y-67500D02*
D03*
X-5000Y-57500D02*
D03*
X-10000Y-67500D02*
D03*
X-15000Y-57500D02*
D03*
X-20000Y-67500D02*
D03*
X-25000Y-57500D02*
D03*
X-30000Y-67500D02*
D03*
X-35000Y-57500D02*
D03*
X-40000Y-67500D02*
D03*
X-45000Y-57500D02*
D03*
X-57500Y-45000D02*
D03*
X-67500Y-40000D02*
D03*
X-57500Y-35000D02*
D03*
X-67500Y-30000D02*
D03*
X-57500Y-25000D02*
D03*
X-67500Y-20000D02*
D03*
X-57500Y-15000D02*
D03*
X-67500Y-10000D02*
D03*
X-57500Y-5000D02*
D03*
X-67500Y0D02*
D03*
X-57500Y5000D02*
D03*
X-67500Y10000D02*
D03*
X-57500Y15000D02*
D03*
X-67500Y20000D02*
D03*
X-57500Y25000D02*
D03*
X-67500Y30000D02*
D03*
X-57500Y35000D02*
D03*
X-67500Y40000D02*
D03*
X-57500Y45000D02*
D03*
D66*
X375807Y17008D02*
D03*
Y-17008D02*
D03*
D67*
X392264Y17008D02*
D03*
Y-17008D02*
D03*
D68*
X377776Y-11378D02*
D03*
Y11378D02*
D03*
D69*
X-132500Y132500D02*
D03*
Y-132500D02*
D03*
X132500D02*
D03*
Y132500D02*
D03*
D70*
X-121800D02*
D03*
X-143200D02*
D03*
X-142385Y128405D02*
D03*
X-122615Y136595D02*
D03*
X-140066Y124934D02*
D03*
X-124934Y140066D02*
D03*
X-136595Y122615D02*
D03*
X-128405Y142385D02*
D03*
X-132500Y121800D02*
D03*
Y143200D02*
D03*
X-128405Y122615D02*
D03*
X-136595Y142385D02*
D03*
X-124934Y124934D02*
D03*
X-140066Y140066D02*
D03*
X-122615Y128405D02*
D03*
X-142385Y136595D02*
D03*
X-121800Y-132500D02*
D03*
X-143200D02*
D03*
X-142385Y-136595D02*
D03*
X-122615Y-128405D02*
D03*
X-140066Y-140066D02*
D03*
X-124934Y-124934D02*
D03*
X-136595Y-142385D02*
D03*
X-128405Y-122615D02*
D03*
X-132500Y-143200D02*
D03*
Y-121800D02*
D03*
X-128405Y-142385D02*
D03*
X-136595Y-122615D02*
D03*
X-124934Y-140066D02*
D03*
X-140066Y-124934D02*
D03*
X-122615Y-136595D02*
D03*
X-142385Y-128405D02*
D03*
X143200Y-132500D02*
D03*
X121800D02*
D03*
X122615Y-136595D02*
D03*
X142385Y-128405D02*
D03*
X124934Y-140066D02*
D03*
X140066Y-124934D02*
D03*
X128405Y-142385D02*
D03*
X136595Y-122615D02*
D03*
X132500Y-143200D02*
D03*
Y-121800D02*
D03*
X136595Y-142385D02*
D03*
X128405Y-122615D02*
D03*
X140066Y-140066D02*
D03*
X124934Y-124934D02*
D03*
X142385Y-136595D02*
D03*
X122615Y-128405D02*
D03*
X143200Y132500D02*
D03*
X121800D02*
D03*
X122615Y128405D02*
D03*
X142385Y136595D02*
D03*
X124934Y124934D02*
D03*
X140066Y140066D02*
D03*
X128405Y122615D02*
D03*
X136595Y142385D02*
D03*
X132500Y121800D02*
D03*
Y143200D02*
D03*
X136595Y122615D02*
D03*
X128405Y142385D02*
D03*
X140066Y124934D02*
D03*
X124934Y140066D02*
D03*
X142385Y128405D02*
D03*
X122615Y136595D02*
D03*
D71*
X145000Y230000D02*
D03*
Y220000D02*
D03*
X135000Y230000D02*
D03*
Y220000D02*
D03*
X125000Y230000D02*
D03*
Y220000D02*
D03*
X115000Y230000D02*
D03*
Y220000D02*
D03*
X105000Y230000D02*
D03*
X205000Y170000D02*
D03*
X195000Y160000D02*
D03*
X205000D02*
D03*
X195000Y150000D02*
D03*
X205000D02*
D03*
X195000Y140000D02*
D03*
X205000D02*
D03*
X195000Y130000D02*
D03*
X205000D02*
D03*
X70000Y265000D02*
D03*
Y255000D02*
D03*
X60000Y265000D02*
D03*
Y255000D02*
D03*
X50000Y265000D02*
D03*
Y255000D02*
D03*
X40000Y265000D02*
D03*
Y255000D02*
D03*
X30000Y265000D02*
D03*
X-70000D02*
D03*
X-60000Y255000D02*
D03*
Y265000D02*
D03*
X-50000Y255000D02*
D03*
Y265000D02*
D03*
X-40000Y255000D02*
D03*
Y265000D02*
D03*
X-30000Y255000D02*
D03*
Y265000D02*
D03*
X-205000Y130000D02*
D03*
X-195000Y140000D02*
D03*
X-205000D02*
D03*
X-195000Y150000D02*
D03*
X-205000D02*
D03*
X-195000Y160000D02*
D03*
X-205000D02*
D03*
X-195000Y170000D02*
D03*
X-205000D02*
D03*
Y-130000D02*
D03*
X-195000D02*
D03*
X-205000Y-140000D02*
D03*
X-195000D02*
D03*
X-205000Y-150000D02*
D03*
X-195000D02*
D03*
X-205000Y-160000D02*
D03*
X-195000D02*
D03*
X-205000Y-170000D02*
D03*
X55000Y-230000D02*
D03*
Y-220000D02*
D03*
X65000Y-230000D02*
D03*
Y-220000D02*
D03*
X75000Y-230000D02*
D03*
Y-220000D02*
D03*
X85000Y-230000D02*
D03*
Y-220000D02*
D03*
X95000Y-230000D02*
D03*
X-55000D02*
D03*
X-65000Y-220000D02*
D03*
Y-230000D02*
D03*
X-75000Y-220000D02*
D03*
Y-230000D02*
D03*
X-85000Y-220000D02*
D03*
Y-230000D02*
D03*
X-95000Y-220000D02*
D03*
Y-230000D02*
D03*
X20000Y-127000D02*
D03*
X10000Y-117000D02*
D03*
Y-127000D02*
D03*
X0Y-117000D02*
D03*
Y-127000D02*
D03*
X-10000Y-117000D02*
D03*
Y-127000D02*
D03*
X-20000Y-117000D02*
D03*
Y-127000D02*
D03*
X-105000Y230000D02*
D03*
Y220000D02*
D03*
X-115000Y230000D02*
D03*
Y220000D02*
D03*
X-125000Y230000D02*
D03*
Y220000D02*
D03*
X-135000Y230000D02*
D03*
Y220000D02*
D03*
X-145000Y230000D02*
D03*
X205000Y-130000D02*
D03*
X195000Y-140000D02*
D03*
X205000D02*
D03*
X195000Y-150000D02*
D03*
X205000D02*
D03*
X195000Y-160000D02*
D03*
X205000D02*
D03*
X195000Y-170000D02*
D03*
X205000D02*
D03*
D72*
X105000Y220000D02*
D03*
X30000Y255000D02*
D03*
X-70000D02*
D03*
X95000Y-220000D02*
D03*
X-55000D02*
D03*
X20000Y-117000D02*
D03*
X-145000Y220000D02*
D03*
D73*
X195000Y170000D02*
D03*
X-195000Y130000D02*
D03*
Y-170000D02*
D03*
X195000Y-130000D02*
D03*
D74*
X-10000Y176000D02*
D03*
X10000D02*
D03*
Y188500D02*
D03*
X-10000D02*
D03*
D75*
X-4000Y168500D02*
D03*
X4000D02*
D03*
X0Y188500D02*
D03*
D76*
X25400Y202500D02*
D03*
X-4600D02*
D03*
X-14600D02*
D03*
X5400D02*
D03*
X15400D02*
D03*
D77*
X-24600D02*
D03*
D78*
X-170473Y-84842D02*
D03*
Y-75000D02*
D03*
Y-65158D02*
D03*
X-227559Y-84842D02*
D03*
Y-65158D02*
D03*
X-222972Y-9843D02*
D03*
Y0D02*
D03*
Y9843D02*
D03*
X-280059Y-9843D02*
D03*
Y9843D02*
D03*
X-167973Y65158D02*
D03*
Y75000D02*
D03*
Y84842D02*
D03*
X-225059Y65158D02*
D03*
Y84842D02*
D03*
D79*
X-200000Y-93307D02*
D03*
Y-56693D02*
D03*
X-252500Y-18307D02*
D03*
Y18307D02*
D03*
X-197500Y56693D02*
D03*
Y93307D02*
D03*
M02*
