G04*
G04 #@! TF.GenerationSoftware,Altium Limited,Altium Designer,23.0.1 (38)*
G04*
G04 Layer_Color=8150272*
%FSLAX25Y25*%
%MOIN*%
G70*
G04*
G04 #@! TF.SameCoordinates,25558F71-17A0-4451-AE4F-E46AD001AD8B*
G04*
G04*
G04 #@! TF.FilePolarity,Negative*
G04*
G01*
G75*
%ADD20R,0.01378X0.01772*%
%ADD23R,0.01772X0.01378*%
%ADD49C,0.07874*%
%ADD74R,0.02769X0.03359*%
%ADD75C,0.04500*%
%ADD76C,0.04200*%
%ADD77C,0.05800*%
%ADD78C,0.17800*%
D20*
X42449Y82012D02*
D03*
X40049D02*
D03*
X36200Y72116D02*
D03*
X33800D02*
D03*
X40100Y66200D02*
D03*
X42500D02*
D03*
X55824Y68193D02*
D03*
X58224D02*
D03*
X40500Y70100D02*
D03*
X38100D02*
D03*
X53560Y61992D02*
D03*
X55960D02*
D03*
X42100Y79900D02*
D03*
X39700D02*
D03*
X32989Y88173D02*
D03*
X35389D02*
D03*
X36100Y79000D02*
D03*
X33700D02*
D03*
X42500Y77100D02*
D03*
X40100D02*
D03*
X35941Y84000D02*
D03*
X33541D02*
D03*
X57988Y71500D02*
D03*
X55588D02*
D03*
X42500Y74100D02*
D03*
X40100D02*
D03*
X59188D02*
D03*
X56788D02*
D03*
X59400Y77200D02*
D03*
X61800D02*
D03*
Y80000D02*
D03*
X59400D02*
D03*
X53800Y81900D02*
D03*
X51400D02*
D03*
X49500Y77200D02*
D03*
X51900D02*
D03*
X49400Y74100D02*
D03*
X51800D02*
D03*
D23*
X49957Y92318D02*
D03*
Y89918D02*
D03*
X53800Y91206D02*
D03*
Y93606D02*
D03*
X36108Y76400D02*
D03*
Y74000D02*
D03*
X49248Y70476D02*
D03*
Y68076D02*
D03*
X46000Y68526D02*
D03*
Y66126D02*
D03*
X50000Y59400D02*
D03*
Y61800D02*
D03*
X38100Y66500D02*
D03*
Y64100D02*
D03*
X46100Y81200D02*
D03*
Y83600D02*
D03*
X38099Y83571D02*
D03*
Y85971D02*
D03*
D49*
X125000Y20000D02*
D03*
X20000D02*
D03*
X125000Y125000D02*
D03*
X20000D02*
D03*
D74*
X46000Y92405D02*
D03*
Y88665D02*
D03*
D75*
X101167Y37042D02*
D03*
X116167D02*
D03*
D76*
X81100Y27415D02*
D03*
X89100D02*
D03*
X85100Y47415D02*
D03*
D77*
X27500Y15000D02*
D03*
X15000Y97500D02*
D03*
X117500Y130000D02*
D03*
X5000Y112500D02*
D03*
Y102500D02*
D03*
Y92500D02*
D03*
Y82500D02*
D03*
Y72500D02*
D03*
Y62500D02*
D03*
Y52500D02*
D03*
Y42500D02*
D03*
Y32500D02*
D03*
X27500Y130000D02*
D03*
X32500Y140000D02*
D03*
X37500Y130000D02*
D03*
X42500Y140000D02*
D03*
X47500Y130000D02*
D03*
X52500Y140000D02*
D03*
X57500Y130000D02*
D03*
X62500Y140000D02*
D03*
X67500Y130000D02*
D03*
X72500Y140000D02*
D03*
X77500Y130000D02*
D03*
X82500Y140000D02*
D03*
X92500D02*
D03*
X102500D02*
D03*
X112500D02*
D03*
X87500Y130000D02*
D03*
X97500D02*
D03*
X107500D02*
D03*
X130000Y117500D02*
D03*
Y107500D02*
D03*
Y37500D02*
D03*
Y47500D02*
D03*
Y57500D02*
D03*
Y67500D02*
D03*
Y77500D02*
D03*
Y87500D02*
D03*
Y97500D02*
D03*
X140000Y112500D02*
D03*
Y102500D02*
D03*
Y92500D02*
D03*
Y82500D02*
D03*
Y72500D02*
D03*
Y62500D02*
D03*
Y52500D02*
D03*
Y42500D02*
D03*
Y32500D02*
D03*
X130000Y27500D02*
D03*
X117500Y15000D02*
D03*
X112500Y5000D02*
D03*
X107500Y15000D02*
D03*
X102500Y5000D02*
D03*
X92500D02*
D03*
X97500Y15000D02*
D03*
X87500D02*
D03*
X82500Y5000D02*
D03*
X72500D02*
D03*
X77500Y15000D02*
D03*
X62500Y5000D02*
D03*
X67500Y15000D02*
D03*
X57500D02*
D03*
X52500Y5000D02*
D03*
X47500Y15000D02*
D03*
X42500Y5000D02*
D03*
X32500D02*
D03*
X37500Y15000D02*
D03*
X15000Y37500D02*
D03*
Y27500D02*
D03*
Y47500D02*
D03*
Y57500D02*
D03*
Y77500D02*
D03*
Y67500D02*
D03*
Y87500D02*
D03*
Y107500D02*
D03*
Y117500D02*
D03*
D78*
X10000Y135000D02*
D03*
X135000D02*
D03*
Y10000D02*
D03*
X10000D02*
D03*
M02*
