G04*
G04 #@! TF.GenerationSoftware,Altium Limited,Altium Designer,23.0.1 (38)*
G04*
G04 Layer_Color=12040119*
%FSLAX25Y25*%
%MOIN*%
G70*
G04*
G04 #@! TF.SameCoordinates,25558F71-17A0-4451-AE4F-E46AD001AD8B*
G04*
G04*
G04 #@! TF.FilePolarity,Positive*
G04*
G01*
G75*
%ADD18R,0.02756X0.02362*%
%ADD19R,0.07087X0.03937*%
%ADD20R,0.01378X0.01772*%
%ADD21R,0.02900X0.11000*%
G04:AMPARAMS|DCode=22|XSize=29mil|YSize=110mil|CornerRadius=7.25mil|HoleSize=0mil|Usage=FLASHONLY|Rotation=0.000|XOffset=0mil|YOffset=0mil|HoleType=Round|Shape=RoundedRectangle|*
%AMROUNDEDRECTD22*
21,1,0.02900,0.09550,0,0,0.0*
21,1,0.01450,0.11000,0,0,0.0*
1,1,0.01450,0.00725,-0.04775*
1,1,0.01450,-0.00725,-0.04775*
1,1,0.01450,-0.00725,0.04775*
1,1,0.01450,0.00725,0.04775*
%
%ADD22ROUNDEDRECTD22*%
%ADD23R,0.01772X0.01378*%
%ADD24R,0.03347X0.03150*%
%ADD25R,0.03347X0.02362*%
%ADD26R,0.03543X0.03740*%
%ADD27R,0.02559X0.01968*%
%ADD28C,0.01457*%
%ADD29R,0.06500X0.09449*%
%ADD30C,0.01200*%
%ADD31R,0.00984X0.01378*%
%ADD32R,0.00787X0.02756*%
%ADD33R,0.02300X0.02300*%
%ADD34R,0.02756X0.00787*%
%ADD35R,0.02300X0.02300*%
%ADD36R,0.01575X0.02756*%
%ADD37R,0.02756X0.01575*%
%ADD38R,0.07480X0.07480*%
%ADD39R,0.02362X0.03347*%
%ADD40R,0.05315X0.02756*%
%ADD41R,0.04331X0.03150*%
%ADD42R,0.02362X0.02756*%
%ADD43R,0.03740X0.03543*%
%ADD44R,0.10630X0.03150*%
%ADD45R,0.01968X0.02559*%
G36*
X92177Y91141D02*
X94878D01*
Y88441D01*
X92177D01*
Y91141D01*
D02*
G37*
G36*
Y94882D02*
X94878D01*
Y92181D01*
X92177D01*
Y94882D01*
D02*
G37*
G36*
X95917Y91141D02*
X98618D01*
Y88441D01*
X95917D01*
Y91141D01*
D02*
G37*
G36*
Y94882D02*
X98618D01*
Y92181D01*
X95917D01*
Y94882D01*
D02*
G37*
D18*
X77000Y87445D02*
D03*
Y83508D02*
D03*
Y91664D02*
D03*
Y95601D02*
D03*
D19*
X70034Y84772D02*
D03*
Y94614D02*
D03*
D20*
X113372Y89500D02*
D03*
X109828D02*
D03*
X58772Y21500D02*
D03*
X55228D02*
D03*
X23972Y32500D02*
D03*
X20428D02*
D03*
X23972Y39500D02*
D03*
X20428D02*
D03*
X23972Y46650D02*
D03*
X20428D02*
D03*
X117938Y69605D02*
D03*
X114395D02*
D03*
X72428Y64200D02*
D03*
X75972D02*
D03*
X20428Y35648D02*
D03*
X23972D02*
D03*
X107768Y78541D02*
D03*
X104225D02*
D03*
X67580Y99178D02*
D03*
X113260Y76101D02*
D03*
X116804D02*
D03*
X89272Y117811D02*
D03*
X85728D02*
D03*
X71805Y117653D02*
D03*
X68262D02*
D03*
X20428Y43139D02*
D03*
X23972D02*
D03*
X71123Y99178D02*
D03*
X20428Y29000D02*
D03*
X23972D02*
D03*
D21*
X118667Y28542D02*
D03*
X113667D02*
D03*
X108667D02*
D03*
X103667D02*
D03*
X98667Y45542D02*
D03*
X103667D02*
D03*
X108667D02*
D03*
X113667D02*
D03*
X118667D02*
D03*
D22*
X98667Y28542D02*
D03*
D23*
X63028Y25728D02*
D03*
Y29272D02*
D03*
X26336Y90598D02*
D03*
Y87055D02*
D03*
X31773Y106232D02*
D03*
Y102688D02*
D03*
X25800Y106200D02*
D03*
Y102657D02*
D03*
X91638Y72701D02*
D03*
Y76245D02*
D03*
X82531Y80728D02*
D03*
Y84272D02*
D03*
X87374Y76245D02*
D03*
Y72701D02*
D03*
D24*
X32087Y119335D02*
D03*
Y113429D02*
D03*
X25993Y119335D02*
D03*
Y113429D02*
D03*
D25*
X106272Y66062D02*
D03*
Y69802D02*
D03*
Y73542D02*
D03*
X97414D02*
D03*
Y66062D02*
D03*
D26*
X61354Y37927D02*
D03*
Y44030D02*
D03*
X118100Y83502D02*
D03*
Y89604D02*
D03*
X101448Y104460D02*
D03*
Y110562D02*
D03*
D27*
X65307Y115102D02*
D03*
X61567D02*
D03*
X54157D02*
D03*
X50417D02*
D03*
X117492Y79435D02*
D03*
X113752D02*
D03*
X117018Y106811D02*
D03*
X113278D02*
D03*
D28*
X50724Y31626D02*
D03*
X46787D02*
D03*
X42850D02*
D03*
X38913D02*
D03*
X54661Y35563D02*
D03*
X50724D02*
D03*
X46787D02*
D03*
X42850D02*
D03*
X38913D02*
D03*
X54661Y39500D02*
D03*
X50724D02*
D03*
X46787D02*
D03*
X42850D02*
D03*
X38913D02*
D03*
X54661Y43437D02*
D03*
X50724D02*
D03*
X46787D02*
D03*
X42850D02*
D03*
X38913D02*
D03*
X54661Y47374D02*
D03*
X50724D02*
D03*
X46787D02*
D03*
X42850D02*
D03*
X38913D02*
D03*
D29*
X65408Y107254D02*
D03*
X50447D02*
D03*
D30*
X59780Y89748D02*
D03*
X30252D02*
D03*
Y74000D02*
D03*
X61748Y58252D02*
D03*
X59780D02*
D03*
X57811D02*
D03*
X53874D02*
D03*
X49937D02*
D03*
X46000D02*
D03*
X42063D02*
D03*
X38126D02*
D03*
X34189D02*
D03*
X32221D02*
D03*
X30252D02*
D03*
X61748Y60220D02*
D03*
X59780D02*
D03*
X57811D02*
D03*
X53874D02*
D03*
X51906D02*
D03*
X49937D02*
D03*
X46000D02*
D03*
X44032D02*
D03*
X42063D02*
D03*
X38126D02*
D03*
X36158D02*
D03*
X34189D02*
D03*
X32221D02*
D03*
X30252D02*
D03*
X61748Y62189D02*
D03*
X59780D02*
D03*
X57811D02*
D03*
X55843D02*
D03*
X53874D02*
D03*
X49937D02*
D03*
X46000D02*
D03*
X42063D02*
D03*
X38126D02*
D03*
X34189D02*
D03*
X32221D02*
D03*
X30252D02*
D03*
X59780Y64157D02*
D03*
X53874D02*
D03*
X51906D02*
D03*
X49937D02*
D03*
X47969D02*
D03*
X46000D02*
D03*
X42063D02*
D03*
X40095D02*
D03*
X38126D02*
D03*
X34189D02*
D03*
X61748Y66126D02*
D03*
X59780D02*
D03*
X57811D02*
D03*
X55843D02*
D03*
X51906D02*
D03*
X47969D02*
D03*
X44032D02*
D03*
X40095D02*
D03*
X36158D02*
D03*
X34189D02*
D03*
X32221D02*
D03*
X30252D02*
D03*
X55843Y68094D02*
D03*
X53874D02*
D03*
X49937D02*
D03*
X42063D02*
D03*
X38126D02*
D03*
X36158D02*
D03*
X32221D02*
D03*
X61748Y70063D02*
D03*
X59780D02*
D03*
X57811D02*
D03*
X55843D02*
D03*
X51906D02*
D03*
X40095D02*
D03*
X36158D02*
D03*
X34189D02*
D03*
X32221D02*
D03*
X30252D02*
D03*
X59780Y72031D02*
D03*
X53874D02*
D03*
X47969D02*
D03*
X46000D02*
D03*
X44032D02*
D03*
X38126D02*
D03*
X36158D02*
D03*
X61748Y74000D02*
D03*
X59780D02*
D03*
X57811D02*
D03*
X55843D02*
D03*
X47969D02*
D03*
X44032D02*
D03*
X36158D02*
D03*
X34189D02*
D03*
X32221D02*
D03*
X55843Y75968D02*
D03*
X53874D02*
D03*
X47969D02*
D03*
X46000D02*
D03*
X44032D02*
D03*
X38126D02*
D03*
X32221D02*
D03*
X61748Y77937D02*
D03*
X59780D02*
D03*
X57811D02*
D03*
X55843D02*
D03*
X51906D02*
D03*
X40095D02*
D03*
X36158D02*
D03*
X34189D02*
D03*
X32221D02*
D03*
X30252D02*
D03*
X59780Y79905D02*
D03*
X55843D02*
D03*
X53874D02*
D03*
X49937D02*
D03*
X42063D02*
D03*
X38126D02*
D03*
X36158D02*
D03*
X61748Y81874D02*
D03*
X59780D02*
D03*
X57811D02*
D03*
X55843D02*
D03*
X51906D02*
D03*
X47969D02*
D03*
X44032D02*
D03*
X40095D02*
D03*
X36158D02*
D03*
X34189D02*
D03*
X32221D02*
D03*
X30252D02*
D03*
X57811Y83842D02*
D03*
X53874D02*
D03*
X51906D02*
D03*
X49937D02*
D03*
X46000D02*
D03*
X44032D02*
D03*
X42063D02*
D03*
X40095D02*
D03*
X38126D02*
D03*
X32221D02*
D03*
X61748Y85811D02*
D03*
X59780D02*
D03*
X57811D02*
D03*
X53874D02*
D03*
X49937D02*
D03*
X46000D02*
D03*
X42063D02*
D03*
X38126D02*
D03*
X36158D02*
D03*
X34189D02*
D03*
X32221D02*
D03*
X30252D02*
D03*
X61748Y87779D02*
D03*
X59780D02*
D03*
X57811D02*
D03*
X55843D02*
D03*
X53874D02*
D03*
X49937D02*
D03*
X47969D02*
D03*
X46000D02*
D03*
X42063D02*
D03*
X40095D02*
D03*
X38126D02*
D03*
X34189D02*
D03*
X32221D02*
D03*
X30252D02*
D03*
X61748Y89748D02*
D03*
X57811D02*
D03*
X53874D02*
D03*
X49937D02*
D03*
X46000D02*
D03*
X42063D02*
D03*
X38126D02*
D03*
X34189D02*
D03*
X32221D02*
D03*
D31*
X26404Y84039D02*
D03*
X24004D02*
D03*
D32*
X91854Y85559D02*
D03*
X93429D02*
D03*
X98941D02*
D03*
X91854Y97764D02*
D03*
X93429D02*
D03*
X97366D02*
D03*
X98941D02*
D03*
X97366Y85559D02*
D03*
D33*
X101303Y85756D02*
D03*
X89492D02*
D03*
D34*
X89295Y88118D02*
D03*
Y93630D02*
D03*
Y95205D02*
D03*
X101500D02*
D03*
Y93630D02*
D03*
X89295Y89693D02*
D03*
X101500Y88118D02*
D03*
Y89693D02*
D03*
D35*
X89492Y97567D02*
D03*
X101303D02*
D03*
D36*
X95398Y97764D02*
D03*
Y85559D02*
D03*
D37*
X89295Y91661D02*
D03*
X101500D02*
D03*
D38*
X95398D02*
D03*
D39*
X32500Y37042D02*
D03*
Y32515D02*
D03*
D40*
X109963Y112321D02*
D03*
X119412D02*
D03*
X119624Y118800D02*
D03*
X110176D02*
D03*
D41*
X114237Y55563D02*
D03*
D42*
X120937D02*
D03*
Y63044D02*
D03*
X113450D02*
D03*
D43*
X112237Y100511D02*
D03*
X118340D02*
D03*
X117999Y94511D02*
D03*
X111897D02*
D03*
X98109Y117811D02*
D03*
X92006D02*
D03*
X81204Y117653D02*
D03*
X75101D02*
D03*
D44*
X77420Y112548D02*
D03*
Y103887D02*
D03*
X90948Y103787D02*
D03*
Y112448D02*
D03*
D45*
X81447Y93736D02*
D03*
Y97476D02*
D03*
M02*
