M48
;Layer_Color=6321
;FILE_FORMAT=2:5
INCH,LZ
;TYPE=PLATED
T1F00S00C0.00600
T2F00S00C0.00800
T3F00S00C0.02800
T4F00S00C0.07000
;TYPE=NON_PLATED
T5F00S00C0.03500
T6F00S00C0.04000
%
T01
X0032221Y006022
X0030252Y0074
X0032221Y0085811
X0034189
X0036158
X0038126
Y0083842
Y0081912
X0036158Y0081874
X0034189Y0081889
X0038126Y0079905
Y0075968
Y0074
Y0072031
X0036158Y0070063
X0034189
X0036158Y0068094
X00381Y00681
X0036158Y0066126
X0034189
Y0064157
Y0062189
X0036158
X0038126
Y006022
X0044045Y0060207
X0046Y0062189
Y0064157
X0047969
X0049937
X0051906
X0053874
X00559Y00641
X0057811Y0064157
X005978Y0066126
Y0062189
X0057799Y006022
X0052004Y0062189
X0053874Y0068094
X0051906Y0070063
X0053874Y0072031
Y0074
Y0075968
Y0079905
X0055843
Y0081874
X0057811
Y0085811
Y0087779
X005978
Y0085811
X0061748
X0053874
Y0089748
X0049937Y0087779
X0047969Y0083842
X005Y00819
X0049937Y0079905
X0046098Y0079512
X0046Y0075968
X0044032
Y0074
Y0072031
X0046
X0047969
Y0074
Y0075968
X00421Y00799
X0042063Y0083842
X0042016Y0085811
X0040095
X003614Y0075963
X00342Y00759
X0042063Y0068094
Y0064157
X0044032Y0066126
X005978Y0070063
X0057811Y0072031
X0117938Y0069605
X0119222Y0079512
X01181Y0083502
X0115545Y0083632
X01181Y0089653
T02
X00256Y00233
X00284Y00241
X0032194Y0028672
X002395Y0028875
Y0032415
Y0035563
X0023972Y00395
Y0043139
X0023972Y004665
X0023134Y0049351
X0030118Y0049799
X0031841Y00455
X0031488Y0042016
X0031841Y0037042
X0020428Y0037534
Y0030707
X0024003Y0085756
X0026336Y0090598
X00258Y0119268
X0031895
X0038426
X0038704Y0122599
X0034151Y0123948
X003665Y0108949
X0034447Y0095681
X0052287Y0096423
X0055125Y009526
X0063437Y0099406
X0072851Y0099092
X007984Y0099276
X0087374Y0099526
X00836Y009363
X0083634Y0088826
X0080591Y0087445
X0076803Y0089748
X0092851Y0089031
X0095445Y0091259
X0093048Y0093952
X0098068Y0094051
X0098166Y0088834
X0098631Y0079225
X010171Y0076933
X01025Y0073637
X0109196Y0073683
X011038Y0076933
X0110308Y0069605
X01151Y00631
X01114Y00555
X0106272Y005595
X0101362Y0056222
X00975Y0055605
X00925Y0048649
X0094688Y0037927
X00876Y0037415
X00826
Y0032415
X00876
X00826Y0042415
X00766Y004673
X0067504Y0050572
X0064862Y00543
X00662Y0066068
X0069351Y00642
X00725Y006985
X0078675Y0068449
X00819
X0082531Y0074241
X00857Y00737
X0092006Y0080287
X0094688Y0077637
X009009Y0062905
X00811Y0061443
X0078598
X0071Y0077637
X00662Y0075846
X0063593Y0084772
X0061567Y0117554
X0066632Y0117618
X0068262Y0115711
X0071149Y0120268
X00811Y011989
X0085667Y0119635
X0085628Y0117826
X0085698Y0116003
X0101062Y0118106
X0104227Y0118313
X0113667Y0115711
X0113278Y0106811
X0120052Y0106711
X0118477Y0103168
X01181Y00944
X0108733Y0093555
X0108831Y0100314
X0101448Y010446
X0098954Y0108517
X0111752Y0084302
X0108667Y0045542
X01246Y00455
X01232Y00343
X0118667Y0028609
X0108667
X01037Y00286
X0098941Y0028609
X00749Y00208
X0064679Y00215
X0065Y00295
X0061Y00355
X0054764Y0039397
X0050724Y00434
X00468
X0046787Y0035563
X004285
X0045579Y0028498
X0038913Y0043437
Y0047374
X004285
X00428Y00514
X00401
X003665Y0052937
X0044032Y00556
X0050724Y0047374
X0054661
X0058393Y004403
X0054157Y0117127
T03
X0005Y00325
Y00425
Y00525
Y00625
Y00725
Y00825
Y00925
Y01025
Y01125
X0015Y01075
Y00975
Y00875
Y00775
Y00675
Y00575
Y00475
Y00375
Y00275
X00275Y0015
X00325Y0005
X00275Y013
X0015Y01175
X00375Y013
X00475
X00575
X00675
X00775
X00875
X00975
X01075
X01175
X013Y01175
Y01075
Y00975
Y00875
Y00775
Y00675
Y00575
Y00475
Y00375
Y00275
X014Y00325
Y00425
Y00525
Y00625
Y00725
Y00825
Y00925
Y01025
Y01125
X01175Y0015
X01075
X00975
X00875
X00775
X00675
X00575
X00475
X00375
X00425Y0005
X00525
X00625
X00725
X00825
X00925
X01025
X01125
Y014
X01025
X00925
X00825
X00725
X00625
X00525
X00425
X00325
T04
X001Y001
X0135
Y0135
X001
T05
X00811Y0027415
X00891
X00851Y0047415
T06
X0101167Y0037042
X0116167
M30
