G04*
G04 #@! TF.GenerationSoftware,Altium Limited,Altium Designer,23.0.1 (38)*
G04*
G04 Layer_Physical_Order=1*
G04 Layer_Color=39423*
%FSLAX25Y25*%
%MOIN*%
G70*
G04*
G04 #@! TF.SameCoordinates,5B5B4AAE-9A96-4119-B86E-250A3D0BA1A3*
G04*
G04*
G04 #@! TF.FilePolarity,Positive*
G04*
G01*
G75*
%ADD10C,0.02000*%
%ADD15C,0.00500*%
%ADD18C,0.00800*%
%ADD19R,0.05315X0.02756*%
%ADD20R,0.02362X0.02756*%
%ADD21R,0.04331X0.03150*%
%ADD22C,0.01200*%
%ADD23R,0.02559X0.01968*%
%ADD24R,0.06500X0.09449*%
%ADD25R,0.02362X0.03347*%
%ADD26R,0.02559X0.02559*%
%ADD27R,0.02559X0.02559*%
%ADD28R,0.07480X0.07480*%
%ADD29R,0.02756X0.00787*%
%ADD30R,0.02756X0.01575*%
%ADD31R,0.01575X0.02756*%
%ADD32R,0.00787X0.02756*%
%ADD33R,0.03740X0.03543*%
%ADD34R,0.10630X0.03150*%
%ADD35R,0.03543X0.03740*%
%ADD36R,0.01378X0.01772*%
%ADD37R,0.02900X0.11000*%
G04:AMPARAMS|DCode=38|XSize=29mil|YSize=110mil|CornerRadius=7.25mil|HoleSize=0mil|Usage=FLASHONLY|Rotation=0.000|XOffset=0mil|YOffset=0mil|HoleType=Round|Shape=RoundedRectangle|*
%AMROUNDEDRECTD38*
21,1,0.02900,0.09550,0,0,0.0*
21,1,0.01450,0.11000,0,0,0.0*
1,1,0.01450,0.00725,-0.04775*
1,1,0.01450,-0.00725,-0.04775*
1,1,0.01450,-0.00725,0.04775*
1,1,0.01450,0.00725,0.04775*
%
%ADD38ROUNDEDRECTD38*%
%ADD39R,0.03347X0.03150*%
%ADD40R,0.02756X0.02362*%
%ADD41R,0.07087X0.03937*%
%ADD42C,0.01457*%
%ADD43R,0.03347X0.02362*%
%ADD44R,0.01772X0.01378*%
%ADD45R,0.00984X0.01378*%
%ADD46R,0.01968X0.02559*%
%ADD80C,0.02000*%
%ADD81C,0.03100*%
%ADD82C,0.03937*%
%ADD83C,0.01000*%
%ADD84C,0.00600*%
%ADD85C,0.00500*%
%ADD86C,0.03400*%
%ADD87C,0.05000*%
%ADD88C,0.17000*%
%ADD89C,0.01800*%
D10*
X119412Y112321D02*
X125179D01*
X130000Y107500D01*
X129188Y117500D02*
X130000D01*
X119624Y118800D02*
X127888D01*
X129188Y117500D01*
D15*
X87418Y88118D02*
X89295D01*
X85667Y86367D02*
X87418Y88118D01*
X85667Y83667D02*
Y86367D01*
X78875Y123374D02*
X82500Y126999D01*
Y140000D01*
X27500Y126500D02*
Y130000D01*
X23312Y122312D02*
X27500Y126500D01*
X28541Y124541D02*
X32007Y128007D01*
Y139507D01*
X28541Y99264D02*
Y124541D01*
X23312Y100086D02*
Y122312D01*
X25600Y17552D02*
Y23300D01*
Y17552D02*
X27500Y15652D01*
Y15000D02*
Y15652D01*
X113452Y72542D02*
X121619D01*
X126300Y77223D02*
Y89823D01*
X121619Y72542D02*
X126300Y77223D01*
X31720Y42248D02*
X33234D01*
X40716Y41635D02*
X42850Y39500D01*
X44976Y33438D02*
X46787Y31626D01*
X44305Y37770D02*
X44976Y37099D01*
X31488Y42016D02*
X31720Y42248D01*
X37645Y41635D02*
X40716D01*
X36776Y42503D02*
Y50409D01*
X44976Y33438D02*
Y37099D01*
X36776Y42503D02*
X37645Y41635D01*
X38426Y119268D02*
X42990Y123832D01*
X36776Y120580D02*
X38704Y122508D01*
X42500Y128800D02*
Y140000D01*
X35000Y100582D02*
Y121300D01*
X38704Y122508D02*
Y122599D01*
X35000Y121300D02*
X42500Y128800D01*
X59508Y124268D02*
X62500Y127260D01*
Y140000D01*
X118856Y73542D02*
X124750Y79435D01*
X128777Y92300D02*
X139800D01*
X126300Y89823D02*
X128777Y92300D01*
X124750Y92250D02*
X130000Y97500D01*
X124750Y79435D02*
Y92250D01*
X129290Y53500D02*
X130000Y54210D01*
X125179Y55036D02*
Y57986D01*
X123372Y59793D02*
X125179Y57986D01*
Y55036D02*
X126714Y53500D01*
X129290D01*
X112494Y20006D02*
X117500Y15000D01*
X93970Y22853D02*
X96816Y20006D01*
X112494D01*
X81605Y80289D02*
X82092D01*
X82531Y80728D01*
X81603Y80287D02*
X81605Y80289D01*
X61366Y80287D02*
X81603D01*
X44862Y26238D02*
X52500Y18600D01*
Y5000D02*
Y18600D01*
X32295Y26238D02*
X44862D01*
X50071Y55920D02*
X58341Y47650D01*
X50071Y55920D02*
Y58118D01*
X63437Y46650D02*
X67225Y42861D01*
X64265Y48650D02*
X72500Y40415D01*
X48587Y55990D02*
X57927Y46650D01*
X63851Y47650D02*
X69866Y41635D01*
X49937Y58252D02*
X50071Y58118D01*
X58341Y47650D02*
X63851D01*
X57927Y46650D02*
X63437D01*
X58756Y48650D02*
X64265D01*
X69866Y25834D02*
Y41635D01*
X51524Y55881D02*
X58756Y48650D01*
X67225Y25275D02*
Y42861D01*
X48587Y55990D02*
Y60839D01*
X18631Y44741D02*
Y48956D01*
X23600Y53925D01*
Y61505D01*
X32409Y97991D02*
X35000Y100582D01*
X28541Y99264D02*
X29409Y98396D01*
X113359Y76199D02*
Y79287D01*
X113260Y76101D02*
X113359Y76199D01*
X113260Y75904D02*
Y76101D01*
X111804Y66126D02*
X122326D01*
X92390Y64044D02*
X109722D01*
X111804Y66126D01*
X57811Y70063D02*
X59774Y68100D01*
X69776D01*
X75322Y67485D02*
X77070Y65737D01*
X70391Y67485D02*
X75322D01*
X69776Y68100D02*
X70391Y67485D01*
X76349Y74000D02*
X81900Y68449D01*
X61748Y74000D02*
X76349D01*
X65593Y60635D02*
X67435Y58793D01*
X120778D01*
X67849Y59793D02*
X120937D01*
X66007Y61635D02*
X67849Y59793D01*
X63437Y61635D02*
X66007D01*
X63437Y60635D02*
X65593D01*
X66983Y122268D02*
X83770D01*
X87500Y125998D02*
Y130000D01*
X83770Y122268D02*
X87500Y125998D01*
X63353Y120268D02*
X66460Y123374D01*
X78875D01*
X63982Y119268D02*
X66983Y122268D01*
X16134Y82500D02*
X23107Y75527D01*
X32031Y75968D02*
X32221D01*
X31413Y76587D02*
X32031Y75968D01*
X23461Y76587D02*
X31413D01*
X23107Y75527D02*
X30634D01*
X32161Y74000D01*
X18250Y81798D02*
X23461Y76587D01*
X70680Y52650D02*
X76600Y46730D01*
X64568Y76095D02*
X65951D01*
X66200Y75846D01*
X46447Y97804D02*
Y115056D01*
X52287Y86193D02*
Y91964D01*
X46447Y97804D02*
X52287Y91964D01*
X43447Y96423D02*
Y116298D01*
X40570Y89273D02*
Y92229D01*
X38126Y89748D02*
Y91844D01*
X42447Y96009D02*
Y116713D01*
X38447Y94352D02*
X40570Y92229D01*
X40447Y95180D02*
X44600Y91027D01*
X45943Y89805D02*
X46000Y89748D01*
X42447Y96009D02*
X47350Y91106D01*
X39570Y88494D02*
Y91815D01*
X38447Y94352D02*
Y115711D01*
X37263Y94121D02*
Y100311D01*
X43447Y96423D02*
X48350Y91520D01*
X41447Y95595D02*
X45943Y91098D01*
Y89805D02*
Y91098D01*
X44447Y96837D02*
Y115884D01*
X45447Y97251D02*
X51287Y91411D01*
X44600Y87211D02*
Y91027D01*
X39447Y94766D02*
X43539Y90674D01*
X51287Y87161D02*
Y91411D01*
X47350Y89189D02*
Y91106D01*
X45447Y97251D02*
Y115470D01*
X41447Y95595D02*
Y117127D01*
X43539Y85914D02*
Y90674D01*
X44447Y96837D02*
X49937Y91347D01*
X48350Y88775D02*
Y91520D01*
X37263Y94121D02*
X39570Y91815D01*
X49937Y89748D02*
Y91347D01*
X40447Y95180D02*
Y117541D01*
X39447Y94766D02*
Y117955D01*
X34447Y95523D02*
X38126Y91844D01*
X34447Y95523D02*
Y95681D01*
X49937Y83842D02*
X52287Y86193D01*
X57811Y91126D02*
X59170Y92485D01*
Y95140D02*
X63437Y99406D01*
X59170Y92485D02*
Y95140D01*
X59780Y89748D02*
Y91094D01*
X61354Y92669D02*
Y94196D01*
X59780Y91094D02*
X61354Y92669D01*
Y94196D02*
X66336Y99178D01*
X67580D01*
X98497Y103955D02*
X100943D01*
X101448Y104460D01*
X77500Y126744D02*
Y130000D01*
X75355Y124599D02*
X77500Y126744D01*
X66098Y124599D02*
X75355D01*
X65684Y125599D02*
X70258D01*
X62352Y122268D02*
X65684Y125599D01*
X70258D02*
X72500Y127841D01*
X62766Y121268D02*
X66098Y124599D01*
X89438Y80702D02*
X91854Y83119D01*
Y85559D01*
X89438Y79219D02*
Y80702D01*
X101744Y76933D02*
Y77320D01*
X102173Y77749D01*
Y77803D02*
X103030Y78660D01*
X102173Y77749D02*
Y77803D01*
X103030Y78660D02*
X104106D01*
X98941Y82749D02*
Y85559D01*
Y82749D02*
X103030Y78660D01*
X104106D02*
X104225Y78541D01*
X99249Y74473D02*
X101710Y76933D01*
X97725Y74473D02*
X99249D01*
X97493Y74241D02*
X97725Y74473D01*
X94937Y75527D02*
X96922Y73542D01*
X94937Y75527D02*
Y77388D01*
X111507Y74487D02*
X113452Y72542D01*
X110575Y76933D02*
X111507Y76002D01*
Y74487D02*
Y76002D01*
X110380Y76933D02*
X110575D01*
X113260Y75904D02*
X115622Y73542D01*
X118856D01*
X122326Y66126D02*
X128700Y72500D01*
X130000Y47500D02*
Y51790D01*
X126300Y52500D02*
X129290D01*
X130000Y51790D01*
Y54210D02*
Y57500D01*
X124179Y54621D02*
X126300Y52500D01*
X124179Y54621D02*
Y57500D01*
X122886Y58793D02*
X124179Y57500D01*
X120778Y58793D02*
X122886D01*
X120937Y59793D02*
X123372D01*
X77411Y64200D02*
X78518Y63093D01*
X82750Y61404D02*
X83000Y61154D01*
X81100Y61443D02*
X81138Y61404D01*
X83000Y61154D02*
X96017D01*
X78518Y61523D02*
X78598Y61443D01*
X78518Y61523D02*
Y63093D01*
X120778Y58793D02*
X120937Y58634D01*
X81138Y61404D02*
X82750D01*
X120937Y55563D02*
Y58634D01*
Y59793D02*
Y63044D01*
X96017Y61154D02*
X97906Y63044D01*
X87257Y65737D02*
X90090Y62905D01*
X62882Y62189D02*
X63437Y61635D01*
X61748Y62189D02*
X62882D01*
X63022Y60220D02*
X63437Y60635D01*
X61748Y60220D02*
X63022D01*
X118667Y45542D02*
X118709Y45500D01*
X123000D01*
X124600D01*
X123000Y34500D02*
Y45500D01*
X123000Y45500D02*
X123000Y45500D01*
X94688Y35250D02*
Y37927D01*
X87938Y32754D02*
X92191D01*
X94688Y35250D01*
X87600Y32415D02*
X87938Y32754D01*
X36158Y62189D02*
X38126Y64157D01*
X36776Y50409D02*
X39520Y53153D01*
X5000Y102500D02*
X15100D01*
X20250Y97350D01*
X31409Y94437D02*
Y98405D01*
X32409Y95230D02*
Y97991D01*
X31773Y98769D02*
Y102688D01*
X31409Y98405D02*
X31773Y98769D01*
X29663Y99808D02*
Y122910D01*
X30409Y93960D02*
Y99063D01*
X29663Y99808D02*
X30409Y99063D01*
X29409Y93546D02*
Y98396D01*
X25800Y99943D02*
Y102657D01*
Y99943D02*
X28409Y97334D01*
Y93131D02*
Y97334D01*
X29663Y122910D02*
X30745Y123992D01*
X34107D01*
X28409Y93131D02*
X30118Y91422D01*
X32409Y95230D02*
X36776Y90863D01*
X29409Y93546D02*
X31118Y91836D01*
X30409Y93960D02*
X32298Y92071D01*
X31409Y94437D02*
X35539Y90307D01*
X27316Y92810D02*
X28541Y91585D01*
X27316Y92810D02*
Y96082D01*
X23312Y100086D02*
X27316Y96082D01*
X36776Y89130D02*
Y90863D01*
X28541Y89490D02*
Y91585D01*
X92500Y54697D02*
X95058Y57255D01*
X100061D01*
X77070Y65737D02*
X87257D01*
X77991Y66799D02*
X89635D01*
X92390Y64044D01*
X74661Y72500D02*
X78675Y68486D01*
Y68449D02*
Y68486D01*
X73290Y71500D02*
X77991Y66799D01*
X72287Y70063D02*
X72500Y69850D01*
X61748Y70063D02*
X72287D01*
X60501Y71500D02*
X73290D01*
X61279Y72500D02*
X74661D01*
X61748Y77937D02*
X67611D01*
X67911Y77637D01*
X55461Y92475D02*
X56775Y93789D01*
Y99264D01*
X62407Y102780D02*
X65408Y105780D01*
X62304Y102780D02*
X62407D01*
X57775Y93375D02*
Y98251D01*
X62304Y102780D01*
X65408Y105780D02*
Y107254D01*
X53447Y102592D02*
X56775Y99264D01*
X53447Y102592D02*
Y104254D01*
X56461Y92061D02*
X57775Y93375D01*
X56461Y88587D02*
Y92061D01*
X50417Y107284D02*
X53447Y104254D01*
X42990Y123832D02*
Y125490D01*
X47500Y130000D01*
X52500Y127800D02*
Y140000D01*
X50968Y126268D02*
X52500Y127800D01*
X72500Y127841D02*
Y140000D01*
X92500Y126319D02*
Y140000D01*
Y126319D02*
X95445Y123374D01*
X102244D01*
X104227Y121391D01*
Y118313D02*
Y121391D01*
X124042Y71542D02*
X130000Y77500D01*
X116135Y71542D02*
X124042D01*
X38126Y54765D02*
Y58252D01*
X36650Y53289D02*
X38126Y54765D01*
X34189Y56945D02*
Y58252D01*
X33635Y56391D02*
X34189Y56945D01*
X33635Y47506D02*
Y56391D01*
Y47506D02*
X34411Y46730D01*
X36650Y52937D02*
Y53289D01*
X35000Y50005D02*
Y55563D01*
Y50005D02*
X35650Y49355D01*
X35000Y55563D02*
X36158Y56721D01*
X46000Y54285D02*
X48968Y51317D01*
Y41681D02*
Y51317D01*
X46000Y54285D02*
Y58252D01*
X42063Y54848D02*
Y58252D01*
X46787Y47374D02*
Y50123D01*
X42063Y54848D02*
X46787Y50123D01*
X44032Y55600D02*
Y58252D01*
X52524Y37363D02*
Y50183D01*
X47587Y55120D02*
X52524Y50183D01*
X46787Y39500D02*
X48968Y41681D01*
X46787Y43413D02*
Y43437D01*
Y43413D02*
X46800Y43400D01*
X48968Y34462D02*
Y37744D01*
X50724Y39500D01*
X74900Y26084D02*
Y39429D01*
X80984Y20000D02*
X89091D01*
X74900Y26084D02*
X80984Y20000D01*
X60007Y51650D02*
X66427D01*
X67504Y50572D01*
X57811Y56817D02*
Y58252D01*
X60329Y54300D02*
X64862D01*
X57811Y56817D02*
X60329Y54300D01*
X55461Y56195D02*
Y58634D01*
X60421Y52650D02*
X70680D01*
X56461Y56609D02*
Y59661D01*
X59592Y50650D02*
X65093D01*
X52524Y56295D02*
Y59412D01*
X51524Y55881D02*
Y58634D01*
X55461Y56195D02*
X60007Y51650D01*
X53874Y56368D02*
Y58252D01*
X56461Y56609D02*
X60421Y52650D01*
X59170Y49650D02*
X64679D01*
X53874Y56368D02*
X59592Y50650D01*
X52524Y56295D02*
X59170Y49650D01*
X47587Y55120D02*
Y58634D01*
X53874Y60220D02*
X55461Y58634D01*
X53933Y62189D02*
X56461Y59661D01*
X53874Y62189D02*
X53933D01*
X22353Y83351D02*
Y98075D01*
X21162Y99266D02*
Y106088D01*
X20250Y82626D02*
Y97350D01*
X20112Y98902D02*
X21250Y97764D01*
X21162Y99266D02*
X22353Y98075D01*
X18631Y107500D02*
X20112Y106018D01*
X21250Y83040D02*
Y97764D01*
X20112Y98902D02*
Y106018D01*
X28316Y28803D02*
X33719Y23400D01*
X39100D01*
X47500Y15000D01*
X35650Y38897D02*
X36776Y37770D01*
X35650Y38897D02*
Y49355D01*
X40100Y51048D02*
Y51400D01*
X41056Y44987D02*
X42606Y43437D01*
X41056Y44987D02*
Y50092D01*
X40100Y51048D02*
X41056Y50092D01*
X101094Y56222D02*
X101362D01*
X100061Y57255D02*
X101094Y56222D01*
X98667Y45542D02*
Y54438D01*
X97500Y55604D02*
Y55605D01*
X101362Y56222D02*
X103667Y53917D01*
X97500Y55604D02*
X98667Y54438D01*
X75972Y64200D02*
X77411D01*
X92006Y80629D02*
X93429Y82051D01*
Y85559D01*
X92006Y80287D02*
Y80629D01*
X95740Y79225D02*
X97414D01*
X94004Y79287D02*
X95678D01*
X94688Y77637D02*
X94937Y77388D01*
X93038Y77448D02*
Y78320D01*
X95678Y79287D02*
X95740Y79225D01*
X97414D02*
Y85511D01*
X91835Y76245D02*
X93038Y77448D01*
Y78320D02*
X94004Y79287D01*
X97414Y79225D02*
X98631D01*
X61354Y76362D02*
X64300D01*
X64568Y76095D01*
X16297Y112500D02*
X21162Y107635D01*
X15000Y107500D02*
X18631D01*
X21162Y106088D02*
Y107635D01*
X34107Y123992D02*
X34151Y123948D01*
X26404Y84039D02*
X26601Y83842D01*
X32221D01*
Y48240D02*
Y58252D01*
X32194Y28672D02*
X32266Y28600D01*
X45477D01*
X31841Y47861D02*
X32221Y48240D01*
X31841Y45500D02*
Y47861D01*
X33234Y42248D02*
X34411Y43425D01*
Y46730D01*
X29316Y29217D02*
Y48856D01*
X30118Y49658D02*
Y49799D01*
X29316Y48856D02*
X30118Y49658D01*
X27316Y59253D02*
X30252Y62189D01*
X27316Y28006D02*
Y59253D01*
X26316Y25942D02*
X28158Y24100D01*
X25700Y48956D02*
X26316Y48340D01*
X27316Y28006D02*
X37365Y17957D01*
X28316Y56316D02*
X30252Y58252D01*
X28316Y28803D02*
Y56316D01*
X29316Y29217D02*
X32295Y26238D01*
X26316Y25942D02*
Y48340D01*
X48968Y34462D02*
X49830Y33600D01*
X62876D02*
X63961Y32515D01*
X64265D01*
X49830Y33600D02*
X62876D01*
X59959Y28600D02*
X62831Y25728D01*
X51660Y28600D02*
X59959D01*
X62831Y25728D02*
X63028D01*
X46787Y31626D02*
X48634D01*
X51660Y28600D01*
X44329Y30148D02*
X47918D01*
X55223Y22843D01*
Y21505D02*
Y22843D01*
X45477Y28600D02*
X45579Y28498D01*
X58772Y21500D02*
X64679D01*
X55223Y21505D02*
X55228Y21500D01*
X42850Y31626D02*
X44329Y30148D01*
X37365Y15135D02*
X37500Y15000D01*
X37365Y15135D02*
Y17957D01*
X21068Y47285D02*
X23134Y49351D01*
X20867Y47285D02*
X21068D01*
X20428Y46650D02*
Y46847D01*
X20867Y47285D01*
X20428Y43139D02*
Y46650D01*
Y30707D02*
Y32500D01*
Y29000D02*
Y30707D01*
Y28803D02*
Y29000D01*
X20428Y32500D02*
X20428Y32500D01*
Y37534D02*
Y39500D01*
Y35648D02*
Y37534D01*
Y35451D02*
Y35648D01*
X20428Y39500D02*
X20428Y39500D01*
X16390Y42500D02*
X18631Y44741D01*
X27752Y63539D02*
X30871D01*
X25700Y61487D02*
X27752Y63539D01*
X23600Y61505D02*
X26795Y64700D01*
X30795D01*
X20650Y53150D02*
Y61154D01*
X25497Y66001D01*
X30127D01*
X24775Y67485D02*
X31421D01*
X19632Y62342D02*
X24775Y67485D01*
X15717Y62500D02*
X23280Y70063D01*
X30252D01*
X15000Y67500D02*
X19100Y71600D01*
X33203D01*
X19431Y72600D02*
X32789D01*
X15000Y77031D02*
X19431Y72600D01*
X26404Y84039D02*
Y86986D01*
X26336Y87055D02*
X26404Y86986D01*
X22353Y83351D02*
X23697Y82008D01*
X15000Y77031D02*
Y77500D01*
X18250Y91711D02*
Y95279D01*
X15000Y97500D02*
X16029D01*
X18250Y95279D01*
X5300Y112500D02*
X16297D01*
X90499Y117811D02*
X92006D01*
X55843Y87779D02*
Y87969D01*
X56461Y88587D01*
X55461Y89367D02*
Y92475D01*
X53874Y87779D02*
X55461Y89367D01*
X50417Y107284D02*
Y115102D01*
X65307Y107355D02*
Y115102D01*
Y107355D02*
X65408Y107254D01*
X139800Y92300D02*
X140000Y92500D01*
X114395Y69605D02*
Y69802D01*
X116135Y71542D01*
X110308Y69605D02*
X114395D01*
X115044Y63044D02*
X115100Y63100D01*
X113450Y63044D02*
X115044D01*
X36650Y100925D02*
Y108949D01*
Y100925D02*
X37263Y100311D01*
X39447Y117955D02*
X47759Y126268D01*
X40447Y117541D02*
X48174Y125268D01*
X41447Y117127D02*
X48588Y124268D01*
X44447Y115884D02*
X49830Y121268D01*
X45447Y115470D02*
X50245Y120268D01*
X36776Y117382D02*
X38447Y115711D01*
X43447Y116298D02*
X49416Y122268D01*
X46447Y115056D02*
X50659Y119268D01*
X42447Y116713D02*
X49002Y123268D01*
X36776Y117382D02*
Y120580D01*
Y89130D02*
X38126Y87779D01*
X35539Y89130D02*
Y90307D01*
X34189Y87779D02*
X35539Y89130D01*
X32007Y139507D02*
X32500Y140000D01*
X31118Y90851D02*
Y91836D01*
X30118Y89882D02*
X30252Y89748D01*
X32298Y91639D02*
X34189Y89748D01*
X31118Y90851D02*
X32221Y89748D01*
X32298Y91639D02*
Y92071D01*
X30118Y89882D02*
Y91422D01*
X48588Y124268D02*
X59508D01*
X49830Y121268D02*
X62766D01*
X47759Y126268D02*
X50968D01*
X50659Y119268D02*
X63982D01*
X49416Y122268D02*
X62352D01*
X50245Y120268D02*
X63353D01*
X49002Y123268D02*
X61216D01*
X48174Y125268D02*
X52768D01*
X61216Y123268D02*
X67500Y129552D01*
Y130000D01*
X52768Y125268D02*
X57500Y130000D01*
X39570Y88494D02*
X40095Y87969D01*
X40570Y89273D02*
X42063Y87779D01*
X40095D02*
Y87969D01*
X43539Y85914D02*
X44032Y85422D01*
X44600Y87211D02*
X46000Y85811D01*
X28541Y89490D02*
X30252Y87779D01*
X19250Y82212D02*
Y90711D01*
X18250Y91711D02*
X19250Y90711D01*
X16047Y92500D02*
X18250Y90297D01*
Y81798D02*
Y90297D01*
X23589Y79287D02*
X30871D01*
X20250Y82626D02*
X23589Y79287D01*
X19250Y82212D02*
X23525Y77937D01*
X23697Y82008D02*
X30118D01*
X24003Y80287D02*
X33808D01*
X5000Y82500D02*
X16134D01*
X21250Y83040D02*
X24003Y80287D01*
X23525Y77937D02*
X30252D01*
X20428Y42942D02*
Y43139D01*
X15000Y37500D02*
Y37514D01*
X20428Y42942D01*
X17477Y32500D02*
X20428Y35451D01*
X5000Y32500D02*
X17477D01*
X15000Y27500D02*
X19125D01*
X20428Y28803D01*
X20428Y46650D02*
X20428Y46650D01*
X25700Y48956D02*
Y61487D01*
X30127Y66001D02*
X30252Y66126D01*
X5000Y42500D02*
X16390D01*
X15000Y47500D02*
X20650Y53150D01*
X30871Y63539D02*
X32221Y62189D01*
X5000Y52500D02*
X15436D01*
X19632Y56696D01*
Y62342D01*
X15640Y60750D02*
X23491Y68602D01*
X31421Y67485D02*
X32031Y68094D01*
X32221D01*
X30759Y68602D02*
X32221Y70063D01*
X23491Y68602D02*
X30759D01*
X15640Y58139D02*
Y60750D01*
X15000Y57500D02*
X15640Y58139D01*
X5000Y62500D02*
X15717D01*
X33203Y71600D02*
X33635Y72031D01*
X32789Y72600D02*
X34189Y74000D01*
X5000Y92500D02*
X16047D01*
X30118Y82008D02*
X30252Y81874D01*
X33808Y80287D02*
X36158Y77937D01*
X46000Y87779D02*
Y87839D01*
X48102Y87914D02*
Y88527D01*
X47969Y87779D02*
X48102Y87914D01*
Y88527D02*
X48350Y88775D01*
X46000Y87839D02*
X47350Y89189D01*
X59780Y74000D02*
X61279Y72500D01*
X59780Y72031D02*
X59969D01*
X60501Y71500D01*
X97366Y85559D02*
X97414Y85511D01*
X83634Y88826D02*
X83986D01*
X84852Y89693D02*
X89295D01*
X83986Y88826D02*
X84852Y89693D01*
X82531Y74241D02*
X85770Y71003D01*
X88311D01*
X61882Y82008D02*
Y83061D01*
X63593Y84772D01*
X61748Y81874D02*
X61882Y82008D01*
X88311Y71003D02*
X89438Y72129D01*
Y79219D01*
X96922Y73542D02*
X97414D01*
X75816Y94614D02*
X76803Y95601D01*
X70034Y94614D02*
X75816D01*
X76803Y95601D02*
X77000D01*
X70034Y84772D02*
X75540D01*
X76803Y83508D01*
X77000D01*
X68459Y84772D02*
X70034D01*
X61748Y87779D02*
X65451D01*
X68459Y84772D01*
X63593Y89748D02*
X68459Y94614D01*
X70034D01*
X61748Y89748D02*
X63593D01*
X91638Y76245D02*
X91835D01*
X83634D02*
X87285D01*
X87374D01*
X86846Y76684D02*
X87285Y76245D01*
X86846Y76684D02*
Y83110D01*
X82650Y80650D02*
X85667Y83667D01*
X86846Y83110D02*
X89492Y85756D01*
X80591Y79287D02*
X83634Y76245D01*
X60588Y79287D02*
X80591D01*
X67911Y77637D02*
X71000D01*
X59969Y79905D02*
X60588Y79287D01*
X59780Y81874D02*
X61366Y80287D01*
X59780Y79905D02*
X59969D01*
X123000Y34500D02*
X123200Y34300D01*
X92500Y48649D02*
Y54697D01*
X97467Y42415D02*
X98667Y43615D01*
Y45542D01*
X87600Y42415D02*
X97467D01*
X77420Y25904D02*
Y38323D01*
X65093Y50650D02*
X77420Y38323D01*
Y25904D02*
X80471Y22853D01*
X128700Y72500D02*
X140000D01*
X69351Y64200D02*
X72428D01*
X59822D02*
X69351D01*
X97906Y63044D02*
X113450D01*
X72428Y64003D02*
Y64200D01*
X106272Y55950D02*
X108667Y53555D01*
Y45542D02*
Y53555D01*
X103667Y45542D02*
Y53917D01*
X59780Y64157D02*
X59822Y64200D01*
X80471Y22853D02*
X93970D01*
X64679Y49650D02*
X74900Y39429D01*
X72500Y25871D02*
Y40415D01*
X67225Y25275D02*
X77500Y15000D01*
X72500Y25871D02*
X82500Y15871D01*
Y5000D02*
Y15871D01*
X97500Y15000D02*
Y15936D01*
X92500Y5000D02*
Y16591D01*
X89091Y20000D02*
X92500Y16591D01*
X69866Y25834D02*
X74900Y20800D01*
X50724Y35563D02*
X52524Y37363D01*
X28158Y24100D02*
X28400D01*
X36776Y37770D02*
X44305D01*
X36158Y56721D02*
Y60220D01*
X50724Y43400D02*
Y43437D01*
X44032Y60031D02*
Y60220D01*
X42606Y43437D02*
X42850D01*
X39520Y53153D02*
Y61060D01*
X42063Y60220D02*
X44032Y58252D01*
X40713Y53487D02*
X42800Y51400D01*
X40713Y53487D02*
Y60839D01*
X42063Y62189D01*
X65700Y115102D02*
X65897Y115299D01*
X49937Y60220D02*
X51524Y58634D01*
X51906Y60031D02*
X52524Y59412D01*
X51906Y60031D02*
Y60220D01*
X46000D02*
X47587Y58634D01*
X48587Y60839D02*
X49937Y62189D01*
X39520Y61060D02*
X40095Y61635D01*
Y64157D01*
X33635Y72031D02*
X36158D01*
X32161Y74000D02*
X32221D01*
X30871Y79287D02*
X32221Y77937D01*
X49937Y85811D02*
X51287Y87161D01*
X53874Y83842D02*
Y85811D01*
X40095Y83842D02*
Y85811D01*
X46000D02*
X46000D01*
X44032Y83842D02*
Y85422D01*
X57811Y89748D02*
Y91126D01*
X61748Y66126D02*
X66102D01*
X30795Y64700D02*
X32221Y66126D01*
X59780Y77937D02*
X61354Y76362D01*
X112138Y100412D02*
X112237Y100511D01*
X108930Y100412D02*
X112138D01*
X97366Y102825D02*
X98497Y103955D01*
X97366Y97764D02*
Y102825D01*
X106379Y95205D02*
X108831Y97656D01*
X101500Y95205D02*
X106379D01*
X108831Y97656D02*
Y100314D01*
X106272Y69802D02*
X110111D01*
X110308Y69605D01*
D18*
X23950Y28875D02*
X23972Y28896D01*
X23950Y35563D02*
X23972Y35585D01*
Y28896D02*
Y29000D01*
Y35585D02*
Y35648D01*
X122531Y108949D02*
X123000Y108481D01*
X118897Y76101D02*
X123000Y80204D01*
Y108481D01*
X114437Y108949D02*
X122531D01*
X84309Y97178D02*
Y101038D01*
X86283Y95205D02*
X89295D01*
X84309Y97178D02*
X86283Y95205D01*
X110135Y84302D02*
X111752D01*
X104745Y89693D02*
X110135Y84302D01*
X101500Y88118D02*
X103390D01*
X111741Y79766D01*
X113084Y79287D02*
Y79555D01*
X112873Y79766D02*
X113084Y79555D01*
X111741Y79766D02*
X112873D01*
X92123Y113623D02*
X96016D01*
X96947Y114554D01*
X90948Y112448D02*
X92123Y113623D01*
X90948Y112448D02*
X91032D01*
X75200Y117653D02*
X76571Y116281D01*
Y116183D02*
Y116281D01*
Y116183D02*
X77420Y115334D01*
X71805Y117653D02*
X75200D01*
X77420Y112848D02*
Y115334D01*
X77214Y112642D02*
X77420Y112848D01*
X96947Y114554D02*
X103449D01*
X104745Y113258D01*
X70391Y102753D02*
Y111659D01*
X71374Y112642D02*
X77214D01*
X70391Y111659D02*
X71374Y112642D01*
X70391Y102753D02*
X71873Y101271D01*
X75099D01*
X78598Y97772D01*
X55432Y44030D02*
X58393D01*
X54661Y43437D02*
X54839D01*
X55432Y44030D01*
X104745Y101271D02*
Y113258D01*
X104181Y100707D02*
X104745Y101271D01*
X99646Y100707D02*
X104181D01*
X98941Y97764D02*
Y100003D01*
X99646Y100707D01*
X111455Y118800D02*
X113475Y116780D01*
Y115520D02*
X113667Y115711D01*
X113475Y114554D02*
Y115520D01*
Y115903D02*
Y116780D01*
X111243Y112321D02*
X113475Y114554D01*
Y115903D02*
X113667Y115711D01*
X110176Y118800D02*
X111455D01*
X109963Y112321D02*
X111243D01*
X54661Y39500D02*
X54764Y39397D01*
X34447Y32515D02*
X35533Y33600D01*
X40887D02*
X42850Y35563D01*
X35533Y33600D02*
X40887D01*
X32500Y32515D02*
X34447D01*
X78598Y97772D02*
X78662D01*
X79562Y96871D01*
Y91169D02*
Y96871D01*
Y91169D02*
X80355Y90376D01*
X83724Y91661D02*
X89295D01*
X82439Y90376D02*
X83724Y91661D01*
X80355Y90376D02*
X82439D01*
X113969Y108481D02*
X114437Y108949D01*
X113969Y107207D02*
Y108481D01*
X113573Y106811D02*
X113969Y107207D01*
X113278Y106811D02*
X113573D01*
X116804Y76101D02*
X118897D01*
X90948Y104187D02*
X92254D01*
X93429Y103012D01*
Y97764D02*
Y103012D01*
X83600Y93630D02*
X89295D01*
X81553D02*
X83600D01*
X81447Y93736D02*
X81553Y93630D01*
X77420Y104187D02*
X81160D01*
X84309Y101038D01*
X98733Y28609D02*
X98941D01*
X98667Y28542D02*
X98733Y28609D01*
X61000Y35500D02*
Y35506D01*
X61142Y35648D01*
Y37715D01*
X61354Y37927D01*
X54764Y39397D02*
X59983D01*
X61354Y38026D01*
Y37927D02*
Y38026D01*
X58393Y44030D02*
X61354D01*
X101500Y89693D02*
X104745D01*
X101509Y93621D02*
X108667D01*
X91861Y95198D02*
Y97757D01*
D19*
X119412Y112321D02*
D03*
X109963D02*
D03*
X110176Y118800D02*
D03*
X119624D02*
D03*
D20*
X113450Y63044D02*
D03*
X120937D02*
D03*
Y55563D02*
D03*
D21*
X114237D02*
D03*
D22*
X32221Y89748D02*
D03*
X34189D02*
D03*
X38126D02*
D03*
X42063D02*
D03*
X46000D02*
D03*
X49937D02*
D03*
X53874D02*
D03*
X57811D02*
D03*
X61748D02*
D03*
X30252Y87779D02*
D03*
X32221D02*
D03*
X34189D02*
D03*
X38126D02*
D03*
X40095D02*
D03*
X42063D02*
D03*
X46000D02*
D03*
X47969D02*
D03*
X49937D02*
D03*
X53874D02*
D03*
X55843D02*
D03*
X57811D02*
D03*
X59780D02*
D03*
X61748D02*
D03*
X30252Y85811D02*
D03*
X32221D02*
D03*
X34189D02*
D03*
X36158D02*
D03*
X38126D02*
D03*
X42063D02*
D03*
X46000D02*
D03*
X49937D02*
D03*
X53874D02*
D03*
X57811D02*
D03*
X59780D02*
D03*
X61748D02*
D03*
X32221Y83842D02*
D03*
X38126D02*
D03*
X40095D02*
D03*
X42063D02*
D03*
X44032D02*
D03*
X46000D02*
D03*
X49937D02*
D03*
X51906D02*
D03*
X53874D02*
D03*
X57811D02*
D03*
X30252Y81874D02*
D03*
X32221D02*
D03*
X34189D02*
D03*
X36158D02*
D03*
X40095D02*
D03*
X44032D02*
D03*
X47969D02*
D03*
X51906D02*
D03*
X55843D02*
D03*
X57811D02*
D03*
X59780D02*
D03*
X61748D02*
D03*
X36158Y79905D02*
D03*
X38126D02*
D03*
X42063D02*
D03*
X49937D02*
D03*
X53874D02*
D03*
X55843D02*
D03*
X59780D02*
D03*
X30252Y77937D02*
D03*
X32221D02*
D03*
X34189D02*
D03*
X36158D02*
D03*
X40095D02*
D03*
X51906D02*
D03*
X55843D02*
D03*
X57811D02*
D03*
X59780D02*
D03*
X61748D02*
D03*
X32221Y75968D02*
D03*
X38126D02*
D03*
X44032D02*
D03*
X46000D02*
D03*
X47969D02*
D03*
X53874D02*
D03*
X55843D02*
D03*
X32221Y74000D02*
D03*
X34189D02*
D03*
X36158D02*
D03*
X44032D02*
D03*
X47969D02*
D03*
X55843D02*
D03*
X57811D02*
D03*
X59780D02*
D03*
X61748D02*
D03*
X36158Y72031D02*
D03*
X38126D02*
D03*
X44032D02*
D03*
X46000D02*
D03*
X47969D02*
D03*
X53874D02*
D03*
X59780D02*
D03*
X30252Y70063D02*
D03*
X32221D02*
D03*
X34189D02*
D03*
X36158D02*
D03*
X40095D02*
D03*
X51906D02*
D03*
X55843D02*
D03*
X57811D02*
D03*
X59780D02*
D03*
X61748D02*
D03*
X32221Y68094D02*
D03*
X36158D02*
D03*
X38126D02*
D03*
X42063D02*
D03*
X49937D02*
D03*
X53874D02*
D03*
X55843D02*
D03*
X30252Y66126D02*
D03*
X32221D02*
D03*
X34189D02*
D03*
X36158D02*
D03*
X40095D02*
D03*
X44032D02*
D03*
X47969D02*
D03*
X51906D02*
D03*
X55843D02*
D03*
X57811D02*
D03*
X59780D02*
D03*
X61748D02*
D03*
X34189Y64157D02*
D03*
X38126D02*
D03*
X40095D02*
D03*
X42063D02*
D03*
X46000D02*
D03*
X47969D02*
D03*
X49937D02*
D03*
X51906D02*
D03*
X53874D02*
D03*
X59780D02*
D03*
X30252Y62189D02*
D03*
X32221D02*
D03*
X34189D02*
D03*
X38126D02*
D03*
X42063D02*
D03*
X46000D02*
D03*
X49937D02*
D03*
X53874D02*
D03*
X55843D02*
D03*
X57811D02*
D03*
X59780D02*
D03*
X61748D02*
D03*
X30252Y60220D02*
D03*
X32221D02*
D03*
X34189D02*
D03*
X36158D02*
D03*
X38126D02*
D03*
X42063D02*
D03*
X44032D02*
D03*
X46000D02*
D03*
X49937D02*
D03*
X51906D02*
D03*
X53874D02*
D03*
X57811D02*
D03*
X59780D02*
D03*
X61748D02*
D03*
X30252Y58252D02*
D03*
X32221D02*
D03*
X34189D02*
D03*
X38126D02*
D03*
X42063D02*
D03*
X46000D02*
D03*
X49937D02*
D03*
X53874D02*
D03*
X57811D02*
D03*
X59780D02*
D03*
X61748D02*
D03*
X30252Y74000D02*
D03*
Y89748D02*
D03*
X59780D02*
D03*
X36158Y81874D02*
D03*
X38126Y81912D02*
D03*
X42063Y64157D02*
D03*
X38126Y72031D02*
D03*
Y74000D02*
D03*
X119222Y79512D02*
D03*
X115545Y83632D02*
D03*
X118100Y83502D02*
D03*
Y89653D02*
D03*
X57811Y87779D02*
D03*
X117938Y69605D02*
D03*
X57799Y60220D02*
D03*
X38126D02*
D03*
X32221D02*
D03*
X34189Y70063D02*
D03*
X36158Y66126D02*
D03*
X34189D02*
D03*
X36140Y75963D02*
D03*
X30252Y74000D02*
D03*
X42016Y85811D02*
D03*
X42063Y83842D02*
D03*
X36158Y68094D02*
D03*
X44045Y60207D02*
D03*
X55843Y79905D02*
D03*
Y81874D02*
D03*
X61748Y85811D02*
D03*
X50000Y81900D02*
D03*
X57811Y81874D02*
D03*
X59780Y85811D02*
D03*
X53874Y79905D02*
D03*
X49937D02*
D03*
X47969Y83842D02*
D03*
X57811Y85811D02*
D03*
X53874D02*
D03*
X38126Y79905D02*
D03*
Y83842D02*
D03*
Y85811D02*
D03*
X40095D02*
D03*
X36158D02*
D03*
X42100Y79900D02*
D03*
X47969Y64157D02*
D03*
X49937D02*
D03*
X55900Y64100D02*
D03*
X52004Y62189D02*
D03*
X53874Y64157D02*
D03*
X51906D02*
D03*
X57811D02*
D03*
X59780Y66126D02*
D03*
Y62189D02*
D03*
X44032Y75968D02*
D03*
X46000Y62189D02*
D03*
Y64157D02*
D03*
X44032Y72031D02*
D03*
X46000D02*
D03*
X46098Y79512D02*
D03*
X46000Y75968D02*
D03*
X44032Y66126D02*
D03*
Y74000D02*
D03*
X42063Y68094D02*
D03*
X59780Y87779D02*
D03*
X49937D02*
D03*
X53874Y89748D02*
D03*
Y74000D02*
D03*
X59780Y70063D02*
D03*
X57811Y72031D02*
D03*
X47969Y75968D02*
D03*
X51906Y70063D02*
D03*
X53874Y68094D02*
D03*
Y72031D02*
D03*
Y75968D02*
D03*
X47969Y72031D02*
D03*
Y74000D02*
D03*
X36158Y70063D02*
D03*
X38126Y75968D02*
D03*
X36158Y62189D02*
D03*
X38100Y68100D02*
D03*
X38126Y62189D02*
D03*
X34189Y64157D02*
D03*
X32221Y85811D02*
D03*
X34200Y75900D02*
D03*
X34189Y81889D02*
D03*
Y85811D02*
D03*
Y62189D02*
D03*
D23*
X50417Y115102D02*
D03*
X54157D02*
D03*
X65307D02*
D03*
X61567D02*
D03*
X117492Y79435D02*
D03*
X113752D02*
D03*
X117018Y106811D02*
D03*
X113278D02*
D03*
D24*
X50447Y107254D02*
D03*
X65408D02*
D03*
D25*
X32500Y32515D02*
D03*
Y37042D02*
D03*
D26*
X101303Y85756D02*
D03*
X89492D02*
D03*
D27*
Y97567D02*
D03*
X101303D02*
D03*
D28*
X95398Y91661D02*
D03*
D29*
X101500Y89693D02*
D03*
Y88118D02*
D03*
X89295Y89693D02*
D03*
X101500Y93630D02*
D03*
Y95205D02*
D03*
X89295D02*
D03*
Y93630D02*
D03*
Y88118D02*
D03*
D30*
X101500Y91661D02*
D03*
X89295D02*
D03*
D31*
X95398Y85559D02*
D03*
Y97764D02*
D03*
D32*
X97366Y85559D02*
D03*
X98941Y97764D02*
D03*
X97366D02*
D03*
X93429D02*
D03*
X91854D02*
D03*
X98941Y85559D02*
D03*
X93429D02*
D03*
X91854D02*
D03*
D33*
X118340Y100511D02*
D03*
X112237D02*
D03*
X117999Y94511D02*
D03*
X111897D02*
D03*
X98109Y117811D02*
D03*
X92006D02*
D03*
X81204Y117653D02*
D03*
X75101D02*
D03*
D34*
X77420Y103887D02*
D03*
Y112548D02*
D03*
X90948Y103887D02*
D03*
Y112548D02*
D03*
D35*
X118100Y89604D02*
D03*
Y83502D02*
D03*
X61354Y37927D02*
D03*
Y44030D02*
D03*
X101448Y104460D02*
D03*
Y110562D02*
D03*
D36*
X104225Y78541D02*
D03*
X107768D02*
D03*
X109828Y89500D02*
D03*
X113372D02*
D03*
X58772Y21500D02*
D03*
X55228D02*
D03*
X23972Y32500D02*
D03*
X20428D02*
D03*
X23972Y39500D02*
D03*
X20428D02*
D03*
X23972Y46650D02*
D03*
X20428D02*
D03*
X117938Y69605D02*
D03*
X114395D02*
D03*
X72428Y64200D02*
D03*
X75972D02*
D03*
X20428Y35648D02*
D03*
X23972D02*
D03*
X67580Y99178D02*
D03*
X113260Y76101D02*
D03*
X116804D02*
D03*
X89272Y117811D02*
D03*
X85728D02*
D03*
X71805Y117653D02*
D03*
X68262D02*
D03*
X20428Y43139D02*
D03*
X23972D02*
D03*
X71123Y99178D02*
D03*
X20428Y29000D02*
D03*
X23972D02*
D03*
D37*
X118667Y45542D02*
D03*
X113667D02*
D03*
X108667D02*
D03*
X103667D02*
D03*
X98667D02*
D03*
X103667Y28542D02*
D03*
X108667D02*
D03*
X113667D02*
D03*
X118667D02*
D03*
D38*
X98667D02*
D03*
D39*
X25993Y113429D02*
D03*
Y119335D02*
D03*
X32087Y113429D02*
D03*
Y119335D02*
D03*
D40*
X77000Y95601D02*
D03*
Y91664D02*
D03*
Y87445D02*
D03*
Y83508D02*
D03*
D41*
X70034Y94614D02*
D03*
Y84772D02*
D03*
D42*
X38913Y47374D02*
D03*
X42850D02*
D03*
X46787D02*
D03*
X50724D02*
D03*
X54661D02*
D03*
X38913Y43437D02*
D03*
X42850D02*
D03*
X46787D02*
D03*
X50724D02*
D03*
X54661D02*
D03*
X38913Y39500D02*
D03*
X42850D02*
D03*
X46787D02*
D03*
X50724D02*
D03*
X54661D02*
D03*
X38913Y35563D02*
D03*
X42850D02*
D03*
X46787D02*
D03*
X50724D02*
D03*
X54661D02*
D03*
X38913Y31626D02*
D03*
X42850D02*
D03*
X46787D02*
D03*
X50724D02*
D03*
D43*
X97414Y66062D02*
D03*
Y73542D02*
D03*
X106272D02*
D03*
Y69802D02*
D03*
Y66062D02*
D03*
D44*
X63028Y25728D02*
D03*
Y29272D02*
D03*
X26336Y90598D02*
D03*
Y87055D02*
D03*
X31773Y106232D02*
D03*
Y102688D02*
D03*
X25800Y106200D02*
D03*
Y102657D02*
D03*
X91638Y72701D02*
D03*
Y76245D02*
D03*
X82531Y80728D02*
D03*
Y84272D02*
D03*
X87374Y76245D02*
D03*
Y72701D02*
D03*
D45*
X26404Y84039D02*
D03*
X24004D02*
D03*
D46*
X81447Y93736D02*
D03*
Y97476D02*
D03*
D80*
X64265Y32515D02*
D03*
D81*
X87600Y37415D02*
D03*
X82600Y32415D02*
D03*
X87600D02*
D03*
X82600Y37415D02*
D03*
X87600Y42415D02*
D03*
X82600D02*
D03*
D82*
X20000Y125000D02*
D03*
X125000Y20000D02*
D03*
X20000D02*
D03*
X125000Y125000D02*
D03*
D83*
X85700Y117834D02*
X85728Y117862D01*
X85698Y117832D02*
Y117893D01*
X85532Y117811D02*
Y118008D01*
X85698Y117893D02*
Y119304D01*
X85628Y116003D02*
Y117826D01*
Y116003D02*
X85698D01*
X85667Y119335D02*
X85698Y119304D01*
X23972Y32437D02*
Y32500D01*
X23950Y32415D02*
X23972Y32437D01*
X38126Y81912D02*
X40056D01*
X38126Y79905D02*
Y81912D01*
X40056D02*
X40095Y81874D01*
X38126Y75968D02*
Y79905D01*
X39570Y72070D02*
X40900Y73400D01*
X38126Y72031D02*
X38164Y72070D01*
X39570D01*
X40900Y73400D02*
Y75163D01*
X36158Y74000D02*
X38126D01*
X107182Y76102D02*
X107768Y76688D01*
X102500Y70627D02*
Y73637D01*
Y74378D02*
X104225Y76102D01*
X102500Y73637D02*
Y74378D01*
X94062Y66062D02*
X97414D01*
X97935D01*
X104225Y76102D02*
X107182D01*
X97935Y66062D02*
X102500Y70627D01*
X107768Y76688D02*
Y78541D01*
Y80900D01*
X115978Y83632D02*
X117969D01*
X115499D02*
X115545D01*
X113372Y85759D02*
Y89500D01*
Y85759D02*
X115499Y83632D01*
X117886Y79435D02*
Y79526D01*
X117492Y79919D02*
X117886Y79526D01*
Y79435D02*
X119146D01*
X117492D02*
X117886D01*
X119146D02*
X119222Y79512D01*
X117969Y83632D02*
X118100Y83502D01*
Y94400D02*
Y94410D01*
X117999Y94511D02*
X118100Y94410D01*
X118124Y89628D02*
X118198Y89702D01*
X118100Y89604D02*
Y89653D01*
X105662Y91661D02*
X107823Y89500D01*
X109828D01*
X101500Y91661D02*
X105662D01*
X90948Y112848D02*
X92006Y113907D01*
X85698Y117893D02*
X85728Y117862D01*
X71123Y99178D02*
X72765D01*
X72851Y99092D01*
X68244Y117635D02*
X68262Y117653D01*
X66650Y117635D02*
X68244D01*
X66632Y117618D02*
X66650Y117635D01*
X109907Y106599D02*
X113065D01*
X106666Y103358D02*
X109907Y106599D01*
X106666Y98444D02*
Y103358D01*
X90499Y112391D02*
Y112848D01*
X92006Y113907D02*
Y117811D01*
X91638Y68486D02*
Y72701D01*
Y68486D02*
X94062Y66062D01*
X103319Y85350D02*
X107768Y80900D01*
X101709Y85350D02*
X103319D01*
X101303Y85756D02*
X101709Y85350D01*
X61567Y115102D02*
Y117554D01*
X40095Y81874D02*
X44032D01*
X23972Y39500D02*
X23972Y39500D01*
X24003Y85756D02*
X24004Y85755D01*
Y84040D02*
X24004Y84039D01*
X24004Y84040D02*
Y85755D01*
X31962Y119335D02*
X32087D01*
X31895Y119268D02*
X31962Y119335D01*
X25800Y119268D02*
X25867Y119335D01*
X25993D01*
X68262Y115711D02*
Y117653D01*
X89272Y117811D02*
X90499D01*
X54157Y115102D02*
Y117127D01*
Y115102D02*
X61567D01*
X81100Y117756D02*
X81204Y117653D01*
X81100Y117756D02*
Y119890D01*
X106272Y73542D02*
X106343Y73613D01*
X109126D01*
X109196Y73683D01*
X113065Y106599D02*
X113278Y106811D01*
X111507Y55393D02*
X114067D01*
X111400Y55500D02*
X111507Y55393D01*
X114067D02*
X114237Y55563D01*
X98109Y117811D02*
X98404Y118106D01*
X101062D01*
X44032Y81874D02*
X47969D01*
X108733Y93630D02*
X111015D01*
X81447Y97476D02*
Y97772D01*
X79942Y99276D02*
X81447Y97772D01*
X79840Y99276D02*
X79942D01*
X76902Y87543D02*
Y89650D01*
Y87543D02*
X77000Y87445D01*
X76803Y89748D02*
X76902Y89650D01*
X76803Y91467D02*
X77000Y91664D01*
X76803Y89748D02*
Y91467D01*
X91861Y95198D02*
X95398Y91661D01*
X108667Y28542D02*
Y28609D01*
X98954Y108517D02*
X99107Y108670D01*
X99654D02*
X101448Y110464D01*
X99107Y108670D02*
X99654D01*
X118667Y28542D02*
Y28609D01*
X103667Y28542D02*
Y28567D01*
X103700Y28600D01*
X53874Y66913D02*
Y68094D01*
X54661Y66126D02*
X55843D01*
X53874Y66913D02*
X54661Y66126D01*
X55635Y74000D02*
X55667Y74032D01*
X53005Y72400D02*
X53451D01*
X51906Y73500D02*
X53005Y72400D01*
X55667Y74032D02*
Y74068D01*
X51906Y75006D02*
X52830Y75930D01*
X53874Y72031D02*
Y72031D01*
Y72031D02*
X55843Y70063D01*
X53874Y74000D02*
X55635D01*
X51906Y73500D02*
Y75006D01*
X55900Y62388D02*
Y64100D01*
X55881Y62369D02*
X55900Y62388D01*
X51906Y64157D02*
Y66126D01*
X55881Y62227D02*
Y62369D01*
X57811Y62361D02*
Y64157D01*
X54517Y77975D02*
X55804D01*
X51900Y81880D02*
Y83837D01*
Y81880D02*
X51906Y81874D01*
Y81874D02*
Y81874D01*
X51900Y83837D02*
X51906Y83842D01*
X53874Y78618D02*
Y79905D01*
Y78618D02*
X54517Y77975D01*
X53836Y75930D02*
X53874Y75968D01*
X55804Y77975D02*
X55843Y77937D01*
X53874Y75968D02*
X55843D01*
X52830Y75930D02*
X53836D01*
X55843Y62189D02*
X55881Y62227D01*
X55843Y83842D02*
X57811D01*
X55843Y81874D02*
Y83842D01*
X46000D02*
X47969D01*
X42094Y79905D02*
X42100Y79900D01*
X42063Y79905D02*
X42094D01*
X40095Y77937D02*
X42057Y79900D01*
X40095Y75968D02*
X40900Y75163D01*
X49937Y79905D02*
X51906Y77937D01*
X49937Y79905D02*
X51906Y81874D01*
X45893Y83842D02*
X46000D01*
X38126Y75968D02*
X40095D01*
X36158Y81874D02*
Y85811D01*
X40095Y70063D02*
X42063Y68094D01*
X40095Y70063D02*
X40149D01*
X38126Y68094D02*
X40095Y66126D01*
X44032D01*
X47969D01*
X49899Y64196D02*
X49937Y64157D01*
X59780Y85811D02*
X61748D01*
X49937Y68094D02*
X51906Y70063D01*
X49899Y64196D02*
Y65201D01*
X49012Y66088D02*
X49899Y65201D01*
X48007Y66088D02*
X49012D01*
X47969Y66126D02*
X48007Y66088D01*
X38100Y68100D02*
X38120D01*
X38126Y68094D01*
X95398Y85559D02*
Y91306D01*
X111015Y93630D02*
X111897Y94511D01*
X108667Y93621D02*
X108733Y93555D01*
X105789Y97567D02*
X106666Y98444D01*
X101303Y97567D02*
X105789D01*
X101448Y110464D02*
Y110562D01*
X81204Y117653D02*
X81302Y117554D01*
X118340Y100511D02*
Y103031D01*
X118477Y103168D01*
X95398Y91306D02*
Y91661D01*
Y91306D02*
X95445Y91259D01*
X117511Y106711D02*
X120052D01*
X117411Y106811D02*
X117511Y106711D01*
X87533Y99526D02*
X89492Y97567D01*
X87374Y99526D02*
X87533D01*
X95398Y91661D02*
Y97764D01*
D84*
X85930Y73470D02*
X86409D01*
X87178Y72701D02*
X87374D01*
X85700Y73700D02*
X85930Y73470D01*
X86409D02*
X87178Y72701D01*
X31773Y106232D02*
Y113116D01*
X32087Y113429D01*
X23972Y89222D02*
Y97942D01*
X22262Y99651D02*
Y110238D01*
Y99651D02*
X23972Y97942D01*
X15000Y117500D02*
X22262Y110238D01*
X63028Y29272D02*
X64772D01*
X65000Y29500D01*
X80591Y86212D02*
Y87445D01*
X81946Y84661D02*
X82335Y84272D01*
X80591Y86212D02*
X81946Y84857D01*
X82335Y84272D02*
X82531D01*
X81946Y84661D02*
Y84857D01*
X23972Y89222D02*
X26139Y87055D01*
X26336D01*
X5000Y112500D02*
X5300D01*
X25800Y113236D02*
X25993Y113429D01*
X25800Y106200D02*
Y113236D01*
D85*
X116167Y37042D02*
D03*
X101167D02*
D03*
D86*
X85100Y47415D02*
D03*
X89100Y27415D02*
D03*
X81100D02*
D03*
D87*
X117500Y130000D02*
D03*
X15000Y117500D02*
D03*
X5000Y112500D02*
D03*
X15000Y107500D02*
D03*
X5000Y102500D02*
D03*
X15000Y97500D02*
D03*
X5000Y92500D02*
D03*
X15000Y87500D02*
D03*
X5000Y82500D02*
D03*
X15000Y77500D02*
D03*
X5000Y72500D02*
D03*
X15000Y67500D02*
D03*
X5000Y62500D02*
D03*
X15000Y57500D02*
D03*
X5000Y52500D02*
D03*
X15000Y47500D02*
D03*
X5000Y42500D02*
D03*
X15000Y37500D02*
D03*
X5000Y32500D02*
D03*
X15000Y27500D02*
D03*
X27500Y15000D02*
D03*
X32500Y5000D02*
D03*
X37500Y15000D02*
D03*
X42500Y5000D02*
D03*
X47500Y15000D02*
D03*
X52500Y5000D02*
D03*
X57500Y15000D02*
D03*
X62500Y5000D02*
D03*
X67500Y15000D02*
D03*
X72500Y5000D02*
D03*
X77500Y15000D02*
D03*
X82500Y5000D02*
D03*
X87500Y15000D02*
D03*
X92500Y5000D02*
D03*
X97500Y15000D02*
D03*
X102500Y5000D02*
D03*
X107500Y15000D02*
D03*
X112500Y5000D02*
D03*
X117500Y15000D02*
D03*
X130000Y27500D02*
D03*
X140000Y32500D02*
D03*
X130000Y37500D02*
D03*
X140000Y42500D02*
D03*
X130000Y47500D02*
D03*
X140000Y52500D02*
D03*
X130000Y57500D02*
D03*
X140000Y62500D02*
D03*
X130000Y67500D02*
D03*
X140000Y72500D02*
D03*
X130000Y77500D02*
D03*
X140000Y82500D02*
D03*
X130000Y87500D02*
D03*
X140000Y92500D02*
D03*
X130000Y97500D02*
D03*
X140000Y102500D02*
D03*
X130000Y107500D02*
D03*
X140000Y112500D02*
D03*
X130000Y117500D02*
D03*
X112500Y140000D02*
D03*
X107500Y130000D02*
D03*
X102500Y140000D02*
D03*
X97500Y130000D02*
D03*
X92500Y140000D02*
D03*
X87500Y130000D02*
D03*
X82500Y140000D02*
D03*
X77500Y130000D02*
D03*
X72500Y140000D02*
D03*
X67500Y130000D02*
D03*
X62500Y140000D02*
D03*
X57500Y130000D02*
D03*
X52500Y140000D02*
D03*
X47500Y130000D02*
D03*
X42500Y140000D02*
D03*
X37500Y130000D02*
D03*
X32500Y140000D02*
D03*
X27500Y130000D02*
D03*
D88*
X10000Y135000D02*
D03*
X135000D02*
D03*
Y10000D02*
D03*
X10000D02*
D03*
D89*
X85667Y119635D02*
D03*
X23950Y35563D02*
D03*
Y28875D02*
D03*
X25600Y23300D02*
D03*
X23950Y32415D02*
D03*
X38913Y43437D02*
D03*
X46787Y35563D02*
D03*
X31488Y42016D02*
D03*
X102500Y73637D02*
D03*
X38704Y122599D02*
D03*
X85700Y73700D02*
D03*
X111752Y84302D02*
D03*
X118100Y94400D02*
D03*
X85628Y117826D02*
D03*
X72851Y99092D02*
D03*
X71149Y120268D02*
D03*
X85698Y116003D02*
D03*
X76600Y46730D02*
D03*
X66200Y75846D02*
D03*
X58393Y44030D02*
D03*
X54661Y47374D02*
D03*
X66632Y117618D02*
D03*
X52287Y96423D02*
D03*
X101448Y104460D02*
D03*
X113667Y115711D02*
D03*
X81100Y61443D02*
D03*
X78598D02*
D03*
X90090Y62905D02*
D03*
X82600Y32415D02*
D03*
X87600Y37415D02*
D03*
X82600D02*
D03*
Y42415D02*
D03*
X34447Y95681D02*
D03*
X81900Y68449D02*
D03*
X78675D02*
D03*
X55125Y95260D02*
D03*
X36650Y52937D02*
D03*
X44032Y55600D02*
D03*
X46800Y43400D02*
D03*
X38913Y47374D02*
D03*
X42850D02*
D03*
Y35563D02*
D03*
X65000Y29500D02*
D03*
X72500Y69850D02*
D03*
X80591Y87445D02*
D03*
X104227Y118313D02*
D03*
X61567Y117554D02*
D03*
X101362Y56222D02*
D03*
X97500Y55605D02*
D03*
X92006Y80287D02*
D03*
X94688Y77637D02*
D03*
X98068Y94051D02*
D03*
X34151Y123948D02*
D03*
X32194Y28672D02*
D03*
X31841Y45500D02*
D03*
X54764Y39397D02*
D03*
X45579Y28498D02*
D03*
X64679Y21500D02*
D03*
X31841Y37042D02*
D03*
X23972Y46650D02*
D03*
X23972Y43139D02*
D03*
Y39500D02*
D03*
X23134Y49351D02*
D03*
X24003Y85756D02*
D03*
X31895Y119268D02*
D03*
X25800D02*
D03*
X68262Y115711D02*
D03*
X54157Y117127D02*
D03*
X81100Y119890D02*
D03*
X109196Y73683D02*
D03*
X110380Y76933D02*
D03*
X98166Y88834D02*
D03*
X113278Y106811D02*
D03*
X115100Y63100D02*
D03*
X111400Y55500D02*
D03*
X124600Y45500D02*
D03*
X36650Y108949D02*
D03*
X38426Y119268D02*
D03*
X101062Y118106D02*
D03*
X20428Y30707D02*
D03*
Y37534D02*
D03*
X26336Y90598D02*
D03*
X101710Y76933D02*
D03*
X98631Y79225D02*
D03*
X83634Y88826D02*
D03*
X92851Y89031D02*
D03*
X82531Y74241D02*
D03*
X63593Y84772D02*
D03*
X63437Y99406D02*
D03*
X79840Y99276D02*
D03*
X76803Y89748D02*
D03*
X93048Y93952D02*
D03*
X83600Y93630D02*
D03*
X71000Y77637D02*
D03*
X108667Y28609D02*
D03*
X98954Y108517D02*
D03*
X123200Y34300D02*
D03*
X108667Y45542D02*
D03*
X94688Y37927D02*
D03*
X87600Y32415D02*
D03*
X92500Y48649D02*
D03*
X98941Y28609D02*
D03*
X118667D02*
D03*
X103700Y28600D02*
D03*
X66200Y66068D02*
D03*
X69351Y64200D02*
D03*
X106272Y55950D02*
D03*
X67504Y50572D02*
D03*
X64862Y54300D02*
D03*
X74900Y20800D02*
D03*
X61000Y35500D02*
D03*
X28400Y24100D02*
D03*
X50724Y43400D02*
D03*
X40100Y51400D02*
D03*
X50724Y47374D02*
D03*
X42800Y51400D02*
D03*
X30118Y49799D02*
D03*
X108733Y93555D02*
D03*
X108831Y100314D02*
D03*
X118477Y103168D02*
D03*
X120052Y106711D02*
D03*
X95445Y91259D02*
D03*
X87374Y99526D02*
D03*
X110308Y69605D02*
D03*
M02*
