G04*
G04 #@! TF.GenerationSoftware,Altium Limited,Altium Designer,23.0.1 (38)*
G04*
G04 Layer_Color=20142*
%FSLAX25Y25*%
%MOIN*%
G70*
G04*
G04 #@! TF.SameCoordinates,5B5B4AAE-9A96-4119-B86E-250A3D0BA1A3*
G04*
G04*
G04 #@! TF.FilePolarity,Negative*
G04*
G01*
G75*
%ADD22C,0.01200*%
%ADD36R,0.01378X0.01772*%
%ADD47R,0.06115X0.03556*%
%ADD48R,0.03162X0.03556*%
%ADD49R,0.05131X0.03950*%
%ADD50R,0.03359X0.02769*%
%ADD51R,0.07300X0.10249*%
%ADD52R,0.03162X0.04147*%
%ADD53R,0.02959X0.02959*%
%ADD54R,0.02959X0.02959*%
%ADD55R,0.07880X0.07880*%
%ADD56R,0.03156X0.01187*%
%ADD57R,0.03156X0.01975*%
%ADD58R,0.01975X0.03156*%
%ADD59R,0.01187X0.03156*%
%ADD60R,0.04540X0.04343*%
%ADD61R,0.11430X0.03950*%
%ADD62R,0.04343X0.04540*%
%ADD63R,0.02178X0.02572*%
%ADD64C,0.02800*%
%ADD65R,0.03700X0.11800*%
G04:AMPARAMS|DCode=66|XSize=37mil|YSize=118mil|CornerRadius=11.25mil|HoleSize=0mil|Usage=FLASHONLY|Rotation=0.000|XOffset=0mil|YOffset=0mil|HoleType=Round|Shape=RoundedRectangle|*
%AMROUNDEDRECTD66*
21,1,0.03700,0.09550,0,0,0.0*
21,1,0.01450,0.11800,0,0,0.0*
1,1,0.02250,0.00725,-0.04775*
1,1,0.02250,-0.00725,-0.04775*
1,1,0.02250,-0.00725,0.04775*
1,1,0.02250,0.00725,0.04775*
%
%ADD66ROUNDEDRECTD66*%
%ADD67R,0.04147X0.03950*%
%ADD68R,0.03556X0.03162*%
%ADD69R,0.07887X0.04737*%
%ADD70C,0.02257*%
%ADD71R,0.04147X0.03162*%
%ADD72C,0.03900*%
%ADD73C,0.07874*%
%ADD74R,0.02572X0.02178*%
%ADD75R,0.02769X0.03359*%
%ADD76C,0.04500*%
%ADD77C,0.04200*%
%ADD78C,0.05800*%
%ADD79C,0.17800*%
G36*
X99532Y96189D02*
X98350D01*
Y99338D01*
X99532D01*
Y96189D01*
D02*
G37*
G36*
X97957D02*
X96776D01*
Y99338D01*
X97957D01*
Y96189D01*
D02*
G37*
G36*
X96382D02*
X94413D01*
Y99338D01*
X96382D01*
Y96189D01*
D02*
G37*
G36*
X94020D02*
X92839D01*
Y99338D01*
X94020D01*
Y96189D01*
D02*
G37*
G36*
X92445D02*
X91264D01*
Y99338D01*
X92445D01*
Y96189D01*
D02*
G37*
G36*
X103075Y94614D02*
X99925D01*
Y95795D01*
X103075D01*
Y94614D01*
D02*
G37*
G36*
X90870D02*
X87721D01*
Y95795D01*
X90870D01*
Y94614D01*
D02*
G37*
G36*
X103075Y93039D02*
X99925D01*
Y94220D01*
X103075D01*
Y93039D01*
D02*
G37*
G36*
X90870D02*
X87721D01*
Y94220D01*
X90870D01*
Y93039D01*
D02*
G37*
G36*
X103075Y90677D02*
X99925D01*
Y92646D01*
X103075D01*
Y90677D01*
D02*
G37*
G36*
X90870D02*
X87721D01*
Y92646D01*
X90870D01*
Y90677D01*
D02*
G37*
G36*
X103075Y89102D02*
X99925D01*
Y90283D01*
X103075D01*
Y89102D01*
D02*
G37*
G36*
X90870D02*
X87721D01*
Y90283D01*
X90870D01*
Y89102D01*
D02*
G37*
G36*
X99335Y87724D02*
X91461D01*
Y95598D01*
X99335D01*
Y87724D01*
D02*
G37*
G36*
X103075Y87527D02*
X99925D01*
Y88709D01*
X103075D01*
Y87527D01*
D02*
G37*
G36*
X90870D02*
X87721D01*
Y88709D01*
X90870D01*
Y87527D01*
D02*
G37*
G36*
X99532Y83984D02*
X98350D01*
Y87134D01*
X99532D01*
Y83984D01*
D02*
G37*
G36*
X97957D02*
X96776D01*
Y87134D01*
X97957D01*
Y83984D01*
D02*
G37*
G36*
X96382D02*
X94413D01*
Y87134D01*
X96382D01*
Y83984D01*
D02*
G37*
G36*
X94020D02*
X92839D01*
Y87134D01*
X94020D01*
Y83984D01*
D02*
G37*
G36*
X92445D02*
X91264D01*
Y87134D01*
X92445D01*
Y83984D01*
D02*
G37*
D22*
X32221Y89748D02*
D03*
X34189D02*
D03*
X38126D02*
D03*
X42063D02*
D03*
X46000D02*
D03*
X49937D02*
D03*
X53874D02*
D03*
X57811D02*
D03*
X61748D02*
D03*
X30252Y87779D02*
D03*
X32221D02*
D03*
X34189D02*
D03*
X38126D02*
D03*
X40095D02*
D03*
X42063D02*
D03*
X46000D02*
D03*
X47969D02*
D03*
X49937D02*
D03*
X53874D02*
D03*
X55843D02*
D03*
X57811D02*
D03*
X59780D02*
D03*
X61748D02*
D03*
X30252Y85811D02*
D03*
X32221D02*
D03*
X34189D02*
D03*
X36158D02*
D03*
X38126D02*
D03*
X42063D02*
D03*
X46000D02*
D03*
X49937D02*
D03*
X53874D02*
D03*
X57811D02*
D03*
X59780D02*
D03*
X61748D02*
D03*
X32221Y83842D02*
D03*
X38126D02*
D03*
X40095D02*
D03*
X42063D02*
D03*
X44032D02*
D03*
X46000D02*
D03*
X49937D02*
D03*
X51906D02*
D03*
X53874D02*
D03*
X57811D02*
D03*
X30252Y81874D02*
D03*
X32221D02*
D03*
X34189D02*
D03*
X36158D02*
D03*
X40095D02*
D03*
X44032D02*
D03*
X47969D02*
D03*
X51906D02*
D03*
X55843D02*
D03*
X57811D02*
D03*
X59780D02*
D03*
X61748D02*
D03*
X36158Y79905D02*
D03*
X38126D02*
D03*
X42063D02*
D03*
X49937D02*
D03*
X53874D02*
D03*
X55843D02*
D03*
X59780D02*
D03*
X30252Y77937D02*
D03*
X32221D02*
D03*
X34189D02*
D03*
X36158D02*
D03*
X40095D02*
D03*
X51906D02*
D03*
X55843D02*
D03*
X57811D02*
D03*
X59780D02*
D03*
X61748D02*
D03*
X32221Y75968D02*
D03*
X38126D02*
D03*
X44032D02*
D03*
X46000D02*
D03*
X47969D02*
D03*
X53874D02*
D03*
X55843D02*
D03*
X32221Y74000D02*
D03*
X34189D02*
D03*
X36158D02*
D03*
X44032D02*
D03*
X47969D02*
D03*
X55843D02*
D03*
X57811D02*
D03*
X59780D02*
D03*
X61748D02*
D03*
X36158Y72031D02*
D03*
X38126D02*
D03*
X44032D02*
D03*
X46000D02*
D03*
X47969D02*
D03*
X53874D02*
D03*
X59780D02*
D03*
X30252Y70063D02*
D03*
X32221D02*
D03*
X34189D02*
D03*
X36158D02*
D03*
X40095D02*
D03*
X51906D02*
D03*
X55843D02*
D03*
X57811D02*
D03*
X59780D02*
D03*
X61748D02*
D03*
X32221Y68094D02*
D03*
X36158D02*
D03*
X38126D02*
D03*
X42063D02*
D03*
X49937D02*
D03*
X53874D02*
D03*
X55843D02*
D03*
X30252Y66126D02*
D03*
X32221D02*
D03*
X34189D02*
D03*
X36158D02*
D03*
X40095D02*
D03*
X44032D02*
D03*
X47969D02*
D03*
X51906D02*
D03*
X55843D02*
D03*
X57811D02*
D03*
X59780D02*
D03*
X61748D02*
D03*
X34189Y64157D02*
D03*
X38126D02*
D03*
X40095D02*
D03*
X42063D02*
D03*
X46000D02*
D03*
X47969D02*
D03*
X49937D02*
D03*
X51906D02*
D03*
X53874D02*
D03*
X59780D02*
D03*
X30252Y62189D02*
D03*
X32221D02*
D03*
X34189D02*
D03*
X38126D02*
D03*
X42063D02*
D03*
X46000D02*
D03*
X49937D02*
D03*
X53874D02*
D03*
X55843D02*
D03*
X57811D02*
D03*
X59780D02*
D03*
X61748D02*
D03*
X30252Y60220D02*
D03*
X32221D02*
D03*
X34189D02*
D03*
X36158D02*
D03*
X38126D02*
D03*
X42063D02*
D03*
X44032D02*
D03*
X46000D02*
D03*
X49937D02*
D03*
X51906D02*
D03*
X53874D02*
D03*
X57811D02*
D03*
X59780D02*
D03*
X61748D02*
D03*
X30252Y58252D02*
D03*
X32221D02*
D03*
X34189D02*
D03*
X38126D02*
D03*
X42063D02*
D03*
X46000D02*
D03*
X49937D02*
D03*
X53874D02*
D03*
X57811D02*
D03*
X59780D02*
D03*
X61748D02*
D03*
X30252Y74000D02*
D03*
Y89748D02*
D03*
X59780D02*
D03*
D36*
X26404Y84039D02*
D03*
X24004D02*
D03*
D47*
X119412Y112321D02*
D03*
X109963D02*
D03*
X110176Y118800D02*
D03*
X119624D02*
D03*
D48*
X113450Y63044D02*
D03*
X120937D02*
D03*
Y55563D02*
D03*
D49*
X114237D02*
D03*
D50*
X50417Y115102D02*
D03*
X54157D02*
D03*
X65307D02*
D03*
X61567D02*
D03*
X117492Y79435D02*
D03*
X113752D02*
D03*
X117018Y106811D02*
D03*
X113278D02*
D03*
D51*
X50447Y107254D02*
D03*
X65408D02*
D03*
D52*
X32500Y32515D02*
D03*
Y37042D02*
D03*
D53*
X101303Y85756D02*
D03*
X89492D02*
D03*
D54*
Y97567D02*
D03*
X101303D02*
D03*
D55*
X95398Y91661D02*
D03*
D56*
X101500Y89693D02*
D03*
Y88118D02*
D03*
X89295Y89693D02*
D03*
X101500Y93630D02*
D03*
Y95205D02*
D03*
X89295D02*
D03*
Y93630D02*
D03*
Y88118D02*
D03*
D57*
X101500Y91661D02*
D03*
X89295D02*
D03*
D58*
X95398Y85559D02*
D03*
Y97764D02*
D03*
D59*
X97366Y85559D02*
D03*
X98941Y97764D02*
D03*
X97366D02*
D03*
X93429D02*
D03*
X91854D02*
D03*
X98941Y85559D02*
D03*
X93429D02*
D03*
X91854D02*
D03*
D60*
X118340Y100511D02*
D03*
X112237D02*
D03*
X117999Y94511D02*
D03*
X111897D02*
D03*
X98109Y117811D02*
D03*
X92006D02*
D03*
X81204Y117653D02*
D03*
X75101D02*
D03*
D61*
X77420Y103887D02*
D03*
Y112548D02*
D03*
X90948Y103887D02*
D03*
Y112548D02*
D03*
D62*
X118100Y89604D02*
D03*
Y83502D02*
D03*
X61354Y37927D02*
D03*
Y44030D02*
D03*
X101448Y104460D02*
D03*
Y110562D02*
D03*
D63*
X104225Y78541D02*
D03*
X107768D02*
D03*
X109828Y89500D02*
D03*
X113372D02*
D03*
X58772Y21500D02*
D03*
X55228D02*
D03*
X23972Y32500D02*
D03*
X20428D02*
D03*
X23972Y39500D02*
D03*
X20428D02*
D03*
X23972Y46650D02*
D03*
X20428D02*
D03*
X117938Y69605D02*
D03*
X114395D02*
D03*
X72428Y64200D02*
D03*
X75972D02*
D03*
X20428Y35648D02*
D03*
X23972D02*
D03*
X67580Y99178D02*
D03*
X113260Y76101D02*
D03*
X116804D02*
D03*
X89272Y117811D02*
D03*
X85728D02*
D03*
X71805Y117653D02*
D03*
X68262D02*
D03*
X20428Y43139D02*
D03*
X23972D02*
D03*
X71123Y99178D02*
D03*
X20428Y29000D02*
D03*
X23972D02*
D03*
D64*
X64265Y32515D02*
D03*
D65*
X118667Y45542D02*
D03*
X113667D02*
D03*
X108667D02*
D03*
X103667D02*
D03*
X98667D02*
D03*
X103667Y28542D02*
D03*
X108667D02*
D03*
X113667D02*
D03*
X118667D02*
D03*
D66*
X98667D02*
D03*
D67*
X25993Y113429D02*
D03*
Y119335D02*
D03*
X32087Y113429D02*
D03*
Y119335D02*
D03*
D68*
X77000Y95601D02*
D03*
Y91664D02*
D03*
Y87445D02*
D03*
Y83508D02*
D03*
D69*
X70034Y94614D02*
D03*
Y84772D02*
D03*
D70*
X38913Y47374D02*
D03*
X42850D02*
D03*
X46787D02*
D03*
X50724D02*
D03*
X54661D02*
D03*
X38913Y43437D02*
D03*
X42850D02*
D03*
X46787D02*
D03*
X50724D02*
D03*
X54661D02*
D03*
X38913Y39500D02*
D03*
X42850D02*
D03*
X46787D02*
D03*
X50724D02*
D03*
X54661D02*
D03*
X38913Y35563D02*
D03*
X42850D02*
D03*
X46787D02*
D03*
X50724D02*
D03*
X54661D02*
D03*
X38913Y31626D02*
D03*
X42850D02*
D03*
X46787D02*
D03*
X50724D02*
D03*
D71*
X97414Y66062D02*
D03*
Y73542D02*
D03*
X106272D02*
D03*
Y69802D02*
D03*
Y66062D02*
D03*
D72*
X87600Y37415D02*
D03*
X82600Y32415D02*
D03*
X87600D02*
D03*
X82600Y37415D02*
D03*
X87600Y42415D02*
D03*
X82600D02*
D03*
D73*
X20000Y125000D02*
D03*
X125000Y20000D02*
D03*
X20000D02*
D03*
X125000Y125000D02*
D03*
D74*
X63028Y25728D02*
D03*
Y29272D02*
D03*
X26336Y90598D02*
D03*
Y87055D02*
D03*
X31773Y106232D02*
D03*
Y102688D02*
D03*
X25800Y106200D02*
D03*
Y102657D02*
D03*
X91638Y72701D02*
D03*
Y76245D02*
D03*
X82531Y80728D02*
D03*
Y84272D02*
D03*
X87374Y76245D02*
D03*
Y72701D02*
D03*
D75*
X81447Y93736D02*
D03*
Y97476D02*
D03*
D76*
X116167Y37042D02*
D03*
X101167D02*
D03*
D77*
X85100Y47415D02*
D03*
X89100Y27415D02*
D03*
X81100D02*
D03*
D78*
X117500Y130000D02*
D03*
X15000Y117500D02*
D03*
X5000Y112500D02*
D03*
X15000Y107500D02*
D03*
X5000Y102500D02*
D03*
X15000Y97500D02*
D03*
X5000Y92500D02*
D03*
X15000Y87500D02*
D03*
X5000Y82500D02*
D03*
X15000Y77500D02*
D03*
X5000Y72500D02*
D03*
X15000Y67500D02*
D03*
X5000Y62500D02*
D03*
X15000Y57500D02*
D03*
X5000Y52500D02*
D03*
X15000Y47500D02*
D03*
X5000Y42500D02*
D03*
X15000Y37500D02*
D03*
X5000Y32500D02*
D03*
X15000Y27500D02*
D03*
X27500Y15000D02*
D03*
X32500Y5000D02*
D03*
X37500Y15000D02*
D03*
X42500Y5000D02*
D03*
X47500Y15000D02*
D03*
X52500Y5000D02*
D03*
X57500Y15000D02*
D03*
X62500Y5000D02*
D03*
X67500Y15000D02*
D03*
X72500Y5000D02*
D03*
X77500Y15000D02*
D03*
X82500Y5000D02*
D03*
X87500Y15000D02*
D03*
X92500Y5000D02*
D03*
X97500Y15000D02*
D03*
X102500Y5000D02*
D03*
X107500Y15000D02*
D03*
X112500Y5000D02*
D03*
X117500Y15000D02*
D03*
X130000Y27500D02*
D03*
X140000Y32500D02*
D03*
X130000Y37500D02*
D03*
X140000Y42500D02*
D03*
X130000Y47500D02*
D03*
X140000Y52500D02*
D03*
X130000Y57500D02*
D03*
X140000Y62500D02*
D03*
X130000Y67500D02*
D03*
X140000Y72500D02*
D03*
X130000Y77500D02*
D03*
X140000Y82500D02*
D03*
X130000Y87500D02*
D03*
X140000Y92500D02*
D03*
X130000Y97500D02*
D03*
X140000Y102500D02*
D03*
X130000Y107500D02*
D03*
X140000Y112500D02*
D03*
X130000Y117500D02*
D03*
X112500Y140000D02*
D03*
X107500Y130000D02*
D03*
X102500Y140000D02*
D03*
X97500Y130000D02*
D03*
X92500Y140000D02*
D03*
X87500Y130000D02*
D03*
X82500Y140000D02*
D03*
X77500Y130000D02*
D03*
X72500Y140000D02*
D03*
X67500Y130000D02*
D03*
X62500Y140000D02*
D03*
X57500Y130000D02*
D03*
X52500Y140000D02*
D03*
X47500Y130000D02*
D03*
X42500Y140000D02*
D03*
X37500Y130000D02*
D03*
X32500Y140000D02*
D03*
X27500Y130000D02*
D03*
D79*
X10000Y135000D02*
D03*
X135000D02*
D03*
Y10000D02*
D03*
X10000D02*
D03*
M02*
